<?xml version="1.0" encoding="UTF-8"?>
<!--Generator: Apple Native CoreSVG 175.5-->
<!DOCTYPE svg
PUBLIC "-//W3C//DTD SVG 1.1//EN"
       "http://www.w3.org/Graphics/SVG/1.1/DTD/svg11.dtd">
<svg version="1.1" xmlns="http://www.w3.org/2000/svg" xmlns:xlink="http://www.w3.org/1999/xlink" width="3300" height="2200">
 <!--glyph: "uni100202.medium", point size: 100.0, font version: "18.0d12e2", template writer version: "101"-->
 <g id="Notes">
  <rect height="2200" id="artboard" style="fill:white;opacity:1" width="3300" x="0" y="0"/>
  <line style="fill:none;stroke:black;opacity:1;stroke-width:0.5;" x1="263" x2="3036" y1="292" y2="292"/>
  <text style="stroke:none;fill:black;font-family:sans-serif;font-size:13;font-weight:bold;" transform="matrix(1 0 0 1 263 322)">Weight/Scale Variations</text>
  <text style="stroke:none;fill:black;font-family:sans-serif;font-size:13;text-anchor:middle;" transform="matrix(1 0 0 1 559.711 322)">Ultralight</text>
  <text style="stroke:none;fill:black;font-family:sans-serif;font-size:13;text-anchor:middle;" transform="matrix(1 0 0 1 856.422 322)">Thin</text>
  <text style="stroke:none;fill:black;font-family:sans-serif;font-size:13;text-anchor:middle;" transform="matrix(1 0 0 1 1153.13 322)">Light</text>
  <text style="stroke:none;fill:black;font-family:sans-serif;font-size:13;text-anchor:middle;" transform="matrix(1 0 0 1 1449.84 322)">Regular</text>
  <text style="stroke:none;fill:black;font-family:sans-serif;font-size:13;text-anchor:middle;" transform="matrix(1 0 0 1 1746.56 322)">Medium</text>
  <text style="stroke:none;fill:black;font-family:sans-serif;font-size:13;text-anchor:middle;" transform="matrix(1 0 0 1 2043.27 322)">Semibold</text>
  <text style="stroke:none;fill:black;font-family:sans-serif;font-size:13;text-anchor:middle;" transform="matrix(1 0 0 1 2339.98 322)">Bold</text>
  <text style="stroke:none;fill:black;font-family:sans-serif;font-size:13;text-anchor:middle;" transform="matrix(1 0 0 1 2636.69 322)">Heavy</text>
  <text style="stroke:none;fill:black;font-family:sans-serif;font-size:13;text-anchor:middle;" transform="matrix(1 0 0 1 2933.4 322)">Black</text>
  <line style="fill:none;stroke:black;opacity:1;stroke-width:0.5;" x1="263" x2="3036" y1="1903" y2="1903"/>
  <g transform="matrix(1 0 0 1 263 1933)">
   <path d="M9.24805 0.830078C13.5547 0.830078 17.1387-2.74414 17.1387-7.05078C17.1387-11.3574 13.5449-14.9316 9.23828-14.9316C4.94141-14.9316 1.36719-11.3574 1.36719-7.05078C1.36719-2.74414 4.95117 0.830078 9.24805 0.830078ZM9.24805-0.654297C5.70312-0.654297 2.87109-3.49609 2.87109-7.05078C2.87109-10.6055 5.69336-13.4473 9.23828-13.4473C12.793-13.4473 15.6445-10.6055 15.6445-7.05078C15.6445-3.49609 12.8027-0.654297 9.24805-0.654297ZM5.6543-7.05078C5.6543-6.62109 5.95703-6.32812 6.40625-6.32812L8.50586-6.32812L8.50586-4.20898C8.50586-3.76953 8.79883-3.4668 9.22852-3.4668C9.67773-3.4668 9.9707-3.76953 9.9707-4.20898L9.9707-6.32812L12.0898-6.32812C12.5293-6.32812 12.832-6.62109 12.832-7.05078C12.832-7.49023 12.5293-7.79297 12.0898-7.79297L9.9707-7.79297L9.9707-9.90234C9.9707-10.3516 9.67773-10.6543 9.22852-10.6543C8.79883-10.6543 8.50586-10.3516 8.50586-9.90234L8.50586-7.79297L6.40625-7.79297C5.95703-7.79297 5.6543-7.49023 5.6543-7.05078Z"/>
  </g>
  <g transform="matrix(1 0 0 1 281.867 1933)">
   <path d="M11.709 2.91016C17.1582 2.91016 21.6699-1.61133 21.6699-7.05078C21.6699-12.5 17.1484-17.0117 11.6992-17.0117C6.25977-17.0117 1.74805-12.5 1.74805-7.05078C1.74805-1.61133 6.26953 2.91016 11.709 2.91016ZM11.709 1.25C7.09961 1.25 3.41797-2.44141 3.41797-7.05078C3.41797-11.6602 7.08984-15.3516 11.6992-15.3516C16.3086-15.3516 20.0098-11.6602 20.0098-7.05078C20.0098-2.44141 16.3184 1.25 11.709 1.25ZM7.17773-7.05078C7.17773-6.57227 7.50977-6.25 8.00781-6.25L10.8789-6.25L10.8789-3.36914C10.8789-2.88086 11.2109-2.53906 11.6895-2.53906C12.1777-2.53906 12.5195-2.87109 12.5195-3.36914L12.5195-6.25L15.4004-6.25C15.8887-6.25 16.2305-6.57227 16.2305-7.05078C16.2305-7.53906 15.8887-7.88086 15.4004-7.88086L12.5195-7.88086L12.5195-10.752C12.5195-11.25 12.1777-11.5918 11.6895-11.5918C11.2109-11.5918 10.8789-11.25 10.8789-10.752L10.8789-7.88086L8.00781-7.88086C7.50977-7.88086 7.17773-7.53906 7.17773-7.05078Z"/>
  </g>
  <g transform="matrix(1 0 0 1 305.646 1933)">
   <path d="M14.9707 5.66406C21.9336 5.66406 27.6953-0.0976562 27.6953-7.05078C27.6953-14.0137 21.9238-19.7754 14.9609-19.7754C8.00781-19.7754 2.25586-14.0137 2.25586-7.05078C2.25586-0.0976562 8.01758 5.66406 14.9707 5.66406ZM14.9707 3.84766C8.93555 3.84766 4.08203-1.01562 4.08203-7.05078C4.08203-13.0957 8.92578-17.9492 14.9609-17.9492C21.0059-17.9492 25.8691-13.0957 25.8691-7.05078C25.8691-1.01562 21.0156 3.84766 14.9707 3.84766ZM9.19922-7.05078C9.19922-6.5332 9.57031-6.17188 10.1172-6.17188L14.0625-6.17188L14.0625-2.2168C14.0625-1.67969 14.4336-1.29883 14.9512-1.29883C15.4883-1.29883 15.8594-1.66992 15.8594-2.2168L15.8594-6.17188L19.8145-6.17188C20.3516-6.17188 20.7324-6.5332 20.7324-7.05078C20.7324-7.59766 20.3613-7.96875 19.8145-7.96875L15.8594-7.96875L15.8594-11.9141C15.8594-12.4609 15.4883-12.8418 14.9512-12.8418C14.4336-12.8418 14.0625-12.4609 14.0625-11.9141L14.0625-7.96875L10.1172-7.96875C9.57031-7.96875 9.19922-7.59766 9.19922-7.05078Z"/>
  </g>
  <text style="stroke:none;fill:black;font-family:sans-serif;font-size:13;font-weight:bold;" transform="matrix(1 0 0 1 263 1953)">Design Variations</text>
  <text style="stroke:none;fill:black;font-family:sans-serif;font-size:13;" transform="matrix(1 0 0 1 263 1971)">Symbols are supported in up to nine weights and three scales.</text>
  <text style="stroke:none;fill:black;font-family:sans-serif;font-size:13;" transform="matrix(1 0 0 1 263 1989)">For optimal layout with text and other symbols, vertically align</text>
  <text style="stroke:none;fill:black;font-family:sans-serif;font-size:13;" transform="matrix(1 0 0 1 263 2007)">symbols with the adjacent text.</text>
  <line style="fill:none;stroke:#00AEEF;stroke-width:0.5;opacity:1.0;" x1="776" x2="776" y1="1919" y2="1933"/>
  <g transform="matrix(1 0 0 1 776 1933)">
   <path d="M3.31055 0.15625C3.82812 0.15625 4.08203-0.0390625 4.26758-0.585938L5.52734-4.0332L11.2891-4.0332L12.5488-0.585938C12.7344-0.0390625 12.9883 0.15625 13.4961 0.15625C14.0137 0.15625 14.3457-0.15625 14.3457-0.644531C14.3457-0.810547 14.3164-0.966797 14.2383-1.17188L9.6582-13.3691C9.43359-13.9648 9.0332-14.2676 8.4082-14.2676C7.80273-14.2676 7.39258-13.9746 7.17773-13.3789L2.59766-1.16211C2.51953-0.957031 2.49023-0.800781 2.49023-0.634766C2.49023-0.146484 2.80273 0.15625 3.31055 0.15625ZM6.00586-5.51758L8.37891-12.0898L8.42773-12.0898L10.8008-5.51758Z"/>
  </g>
  <line style="fill:none;stroke:#00AEEF;stroke-width:0.5;opacity:1.0;" x1="793.197" x2="793.197" y1="1919" y2="1933"/>
  <text style="stroke:none;fill:black;font-family:sans-serif;font-size:13;font-weight:bold;" transform="matrix(1 0 0 1 776 1953)">Margins</text>
  <text style="stroke:none;fill:black;font-family:sans-serif;font-size:13;" transform="matrix(1 0 0 1 776 1971)">Leading and trailing margins on the left and right side of each symbol</text>
  <text style="stroke:none;fill:black;font-family:sans-serif;font-size:13;" transform="matrix(1 0 0 1 776 1989)">can be adjusted by modifying the x-location of the margin guidelines.</text>
  <text style="stroke:none;fill:black;font-family:sans-serif;font-size:13;" transform="matrix(1 0 0 1 776 2007)">Modifications are automatically applied proportionally to all</text>
  <text style="stroke:none;fill:black;font-family:sans-serif;font-size:13;" transform="matrix(1 0 0 1 776 2025)">scales and weights.</text>
  <g transform="matrix(1 0 0 1 1289 1933)">
   <path d="M2.8418 1.86523L4.54102 3.57422C5.40039 4.44336 6.38672 4.38477 7.31445 3.35938L18.0078-8.42773L17.041-9.4043L6.42578 2.27539C6.07422 2.67578 5.74219 2.77344 5.27344 2.30469L4.10156 1.14258C3.63281 0.683594 3.74023 0.341797 4.14062-0.0195312L15.6152-10.8203L14.6387-11.7871L3.04688-0.898438C2.06055 0.0195312 1.98242 0.996094 2.8418 1.86523ZM9.25781-16.3281C8.83789-15.918 8.80859-15.3418 9.04297-14.9512C9.27734-14.5898 9.73633-14.3555 10.3809-14.5215C11.8457-14.8633 13.3691-14.9219 14.7949-13.9844L14.209-12.5293C13.8672-11.6992 14.043-11.1133 14.5801-10.5664L16.875-8.25195C17.3633-7.76367 17.7734-7.74414 18.3398-7.8418L19.4043-8.03711L20.0684-7.36328L20.0293-6.80664C19.9902-6.30859 20.1172-5.92773 20.6055-5.44922L21.3672-4.70703C21.8457-4.22852 22.4609-4.19922 22.9297-4.66797L25.8398-7.58789C26.3086-8.05664 26.2891-8.65234 25.8105-9.13086L25.0391-9.89258C24.5605-10.3711 24.1895-10.5273 23.7109-10.4883L23.1348-10.4395L22.4902-11.0742L22.7344-12.1973C22.8613-12.7637 22.7051-13.2031 22.1191-13.7891L19.9219-15.9766C16.582-19.2969 12.1484-19.2188 9.25781-16.3281ZM10.752-15.957C13.1836-17.7344 16.4746-17.4316 18.7012-15.2051L21.1328-12.793C21.3672-12.5586 21.4062-12.373 21.3379-12.0312L21.0156-10.5469L22.5195-9.0625L23.5059-9.12109C23.7598-9.13086 23.8379-9.11133 24.0332-8.91602L24.6094-8.33984L22.168-5.89844L21.5918-6.47461C21.3965-6.66992 21.3672-6.74805 21.377-7.01172L21.4453-7.98828L19.9512-9.47266L18.4277-9.21875C18.1055-9.15039 17.959-9.17969 17.7148-9.41406L15.7129-11.416C15.459-11.6504 15.4297-11.8164 15.5859-12.1875L16.4648-14.2773C14.9023-15.7324 12.8711-16.3574 10.8398-15.7617C10.6836-15.7227 10.625-15.8496 10.752-15.957Z"/>
  </g>
  <text style="stroke:none;fill:black;font-family:sans-serif;font-size:13;font-weight:bold;" transform="matrix(1 0 0 1 1289 1953)">Exporting</text>
  <text style="stroke:none;fill:black;font-family:sans-serif;font-size:13;" transform="matrix(1 0 0 1 1289 1971)">Symbols should be outlined when exporting to ensure the</text>
  <text style="stroke:none;fill:black;font-family:sans-serif;font-size:13;" transform="matrix(1 0 0 1 1289 1989)">design is preserved when submitting to Xcode.</text>
  <text id="template-version" style="stroke:none;fill:black;font-family:sans-serif;font-size:13;text-anchor:end;" transform="matrix(1 0 0 1 3036 1933)">Template v.4.0</text>
  <text style="stroke:none;fill:black;font-family:sans-serif;font-size:13;text-anchor:end;" transform="matrix(1 0 0 1 3036 1951)">Requires Xcode 14 or greater</text>
  <text id="descriptive-name" style="stroke:none;fill:black;font-family:sans-serif;font-size:13;text-anchor:end;" transform="matrix(1 0 0 1 3036 1969)">Generated from square.and.arrow.up</text>
  <text style="stroke:none;fill:black;font-family:sans-serif;font-size:13;text-anchor:end;" transform="matrix(1 0 0 1 3036 1987)">Typeset at 100 points</text>
  <text style="stroke:none;fill:black;font-family:sans-serif;font-size:13;" transform="matrix(1 0 0 1 263 726)">Small</text>
  <text style="stroke:none;fill:black;font-family:sans-serif;font-size:13;" transform="matrix(1 0 0 1 263 1156)">Medium</text>
  <text style="stroke:none;fill:black;font-family:sans-serif;font-size:13;" transform="matrix(1 0 0 1 263 1586)">Large</text>
 </g>
 <g id="Guides">
  <g id="H-reference" style="fill:#27AAE1;stroke:none;" transform="matrix(1 0 0 1 339 696)">
   <path d="M0.993654 0L3.63775 0L29.3281-67.1323L30.0303-67.1323L30.0303-70.459L28.1226-70.459ZM11.6885-24.4799L46.9815-24.4799L46.2315-26.7285L12.4385-26.7285ZM55.1196 0L57.7637 0L30.6382-70.459L29.4326-70.459L29.4326-67.1323Z"/>
  </g>
  <line id="Baseline-S" style="fill:none;stroke:#27AAE1;opacity:1;stroke-width:0.5;" x1="263" x2="3036" y1="696" y2="696"/>
  <line id="Capline-S" style="fill:none;stroke:#27AAE1;opacity:1;stroke-width:0.5;" x1="263" x2="3036" y1="625.541" y2="625.541"/>
  <g id="H-reference" style="fill:#27AAE1;stroke:none;" transform="matrix(1 0 0 1 339 1126)">
   <path d="M0.993654 0L3.63775 0L29.3281-67.1323L30.0303-67.1323L30.0303-70.459L28.1226-70.459ZM11.6885-24.4799L46.9815-24.4799L46.2315-26.7285L12.4385-26.7285ZM55.1196 0L57.7637 0L30.6382-70.459L29.4326-70.459L29.4326-67.1323Z"/>
  </g>
  <line id="Baseline-M" style="fill:none;stroke:#27AAE1;opacity:1;stroke-width:0.5;" x1="263" x2="3036" y1="1126" y2="1126"/>
  <line id="Capline-M" style="fill:none;stroke:#27AAE1;opacity:1;stroke-width:0.5;" x1="263" x2="3036" y1="1055.54" y2="1055.54"/>
  <g id="H-reference" style="fill:#27AAE1;stroke:none;" transform="matrix(1 0 0 1 339 1556)">
   <path d="M0.993654 0L3.63775 0L29.3281-67.1323L30.0303-67.1323L30.0303-70.459L28.1226-70.459ZM11.6885-24.4799L46.9815-24.4799L46.2315-26.7285L12.4385-26.7285ZM55.1196 0L57.7637 0L30.6382-70.459L29.4326-70.459L29.4326-67.1323Z"/>
  </g>
  <line id="Baseline-L" style="fill:none;stroke:#27AAE1;opacity:1;stroke-width:0.5;" x1="263" x2="3036" y1="1556" y2="1556"/>
  <line id="Capline-L" style="fill:none;stroke:#27AAE1;opacity:1;stroke-width:0.5;" x1="263" x2="3036" y1="1485.54" y2="1485.54"/>
  <line id="left-margin-Regular-M" style="fill:none;stroke:#00AEEF;stroke-width:0.5;opacity:1.0;" x1="1394.06" x2="1394.06" y1="1030.79" y2="1150.12"/>
  <line id="right-margin-Regular-M" style="fill:none;stroke:#00AEEF;stroke-width:0.5;opacity:1.0;" x1="1505.63" x2="1505.63" y1="1030.79" y2="1150.12"/>
 </g>
 <g id="Symbols">
  <g id="Black-L" transform="matrix(1 0 0 1 2856.86 1556)">
   <path d="M39.8556 33.034L113.232 33.034C128.396 33.034 137.004 24.4241 137.004 9.32481L137.004-49.6815C137.004-64.782 128.396-73.3907 113.232-73.3907L97.8476-73.3907L97.8476-53.3901L110.501-53.3901C114.792-53.3901 117.023-51.4587 117.023-46.8467L117.023 6.49C117.023 11.1228 114.792 13.0322 110.501 13.0322L42.5864 13.0322C38.2704 13.0322 36.065 11.1228 36.065 6.49L36.065-46.8467C36.065-51.4587 38.2704-53.3901 42.5864-53.3901L55.7097-53.3901L55.7097-73.3907L39.8556-73.3907C24.7123-73.3907 16.084-64.7844 16.084-49.6815L16.084 9.32481C16.084 24.4265 24.7123 33.034 39.8556 33.034ZM76.5334-20.2269C81.4457-20.2269 85.239-24.2329 85.239-28.8324L85.239-87.9918L84.4704-97.1594L87.1045-92.1045L93.5014-85.2866C94.945-83.7639 96.9038-82.8553 99.0743-82.8553C102.854-82.8553 106.484-85.7435 106.484-89.9497C106.484-92.1242 105.673-93.6458 104.209-95.0893L83.5889-114.839C81.282-117.087 78.9207-117.916 76.5334-117.916C74.1669-117.916 71.8044-117.087 69.4779-114.839L48.8569-95.0893C47.4134-93.6458 46.602-92.1242 46.602-89.9497C46.602-85.7435 50.2108-82.8553 53.9913-82.8553C56.1618-82.8553 58.1415-83.7639 59.5838-85.2866L65.9819-92.1045L68.6172-97.1606L67.8487-87.9918L67.8487-28.8324C67.8487-24.2329 71.6419-20.2269 76.5334-20.2269Z"/>
  </g>
  <g id="Heavy-L" transform="matrix(1 0 0 1 2561.29 1556)">
   <path d="M38.8315 32.5409L111.967 32.5409C126.61 32.5409 134.714 24.425 134.714 9.88394L134.714-50.1208C134.714-64.6674 126.61-72.7777 111.967-72.7777L96.0482-72.7777L96.0482-55.2527L109.843-55.2527C114.628-55.2527 117.214-52.9524 117.214-47.8456L117.214 7.60878C117.214 12.7457 114.628 15.0103 109.843 15.0103L40.9557 15.0103C36.118 15.0103 33.5844 12.7457 33.5844 7.60878L33.5844-47.8456C33.5844-52.9524 36.118-55.2527 40.9557-55.2527L55.1184-55.2527L55.1184-72.7777L38.8315-72.7777C24.2188-72.7777 16.084-64.6787 16.084-50.1208L16.084 9.88394C16.084 24.4362 24.2188 32.5409 38.8315 32.5409ZM75.3841-19.7389C79.741-19.7389 83.1526-23.2988 83.1526-27.4025L83.1526-88.0712L82.475-97.2916L85.576-92.2794L92.7953-84.61C94.1026-83.2279 95.8844-82.4197 97.8089-82.4197C101.277-82.4197 104.493-85.0399 104.493-88.8098C104.493-90.7802 103.749-92.1567 102.412-93.464L81.5782-113.48C79.5399-115.474 77.5028-116.202 75.3841-116.202C73.2956-116.202 71.2529-115.474 69.19-113.48L48.3511-93.464C47.0438-92.1567 46.3002-90.7802 46.3002-88.8098C46.3002-85.0399 49.4805-82.4197 52.9537-82.4197C54.8782-82.4197 56.6902-83.2279 57.9919-84.61L65.2168-92.2794L68.3234-97.2972L67.6458-88.0712L67.6458-27.4025C67.6458-23.2988 71.0574-19.7389 75.3841-19.7389Z"/>
  </g>
  <g id="Bold-L" transform="matrix(1 0 0 1 2265.99 1556)">
   <path d="M37.5412 31.8741L110.437 31.8741C124.389 31.8741 131.894 24.3431 131.894 10.5308L131.894-50.7781C131.894-64.6036 124.389-72.1213 110.437-72.1213L93.872-72.1213L93.872-57.6548L108.991-57.6548C114.42-57.6548 117.452-54.8936 117.452-49.1423L117.452 8.89509C117.452 14.6843 114.42 17.3943 108.991 17.3943L38.987 17.3943C33.4665 17.3943 30.5257 14.6843 30.5257 8.89509L30.5257-49.1423C30.5257-54.8936 33.4665-57.6548 38.987-57.6548L54.366-57.6548L54.366-72.1213L37.5412-72.1213C23.6265-72.1213 16.084-64.63 16.084-50.7781L16.084 10.5308C16.084 24.3695 23.6265 31.8741 37.5412 31.8741ZM73.97-19.2065C77.628-19.2065 80.5484-22.2057 80.5484-25.6797L80.5484-88.4169L79.986-97.6617L83.775-92.5394L92.0535-83.8022C93.1843-82.6042 94.7359-81.919 96.3531-81.919C99.3918-81.919 102.093-84.1939 102.093-87.4034C102.093-89.1054 101.441-90.2902 100.273-91.421L79.096-111.872C77.3956-113.543 75.7508-114.148 73.97-114.148C72.2271-114.148 70.5691-113.543 68.8439-111.872L47.654-91.421C46.5232-90.2902 45.8716-89.1054 45.8716-87.4034C45.8716-84.1939 48.5217-81.919 51.5736-81.919C53.1908-81.919 54.7804-82.6042 55.898-83.8022L64.1896-92.5394L67.9919-97.675L67.4295-88.4169L67.4295-25.6797C67.4295-22.2057 70.3499-19.2065 73.97-19.2065Z"/>
  </g>
  <g id="Semibold-L" transform="matrix(1 0 0 1 1970.25 1556)">
   <path d="M36.6517 31.4144L109.382 31.4144C122.859 31.4144 129.95 24.2866 129.95 10.9768L129.95-51.2312C129.95-64.5595 122.859-71.6689 109.382-71.6689L92.3717-71.6689L92.3717-59.3108L108.404-59.3108C114.278-59.3108 117.616-56.2318 117.616-50.0363L117.616 9.78187C117.616 16.0208 114.278 19.0379 108.404 19.0379L37.6298 19.0379C31.6387 19.0379 28.4171 16.0208 28.4171 9.78187L28.4171-50.0363C28.4171-56.2318 31.6387-59.3108 37.6298-59.3108L53.8473-59.3108L53.8473-71.6689L36.6517-71.6689C23.2182-71.6689 16.084-64.5965 16.084-51.2312L16.084 10.9768C16.084 24.3235 23.2182 31.4144 36.6517 31.4144ZM72.9951-18.8395C76.1713-18.8395 78.753-21.4522 78.753-24.4921L78.753-88.6553L78.27-97.9169L82.5335-92.7185L91.5421-83.2454C92.5512-82.1743 93.9442-81.5738 95.3495-81.5738C98.0925-81.5738 100.439-83.6106 100.439-86.4339C100.439-87.9508 99.8507-89.0034 98.7982-90.0126L77.3848-110.763C75.9174-112.212 74.5429-112.732 72.9951-112.732C71.4906-112.732 70.0976-112.212 68.6053-110.763L47.1735-90.0126C46.1643-89.0034 45.5761-87.9508 45.5761-86.4339C45.5761-83.6106 47.8607-81.5738 50.6221-81.5738C52.0275-81.5738 53.4638-82.1743 54.4545-83.2454L63.4815-92.7185L67.7635-97.9353L67.2805-88.6553L67.2805-24.4921C67.2805-21.4522 69.8622-18.8395 72.9951-18.8395Z"/>
  </g>
  <g id="Medium-L" transform="matrix(1 0 0 1 1674.28 1556)">
   <path d="M35.9773 31.0659L108.582 31.0659C121.698 31.0659 128.475 24.2438 128.475 11.3149L128.475-51.5748C128.475-64.5261 121.698-71.3258 108.582-71.3258L91.2342-71.3258L91.2342-60.5665L107.958-60.5665C114.169-60.5665 117.741-57.2466 117.741-50.7141L117.741 10.4543C117.741 17.0341 114.169 20.2841 107.958 20.2841L36.6007 20.2841C30.2527 20.2841 26.8183 17.0341 26.8183 10.4543L26.8183-50.7141C26.8183-57.2466 30.2527-60.5665 36.6007-60.5665L53.454-60.5665L53.454-71.3258L35.9773-71.3258C22.9086-71.3258 16.084-64.571 16.084-51.5748L16.084 11.3149C16.084 24.2887 22.9086 31.0659 35.9773 31.0659ZM72.2559-18.5611C75.0667-18.5611 77.3917-20.8808 77.3917-23.5916L77.3917-88.8361L76.9689-98.1103L81.5921-92.8544L91.1543-82.8231C92.0712-81.8483 93.3438-81.3121 94.5886-81.3121C97.1073-81.3121 99.1846-83.1684 99.1846-85.6988C99.1846-87.0754 98.6445-88.0277 97.6802-88.9446L76.0873-109.922C74.7965-111.203 73.627-111.658 72.2559-111.658C70.9321-111.658 69.7402-111.203 68.4244-109.922L46.8091-88.9446C45.8922-88.0277 45.3521-87.0754 45.3521-85.6988C45.3521-83.1684 47.3595-81.3121 49.9007-81.3121C51.1454-81.3121 52.4655-81.8483 53.3599-82.8231L62.9446-92.8544L67.5902-98.1328L67.1674-88.8361L67.1674-23.5916C67.1674-20.8808 69.4924-18.5611 72.2559-18.5611Z"/>
  </g>
  <g id="Regular-L" transform="matrix(1 0 0 1 1378.53 1556)">
   <path d="M35.0976 30.6113L107.538 30.6113C120.184 30.6113 126.552 24.1879 126.552 11.7559L126.552-52.0229C126.552-64.4825 120.184-70.8783 107.538-70.8783L89.7504-70.8783L89.7504-62.2043L107.378-62.2043C114.028-62.2043 117.903-58.5701 117.903-51.5983L117.903 11.3313C117.903 18.3559 114.028 21.9097 107.378 21.9097L35.2584 21.9097C28.4449 21.9097 24.7328 18.3559 24.7328 11.3313L24.7328-51.5983C24.7328-58.5701 28.4449-62.2043 35.2584-62.2043L52.941-62.2043L52.941-70.8783L35.0976-70.8783C22.5048-70.8783 16.084-64.5378 16.084-52.0229L16.084 11.7559C16.084 24.2432 22.5048 30.6113 35.0976 30.6113ZM71.2917-18.1981C73.626-18.1981 75.6161-20.1355 75.6161-22.417L75.6161-89.0718L75.2719-98.3627L80.3642-93.0316L90.6486-82.2724C91.4451-81.4231 92.5608-80.9708 93.596-80.9708C95.8223-80.9708 97.5486-82.5915 97.5486-84.7399C97.5486-85.9335 97.0712-86.7551 96.2218-87.5517L74.3949-108.826C73.3345-109.886 72.4325-110.258 71.2917-110.258C70.2036-110.258 69.2739-109.886 68.1884-108.826L46.3338-87.5517C45.5373-86.7551 45.0599-85.9335 45.0599-84.7399C45.0599-82.5915 46.7057-80.9708 48.9596-80.9708C49.9949-80.9708 51.1633-81.4231 51.9322-82.2724L62.2442-93.0316L67.3642-98.3903L67.02-89.0718L67.02-22.417C67.02-20.1355 69.0101-18.1981 71.2917-18.1981Z"/>
  </g>
  <g id="Light-L" transform="matrix(1 0 0 1 1082.74 1556)">
   <path d="M34.067 29.7906L106.718 29.7906C118.6 29.7906 124.701 23.5962 124.701 11.9086L124.701-53.2062C124.701-64.9406 118.6-71.0882 106.718-71.0882L88.5862-71.0882L88.5862-64.4755L106.557-64.4755C113.856-64.4755 118.075-60.4977 118.075-52.877L118.075 11.5794C118.075 19.2338 113.856 23.1311 106.557 23.1311L34.2278 23.1311C26.7082 23.1311 22.7098 19.2338 22.7098 11.5794L22.7098-52.877C22.7098-60.4977 26.7082-64.4755 34.2278-64.4755L52.2921-64.4755L52.2921-71.0882L34.067-71.0882C22.2185-71.0882 16.084-65.0341 16.084-53.2062L16.084 11.9086C16.084 23.6897 22.2185 29.7906 34.067 29.7906ZM70.3756-18.2935C72.1564-18.2935 73.6885-19.7919 73.6885-21.5391L73.6885-90.904L73.4397-99.9467L79.7153-93.4897L90.9921-81.9098C91.6169-81.2513 92.5035-80.8753 93.3098-80.8753C94.9635-80.8753 96.3271-82.1717 96.3271-83.8047C96.3271-84.712 95.9642-85.3237 95.3058-85.9485L72.7345-108.196C71.9413-108.989 71.2492-109.285 70.3756-109.285C69.5357-109.285 68.7968-108.989 68.0167-108.196L45.3987-85.9485C44.7739-85.3237 44.411-84.712 44.411-83.8047C44.411-82.1717 45.6942-80.8753 47.3947-80.8753C48.2009-80.8753 49.1212-81.2513 49.6993-81.9098L61.0228-93.4897L67.3452-99.9935L67.0963-90.904L67.0963-21.5391C67.0963-19.7919 68.6284-18.2935 70.3756-18.2935Z"/>
  </g>
  <g id="Thin-L" transform="matrix(1 0 0 1 787.254 1556)">
   <path d="M32.7039 28.7052L105.632 28.7052C116.505 28.7052 122.252 22.8137 122.252 12.1106L122.252-54.7712C122.252-65.5464 116.505-71.3659 105.632-71.3659L87.0464-71.3659L87.0464-67.4792L105.472-67.4792C113.629-67.4792 118.302-63.0471 118.302-54.5682L118.302 11.9075C118.302 20.3949 113.629 24.7466 105.472 24.7466L32.8648 24.7466C24.4111 24.7466 20.0342 20.3949 20.0342 11.9075L20.0342-54.5682C20.0342-63.0471 24.4111-67.4792 32.8648-67.4792L51.4339-67.4792L51.4339-71.3659L32.7039-71.3659C21.8399-71.3659 16.084-65.6904 16.084-54.7712L16.084 12.1106C16.084 22.9577 21.8399 28.7052 32.7039 28.7052ZM69.164-18.4198C70.2128-18.4198 71.1391-19.3376 71.1391-20.378L71.1391-93.3272L71.0165-102.042L78.8571-94.0955L91.4464-81.4302C91.844-81.0241 92.4278-80.7491 92.9311-80.7491C93.8276-80.7491 94.7116-81.6163 94.7116-82.5679C94.7116-83.0965 94.5002-83.4306 94.0941-83.8282L70.5384-107.363C70.0987-107.803 69.6842-107.997 69.164-107.997C68.6522-107.997 68.1657-107.803 67.7895-107.363L44.1618-83.8282C43.7642-83.4306 43.5527-83.0965 43.5527-82.5679C43.5527-81.6163 44.3564-80.7491 45.3248-80.7491C45.8282-80.7491 46.4203-81.0241 46.746-81.4302L59.4073-94.0955L67.3199-102.114L67.1973-93.3272L67.1973-20.378C67.1973-19.3376 68.1236-18.4198 69.164-18.4198Z"/>
  </g>
  <g id="Ultralight-L" transform="matrix(1 0 0 1 491.17 1556)">
   <path d="M32.0058 28.1493L105.076 28.1493C115.432 28.1493 120.998 22.413 120.998 12.214L120.998-55.5728C120.998-65.8567 115.432-71.5081 105.076-71.5081L86.2578-71.5081L86.2578-69.0177L104.916-69.0177C113.512-69.0177 118.419-64.3529 118.419-55.4344L118.419 12.0756C118.419 20.9896 113.512 25.574 104.916 25.574L32.1666 25.574C23.2346 25.574 18.6637 20.9896 18.6637 12.0756L18.6637-55.4344C18.6637-64.3529 23.2346-69.0177 32.1666-69.0177L50.9943-69.0177L50.9943-71.5081L32.0058-71.5081C21.646-71.5081 16.084-66.0265 16.084-55.5728L16.084 12.214C16.084 22.5828 21.646 28.1493 32.0058 28.1493ZM68.5434-18.4844C69.2173-18.4844 69.8333-19.1049 69.8333-19.7833L69.8333-94.5684L69.7753-103.115L78.4175-94.4057L91.6792-81.1845C91.9604-80.9078 92.389-80.6845 92.7372-80.6845C93.2458-80.6845 93.8842-81.3319 93.8842-81.9344C93.8842-82.2691 93.7503-82.4609 93.4736-82.7422L69.4136-106.936C69.1549-107.195 68.8826-107.338 68.5434-107.338C68.1997-107.338 67.8425-107.195 67.6731-106.936L43.5283-82.7422C43.2471-82.4609 43.1132-82.2691 43.1132-81.9344C43.1132-81.3319 43.6712-80.6845 44.2647-80.6845C44.6129-80.6845 45.037-80.9078 45.2333-81.1845L58.5799-94.4057L67.307-103.2L67.249-94.5684L67.249-19.7833C67.249-19.1049 67.865-18.4844 68.5434-18.4844Z"/>
  </g>
  <g id="Black-M" transform="matrix(1 0 0 1 2873.24 1126)">
   <path d="M31.6184 17.9698L88.7016 17.9698C100.794 17.9698 107.859 10.9057 107.859-1.17124L107.859-46.2089C107.859-58.2856 100.794-65.3499 88.7016-65.3499L77.1954-65.3499L77.1954-48.0062L86.0648-48.0062C89.0514-48.0062 90.5212-46.7804 90.5212-43.5446L90.5212-3.83555C90.5212-0.594238 89.0514 0.626318 86.0648 0.626318L34.2553 0.626318C31.2643 0.626318 29.7989-0.594238 29.7989-3.83555L29.7989-43.5446C29.7989-46.7804 31.2643-48.0062 34.2553-48.0062L43.5808-48.0062L43.5808-65.3499L31.6184-65.3499C19.5311-65.3499 12.4609-58.285 12.4609-46.2089L12.4609-1.17124C12.4609 10.9051 19.5311 17.9698 31.6184 17.9698ZM60.1573-24.0386C64.3654-24.0386 67.5701-27.4663 67.5701-31.3834L67.5701-76.2867L66.9094-83.3101L68.7093-79.2047L73.093-74.5432C74.3051-73.2685 75.9439-72.4886 77.8058-72.4886C80.9241-72.4886 84.0444-74.9127 84.0444-78.4765C84.0444-80.2978 83.3729-81.5729 82.1553-82.7851L66.263-97.9886C64.2811-99.9134 62.2015-100.631 60.1573-100.631C58.1186-100.631 56.0392-99.9134 54.0516-97.9886L38.1596-82.7851C36.9474-81.5729 36.276-80.2978 36.276-78.4765C36.276-74.9127 39.391-72.4886 42.509-72.4886C44.3709-72.4886 46.0152-73.2685 47.2276-74.5432L51.611-79.2047L53.4106-83.3098L52.7499-76.2867L52.7499-31.3834C52.7499-27.4663 55.9547-24.0386 60.1573-24.0386Z"/>
  </g>
  <g id="Heavy-M" transform="matrix(1 0 0 1 2577.56 1126)">
   <path d="M30.7123 17.5634L87.5407 17.5634C99.1943 17.5634 105.792 10.9612 105.792-0.638747L105.792-46.5291C105.792-58.1313 99.1943-64.7313 87.5407-64.7313L75.5437-64.7313L75.5437-49.6175L85.4967-49.6175C88.9071-49.6175 90.6924-48.0627 90.6924-44.4031L90.6924-2.76475C90.6924 0.911275 88.9071 2.44735 85.4967 2.44735L32.7562 2.44735C29.3203 2.44735 27.5605 0.911275 27.5605-2.76475L27.5605-44.4031C27.5605-48.0627 29.3203-49.6175 32.7562-49.6175L43.0627-49.6175L43.0627-64.7313L30.7123-64.7313C19.075-64.7313 12.4609-58.1359 12.4609-46.5291L12.4609-0.638747C12.4609 10.9657 19.075 17.5634 30.7123 17.5634ZM59.1183-23.5528C62.8345-23.5528 65.7084-26.5848 65.7084-30.0665L65.7084-76.1952L65.1278-83.2933L67.2749-79.3334L72.3709-73.9152C73.4658-72.7604 74.9526-72.0716 76.5952-72.0716C79.4616-72.0716 82.2098-74.2636 82.2098-77.4484C82.2098-79.0966 81.5942-80.2492 80.4829-81.3441L64.4505-96.7185C62.7065-98.4188 60.9245-99.0453 59.1183-99.0453C57.3284-99.0453 55.5441-98.4188 53.786-96.7185L37.7513-81.3441C36.6565-80.2492 36.0408-79.0966 36.0408-77.4484C36.0408-74.2636 38.7704-72.0716 41.6391-72.0716C43.2817-72.0716 44.7849-72.7604 45.8775-73.9152L50.9758-79.3334L53.1251-83.2956L52.5445-76.1952L52.5445-30.0665C52.5445-26.5848 55.4185-23.5528 59.1183-23.5528Z"/>
  </g>
  <g id="Bold-M" transform="matrix(1 0 0 1 2282.01 1126)">
   <path d="M29.6986 17.1088L86.2419 17.1088C97.4044 17.1088 103.48 11.0232 103.48-0.0430752L103.48-46.8874C103.48-57.9588 97.4044-64.0392 86.2419-64.0392L73.6961-64.0392L73.6961-51.42L84.8612-51.42C88.7457-51.42 90.8839-49.4972 90.8839-45.3635L90.8839-1.56692C90.8839 2.59541 88.7457 4.48443 84.8612 4.48443L31.0794 4.48443C27.1457 4.48443 25.0566 2.59541 25.0566-1.56692L25.0566-45.3635C25.0566-49.4972 27.1457-51.42 31.0794-51.42L42.4831-51.42L42.4831-64.0392L29.6986-64.0392C18.5648-64.0392 12.4609-57.9691 12.4609-46.8874L12.4609-0.0430752C12.4609 11.0335 18.5648 17.1088 29.6986 17.1088ZM57.956-23.0094C61.122-23.0094 63.6258-25.5988 63.6258-28.5934L63.6258-76.093L63.1349-83.2744L65.6703-79.4774L71.5632-73.2127C72.5268-72.192 73.8436-71.6051 75.2409-71.6051C77.8255-71.6051 80.1577-73.5374 80.1577-76.2984C80.1577-77.7529 79.6044-78.7686 78.6122-79.7322L62.423-95.2976C60.9452-96.7469 59.4961-97.2715 57.956-97.2715C56.4445-97.2715 54.9903-96.7469 53.489-95.2976L37.2946-79.7322C36.331-78.7686 35.7778-77.7529 35.7778-76.2984C35.7778-73.5374 38.0761-71.6051 40.666-71.6051C42.0632-71.6051 43.4086-72.192 44.3671-73.2127L50.2651-79.4774L52.8057-83.2796L52.3148-76.093L52.3148-28.5934C52.3148-25.5988 54.8186-23.0094 57.956-23.0094Z"/>
  </g>
  <g id="Semibold-M" transform="matrix(1 0 0 1 1986.09 1126)">
   <path d="M28.9998 16.7954L85.3466 16.7954C96.1704 16.7954 101.886 11.066 101.886 0.367578L101.886-47.1343C101.886-57.8399 96.1704-63.5621 85.3466-63.5621L72.4224-63.5621L72.4224-52.6626L84.4231-52.6626C88.6344-52.6626 91.016-50.4861 91.016-46.0256L91.016-0.741135C91.016 3.75644 88.6344 5.88879 84.4231 5.88879L29.9233 5.88879C25.6466 5.88879 23.3305 3.75644 23.3305-0.741135L23.3305-46.0256C23.3305-50.4861 25.6466-52.6626 29.9233-52.6626L42.0836-52.6626L42.0836-63.5621L28.9998-63.5621C18.2131-63.5621 12.4609-57.8541 12.4609-47.1343L12.4609 0.367578C12.4609 11.0802 18.2131 16.7954 28.9998 16.7954ZM57.1547-22.6348C59.9414-22.6348 62.19-24.919 62.19-27.5778L62.19-76.0225L61.7609-83.2614L64.5641-79.5767L71.0064-72.7284C71.8795-71.8001 73.0791-71.2835 74.3072-71.2835C76.6977-71.2835 78.7429-73.0368 78.7429-75.5055C78.7429-76.8266 78.2327-77.7478 77.3225-78.6209L61.0253-94.3181C59.7309-95.5943 58.5114-96.0486 57.1547-96.0486C55.8351-96.0486 54.6084-95.5943 53.2842-94.3181L36.9798-78.6209C36.1067-77.7478 35.5964-76.8266 35.5964-75.5055C35.5964-73.0368 37.5975-71.2835 39.9951-71.2835C41.2232-71.2835 42.4599-71.8001 43.3259-72.7284L49.7752-79.5767L52.5855-83.2685L52.1564-76.0225L52.1564-27.5778C52.1564-24.919 54.4051-22.6348 57.1547-22.6348Z"/>
  </g>
  <g id="Medium-M" transform="matrix(1 0 0 1 1689.99 1126)">
   <path d="M28.47 16.5577L84.6677 16.5577C95.2347 16.5577 100.677 11.0985 100.677 0.678952L100.677-47.3215C100.677-57.7497 95.2347-63.2003 84.6677-63.2003L71.4566-63.2003L71.4566-53.6048L84.0909-53.6048C88.55-53.6048 91.1161-51.236 91.1161-46.5276L91.1161-0.114993C91.1161 4.63678 88.55 6.95363 84.0909 6.95363L29.0468 6.95363C24.5098 6.95363 22.0216 4.63678 22.0216-0.114993L22.0216-46.5276C22.0216-51.236 24.5098-53.6048 29.0468-53.6048L41.7806-53.6048L41.7806-63.2003L28.47-63.2003C17.9464-63.2003 12.4609-57.7669 12.4609-47.3215L12.4609 0.678952C12.4609 11.1157 17.9464 16.5577 28.47 16.5577ZM56.5471-22.3507C59.0462-22.3507 61.1014-24.4036 61.1014-26.8078L61.1014-75.969L60.7192-83.2516L63.7253-79.652L70.5842-72.3612C71.3887-71.503 72.4994-71.0396 73.5993-71.0396C75.8425-71.0396 77.6702-72.6572 77.6702-74.9043C77.6702-76.1242 77.1926-76.9738 76.3446-77.7783L59.9654-93.5754C58.8102-94.7203 57.7647-95.1214 56.5471-95.1214C55.373-95.1214 54.3189-94.7203 53.1289-93.5754L36.7411-77.7783C35.9366-76.9738 35.4589-76.1242 35.4589-74.9043C35.4589-72.6572 37.2346-71.0396 39.4864-71.0396C40.5863-71.0396 41.7404-71.503 42.5363-72.3612L49.4038-79.652L52.4186-83.2602L52.0363-75.969L52.0363-26.8078C52.0363-24.4036 54.0915-22.3507 56.5471-22.3507Z"/>
  </g>
  <g id="Regular-M" transform="matrix(1 0 0 1 1394.06 1126)">
   <path d="M27.7789 16.2478L83.7822 16.2478C94.0143 16.2478 99.1002 11.1408 99.1002 1.08509L99.1002-47.5658C99.1002-57.632 94.0143-62.7285 83.7822-62.7285L70.1968-62.7285L70.1968-54.8338L83.6576-54.8338C88.44-54.8338 91.2467-52.214 91.2467-47.1824L91.2467 0.701714C91.2467 5.78505 88.44 8.34255 83.6576 8.34255L27.9035 8.34255C23.0272 8.34255 20.3144 5.78505 20.3144 0.701714L20.3144-47.1824C20.3144-52.214 23.0272-54.8338 27.9035-54.8338L41.3854-54.8338L41.3854-62.7285L27.7789-62.7285C17.5986-62.7285 12.4609-57.6531 12.4609-47.5658L12.4609 1.08509C12.4609 11.1619 17.5986 16.2478 27.7789 16.2478ZM55.7547-21.9802C57.8786-21.9802 59.6814-23.7313 59.6814-25.8034L59.6814-75.8993L59.3603-83.2387L62.6313-79.7502L70.0335-71.8822C70.7485-71.1155 71.7433-70.7216 72.6759-70.7216C74.727-70.7216 76.271-72.1621 76.271-74.1202C76.271-75.208 75.8359-75.9642 75.0691-76.6792L58.583-92.6066C57.6093-93.5804 56.7908-93.912 55.7547-93.912C54.7704-93.912 53.9413-93.5804 52.9263-92.6066L36.4297-76.6792C35.7147-75.9642 35.2795-75.208 35.2795-74.1202C35.2795-72.1621 36.7613-70.7216 38.8229-70.7216C39.7555-70.7216 40.8021-71.1155 41.5065-71.8822L48.9193-79.7502L52.2008-83.2493L51.8797-75.8993L51.8797-25.8034C51.8797-23.7313 53.6825-21.9802 55.7547-21.9802Z"/>
  </g>
  <g id="Light-M" transform="matrix(1 0 0 1 1098.18 1126)">
   <path d="M26.8549 15.512L83.0465 15.512C92.5941 15.512 97.4404 10.6103 97.4404 1.22198L97.4404-48.6267C97.4404-58.0427 92.5941-62.9167 83.0465-62.9167L69.153-62.9167L69.153-56.87L82.9219-56.87C88.286-56.87 91.4007-53.9422 91.4007-48.3288L91.4007 0.924156C91.4007 6.57216 88.286 9.43765 82.9219 9.43765L26.9795 9.43765C21.4701 9.43765 18.5006 6.57216 18.5006 0.924156L18.5006-48.3288C18.5006-53.9422 21.4701-56.87 26.9795-56.87L40.8036-56.87L40.8036-62.9167L26.8549-62.9167C17.3419-62.9167 12.4609-58.098 12.4609-48.6267L12.4609 1.22198C12.4609 10.6657 17.3419 15.512 26.8549 15.512ZM54.9334-22.0658C56.561-22.0658 57.9532-23.4233 57.9532-25.0163L57.9532-77.542L57.7177-84.6589L62.0495-80.1609L70.3415-71.5571C70.9025-70.9615 71.692-70.636 72.4193-70.636C73.957-70.636 75.1759-71.7857 75.1759-73.2818C75.1759-74.1129 74.8435-74.6809 74.2478-75.2419L57.0944-92.0419C56.3602-92.7762 55.7299-93.0393 54.9334-93.0393C54.1715-93.0393 53.5135-92.7762 52.7723-92.0419L35.5912-75.2419C35.0302-74.6809 34.6978-74.1129 34.6978-73.2818C34.6978-71.7857 35.8544-70.636 37.4198-70.636C38.147-70.636 38.9712-70.9615 39.5046-71.5571L47.8242-80.1609L52.1837-84.6866L51.9481-77.542L51.9481-25.0163C51.9481-23.4233 53.3403-22.0658 54.9334-22.0658Z"/>
  </g>
  <g id="Thin-M" transform="matrix(1 0 0 1 802.569 1126)">
   <path d="M25.6328 14.5389L82.0734 14.5389C90.7158 14.5389 95.2453 9.9088 95.2453 1.40302L95.2453-50.0298C95.2453-58.5858 90.7158-63.1656 82.0734-63.1656L67.7726-63.1656L67.7726-59.563L81.9487-59.563C88.0823-59.563 91.6044-56.2279 91.6044-49.8451L91.6044 1.21835C91.6044 7.61317 88.0823 10.886 81.9487 10.886L25.7574 10.886C19.4107 10.886 16.1018 7.61317 16.1018 1.21835L16.1018-49.8451C16.1018-56.2279 19.4107-59.563 25.7574-59.563L40.0342-59.563L40.0342-63.1656L25.6328-63.1656C17.0024-63.1656 12.4609-58.6864 12.4609-50.0298L12.4609 1.40302C12.4609 10.0094 17.0024 14.5389 25.6328 14.5389ZM53.8471-22.1789C54.8185-22.1789 55.6675-23.0159 55.6675-23.9753L55.6675-79.7145L55.5452-86.5373L61.2801-80.704L70.7488-71.1272C71.1061-70.7578 71.6241-70.5229 72.0798-70.5229C72.9386-70.5229 73.7276-71.2878 73.7276-72.1729C73.7276-72.6646 73.5309-72.9836 73.1615-73.341L55.1255-91.2951C54.7081-91.7125 54.3268-91.8852 53.8471-91.8852C53.3794-91.8852 52.9478-91.7125 52.5687-91.2951L34.4823-73.341C34.125-72.9836 33.9283-72.6646 33.9283-72.1729C33.9283-71.2878 34.655-70.5229 35.5641-70.5229C36.0198-70.5229 36.5497-70.7578 36.8568-71.1272L46.3758-80.704L52.161-86.5876L52.0387-79.7145L52.0387-23.9753C52.0387-23.0159 52.8877-22.1789 53.8471-22.1789Z"/>
  </g>
  <g id="Ultralight-M" transform="matrix(1 0 0 1 506.42 1126)">
   <path d="M25.0069 14.0405L81.5749 14.0405C89.7537 14.0405 94.1209 9.54947 94.1209 1.49575L94.1209-50.7484C94.1209-58.864 89.7537-63.2931 81.5749-63.2931L67.0655-63.2931L67.0655-60.9424L81.4503-60.9424C87.978-60.9424 91.7087-57.3986 91.7087-50.6217L91.7087 1.36904C91.7087 8.14636 87.978 11.6279 81.4503 11.6279L25.1315 11.6279C18.3559 11.6279 14.8731 8.14636 14.8731 1.36904L14.8731-50.6217C14.8731-57.3986 18.3559-60.9424 25.1315-60.9424L39.6401-60.9424L39.6401-63.2931L25.0069-63.2931C16.8286-63.2931 12.4609-58.9878 12.4609-50.7484L12.4609 1.49575C12.4609 9.67324 16.8286 14.0405 25.0069 14.0405ZM53.2907-22.2369C53.926-22.2369 54.4968-22.8073 54.4968-23.4421L54.4968-80.8273L54.4324-87.4993L60.886-80.9822L70.9575-70.9069C71.2105-70.6535 71.5893-70.4649 71.9059-70.4649C72.417-70.4649 72.9857-71.0328 72.9857-71.6049C72.9857-71.9227 72.8586-72.1143 72.6052-72.3673L54.1171-90.9126C53.862-91.1677 53.6081-91.294 53.2907-91.294C52.9737-91.294 52.658-91.1677 52.4643-90.9126L33.9144-72.3673C33.6614-72.1143 33.5342-71.9227 33.5342-71.6049C33.5342-71.0328 34.0407-70.4649 34.6136-70.4649C34.9302-70.4649 35.3095-70.6535 35.5006-70.9069L45.634-80.9822L52.1494-87.5612L52.085-80.8273L52.085-23.4421C52.085-22.8073 52.6559-22.2369 53.2907-22.2369Z"/>
  </g>
  <g id="Black-S" transform="matrix(1 0 0 1 2885.99 696)">
   <path d="M25 6.54297L69.8242 6.54297C79.3945 6.54297 85.0586 0.878906 85.0586-8.69141L85.0586-43.7988C85.0586-53.3691 79.3945-59.0332 69.8242-59.0332L60.9375-59.0332L60.9375-44.873L67.5781-44.873C69.8242-44.873 70.8984-43.9941 70.8984-41.5527L70.8984-10.9375C70.8984-8.49609 69.8242-7.61719 67.5781-7.61719L27.2461-7.61719C25-7.61719 23.9258-8.49609 23.9258-10.9375L23.9258-41.5527C23.9258-43.9941 25-44.873 27.2461-44.873L34.2773-44.873L34.2773-59.0332L25-59.0332C15.4297-59.0332 9.76562-53.3691 9.76562-43.7988L9.76562-8.69141C9.76562 0.878906 15.4297 6.54297 25 6.54297ZM47.4121-26.6113C50.8301-26.6113 53.418-29.3945 53.418-32.5684L53.418-67.5293L52.8809-72.998L54.248-69.6777L57.5195-66.2109C58.4961-65.1855 59.8145-64.5508 61.3281-64.5508C63.8184-64.5508 66.3574-66.5039 66.3574-69.3848C66.3574-70.8496 65.8203-71.875 64.8438-72.8516L52.3926-84.7656C50.7812-86.3281 49.0723-86.9141 47.4121-86.9141C45.752-86.9141 44.043-86.3281 42.4316-84.7656L29.9805-72.8516C29.0039-71.875 28.4668-70.8496 28.4668-69.3848C28.4668-66.5039 31.0059-64.5508 33.4961-64.5508C35.0098-64.5508 36.3281-65.1855 37.3047-66.2109L40.5762-69.6777L41.9434-72.998L41.4062-67.5293L41.4062-32.5684C41.4062-29.3945 43.9941-26.6113 47.4121-26.6113Z"/>
  </g>
  <g id="Heavy-S" transform="matrix(1 0 0 1 2590.05 696)">
   <path d="M24.3431 6.28943L68.9253 6.28943C78.2075 6.28943 83.5028 0.994151 83.5028-8.25348L83.5028-43.9371C83.5028-53.1847 78.2075-58.48 68.9253-58.48L59.6583-58.48L59.6583-45.9909L67.1863-45.9909C69.7205-45.9909 71.0252-44.87 71.0252-42.1405L71.0252-10.0501C71.0252-7.30907 69.7205-6.19968 67.1863-6.19968L26.0821-6.19968C23.5364-6.19968 22.2432-7.30907 22.2432-10.0501L22.2432-42.1405C22.2432-44.87 23.5364-45.9909 26.0821-45.9909L33.9086-45.9909L33.9086-58.48L24.3431-58.48C15.0724-58.48 9.76562-53.1847 9.76562-43.9371L9.76562-8.25348C9.76562 0.994151 15.0724 6.28943 24.3431 6.28943ZM46.6284-26.1849C49.6892-26.1849 52.0466-28.68 52.0466-31.5427L52.0466-67.2412L51.5671-72.8021L53.0956-69.7354L56.8626-65.7154C57.7585-64.7707 58.9732-64.205 60.3255-64.205C62.6659-64.205 64.9284-65.9968 64.9284-68.6126C64.9284-69.9622 64.4259-70.9069 63.5184-71.8028L51.0327-83.7515C49.5942-85.1526 48.1157-85.6694 46.6284-85.6694C45.1527-85.6694 43.6742-85.1526 42.2242-83.7515L29.7385-71.8028C28.8426-70.9069 28.34-69.9622 28.34-68.6126C28.34-65.9968 30.591-64.205 32.9314-64.205C34.2837-64.205 35.5099-64.7707 36.4058-65.7154L40.1728-69.7354L41.7013-72.8021L41.2219-67.2412L41.2219-31.5427C41.2219-28.68 43.5793-26.1849 46.6284-26.1849Z"/>
  </g>
  <g id="Bold-S" transform="matrix(1 0 0 1 2294.21 696)">
   <path d="M23.6084 6.00586L67.9199 6.00586C76.8799 6.00586 81.7627 1.12305 81.7627-7.76367L81.7627-44.0918C81.7627-52.9785 76.8799-57.8613 67.9199-57.8613L58.2275-57.8613L58.2275-47.2412L66.748-47.2412C69.6045-47.2412 71.167-45.8496 71.167-42.7979L71.167-9.05762C71.167-5.98145 69.6045-4.61426 66.748-4.61426L24.7803-4.61426C21.8994-4.61426 20.3613-5.98145 20.3613-9.05762L20.3613-42.7979C20.3613-45.8496 21.8994-47.2412 24.7803-47.2412L33.4961-47.2412L33.4961-57.8613L23.6084-57.8613C14.6729-57.8613 9.76562-52.9785 9.76562-44.0918L9.76562-7.76367C9.76562 1.12305 14.6729 6.00586 23.6084 6.00586ZM45.752-25.708C48.4131-25.708 50.5127-27.8809 50.5127-30.3955L50.5127-66.9189L50.0977-72.583L51.8066-69.7998L56.1279-65.1611C56.9336-64.3066 58.0322-63.8184 59.2041-63.8184C61.377-63.8184 63.3301-65.4297 63.3301-67.749C63.3301-68.9697 62.8662-69.8242 62.0361-70.6299L49.5117-82.6172C48.2666-83.8379 47.0459-84.2773 45.752-84.2773C44.4824-84.2773 43.2617-83.8379 41.9922-82.6172L29.4678-70.6299C28.6621-69.8242 28.1982-68.9697 28.1982-67.749C28.1982-65.4297 30.127-63.8184 32.2998-63.8184C33.4717-63.8184 34.5947-64.3066 35.4004-65.1611L39.7217-69.7998L41.4307-72.583L41.0156-66.9189L41.0156-30.3955C41.0156-27.8809 43.1152-25.708 45.752-25.708Z"/>
  </g>
  <g id="Semibold-S" transform="matrix(1 0 0 1 1998.1 696)">
   <path d="M23.1019 5.81035L67.2268 5.81035C75.9646 5.81035 80.563 1.21191 80.563-7.42598L80.563-44.1984C80.563-52.8363 75.9646-57.4348 67.2268-57.4348L57.2411-57.4348L57.2411-48.1032L66.4459-48.1032C69.5245-48.1032 71.2647-46.525 71.2647-43.2511L71.2647-8.37334C71.2647-5.06611 69.5245-3.52119 66.4459-3.52119L23.8827-3.52119C20.7708-3.52119 19.0639-5.06611 19.0639-8.37334L19.0639-43.2511C19.0639-46.525 20.7708-48.1032 23.8827-48.1032L33.2117-48.1032L33.2117-57.4348L23.1019-57.4348C14.3974-57.4348 9.76562-52.8363 9.76562-44.1984L9.76562-7.42598C9.76562 1.21191 14.3974 5.81035 23.1019 5.81035ZM45.1477-25.3792C47.5333-25.3792 49.4552-27.3299 49.4552-29.6046L49.4552-66.6968L49.0846-72.4319L50.918-69.8442L55.6214-64.779C56.3648-63.9867 57.3835-63.5518 58.431-63.5518C60.4883-63.5518 62.2281-65.0387 62.2281-67.1536C62.2281-68.2854 61.7909-69.0777 61.0142-69.8212L48.4631-81.8352C47.3513-82.9314 46.3083-83.3176 45.1477-83.3176C44.0203-83.3176 42.9773-82.9314 41.8322-81.8352L29.2812-69.8212C28.5377-69.0777 28.1005-68.2854 28.1005-67.1536C28.1005-65.0387 29.807-63.5518 31.8644-63.5518C32.9118-63.5518 33.9638-63.9867 34.7072-64.779L39.4106-69.8442L41.244-72.4319L40.8734-66.6968L40.8734-29.6046C40.8734-27.3299 42.7953-25.3792 45.1477-25.3792Z"/>
  </g>
  <g id="Medium-S" transform="matrix(1 0 0 1 1701.85 696)">
   <path d="M22.7178 5.66211L66.7012 5.66211C75.2705 5.66211 79.6533 1.2793 79.6533-7.16992L79.6533-44.2793C79.6533-52.7285 75.2705-57.1113 66.7012-57.1113L56.4932-57.1113L56.4932-48.7568L66.2168-48.7568C69.4639-48.7568 71.3389-47.0371 71.3389-43.5947L71.3389-7.85449C71.3389-4.37207 69.4639-2.69238 66.2168-2.69238L23.2021-2.69238C19.915-2.69238 18.0801-4.37207 18.0801-7.85449L18.0801-43.5947C18.0801-47.0371 19.915-48.7568 23.2021-48.7568L32.9961-48.7568L32.9961-57.1113L22.7178-57.1113C14.1885-57.1113 9.76562-52.7285 9.76562-44.2793L9.76562-7.16992C9.76562 1.2793 14.1885 5.66211 22.7178 5.66211ZM44.6895-25.1299C46.8662-25.1299 48.6533-26.9121 48.6533-29.0049L48.6533-66.5283L48.3164-72.3174L50.2441-69.8779L55.2373-64.4893C55.9336-63.7441 56.8916-63.3496 57.8447-63.3496C59.8145-63.3496 61.3926-64.7422 61.3926-66.7021C61.3926-67.7666 60.9756-68.5117 60.2393-69.208L47.668-81.2422C46.6572-82.2441 45.749-82.5898 44.6895-82.5898C43.6699-82.5898 42.7617-82.2441 41.7109-81.2422L29.1396-69.208C28.4434-68.5117 28.0264-67.7666 28.0264-66.7021C28.0264-64.7422 29.5645-63.3496 31.5342-63.3496C32.4873-63.3496 33.4854-63.7441 34.1816-64.4893L39.1748-69.8779L41.1025-72.3174L40.7656-66.5283L40.7656-29.0049C40.7656-26.9121 42.5527-25.1299 44.6895-25.1299Z"/>
  </g>
  <g id="Regular-S" transform="matrix(1 0 0 1 1405.73 696)">
   <path d="M22.2168 5.46875L66.0156 5.46875C74.3652 5.46875 78.4668 1.36719 78.4668-6.83594L78.4668-44.3848C78.4668-52.5879 74.3652-56.6895 66.0156-56.6895L55.5176-56.6895L55.5176-49.6094L65.918-49.6094C69.3848-49.6094 71.4355-47.7051 71.4355-44.043L71.4355-7.17773C71.4355-3.4668 69.3848-1.61133 65.918-1.61133L22.3145-1.61133C18.7988-1.61133 16.7969-3.4668 16.7969-7.17773L16.7969-44.043C16.7969-47.7051 18.7988-49.6094 22.3145-49.6094L32.7148-49.6094L32.7148-56.6895L22.2168-56.6895C13.916-56.6895 9.76562-52.5879 9.76562-44.3848L9.76562-6.83594C9.76562 1.36719 13.916 5.46875 22.2168 5.46875ZM44.0918-24.8047C45.9961-24.8047 47.6074-26.3672 47.6074-28.2227L47.6074-66.3086L47.3145-72.168L49.3652-69.9219L54.7363-64.1113C55.3711-63.4277 56.25-63.0859 57.0801-63.0859C58.9355-63.0859 60.3027-64.3555 60.3027-66.1133C60.3027-67.0898 59.9121-67.7734 59.2285-68.4082L46.6309-80.4688C45.752-81.3477 45.0195-81.6406 44.0918-81.6406C43.2129-81.6406 42.4805-81.3477 41.5527-80.4688L28.9551-68.4082C28.3203-67.7734 27.9297-67.0898 27.9297-66.1133C27.9297-64.3555 29.248-63.0859 31.1035-63.0859C31.9336-63.0859 32.8613-63.4277 33.4961-64.1113L38.8672-69.9219L40.918-72.168L40.625-66.3086L40.625-28.2227C40.625-26.3672 42.2363-24.8047 44.0918-24.8047Z"/>
  </g>
  <g id="Light-S" transform="matrix(1 0 0 1 1109.75 696)">
   <path d="M21.3994 4.81788L65.3648 4.81788C73.1089 4.81788 76.9985 0.897953 76.9985-6.71484L76.9985-45.3232C76.9985-52.9512 73.1089-56.856 65.3648-56.856L54.5942-56.856L54.5942-51.4106L65.2671-51.4106C69.2485-51.4106 71.5718-49.2339 71.5718-45.0571L71.5718-6.98096C71.5718-2.77051 69.2485-0.642586 65.2671-0.642586L21.4971-0.642586C17.4214-0.642586 15.1924-2.77051 15.1924-6.98096L15.1924-45.0571C15.1924-49.2339 17.4214-51.4106 21.4971-51.4106L32.2002-51.4106L32.2002-56.856L21.3994-56.856C13.689-56.856 9.76562-52.9814 9.76562-45.3232L9.76562-6.71484C9.76562 0.928226 13.689 4.81788 21.3994 4.81788ZM43.3652-24.8804C44.8306-24.8804 46.0786-26.0947 46.0786-27.5264L46.0786-67.7617L45.8613-73.4243L48.8506-70.2852L55.0088-63.8237C55.5073-63.2915 56.2046-63.0103 56.853-63.0103C58.2544-63.0103 59.334-64.0225 59.334-65.3716C59.334-66.1211 59.0342-66.6382 58.502-67.1367L45.314-79.9692C44.647-80.6362 44.0811-80.8687 43.3652-80.8687C42.6831-80.8687 42.1021-80.6362 41.4165-79.9692L28.2134-67.1367C27.7148-66.6382 27.415-66.1211 27.415-65.3716C27.415-64.0225 28.4458-63.0103 29.8623-63.0103C30.5108-63.0103 31.2417-63.2915 31.7251-63.8237L37.8984-70.2852L40.9028-73.4394L40.6855-67.7617L40.6855-27.5264C40.6855-26.0947 41.9336-24.8804 43.3652-24.8804Z"/>
  </g>
  <g id="Thin-S" transform="matrix(1 0 0 1 814.011 696)">
   <path d="M20.3184 3.95704L64.5039 3.95704C71.4473 3.95704 75.0567 0.277352 75.0567-6.55469L75.0567-46.5644C75.0567-53.4316 71.4473-57.0762 64.5039-57.0762L53.3731-57.0762L53.3731-53.7929L64.4063-53.7929C69.0684-53.7929 71.752-51.2558 71.752-46.3984L71.752-6.72071C71.752-1.84962 69.0684 0.638654 64.4063 0.638654L20.416 0.638654C15.5996 0.638654 13.0703-1.84962 13.0703-6.72071L13.0703-46.3984C13.0703-51.2558 15.5996-53.7929 20.416-53.7929L31.5195-53.7929L31.5195-57.0762L20.3184-57.0762C13.3887-57.0762 9.76562-53.5019 9.76562-46.5644L9.76562-6.55469C9.76562 0.347664 13.3887 3.95704 20.3184 3.95704ZM42.4043-24.9805C43.2891-24.9805 44.0567-25.7344 44.0567-26.6055L44.0567-69.6836L43.9395-75.0859L48.1699-70.7656L55.3691-63.4434C55.6875-63.1113 56.1445-62.9102 56.5527-62.9102C57.3535-62.9102 58.0528-63.582 58.0528-64.3906C58.0528-64.8399 57.8731-65.1367 57.541-65.4551L43.5723-79.3086C43.1856-79.6953 42.8399-79.8477 42.4043-79.8477C41.9824-79.8477 41.6016-79.6953 41.2363-79.3086L27.2324-65.4551C26.9141-65.1367 26.7344-64.8399 26.7344-64.3906C26.7344-63.582 27.3848-62.9102 28.2207-62.9102C28.6289-62.9102 29.0996-63.1113 29.3828-63.4434L36.6172-70.7656L40.8828-75.1211L40.7656-69.6836L40.7656-26.6055C40.7656-25.7344 41.5332-24.9805 42.4043-24.9805Z"/>
  </g>
  <g id="Ultralight-S" transform="matrix(1 0 0 1 517.797 696)">
   <path d="M19.7647 3.51613L64.063 3.51613C70.5962 3.51613 74.062-0.0405163 74.062-6.47266L74.062-47.2002C74.062-53.6777 70.5962-57.189 64.063-57.189L52.7476-57.189L52.7476-55.0131L63.9653-55.0131C68.9761-55.0131 71.8442-52.2915 71.8442-47.0854L71.8442-6.58741C71.8442-1.37795 68.9761 1.2949 63.9653 1.2949L19.8623 1.2949C14.6665 1.2949 11.9834-1.37795 11.9834-6.58741L11.9834-47.0854C11.9834-52.2915 14.6665-55.0131 19.8623-55.0131L31.1709-55.0131L31.1709-57.189L19.7647-57.189C13.2349-57.189 9.76562-53.7685 9.76562-47.2002L9.76562-6.47266C9.76562 0.0503033 13.2349 3.51613 19.7647 3.51613ZM41.9121-25.0317C42.4995-25.0317 43.021-25.5498 43.021-26.1338L43.021-70.6679L42.9551-75.937L47.8213-71.0117L55.5537-63.2485C55.7798-63.019 56.1138-62.8589 56.3989-62.8589C56.8921-62.8589 57.3965-63.3565 57.3965-63.8882C57.3965-64.1836 57.2783-64.3677 57.0488-64.5938L42.6802-78.9702C42.437-79.2134 42.2041-79.3247 41.9121-79.3247C41.6235-79.3247 41.3452-79.2134 41.144-78.9702L26.73-64.5938C26.5039-64.3677 26.3858-64.1836 26.3858-63.8882C26.3858-63.3565 26.8413-62.8589 27.3799-62.8589C27.6651-62.8589 28.0025-63.019 28.1831-63.2485L35.961-71.0117L40.8726-75.9824L40.8066-70.6679L40.8066-26.1338C40.8066-25.5498 41.3281-25.0317 41.9121-25.0317Z"/>
  </g>
 </g>
</svg>
