<?xml version="1.0" encoding="UTF-8"?>
<!--Generator: Apple Native CoreSVG 175.5-->
<!DOCTYPE svg
PUBLIC "-//W3C//DTD SVG 1.1//EN"
       "http://www.w3.org/Graphics/SVG/1.1/DTD/svg11.dtd">
<svg version="1.1" xmlns="http://www.w3.org/2000/svg" xmlns:xlink="http://www.w3.org/1999/xlink" width="3300" height="2200">
 <!--glyph: "uni1015DD.medium", point size: 100.0, font version: "18.0d12e2", template writer version: "101"-->
 <g id="Notes">
  <rect height="2200" id="artboard" style="fill:white;opacity:1" width="3300" x="0" y="0"/>
  <line style="fill:none;stroke:black;opacity:1;stroke-width:0.5;" x1="263" x2="3036" y1="292" y2="292"/>
  <text style="stroke:none;fill:black;font-family:sans-serif;font-size:13;font-weight:bold;" transform="matrix(1 0 0 1 263 322)">Weight/Scale Variations</text>
  <text style="stroke:none;fill:black;font-family:sans-serif;font-size:13;text-anchor:middle;" transform="matrix(1 0 0 1 559.711 322)">Ultralight</text>
  <text style="stroke:none;fill:black;font-family:sans-serif;font-size:13;text-anchor:middle;" transform="matrix(1 0 0 1 856.422 322)">Thin</text>
  <text style="stroke:none;fill:black;font-family:sans-serif;font-size:13;text-anchor:middle;" transform="matrix(1 0 0 1 1153.13 322)">Light</text>
  <text style="stroke:none;fill:black;font-family:sans-serif;font-size:13;text-anchor:middle;" transform="matrix(1 0 0 1 1449.84 322)">Regular</text>
  <text style="stroke:none;fill:black;font-family:sans-serif;font-size:13;text-anchor:middle;" transform="matrix(1 0 0 1 1746.56 322)">Medium</text>
  <text style="stroke:none;fill:black;font-family:sans-serif;font-size:13;text-anchor:middle;" transform="matrix(1 0 0 1 2043.27 322)">Semibold</text>
  <text style="stroke:none;fill:black;font-family:sans-serif;font-size:13;text-anchor:middle;" transform="matrix(1 0 0 1 2339.98 322)">Bold</text>
  <text style="stroke:none;fill:black;font-family:sans-serif;font-size:13;text-anchor:middle;" transform="matrix(1 0 0 1 2636.69 322)">Heavy</text>
  <text style="stroke:none;fill:black;font-family:sans-serif;font-size:13;text-anchor:middle;" transform="matrix(1 0 0 1 2933.4 322)">Black</text>
  <line style="fill:none;stroke:black;opacity:1;stroke-width:0.5;" x1="263" x2="3036" y1="1903" y2="1903"/>
  <g transform="matrix(1 0 0 1 263 1933)">
   <path d="M9.24805 0.830078C13.5547 0.830078 17.1387-2.74414 17.1387-7.05078C17.1387-11.3574 13.5449-14.9316 9.23828-14.9316C4.94141-14.9316 1.36719-11.3574 1.36719-7.05078C1.36719-2.74414 4.95117 0.830078 9.24805 0.830078ZM9.24805-0.654297C5.70312-0.654297 2.87109-3.49609 2.87109-7.05078C2.87109-10.6055 5.69336-13.4473 9.23828-13.4473C12.793-13.4473 15.6445-10.6055 15.6445-7.05078C15.6445-3.49609 12.8027-0.654297 9.24805-0.654297ZM5.6543-7.05078C5.6543-6.62109 5.95703-6.32812 6.40625-6.32812L8.50586-6.32812L8.50586-4.20898C8.50586-3.76953 8.79883-3.4668 9.22852-3.4668C9.67773-3.4668 9.9707-3.76953 9.9707-4.20898L9.9707-6.32812L12.0898-6.32812C12.5293-6.32812 12.832-6.62109 12.832-7.05078C12.832-7.49023 12.5293-7.79297 12.0898-7.79297L9.9707-7.79297L9.9707-9.90234C9.9707-10.3516 9.67773-10.6543 9.22852-10.6543C8.79883-10.6543 8.50586-10.3516 8.50586-9.90234L8.50586-7.79297L6.40625-7.79297C5.95703-7.79297 5.6543-7.49023 5.6543-7.05078Z"/>
  </g>
  <g transform="matrix(1 0 0 1 281.867 1933)">
   <path d="M11.709 2.91016C17.1582 2.91016 21.6699-1.61133 21.6699-7.05078C21.6699-12.5 17.1484-17.0117 11.6992-17.0117C6.25977-17.0117 1.74805-12.5 1.74805-7.05078C1.74805-1.61133 6.26953 2.91016 11.709 2.91016ZM11.709 1.25C7.09961 1.25 3.41797-2.44141 3.41797-7.05078C3.41797-11.6602 7.08984-15.3516 11.6992-15.3516C16.3086-15.3516 20.0098-11.6602 20.0098-7.05078C20.0098-2.44141 16.3184 1.25 11.709 1.25ZM7.17773-7.05078C7.17773-6.57227 7.50977-6.25 8.00781-6.25L10.8789-6.25L10.8789-3.36914C10.8789-2.88086 11.2109-2.53906 11.6895-2.53906C12.1777-2.53906 12.5195-2.87109 12.5195-3.36914L12.5195-6.25L15.4004-6.25C15.8887-6.25 16.2305-6.57227 16.2305-7.05078C16.2305-7.53906 15.8887-7.88086 15.4004-7.88086L12.5195-7.88086L12.5195-10.752C12.5195-11.25 12.1777-11.5918 11.6895-11.5918C11.2109-11.5918 10.8789-11.25 10.8789-10.752L10.8789-7.88086L8.00781-7.88086C7.50977-7.88086 7.17773-7.53906 7.17773-7.05078Z"/>
  </g>
  <g transform="matrix(1 0 0 1 305.646 1933)">
   <path d="M14.9707 5.66406C21.9336 5.66406 27.6953-0.0976562 27.6953-7.05078C27.6953-14.0137 21.9238-19.7754 14.9609-19.7754C8.00781-19.7754 2.25586-14.0137 2.25586-7.05078C2.25586-0.0976562 8.01758 5.66406 14.9707 5.66406ZM14.9707 3.84766C8.93555 3.84766 4.08203-1.01562 4.08203-7.05078C4.08203-13.0957 8.92578-17.9492 14.9609-17.9492C21.0059-17.9492 25.8691-13.0957 25.8691-7.05078C25.8691-1.01562 21.0156 3.84766 14.9707 3.84766ZM9.19922-7.05078C9.19922-6.5332 9.57031-6.17188 10.1172-6.17188L14.0625-6.17188L14.0625-2.2168C14.0625-1.67969 14.4336-1.29883 14.9512-1.29883C15.4883-1.29883 15.8594-1.66992 15.8594-2.2168L15.8594-6.17188L19.8145-6.17188C20.3516-6.17188 20.7324-6.5332 20.7324-7.05078C20.7324-7.59766 20.3613-7.96875 19.8145-7.96875L15.8594-7.96875L15.8594-11.9141C15.8594-12.4609 15.4883-12.8418 14.9512-12.8418C14.4336-12.8418 14.0625-12.4609 14.0625-11.9141L14.0625-7.96875L10.1172-7.96875C9.57031-7.96875 9.19922-7.59766 9.19922-7.05078Z"/>
  </g>
  <text style="stroke:none;fill:black;font-family:sans-serif;font-size:13;font-weight:bold;" transform="matrix(1 0 0 1 263 1953)">Design Variations</text>
  <text style="stroke:none;fill:black;font-family:sans-serif;font-size:13;" transform="matrix(1 0 0 1 263 1971)">Symbols are supported in up to nine weights and three scales.</text>
  <text style="stroke:none;fill:black;font-family:sans-serif;font-size:13;" transform="matrix(1 0 0 1 263 1989)">For optimal layout with text and other symbols, vertically align</text>
  <text style="stroke:none;fill:black;font-family:sans-serif;font-size:13;" transform="matrix(1 0 0 1 263 2007)">symbols with the adjacent text.</text>
  <line style="fill:none;stroke:#00AEEF;stroke-width:0.5;opacity:1.0;" x1="776" x2="776" y1="1919" y2="1933"/>
  <g transform="matrix(1 0 0 1 776 1933)">
   <path d="M3.31055 0.15625C3.82812 0.15625 4.08203-0.0390625 4.26758-0.585938L5.52734-4.0332L11.2891-4.0332L12.5488-0.585938C12.7344-0.0390625 12.9883 0.15625 13.4961 0.15625C14.0137 0.15625 14.3457-0.15625 14.3457-0.644531C14.3457-0.810547 14.3164-0.966797 14.2383-1.17188L9.6582-13.3691C9.43359-13.9648 9.0332-14.2676 8.4082-14.2676C7.80273-14.2676 7.39258-13.9746 7.17773-13.3789L2.59766-1.16211C2.51953-0.957031 2.49023-0.800781 2.49023-0.634766C2.49023-0.146484 2.80273 0.15625 3.31055 0.15625ZM6.00586-5.51758L8.37891-12.0898L8.42773-12.0898L10.8008-5.51758Z"/>
  </g>
  <line style="fill:none;stroke:#00AEEF;stroke-width:0.5;opacity:1.0;" x1="793.197" x2="793.197" y1="1919" y2="1933"/>
  <text style="stroke:none;fill:black;font-family:sans-serif;font-size:13;font-weight:bold;" transform="matrix(1 0 0 1 776 1953)">Margins</text>
  <text style="stroke:none;fill:black;font-family:sans-serif;font-size:13;" transform="matrix(1 0 0 1 776 1971)">Leading and trailing margins on the left and right side of each symbol</text>
  <text style="stroke:none;fill:black;font-family:sans-serif;font-size:13;" transform="matrix(1 0 0 1 776 1989)">can be adjusted by modifying the x-location of the margin guidelines.</text>
  <text style="stroke:none;fill:black;font-family:sans-serif;font-size:13;" transform="matrix(1 0 0 1 776 2007)">Modifications are automatically applied proportionally to all</text>
  <text style="stroke:none;fill:black;font-family:sans-serif;font-size:13;" transform="matrix(1 0 0 1 776 2025)">scales and weights.</text>
  <g transform="matrix(1 0 0 1 1289 1933)">
   <path d="M2.8418 1.86523L4.54102 3.57422C5.40039 4.44336 6.38672 4.38477 7.31445 3.35938L18.0078-8.42773L17.041-9.4043L6.42578 2.27539C6.07422 2.67578 5.74219 2.77344 5.27344 2.30469L4.10156 1.14258C3.63281 0.683594 3.74023 0.341797 4.14062-0.0195312L15.6152-10.8203L14.6387-11.7871L3.04688-0.898438C2.06055 0.0195312 1.98242 0.996094 2.8418 1.86523ZM9.25781-16.3281C8.83789-15.918 8.80859-15.3418 9.04297-14.9512C9.27734-14.5898 9.73633-14.3555 10.3809-14.5215C11.8457-14.8633 13.3691-14.9219 14.7949-13.9844L14.209-12.5293C13.8672-11.6992 14.043-11.1133 14.5801-10.5664L16.875-8.25195C17.3633-7.76367 17.7734-7.74414 18.3398-7.8418L19.4043-8.03711L20.0684-7.36328L20.0293-6.80664C19.9902-6.30859 20.1172-5.92773 20.6055-5.44922L21.3672-4.70703C21.8457-4.22852 22.4609-4.19922 22.9297-4.66797L25.8398-7.58789C26.3086-8.05664 26.2891-8.65234 25.8105-9.13086L25.0391-9.89258C24.5605-10.3711 24.1895-10.5273 23.7109-10.4883L23.1348-10.4395L22.4902-11.0742L22.7344-12.1973C22.8613-12.7637 22.7051-13.2031 22.1191-13.7891L19.9219-15.9766C16.582-19.2969 12.1484-19.2188 9.25781-16.3281ZM10.752-15.957C13.1836-17.7344 16.4746-17.4316 18.7012-15.2051L21.1328-12.793C21.3672-12.5586 21.4062-12.373 21.3379-12.0312L21.0156-10.5469L22.5195-9.0625L23.5059-9.12109C23.7598-9.13086 23.8379-9.11133 24.0332-8.91602L24.6094-8.33984L22.168-5.89844L21.5918-6.47461C21.3965-6.66992 21.3672-6.74805 21.377-7.01172L21.4453-7.98828L19.9512-9.47266L18.4277-9.21875C18.1055-9.15039 17.959-9.17969 17.7148-9.41406L15.7129-11.416C15.459-11.6504 15.4297-11.8164 15.5859-12.1875L16.4648-14.2773C14.9023-15.7324 12.8711-16.3574 10.8398-15.7617C10.6836-15.7227 10.625-15.8496 10.752-15.957Z"/>
  </g>
  <text style="stroke:none;fill:black;font-family:sans-serif;font-size:13;font-weight:bold;" transform="matrix(1 0 0 1 1289 1953)">Exporting</text>
  <text style="stroke:none;fill:black;font-family:sans-serif;font-size:13;" transform="matrix(1 0 0 1 1289 1971)">Symbols should be outlined when exporting to ensure the</text>
  <text style="stroke:none;fill:black;font-family:sans-serif;font-size:13;" transform="matrix(1 0 0 1 1289 1989)">design is preserved when submitting to Xcode.</text>
  <text id="template-version" style="stroke:none;fill:black;font-family:sans-serif;font-size:13;text-anchor:end;" transform="matrix(1 0 0 1 3036 1933)">Template v.4.0</text>
  <text style="stroke:none;fill:black;font-family:sans-serif;font-size:13;text-anchor:end;" transform="matrix(1 0 0 1 3036 1951)">Requires Xcode 14 or greater</text>
  <text id="descriptive-name" style="stroke:none;fill:black;font-family:sans-serif;font-size:13;text-anchor:end;" transform="matrix(1 0 0 1 3036 1969)">Generated from mountain.2</text>
  <text style="stroke:none;fill:black;font-family:sans-serif;font-size:13;text-anchor:end;" transform="matrix(1 0 0 1 3036 1987)">Typeset at 100 points</text>
  <text style="stroke:none;fill:black;font-family:sans-serif;font-size:13;" transform="matrix(1 0 0 1 263 726)">Small</text>
  <text style="stroke:none;fill:black;font-family:sans-serif;font-size:13;" transform="matrix(1 0 0 1 263 1156)">Medium</text>
  <text style="stroke:none;fill:black;font-family:sans-serif;font-size:13;" transform="matrix(1 0 0 1 263 1586)">Large</text>
 </g>
 <g id="Guides">
  <g id="H-reference" style="fill:#27AAE1;stroke:none;" transform="matrix(1 0 0 1 339 696)">
   <path d="M0.993654 0L3.63775 0L29.3281-67.1323L30.0303-67.1323L30.0303-70.459L28.1226-70.459ZM11.6885-24.4799L46.9815-24.4799L46.2315-26.7285L12.4385-26.7285ZM55.1196 0L57.7637 0L30.6382-70.459L29.4326-70.459L29.4326-67.1323Z"/>
  </g>
  <line id="Baseline-S" style="fill:none;stroke:#27AAE1;opacity:1;stroke-width:0.5;" x1="263" x2="3036" y1="696" y2="696"/>
  <line id="Capline-S" style="fill:none;stroke:#27AAE1;opacity:1;stroke-width:0.5;" x1="263" x2="3036" y1="625.541" y2="625.541"/>
  <g id="H-reference" style="fill:#27AAE1;stroke:none;" transform="matrix(1 0 0 1 339 1126)">
   <path d="M0.993654 0L3.63775 0L29.3281-67.1323L30.0303-67.1323L30.0303-70.459L28.1226-70.459ZM11.6885-24.4799L46.9815-24.4799L46.2315-26.7285L12.4385-26.7285ZM55.1196 0L57.7637 0L30.6382-70.459L29.4326-70.459L29.4326-67.1323Z"/>
  </g>
  <line id="Baseline-M" style="fill:none;stroke:#27AAE1;opacity:1;stroke-width:0.5;" x1="263" x2="3036" y1="1126" y2="1126"/>
  <line id="Capline-M" style="fill:none;stroke:#27AAE1;opacity:1;stroke-width:0.5;" x1="263" x2="3036" y1="1055.54" y2="1055.54"/>
  <g id="H-reference" style="fill:#27AAE1;stroke:none;" transform="matrix(1 0 0 1 339 1556)">
   <path d="M0.993654 0L3.63775 0L29.3281-67.1323L30.0303-67.1323L30.0303-70.459L28.1226-70.459ZM11.6885-24.4799L46.9815-24.4799L46.2315-26.7285L12.4385-26.7285ZM55.1196 0L57.7637 0L30.6382-70.459L29.4326-70.459L29.4326-67.1323Z"/>
  </g>
  <line id="Baseline-L" style="fill:none;stroke:#27AAE1;opacity:1;stroke-width:0.5;" x1="263" x2="3036" y1="1556" y2="1556"/>
  <line id="Capline-L" style="fill:none;stroke:#27AAE1;opacity:1;stroke-width:0.5;" x1="263" x2="3036" y1="1485.54" y2="1485.54"/>
  <line id="left-margin-Regular-M" style="fill:none;stroke:#00AEEF;stroke-width:0.5;opacity:1.0;" x1="1351.54" x2="1351.54" y1="1030.79" y2="1150.12"/>
  <line id="right-margin-Regular-M" style="fill:none;stroke:#00AEEF;stroke-width:0.5;opacity:1.0;" x1="1548.14" x2="1548.14" y1="1030.79" y2="1150.12"/>
 </g>
 <g id="Symbols">
  <g id="Black-L" transform="matrix(1 0 0 1 2799.41 1556)">
   <path d="M103.314 25.5085L234.063 25.5085C251.573 25.5085 256.431 8.59177 247.455-3.17917L186.942-82.1809C176.421-95.8871 160.919-95.8119 150.377-82.0641L89.9218-3.15835C80.8659 8.61259 85.8404 25.5085 103.314 25.5085ZM111.689 7.04605C108.833 7.04605 107.545 4.22836 109.263 1.93272L165.009-70.74C167.074-73.4865 170.302-73.5241 172.347-70.8776L228.093 1.97031C229.889 4.26595 228.543 7.04605 225.609 7.04605ZM146.653-26.2086C159.139-26.2086 163.974-35.0175 168.678-35.0175C173.405-35.0175 178.219-26.2086 190.704-26.2086C201.068-26.2086 206.041-32.897 209.974-35.1251L202.806-44.6944C198.465-41.7319 194.867-38.1185 190.704-38.1185C183.908-38.1185 178.366-46.9274 168.678-46.9274C159.575-46.9274 153.529-38.1185 146.653-38.1185C142.45-38.1185 138.501-41.8523 134.079-44.8148L127.726-35.013C131.684-32.4929 136.635-26.2086 146.653-26.2086ZM112.78-8.65538L124.395-23.9219L99.3184-56.5859C88.8893-70.2885 73.2905-70.2677 62.8614-56.5275L19.7783-0.399922C11.499 10.3763 17.9349 25.5085 31.5589 25.5085L103.347 25.5085L103.347 6.98764L43.5587 6.98764C40.6773 6.98764 39.3671 4.14914 41.1074 1.87432L77.5901-45.319C79.639-47.9852 82.6564-47.9852 84.6064-45.3982ZM63.0704-11.5589C73.5193-11.5589 77.5027-18.5479 81.3709-18.5479C85.2403-18.5479 89.2445-11.5589 99.7507-11.5589C106.057-11.5589 110.008-14.4843 112.95-16.8563L109.806-26.7513C106.347-24.4637 103.325-21.7385 99.7507-21.7385C93.7339-21.7385 89.1619-28.7067 81.3709-28.7067C73.6603-28.7067 69.0091-21.7385 63.0704-21.7385C59.4636-21.7385 56.3688-24.7905 52.7686-27.1886L47.672-18.6891C50.9005-16.425 55.074-11.5589 63.0704-11.5589Z"/>
  </g>
  <g id="Heavy-L" transform="matrix(1 0 0 1 2504.53 1556)">
   <path d="M99.9709 24.4257L232.029 24.4257C247.977 24.4257 252.348 8.96836 244.204-1.72502L182.433-82.4939C172.988-94.8042 158.997-94.7754 149.522-82.4047L87.796-1.69483C79.5711 8.99854 84.0312 24.4257 99.9709 24.4257ZM106.821 8.08547C104.057 8.08547 102.912 5.45902 104.523 3.31165L162.442-72.3501C164.422-74.9937 167.572-75.0081 169.527-72.4696L227.446 3.32609C229.127 5.47345 227.937 8.08547 225.103 8.08547ZM144.317-27.9511C156.301-27.9511 160.983-36.636 165.985-36.636C171.023-36.636 175.674-27.9511 187.652-27.9511C197.089-27.9511 201.866-34.2578 205.715-36.8436L199.154-45.4666C194.999-42.3768 191.586-38.7569 187.652-38.7569C181.123-38.7569 175.731-47.4417 165.985-47.4417C156.69-47.4417 150.927-38.7569 144.317-38.7569C140.363-38.7569 136.677-42.4829 132.435-45.5727L126.489-36.7768C130.39-33.9679 135.132-27.9511 144.317-27.9511ZM111.153-11.1947L121.402-24.713L96.6065-56.6851C87.1751-68.9786 73.272-68.9484 63.8405-56.6405L19.7191 0.141286C11.8591 10.2699 17.4404 24.4257 30.539 24.4257L100.057 24.4257L100.057 8.04085L40.026 8.04085C37.3034 8.04085 36.1222 5.38421 37.7694 3.26703L76.8194-46.6696C78.8209-49.2327 81.7099-49.2327 83.6119-46.7444ZM62.0962-13.2257C72.2815-13.2257 76.1938-20.3355 80.4288-20.3355C84.6694-20.3355 88.6118-13.2257 98.8361-13.2257C104.765-13.2257 108.568-16.2358 111.451-18.7279L108.094-27.5424C104.872-25.1767 102.084-22.5526 98.8361-22.5526C93.0353-22.5526 88.5075-29.6322 80.4288-29.6322C72.4305-29.6322 67.8278-22.5526 62.0962-22.5526C58.7094-22.5526 55.7278-25.7785 52.1696-28.3523L47.2585-20.7275C50.4896-18.2563 54.5378-13.2257 62.0962-13.2257Z"/>
  </g>
  <g id="Bold-L" transform="matrix(1 0 0 1 2210.14 1556)">
   <path d="M95.9336 22.9842L229.389 22.9842C243.379 22.9842 247.203 9.3923 240.065 0.00605154L176.869-82.7664C168.746-93.3628 156.585-93.3803 148.425-82.708L85.2574 0.044038C78.0398 9.43028 81.9218 22.9842 95.9336 22.9842ZM100.991 9.30175C98.2671 9.30175 97.276 6.84639 98.7866 4.84615L159.209-74.2584C161.119-76.8161 164.191-76.8073 166.076-74.3548L226.498 4.83737C228.063 6.8376 227.042 9.30175 224.265 9.30175ZM141.376-30.0209C152.752-30.0209 157.219-38.5669 162.642-38.5669C168.117-38.5669 172.546-30.0209 183.909-30.0209C192.297-30.0209 196.829-35.8364 200.6-38.7634L194.837-46.1885C190.875-43.0045 187.648-39.4067 183.909-39.4067C177.598-39.4067 172.406-47.9528 162.642-47.9528C153.184-47.9528 147.767-39.4067 141.376-39.4067C137.632-39.4067 134.217-43.1026 130.161-46.2866L124.781-38.7579C128.643-35.6849 133.123-30.0209 141.376-30.0209ZM109.125-14.1959L117.675-25.5175L93.1741-56.7559C84.9872-67.3125 73.1148-67.2746 64.9279-56.7267L19.5753 0.899272C12.3048 10.1616 16.9301 22.9842 29.1893 22.9842L96.1039 22.9842L96.1039 9.27255L35.7879 9.27255C33.2054 9.27255 32.1631 6.7792 33.7248 4.81695L75.7324-48.3223C77.7023-50.7995 80.4449-50.7995 82.3228-48.3895ZM60.8004-15.382C70.648-15.382 74.4458-22.6081 79.1714-22.6081C83.9103-22.6081 87.746-15.382 97.6096-15.382C103.048-15.382 106.643-18.3879 109.435-20.9366L105.944-28.4141C103.013-26.0306 100.495-23.589 97.6096-23.589C91.9808-23.589 87.5291-30.7771 79.1714-30.7771C70.8941-30.7771 66.3752-23.589 60.8004-23.589C57.6678-23.589 54.8394-26.8811 51.3871-29.5658L46.7959-23.0319C49.9899-20.4039 53.8471-15.382 60.8004-15.382Z"/>
  </g>
  <g id="Semibold-L" transform="matrix(1 0 0 1 1915.02 1556)">
   <path d="M93.1503 21.9905L227.569 21.9905C240.209 21.9905 243.655 9.68456 237.212 1.19944L173.033-82.9543C165.822-92.369 154.923-92.4186 147.668-82.9171L83.5073 1.24281C76.9841 9.72792 80.4675 21.9905 93.1503 21.9905ZM96.9711 10.1402C94.2756 10.1402 93.3909 7.80283 94.8319 5.90403L156.98-75.574C158.841-78.0725 161.86-78.0477 163.697-75.6545L225.844 5.87924C227.329 7.77804 226.426 10.1402 223.687 10.1402ZM139.348-31.4477C150.306-31.4477 154.625-39.8981 160.338-39.8981C166.113-39.8981 170.389-31.4477 181.328-31.4477C188.994-31.4477 193.356-36.9246 197.074-40.0869L191.861-46.6861C188.032-43.4373 184.933-39.8547 181.328-39.8547C175.169-39.8547 170.114-48.3051 160.338-48.3051C150.767-48.3051 145.588-39.8547 139.348-39.8547C135.749-39.8547 132.521-43.5298 128.593-46.7787L123.603-40.1237C127.438-36.8685 131.738-31.4477 139.348-31.4477ZM107.727-16.265L115.107-26.0722L90.8078-56.8047C83.4788-66.164 73.0064-66.1206 65.6775-56.7861L19.4762 1.42182C12.612 10.087 16.5783 21.9905 28.2589 21.9905L93.3784 21.9905L93.3784 10.1217L32.8662 10.1217C30.3802 10.1217 29.4337 7.74089 30.9365 5.88546L74.983-49.4616C76.9311-51.8797 79.5728-51.8797 81.4341-49.5236ZM59.9071-16.8686C69.5218-16.8686 73.2407-24.1748 78.3046-24.1748C83.387-24.1748 87.1492-16.8686 96.764-16.8686C101.864-16.8686 105.317-19.8715 108.046-22.4593L104.461-29.015C101.732-26.6192 99.3996-24.3036 96.764-24.3036C91.2538-24.3036 86.8547-31.5664 78.3046-31.5664C69.8349-31.5664 65.3738-24.3036 59.9071-24.3036C56.9497-24.3036 54.2269-27.6412 50.8476-30.4023L46.477-24.6205C49.6454-21.8844 53.3709-16.8686 59.9071-16.8686Z"/>
  </g>
  <g id="Medium-L" transform="matrix(1 0 0 1 1619.53 1556)">
   <path d="M91.0399 21.237L226.19 21.237C237.805 21.237 240.966 9.90616 235.049 2.10432L170.125-83.0967C163.605-91.6155 153.662-91.6894 147.094-83.0757L82.1802 2.15176C76.1836 9.9536 79.3648 21.237 91.0399 21.237ZM93.9233 10.776C91.249 10.776 90.4451 8.52805 91.8333 6.70616L155.29-76.5715C157.114-79.0252 160.093-78.9883 161.892-76.64L225.349 6.66922C226.773 8.49112 225.958 10.776 223.248 10.776ZM137.811-32.5296C148.451-32.5296 152.658-40.9075 158.591-40.9075C164.594-40.9075 168.754-32.5296 179.371-32.5296C186.49-32.5296 190.723-37.7498 194.4-41.0905L189.605-47.0635C185.876-43.7654 182.875-40.1944 179.371-40.1944C173.326-40.1944 168.375-48.5722 158.591-48.5722C148.934-48.5722 143.936-40.1944 137.811-40.1944C134.322-40.1944 131.235-43.8538 127.404-47.1519L122.71-41.1593C126.525-37.766 130.688-32.5296 137.811-32.5296ZM106.667-17.8338L113.159-26.4928L89.0136-56.8417C82.3352-65.2931 72.9243-65.2456 66.2459-56.8311L19.401 1.81804C12.845 10.0303 16.3115 21.237 27.5534 21.237L91.3119 21.237L91.3119 10.7655L30.6508 10.7655C28.238 10.7655 27.3642 8.47009 28.8223 6.69564L74.4148-50.3255C76.3464-52.6988 78.9116-52.6988 80.7602-50.3835ZM59.2297-17.9958C68.6679-17.9958 72.327-25.3628 77.6473-25.3628C82.9902-25.3628 86.6967-17.9958 96.1229-17.9958C100.966-17.9958 104.311-20.9964 106.992-23.6138L103.337-29.4707C100.761-27.0655 98.569-24.8454 96.1229-24.8454C90.7026-24.8454 86.3433-32.1649 77.6473-32.1649C69.0318-32.1649 64.6145-24.8454 59.2297-24.8454C56.4051-24.8454 53.7625-28.2175 50.4386-31.0366L46.2352-25.825C49.3841-23.007 53.0099-17.9958 59.2297-17.9958Z"/>
  </g>
  <g id="Regular-L" transform="matrix(1 0 0 1 1324.4 1556)">
   <path d="M88.2871 20.2542L224.39 20.2542C234.67 20.2542 237.457 10.1952 232.228 3.28459L166.331-83.2826C160.712-90.6327 152.018-90.7383 146.346-83.2826L80.4493 3.33735C75.1395 10.248 77.9265 20.2542 88.2871 20.2542ZM89.9479 11.6053C87.3013 11.6053 86.6026 9.47398 87.9221 7.75241L153.085-77.8726C154.862-80.2678 157.787-80.215 159.539-77.9254L224.702 7.69964C226.047 9.42122 225.348 11.6053 222.676 11.6053ZM135.805-33.9408C146.031-33.9408 150.092-42.2241 156.312-42.2241C162.613-42.2241 166.621-33.9408 176.819-33.9408C183.223-33.9408 187.289-38.826 190.913-42.3994L186.661-47.5557C183.065-44.1934 180.19-40.6374 176.819-40.6374C170.923-40.6374 166.108-48.9207 156.312-48.9207C146.544-48.9207 141.782-40.6374 135.805-40.6374C132.46-40.6374 129.557-44.2763 125.853-47.6387L121.546-42.51C125.333-38.9367 129.319-33.9408 135.805-33.9408ZM105.284-19.8801L110.618-27.0414L86.6732-56.8899C80.8434-64.1571 72.8171-64.1044 66.9872-56.8899L19.3029 2.33485C13.1489 9.9565 15.9636 20.2542 26.6331 20.2542L88.6165 20.2542L88.6165 11.6053L27.7611 11.6053C25.4439 11.6053 24.6648 9.42122 26.0647 7.75241L73.6737-51.4524C75.5837-53.7671 78.0491-53.7671 79.8813-51.5051ZM58.3462-19.466C67.5541-19.466 71.1351-26.9123 76.79-26.9123C82.4726-26.9123 86.1064-19.466 95.2866-19.466C99.7948-19.466 102.999-22.4637 105.617-25.1197L101.871-30.065C99.4936-27.6477 97.4856-25.552 95.2866-25.552C89.9836-25.552 85.6762-32.9456 76.79-32.9456C67.9843-32.9456 63.6241-25.552 58.3462-25.552C55.6949-25.552 53.1568-28.9693 49.9051-31.864L45.9198-27.3962C49.0434-24.4713 52.5389-19.466 58.3462-19.466Z"/>
  </g>
  <g id="Light-L" transform="matrix(1 0 0 1 1029.63 1556)">
   <path d="M86.1687 18.6128L221.794 18.6128C230.567 18.6128 233.335 10.2143 228.659 4.02892L162.629-82.7291C157.85-88.9914 150.147-89.0588 145.334-82.7291L79.3042 4.0626C74.5478 10.248 77.3158 18.6128 86.1687 18.6128ZM87.1996 11.987C84.1141 11.987 83.3772 9.55032 84.8303 7.69515L150.509-78.6361C152.457-81.2411 155.459-81.2075 157.421-78.6697L223.099 7.66147C224.539 9.51664 223.802 11.987 220.73 11.987ZM133.458-34.7997C143.359-34.7997 147.115-43.0829 153.965-43.0829C160.895-43.0829 164.617-34.7997 174.472-34.7997C180.799-34.7997 184.674-39.2268 188.413-42.3803L185.001-46.5442C181.309-43.5254 178.281-40.1794 174.472-40.1794C168.003-40.1794 163.417-48.4626 153.965-48.4626C144.559-48.4626 140.007-40.1794 133.458-40.1794C129.635-40.1794 126.561-43.6656 122.742-46.6844L119.236-42.5673C123.196-39.4138 126.99-34.7997 133.458-34.7997ZM103.795-21.0252L107.927-26.4688L83.8295-56.6036C78.9158-62.7257 71.8437-62.692 66.93-56.6036L18.7495 3.42271C13.4542 10.0328 16.2689 18.6128 25.1445 18.6128L86.6698 18.6128L86.6698 11.987L25.719 11.987C23.1346 11.987 22.3173 9.51664 23.8508 7.69515L72.0705-52.4639C74.1333-54.9885 76.5795-54.9885 78.6217-52.4975ZM56.8767-21.5463C65.7792-21.5463 69.1121-28.859 75.3396-28.859C81.6138-28.859 84.9804-21.5463 93.8361-21.5463C97.8481-21.5463 100.766-23.8379 103.194-25.9404L100.191-29.9695C98.0049-28.0485 96.0542-26.449 93.8361-26.449C88.0369-26.449 83.9204-33.7281 75.3396-33.7281C66.8391-33.7281 62.6889-26.449 56.8767-26.449C54.2826-26.449 51.9353-28.9502 49.1035-31.2342L45.9198-27.568C48.7571-25.1774 51.89-21.5463 56.8767-21.5463Z"/>
  </g>
  <g id="Thin-L" transform="matrix(1 0 0 1 735.495 1556)">
   <path d="M83.3668 16.442L218.362 16.442C225.14 16.442 227.883 10.2395 223.939 5.01335L157.732-81.9971C154.063-86.8206 147.674-86.8375 143.997-81.9971L77.7897 5.02178C73.7653 10.248 76.508 16.442 83.3668 16.442ZM83.5648 12.4918C79.8987 12.4918 79.1114 9.65129 80.7411 7.61942L147.101-79.6457C149.277-82.5285 152.38-82.52 154.619-79.6542L220.979 7.61099C222.545 9.64285 221.758 12.4918 218.155 12.4918ZM130.353-35.9355C139.825-35.9355 143.177-44.2188 150.86-44.2188C158.624-44.2188 161.967-35.9355 171.367-35.9355C177.593-35.9355 181.216-39.7569 185.106-42.3551L182.805-45.2064C178.987-42.6419 175.757-39.5736 171.367-39.5736C164.141-39.5736 159.858-47.8568 150.86-47.8568C141.934-47.8568 137.659-39.5736 130.353-39.5736C125.899-39.5736 122.598-42.8579 118.627-45.4223L116.182-42.643C120.368-40.0448 123.911-35.9355 130.353-35.9355ZM101.826-22.5397L104.368-25.7116L80.0685-56.225C76.3664-60.8326 70.5564-60.8242 66.8543-56.225L18.0175 4.8615C13.8581 10.1338 16.6728 16.442 23.1756 16.442L84.0951 16.442L84.0951 12.4918L23.0181 12.4918C20.0803 12.4918 19.2125 9.64285 20.9227 7.61942L69.9502-53.8017C72.2149-56.604 74.6359-56.604 76.9557-53.8101ZM54.933-24.2977C63.4317-24.2977 66.4365-31.4337 73.4212-31.4337C80.4779-31.4337 83.4911-24.2977 91.9178-24.2977C95.2735-24.2977 97.8126-25.6553 99.9879-27.0258L97.9701-29.8433C96.036-28.5785 94.1611-27.6354 91.9178-27.6354C85.4622-27.6354 81.5981-34.763 73.4212-34.763C65.3246-34.763 61.4521-27.6354 54.933-27.6354C52.4147-27.6354 50.3198-28.925 48.0433-30.4012L45.9198-27.7951C48.3785-26.1114 51.0318-24.2977 54.933-24.2977Z"/>
  </g>
  <g id="Ultralight-L" transform="matrix(1 0 0 1 440.102 1556)">
   <path d="M81.9317 15.3302L216.603 15.3302C222.36 15.3302 225.09 10.2525 221.521 5.51757L155.224-81.6221C152.124-85.7087 146.407-85.6997 143.311-81.6221L77.014 5.51308C73.3645 10.248 76.0943 15.3302 81.9317 15.3302ZM81.7031 12.7504C77.7396 12.7504 76.9264 9.703 78.6467 7.58064L145.356-80.1629C147.648-83.1878 150.802-83.1923 153.184-80.1584L219.893 7.58513C221.524 9.7075 220.71 12.7504 216.836 12.7504ZM128.763-36.5173C138.015-36.5173 141.16-44.8006 149.27-44.8006C157.46-44.8006 160.609-36.5173 169.777-36.5173C175.951-36.5173 179.445-40.0284 183.412-42.3422L181.68-44.5211C177.797-42.1894 174.464-39.2633 169.777-39.2633C162.163-39.2633 158.035-47.5465 149.27-47.5465C140.589-47.5465 136.457-39.2633 128.763-39.2633C123.986-39.2633 120.568-42.4442 116.52-44.7759L114.618-42.6818C118.92-40.3681 122.334-36.5173 128.763-36.5173ZM100.818-23.3154L102.545-25.3237L78.1421-56.0311C75.0606-59.8629 69.8971-59.8674 66.8155-56.0311L17.6425 5.59844C14.0649 10.1855 16.8796 15.3302 22.1672 15.3302L82.7764 15.3302L82.7764 12.7504L21.6348 12.7504C18.5159 12.7504 17.6223 9.7075 19.423 7.58064L68.8642-54.4869C71.2323-57.4314 73.6404-57.4314 76.1024-54.4824ZM53.9375-25.7069C62.2293-25.7069 65.066-32.7524 72.4386-32.7524C79.8961-32.7524 82.7283-25.7069 90.9352-25.7069C93.9547-25.7069 96.3-26.5861 98.3459-27.5817L96.8323-29.7787C95.0276-28.85 93.1914-28.2431 90.9352-28.2431C84.1435-28.2431 80.4087-35.2931 72.4386-35.2931C64.5489-35.2931 60.8186-28.2431 53.9375-28.2431C51.458-28.2431 49.4924-28.912 47.5003-29.9746L45.9198-27.9115C48.1846-26.5897 50.5922-25.7069 53.9375-25.7069Z"/>
  </g>
  <g id="Black-M" transform="matrix(1 0 0 1 2828.29 1126)">
   <path d="M82.6285 12.535L182.735 12.535C197.439 12.535 201.618-1.60038 194.025-11.5477L148.206-71.2607C139.243-82.9317 126.068-82.8285 117.1-71.1465L71.3381-11.5422C63.6828-1.59489 67.9763 12.535 82.6285 12.535ZM90.3412-3.31845C87.9908-3.31845 86.8648-5.70715 88.3061-7.63121L129.697-61.4605C131.392-63.7054 133.971-63.757 135.661-61.5802L177.052-7.57961C178.556-5.65555 177.373-3.31845 174.96-3.31845ZM115.307-26.8594C125.368-26.8594 129.204-33.7906 132.679-33.7906C136.159-33.7906 139.99-26.8594 150.051-26.8594C158.867-26.8594 162.863-32.3071 165.997-33.669L160.035-41.7617C156.501-39.6224 153.533-36.8571 150.051-36.8571C144.479-36.8571 140.088-43.7883 132.679-43.7883C125.841-43.7883 120.942-36.8571 115.307-36.8571C111.773-36.8571 108.464-39.7358 104.867-41.8751L99.7053-33.5537C102.844-31.9063 106.834-26.8594 115.307-26.8594ZM88.5711-12.6142L98.5824-25.7116L78.8915-51.6512C70.0783-63.323 56.6652-63.3175 47.852-51.5941L15.2989-8.5633C8.64059 0.20502 14.3612 12.535 25.1249 12.535L82.6312 12.535L82.6312-3.37555L36.5061-3.37555C34.1012-3.37555 32.97-5.76974 34.4165-7.68831L60.5575-42.0226C62.2062-44.2052 64.6518-44.2052 66.2322-42.0852ZM49.5014-15.7402C57.7818-15.7402 60.8955-21.0331 63.6547-21.0331C66.4135-21.0331 69.5327-15.7402 77.8705-15.7402C83.0125-15.7402 86.1631-17.8382 88.466-19.4978L86.3153-27.9682C83.4571-26.3303 80.9228-24.1994 77.8705-24.1994C72.9562-24.1994 69.402-29.4867 63.6547-29.4867C57.9696-29.4867 54.3528-24.1994 49.5014-24.1994C46.5257-24.1994 44.0567-26.2902 41.2883-27.9144L37.2889-20.6864C39.749-19.1827 43.0409-15.7402 49.5014-15.7402Z"/>
  </g>
  <g id="Heavy-M" transform="matrix(1 0 0 1 2533.18 1126)">
   <path d="M79.5554 11.6279L180.986 11.6279C194.302 11.6279 198.007-1.23401 191.176-10.1948L144.139-71.6178C136.151-82.0246 124.363-81.9701 116.358-71.5305L69.3656-10.1784C62.4717-1.2176 66.264 11.6279 79.5554 11.6279ZM85.8363-2.33756C83.6157-2.33756 82.6328-4.51115 83.9572-6.27794L127.425-62.9642C129.022-65.0889 131.517-65.1162 133.1-63.0678L176.568-6.25072C177.95-4.48394 176.923-2.33756 174.645-2.33756ZM113.241-28.4836C122.841-28.4836 126.555-35.2936 130.262-35.2936C133.988-35.2936 137.686-28.4836 147.284-28.4836C155.201-28.4836 159.022-33.6005 162.064-35.3508L156.619-42.6099C153.274-40.3145 150.502-37.5234 147.284-37.5234C142.026-37.5234 137.76-44.3333 130.262-44.3333C123.203-44.3333 118.561-37.5234 113.241-37.5234C109.993-37.5234 106.957-40.4085 103.548-42.7039L98.7088-35.2726C101.776-33.3042 105.579-28.4836 113.241-28.4836ZM87.1185-14.9909L95.9042-26.5378L76.5028-51.7746C68.5804-62.1745 56.7369-62.1581 48.8145-51.7309L15.2921-8.13459C8.96447 0.0939748 13.8497 11.6279 24.2652 11.6279L79.5946 11.6279L79.5946-2.38118L33.2411-2.38118C31.016-2.38118 30.0145-4.57118 31.3576-6.32156L59.952-43.2496C61.5403-45.312 63.862-45.312 65.3762-43.3096ZM48.6846-17.1777C56.7355-17.1777 59.8025-22.6009 62.8674-22.6009C65.9346-22.6009 69.018-17.1777 77.1103-17.1777C81.9298-17.1777 84.9611-19.4236 87.225-21.2516L84.7968-28.7504C82.1527-26.9903 79.8417-24.9124 77.1103-24.9124C72.4529-24.9124 68.9242-30.3192 62.8674-30.3192C56.8729-30.3192 53.2843-24.9124 48.6846-24.9124C45.9188-24.9124 43.5427-27.2578 40.7766-29.1101L36.8846-22.6632C39.3738-20.9078 42.5767-17.1777 48.6846-17.1777Z"/>
  </g>
  <g id="Bold-M" transform="matrix(1 0 0 1 2238.27 1126)">
   <path d="M76.1177 10.6132L179.029 10.6132C190.793 10.6132 193.968-0.824163 187.988-8.68142L139.59-72.0172C132.693-81.0098 122.454-81.01 115.529-71.9601L67.1591-8.65279C61.1168-0.79554 64.3486 10.6132 76.1177 10.6132ZM80.7969-1.24029C78.7215-1.24029 77.8988-3.17325 79.0924-4.7641L124.883-64.6462C126.37-66.6366 128.771-66.6366 130.235-64.7319L176.026-4.76417C177.272-3.17332 176.42-1.24029 174.293-1.24029ZM110.929-30.3005C120.013-30.3005 123.592-36.9748 127.559-36.9748C131.56-36.9748 135.11-30.3005 144.189-30.3005C151.099-30.3005 154.727-35.0473 157.665-37.2321L152.798-43.5586C149.665-41.0886 147.111-38.2687 144.189-38.2687C139.282-38.2687 135.156-44.943 127.559-44.943C120.253-44.943 115.899-38.2687 110.929-38.2687C108.003-38.2687 105.272-41.1611 102.072-43.6311L97.5939-37.1955C100.581-34.868 104.175-30.3005 110.929-30.3005ZM85.4936-17.6496L92.9083-27.4619L73.8307-51.9125C66.9048-60.8898 56.8172-60.8612 49.8912-51.884L15.2845-7.65502C9.32677-0.0302453 13.2774 10.6132 23.3035 10.6132L76.1977 10.6132L76.1977-1.26884L29.5887-1.26884C27.5648-1.26884 26.7083-3.23042 27.9357-4.79265L59.2746-44.6221C60.7953-46.5502 62.9786-46.5502 64.4187-44.6793ZM47.771-18.7858C55.5651-18.7858 58.5799-24.3548 61.9868-24.3548C65.399-24.3548 68.4423-18.7858 76.2598-18.7858C80.7186-18.7858 83.6165-21.1972 85.8367-23.2136L83.098-29.6254C80.6936-27.7287 78.6323-25.7101 76.2598-25.7101C71.8898-25.7101 68.3898-31.2504 61.9868-31.2504C55.6462-31.2504 52.089-25.7101 47.771-25.7101C45.2398-25.7101 42.9678-28.3403 40.2043-30.4477L36.4324-24.8746C38.9541-22.8375 42.0574-18.7858 47.771-18.7858Z"/>
  </g>
  <g id="Semibold-M" transform="matrix(1 0 0 1 1942.8 1126)">
   <path d="M73.7478 9.91362L177.68 9.91362C188.374 9.91362 191.183-0.54162 185.79-7.6381L136.453-72.2925C130.308-80.3103 121.139-80.3481 114.956-72.2562L65.6379-7.60106C60.1828-0.504577 63.0282 9.91362 73.7478 9.91362ZM77.3227-0.483837C75.3475-0.483837 74.6351-2.2509 75.7387-3.72047L123.131-65.8058C124.542-67.7036 126.879-67.6847 128.26-65.8792L175.652-3.73936C176.804-2.26979 176.074-0.483837 174.05-0.483837ZM109.336-31.5531C118.064-31.5531 121.549-38.1339 125.696-38.1339C129.887-38.1339 133.334-31.5531 142.055-31.5531C148.272-31.5531 151.765-36.0447 154.632-38.5291L150.163-44.2127C147.176-41.6223 144.773-38.7825 142.055-38.7825C137.39-38.7825 133.361-45.3633 125.696-45.3633C118.219-45.3633 114.063-38.7825 109.336-38.7825C106.63-38.7825 104.111-41.68 101.054-44.2703L96.8254-38.5212C99.7578-35.9461 103.207-31.5531 109.336-31.5531ZM84.3734-19.4826L90.8429-28.0989L71.9886-52.0077C65.7496-60.0041 56.8725-59.9671 50.6335-51.9895L15.2793-7.3244C9.57654-0.115882 12.8829 9.91362 22.6405 9.91362L73.8559 9.91362L73.8559-0.501993L27.0708-0.501993C25.1855-0.501993 24.429-2.3061 25.5767-3.73863L58.8076-45.5683C60.2818-47.4038 62.3695-47.4038 63.7586-45.6235ZM47.1412-19.8944C54.7582-19.8944 57.737-25.5639 61.3798-25.5639C65.0296-25.5639 68.0454-19.8944 75.6735-19.8944C79.8835-19.8944 82.6896-22.4199 84.8797-24.5661L81.9269-30.2287C79.6877-28.2377 77.7986-26.26 75.6735-26.26C71.5016-26.26 68.0213-31.8924 61.3798-31.8924C54.8005-31.8924 51.265-26.26 47.1412-26.26C44.7718-26.26 42.5714-29.0865 39.8097-31.3698L36.1207-26.3991C38.6647-24.1678 41.6994-19.8944 47.1412-19.8944Z"/>
  </g>
  <g id="Medium-M" transform="matrix(1 0 0 1 1647.03 1126)">
   <path d="M71.9508 9.3832L176.658 9.3832C186.54 9.3832 189.071-0.327383 184.124-6.84702L134.075-72.5013C128.5-79.7799 120.141-79.8462 114.523-72.4807L64.4845-6.80359C59.4746-0.283957 62.0269 9.3832 71.9508 9.3832ZM74.6885 0.0897368C72.7892 0.0897368 72.1605-1.55155 73.1957-2.92915L121.803-66.6851C123.156-68.5126 125.443-68.4795 126.762-66.749L175.369-2.9623C176.45-1.58469 175.811 0.0897368 173.866 0.0897368ZM108.128-32.5029C116.586-32.5029 120-39.0128 124.282-39.0128C128.617-39.0128 131.987-32.5029 140.437-32.5029C146.128-32.5029 149.519-36.801 152.332-39.5125L148.166-44.7087C145.29-42.027 143-39.1721 140.437-39.1721C135.956-39.1721 132-45.682 124.282-45.682C116.676-45.682 112.671-39.1721 108.128-39.1721C105.589-39.1721 103.23-42.0734 100.283-44.755L96.2426-39.5263C99.1334-36.7635 102.473-32.5029 108.128-32.5029ZM83.524-20.8723L89.2769-28.582L70.5918-52.0798C64.8737-59.3326 56.9144-59.2891 51.1963-52.0695L15.2754-7.07372C9.76593-0.180815 12.5838 9.3832 22.1378 9.3832L72.0803 9.3832L72.0803 0.0794594L25.1617 0.0794594C23.3815 0.0794594 22.7008-1.60525 23.7881-2.93942L58.4535-46.2858C59.8924-48.0511 61.9077-48.0511 63.258-46.3395ZM46.6636-20.735C54.1464-20.735 57.0978-26.4807 60.9194-26.4807C64.7496-26.4807 67.7444-20.735 75.229-20.735C79.2504-20.735 81.9868-23.347 84.154-25.5917L81.0389-30.6861C78.925-28.6237 77.1664-26.6769 75.229-26.6769C71.2073-26.6769 67.742-32.3792 60.9194-32.3792C54.1592-32.3792 50.6402-26.6769 46.6636-26.6769C44.4169-26.6769 42.2709-29.6523 39.5106-32.069L35.8843-27.5551C38.4453-25.1765 41.428-20.735 46.6636-20.735Z"/>
  </g>
  <g id="Regular-M" transform="matrix(1 0 0 1 1351.54 1126)">
   <path d="M69.607 8.69134L175.323 8.69134C184.147 8.69134 186.317-0.0479451 181.95-5.81517L130.974-72.7736C126.142-79.088 118.84-79.1915 113.957-72.7736L62.98-5.76342C58.5508 0.00380859 60.721 8.69134 69.607 8.69134ZM71.2525 0.837876C69.4522 0.837876 68.9327-0.639339 69.8788-1.89699L120.07-67.8319C121.348-69.5679 123.571-69.5161 124.809-67.8837L175-1.94874C175.987-0.691092 175.468 0.837876 173.626 0.837876ZM106.552-33.7417C114.659-33.7417 117.979-40.1591 122.439-40.1591C126.962-40.1591 130.23-33.7417 138.327-33.7417C143.332-33.7417 146.59-37.7875 149.333-40.7952L145.56-45.3555C142.829-42.5548 140.688-39.6803 138.327-39.6803C134.085-39.6803 130.224-46.0977 122.439-46.0977C114.665-46.0977 110.856-39.6803 106.552-39.6803C104.232-39.6803 102.081-42.5865 99.2761-45.3872L95.4825-40.8374C98.3189-37.8297 101.516-33.7417 106.552-33.7417ZM82.4161-22.6851L87.2342-29.2121L68.7699-52.1739C63.7312-58.4566 56.9691-58.4049 51.9305-52.1739L15.2702-6.74674C10.013-0.265511 12.1936 8.69134 21.4821 8.69134L69.7642 8.69134L69.7642 0.837876L22.6714 0.837876C21.0284 0.837876 20.4466-0.691092 21.455-1.89699L57.9916-47.2216C59.3844-48.8953 61.3053-48.8953 62.6052-47.2734ZM46.0407-21.8314C53.3484-21.8314 56.2642-27.6765 60.319-27.6765C64.3844-27.6765 67.3519-21.8314 74.6491-21.8314C78.4246-21.8314 81.07-24.5563 83.2075-26.9294L79.8807-31.2827C77.9301-29.1271 76.3419-27.2208 74.6491-27.2208C70.8234-27.2208 67.3775-33.0141 60.319-33.0141C53.3228-33.0141 49.8252-27.2208 46.0407-27.2208C43.954-27.2208 41.8788-30.3903 39.1203-32.981L35.576-29.0628C38.1591-26.4922 41.0739-21.8314 46.0407-21.8314Z"/>
  </g>
  <g id="Light-M" transform="matrix(1 0 0 1 1056.58 1126)">
   <path d="M67.7076 7.2198L172.996 7.2198C180.468 7.2198 182.621-0.0308341 178.751-5.14784L127.654-72.2774C123.575-77.6165 117.163-77.6858 113.05-72.2774L61.9534-5.1132C58.0204 0.00380859 60.1734 7.2198 67.7076 7.2198ZM68.7886 1.18009C66.5947 1.18009 66.0409-0.570895 67.1068-1.94832L117.76-68.5163C119.193-70.4405 121.484-70.4059 122.91-68.551L173.563-1.98296C174.635-0.605538 174.082 1.18009 171.881 1.18009ZM104.447-34.5117C112.263-34.5117 115.31-40.9291 120.335-40.9291C125.422-40.9291 128.434-34.5117 136.222-34.5117C141.158-34.5117 144.246-38.1468 147.091-40.7781L144.072-44.4487C141.254-41.956 138.977-39.2696 136.222-39.2696C131.467-39.2696 127.812-45.687 120.335-45.687C112.885-45.687 109.264-39.2696 104.447-39.2696C101.699-39.2696 99.3944-42.0389 96.487-44.5316L93.4121-40.8887C96.4024-38.2575 99.428-34.5117 104.447-34.5117ZM81.0814-23.7118L84.8215-28.6988L66.2204-51.9172C62.003-57.1733 56.0965-57.1387 51.8791-51.9172L14.774-5.77141C10.2867-0.197067 12.4674 7.2198 20.1474 7.2198L68.0189 7.2198L68.0189 1.18009L20.8406 1.18009C18.958 1.18009 18.3419-0.605538 19.4701-1.94832L56.5543-48.1285C58.084-49.9904 59.9878-49.9904 61.4759-48.1631ZM44.7232-23.6965C51.7571-23.6965 54.4504-29.4218 59.0186-29.4218C63.6144-29.4218 66.3424-23.6965 73.3487-23.6965C76.6793-23.6965 79.068-25.7882 81.0344-27.6651L78.3749-31.1971C76.5955-29.4865 75.0586-28.025 73.3487-28.025C69.0781-28.025 65.8033-33.7157 59.0186-33.7157C52.2961-33.7157 48.9868-28.025 44.7232-28.025C42.6878-28.025 40.7837-30.3732 38.4017-32.4164L35.576-29.2168C37.9025-27.1253 40.4921-23.6965 44.7232-23.6965Z"/>
  </g>
  <g id="Thin-M" transform="matrix(1 0 0 1 762.176 1126)">
   <path d="M65.1956 5.27357L169.919 5.27357C175.603 5.27357 177.733-0.00820352 174.519-4.26525L123.264-71.6211C120.181-75.6702 114.946-75.6943 111.851-71.6211L60.5955-4.25324C57.3189 0.00380859 59.4492 5.27357 65.1956 5.27357ZM65.5297 1.63271C62.8154 1.63271 62.2164-0.480373 63.4407-2.01621L114.705-69.4216C116.341-71.5947 118.723-71.5827 120.398-69.4336L171.662-2.02822C172.848-0.492385 172.249 1.63271 169.573 1.63271ZM101.663-35.5301C109.095-35.5301 111.779-41.9474 117.551-41.9474C123.385-41.9474 126.058-35.5301 133.439-35.5301C138.284-35.5301 141.146-38.6221 144.127-40.7555L142.103-43.2492C139.172-41.1639 136.714-38.7265 133.439-38.7265C128.005-38.7265 124.621-45.1439 117.551-45.1439C110.532-45.1439 107.16-38.7265 101.663-38.7265C98.3501-38.7265 95.8414-41.3148 92.7982-43.4001L90.6738-40.9566C93.8678-38.8232 96.667-35.5301 101.663-35.5301ZM79.3162-25.0696L81.6306-28.0198L62.8484-51.5777C59.7173-55.476 54.9423-55.464 51.8112-51.5777L14.1177-4.48147C10.6488-0.106545 12.8295 5.27357 18.3823 5.27357L65.7106 5.27357L65.7106 1.63271L18.4191 1.63271C16.2197 1.63271 15.5583-0.492385 16.845-2.01621L54.6534-49.3279C56.3641-51.4387 58.2452-51.4387 59.9823-49.3399ZM42.9806-26.1632C49.6525-26.1632 52.0516-31.7301 57.2987-31.7301C62.596-31.7301 65.0072-26.1632 71.6287-26.1632C74.3709-26.1632 76.4203-27.4176 78.1603-28.6383L76.3834-31.084C74.8303-29.9617 73.3613-29.0887 71.6287-29.0887C66.7698-29.0887 63.7213-34.6435 57.2987-34.6435C50.9383-34.6435 47.8779-29.0887 42.9806-29.0887C41.0131-29.0887 39.3354-30.3506 37.4512-31.6695L35.576-29.4205C37.563-27.9627 39.7227-26.1632 42.9806-26.1632Z"/>
  </g>
  <g id="Ultralight-M" transform="matrix(1 0 0 1 466.647 1126)">
   <path d="M63.909 4.27672L168.342 4.27672C173.111 4.27672 175.229 0.00338776 172.351-3.81319L121.015-71.285C118.442-74.6734 113.81-74.6742 111.236-71.285L59.9001-3.81277C56.9595 0.00380859 59.0783 4.27672 63.909 4.27672ZM63.8606 1.86453C60.8797 1.86453 60.2574-0.434008 61.5629-2.05098L113.14-69.8852C114.881-72.1859 117.309-72.1854 119.111-69.8856L170.688-2.0514C171.932-0.434428 171.31 1.86453 168.39 1.86453ZM100.238-36.0517C107.472-36.0517 109.971-42.4691 116.125-42.4691C122.342-42.4691 124.84-36.0517 132.013-36.0517C136.812-36.0517 139.558-38.8655 142.608-40.7439L141.094-42.6349C138.106-40.7582 135.555-38.4483 132.013-38.4483C126.231-38.4483 122.986-44.8657 116.125-44.8657C109.326-44.8657 106.082-38.4483 100.238-38.4483C96.6345-38.4483 94.0215-40.9438 90.9088-42.8206L89.2712-40.9914C92.5696-39.113 95.2529-36.0517 100.238-36.0517ZM78.4121-25.7651L79.9963-27.6721L61.1213-51.4039C58.5466-54.6067 54.3512-54.6062 51.7765-51.4039L13.7815-3.82076C10.8343-0.0601794 13.0149 4.27672 17.4781 4.27672L64.5283 4.27672L64.5283 1.86453L17.1788 1.86453C14.8171 1.86453 14.1326-0.434428 15.5004-2.05098L53.6797-49.9422C55.4832-52.1806 57.3527-52.1806 59.2172-49.9427ZM42.0881-27.4267C48.5745-27.4267 50.8229-32.9124 56.4177-32.9124C62.0744-32.9124 64.3233-27.4267 70.7478-27.4267C73.1886-27.4267 75.0641-28.2522 76.6882-29.1367L75.3634-31.026C73.9262-30.2051 72.4919-29.6334 70.7478-29.6334C65.5875-29.6334 62.6549-35.1188 56.4177-35.1188C50.2428-35.1188 47.3099-29.6334 42.0881-29.6334C40.1554-29.6334 38.5935-30.339 36.9644-31.287L35.576-29.5248C37.3891-28.3916 39.3286-27.4267 42.0881-27.4267Z"/>
  </g>
  <g id="Black-S" transform="matrix(1 0 0 1 2850.64 696)">
   <path d="M65.5762 2.39258L143.604 2.39258C155.469 2.39258 158.887-8.98438 152.734-17.041L117.188-63.3301C109.912-72.8027 99.2188-72.7051 91.9434-63.2324L56.4453-17.041C50.2441-8.98438 53.7598 2.39258 65.5762 2.39258ZM72.0215-10.498C70.1172-10.498 69.1895-12.4512 70.3613-14.0137L102.197-55.3711C103.564-57.1777 105.615-57.2266 106.982-55.4688L138.818-13.9648C140.039-12.4023 139.062-10.498 137.109-10.498ZM90.8691-28.2227C98.877-28.2227 101.904-33.6914 104.59-33.6914C107.275-33.6914 110.303-28.2227 118.311-28.2227C125.488-28.2227 128.662-32.5684 131.152-33.4961L126.367-40.0391C123.535-38.4277 121.143-36.2793 118.311-36.2793C113.818-36.2793 110.352-41.748 104.59-41.748C99.3164-41.748 95.4102-36.2793 90.8691-36.2793C87.9883-36.2793 85.3027-38.5254 82.4219-40.1367L78.3203-33.3984C80.8105-32.2266 83.9844-28.2227 90.8691-28.2227ZM69.7754-16.8457L77.9297-27.4902L62.4023-48.0469C55.2734-57.5195 44.3359-57.5195 37.207-47.998L11.9629-14.4043C6.68945-7.42188 11.4258 2.39258 19.873 2.39258L65.5762 2.39258L65.5762-10.5469L29.4922-10.5469C27.5391-10.5469 26.6113-12.5 27.7832-14.0625L47.5586-40.2344C48.877-41.9922 50.8301-41.9922 52.0996-40.2832ZM38.9648-19.6289C45.5078-19.6289 47.9492-23.7305 50.0488-23.7305C52.1484-23.7305 54.5898-19.6289 61.1816-19.6289C65.2832-19.6289 67.7734-21.1914 69.5801-22.4121L68.0176-29.2969C65.7227-28.0762 63.6719-26.416 61.1816-26.416C57.2266-26.416 54.4434-30.5176 50.0488-30.5176C45.7031-30.5176 42.8711-26.416 38.9648-26.416C36.5723-26.416 34.6191-27.9297 32.4707-29.1016L29.3457-23.2422C31.25-22.168 33.8379-19.6289 38.9648-19.6289Z"/>
  </g>
  <g id="Heavy-S" transform="matrix(1 0 0 1 2555.08 696)">
   <path d="M63.1906 1.80483L142.405 1.80483C153.256 1.80483 156.271-8.67321 150.706-15.9692L114.134-63.6989C107.596-72.215 97.9741-72.1634 91.4248-63.6243L54.8895-15.9577C49.2761-8.66169 52.3653 1.80483 63.1906 1.80483ZM68.4835-9.70286C66.7405-9.70286 65.9396-11.437 66.9962-12.8497L100.549-56.5696C101.813-58.2495 103.783-58.2753 105.035-56.6558L138.588-12.8239C139.693-11.4112 138.855-9.70286 137.063-9.70286ZM89.371-29.5134C97.0215-29.5134 99.9797-34.8784 102.792-34.8784C105.616-34.8784 108.563-29.5134 116.213-29.5134C122.63-29.5134 125.677-33.6286 128.075-34.9367L123.636-40.8803C120.977-39.0962 118.769-36.9016 116.213-36.9016C112.055-36.9016 108.669-42.2666 102.792-42.2666C97.2881-42.2666 93.5778-36.9016 89.371-36.9016C86.7897-36.9016 84.3577-39.1708 81.6497-40.955L77.7326-34.862C80.1421-33.3675 83.1777-29.5134 89.371-29.5134ZM68.7036-18.7472L75.9475-28.2624L60.6852-48.1852C54.2132-56.7013 44.5088-56.6898 38.0368-48.1479L12.0205-14.1623C6.93147-7.5256 10.9533 1.80483 19.3083 1.80483L63.2021 1.80483L63.2021-9.74016L26.9338-9.74016C25.165-9.74016 24.3525-11.4858 25.4207-12.887L47.2244-41.1679C48.4736-42.7989 50.323-42.7989 51.5119-41.2167ZM38.4347-20.62C44.8163-20.62 47.2462-24.8483 49.5418-24.8483C51.8373-24.8483 54.2787-20.62 60.6976-20.62C64.5802-20.62 67.0013-22.39 68.7964-23.8181L66.9112-29.9768C64.7777-28.5948 62.9113-26.9231 60.6976-26.9231C57.0191-26.9231 54.2359-31.1399 49.5418-31.1399C44.8964-31.1399 42.0644-26.9231 38.4347-26.9231C36.215-26.9231 34.3195-28.7594 32.125-30.1964L29-24.9132C30.9619-23.5624 33.5152-20.62 38.4347-20.62Z"/>
  </g>
  <g id="Bold-S" transform="matrix(1 0 0 1 2259.66 696)">
   <path d="M60.5225 1.14746L141.064 1.14746C150.781 1.14746 153.345-8.3252 148.438-14.7705L110.718-64.1113C105.005-71.5576 96.582-71.5576 90.8447-64.0625L53.1494-14.7461C48.1934-8.30078 50.8057 1.14746 60.5225 1.14746ZM64.5264-8.81348C62.9639-8.81348 62.3047-10.3027 63.2324-11.5479L98.7061-57.9102C99.8535-59.4482 101.733-59.4482 102.856-57.9834L138.33-11.5479C139.307-10.3027 138.623-8.81348 137.012-8.81348ZM87.6953-30.957C94.9463-30.957 97.8271-36.2061 100.781-36.2061C103.76-36.2061 106.616-30.957 113.867-30.957C119.434-30.957 122.339-34.8145 124.634-36.5479L120.581-41.8213C118.115-39.8438 116.113-37.5977 113.867-37.5977C110.083-37.5977 106.787-42.8467 100.781-42.8467C95.0195-42.8467 91.5283-37.5977 87.6953-37.5977C85.4492-37.5977 83.3008-39.8926 80.7861-41.8701L77.0752-36.499C79.3945-34.6436 82.2754-30.957 87.6953-30.957ZM67.5049-20.874L73.7305-29.126L58.7646-48.3398C53.0273-55.7861 44.7021-55.7617 38.9648-48.3154L12.085-13.8916C7.20215-7.6416 10.4248 1.14746 18.6768 1.14746L60.5469 1.14746L60.5469-8.83789L24.0723-8.83789C22.5098-8.83789 21.8262-10.3516 22.7783-11.5723L46.8506-42.2119C48.0225-43.7012 49.7559-43.7012 50.8545-42.2607ZM37.8418-21.7285C44.043-21.7285 46.46-26.0986 48.9746-26.0986C51.4893-26.0986 53.9307-21.7285 60.1562-21.7285C63.7939-21.7285 66.1377-23.7305 67.9199-25.3906L65.6738-30.7373C63.7207-29.1748 62.0605-27.4902 60.1562-27.4902C56.7871-27.4902 54.0039-31.8359 48.9746-31.8359C43.9941-31.8359 41.1621-27.4902 37.8418-27.4902C35.8154-27.4902 33.9844-29.6875 31.7383-31.4209L28.6133-26.7822C30.6396-25.1221 33.1543-21.7285 37.8418-21.7285Z"/>
  </g>
  <g id="Semibold-S" transform="matrix(1 0 0 1 1963.83 696)">
   <path d="M58.6829 0.694238L140.14 0.694238C149.075 0.694238 151.327-8.08525 146.873-13.944L108.363-64.3957C103.219-71.1044 95.6223-71.1399 90.4448-64.3646L51.9497-13.9107C47.4469-8.05195 49.7304 0.694238 58.6829 0.694238ZM61.7981-8.20029C60.3601-8.20029 59.7986-9.5207 60.6375-10.6503L97.4353-58.8344C98.5027-60.2747 100.32-60.2569 101.355-58.8987L138.152-10.6681C139.04-9.53848 138.463-8.20029 136.976-8.20029ZM86.54-31.9523C93.5155-31.9523 96.3431-37.1214 99.3949-37.1214C102.48-37.1214 105.274-31.9523 112.25-31.9523C117.23-31.9523 120.037-35.632 122.261-37.6587L118.475-42.47C116.142-40.3592 114.283-38.0775 112.25-38.0775C108.723-38.0775 105.49-43.2466 99.3949-43.2466C93.4555-43.2466 90.1153-38.0775 86.54-38.0775C84.525-38.0775 82.5721-40.3902 80.1907-42.5011L76.622-37.6276C78.8791-35.5233 81.6533-31.9523 86.54-31.9523ZM66.6784-22.3403L72.202-29.7214L57.4405-48.4465C52.2098-55.1552 44.8354-55.1219 39.6047-48.431L12.1294-13.705C7.38877-7.72158 10.0604 0.694238 18.2413 0.694238L58.7162 0.694238L58.7162-8.21582L22.0994-8.21582C20.6791-8.21582 20.0844-9.56953 20.9565-10.6658L46.5929-42.9317C47.7114-44.3232 49.3648-44.3232 50.4013-42.9806ZM37.433-22.4928C43.5098-22.4928 45.9179-26.9606 48.5836-26.9606C51.2493-26.9606 53.6907-22.4928 59.783-22.4928C63.2519-22.4928 65.5423-24.6547 67.3156-26.4748L64.8207-31.2616C62.992-29.5747 61.474-27.8813 59.783-27.8813C56.6271-27.8813 53.8439-32.3158 48.5836-32.3158C43.3721-32.3158 40.54-27.8813 37.433-27.8813C35.5399-27.8813 33.7533-30.3273 31.4717-32.2651L28.3467-28.0708C30.4175-26.1974 32.9055-22.4928 37.433-22.4928Z"/>
  </g>
  <g id="Medium-S" transform="matrix(1 0 0 1 1667.8 696)">
   <path d="M57.2881 0.350586L139.439 0.350586C147.781 0.350586 149.798-7.90332 145.688-13.3174L106.577-64.6113C101.864-70.7607 94.8945-70.8232 90.1416-64.5938L51.04-13.2773C46.8809-7.86328 48.915 0.350586 57.2881 0.350586ZM59.7295-7.73535C58.3857-7.73535 57.8984-8.92773 58.6699-9.96973L96.4717-59.5352C97.4785-60.9014 99.249-60.8701 100.216-59.5928L138.018-10.001C138.838-8.95898 138.342-7.73535 136.949-7.73535ZM85.6641-32.707C92.4307-32.707 95.2178-37.8154 98.3438-37.8154C101.51-37.8154 104.257-32.707 111.023-32.707C115.559-32.707 118.292-36.252 120.462-38.501L116.878-42.9619C114.646-40.75 112.895-38.4414 111.023-38.4414C107.692-38.4414 104.506-43.5498 98.3438-43.5498C92.2695-43.5498 89.0439-38.4414 85.6641-38.4414C83.8242-38.4414 82.0195-40.7676 79.7393-42.9795L76.2783-38.4834C78.4883-36.1904 81.1816-32.707 85.6641-32.707ZM66.0518-23.4521L71.043-30.1729L56.4365-48.5273C51.5898-54.6768 44.9365-54.6367 40.0898-48.5186L12.1631-13.5635C7.53027-7.78223 9.78418 0.350586 17.9111 0.350586L57.3281 0.350586L57.3281-7.74414L20.6035-7.74414C19.291-7.74414 18.7637-8.97656 19.5752-9.97852L46.3975-43.4775C47.4756-44.7949 49.0684-44.7949 50.0576-43.5264ZM37.123-23.0723C43.1055-23.0723 45.5068-27.6143 48.2871-27.6143C51.0674-27.6143 53.5088-23.0723 59.5-23.0723C62.8408-23.0723 65.0908-25.3555 66.8574-27.2969L64.1738-31.6592C62.4395-29.8779 61.0293-28.1777 59.5-28.1777C56.5059-28.1777 53.7227-32.6797 48.2871-32.6797C42.9004-32.6797 40.0684-28.1777 37.123-28.1777C35.3311-28.1777 33.5781-30.8125 31.2695-32.9053L28.1445-29.0479C30.249-27.0127 32.7168-23.0723 37.123-23.0723Z"/>
  </g>
  <g id="Regular-S" transform="matrix(1 0 0 1 1371.96 696)">
   <path d="M55.4688-0.0976562L138.525-0.0976562C146.094-0.0976562 147.803-7.66602 144.141-12.5L104.248-64.8926C100.098-70.3125 93.9453-70.4102 89.7461-64.8926L49.8535-12.4512C46.1426-7.61719 47.8516-0.0976562 55.4688-0.0976562ZM57.0312-7.12891C55.8105-7.12891 55.4199-8.1543 56.1035-9.08203L95.2148-60.4492C96.1426-61.7188 97.8516-61.6699 98.7305-60.498L137.842-9.13086C138.574-8.20312 138.184-7.12891 136.914-7.12891ZM84.5215-33.6914C91.0156-33.6914 93.75-38.7207 96.9727-38.7207C100.244-38.7207 102.93-33.6914 109.424-33.6914C113.379-33.6914 116.016-37.0605 118.115-39.5996L114.795-43.6035C112.695-41.2598 111.084-38.916 109.424-38.916C106.348-38.916 103.223-43.9453 96.9727-43.9453C90.7227-43.9453 87.6465-38.916 84.5215-38.916C82.9102-38.916 81.2988-41.2598 79.1504-43.6035L75.8301-39.5996C77.9785-37.0605 80.5664-33.6914 84.5215-33.6914ZM65.2344-24.9023L69.5312-30.7617L55.127-48.6328C50.7812-54.0527 45.0684-54.0039 40.7227-48.6328L12.207-13.3789C7.71484-7.86133 9.42383-0.0976562 17.4805-0.0976562L55.5176-0.0976562L55.5176-7.12891L18.6523-7.12891C17.4805-7.12891 17.041-8.20312 17.7734-9.08203L46.1426-44.1895C47.168-45.4102 48.6816-45.4102 49.6094-44.2383ZM36.7188-23.8281C42.5781-23.8281 44.9707-28.4668 47.9004-28.4668C50.8301-28.4668 53.2715-23.8281 59.1309-23.8281C62.3047-23.8281 64.502-26.2695 66.2598-28.3691L63.3301-32.1777C61.7188-30.2734 60.4492-28.5645 59.1309-28.5645C56.3477-28.5645 53.5645-33.1543 47.9004-33.1543C42.2852-33.1543 39.4531-28.5645 36.7188-28.5645C35.0586-28.5645 33.3496-31.4453 31.0059-33.7402L27.8809-30.3223C30.0293-28.0762 32.4707-23.8281 36.7188-23.8281Z"/>
  </g>
  <g id="Light-S" transform="matrix(1 0 0 1 1076.8 696)">
   <path d="M53.7886-1.3994L136.467-1.3994C142.839-1.3994 144.533-7.65088 141.31-11.9097L101.312-64.4536C97.8272-69.0108 92.4619-69.0781 88.9439-64.4536L48.9453-11.876C45.6733-7.61719 47.3672-1.3994 53.7886-1.3994ZM54.8516-6.82617C53.2827-6.82617 52.8618-8.09375 53.6514-9.12744L93.1714-61.0547C94.2354-62.4907 96.0049-62.457 97.0503-61.0884L136.57-9.16113C137.378-8.12744 136.958-6.82617 135.37-6.82617ZM82.6597-34.3726C88.8965-34.3726 91.3887-39.4019 95.1109-39.4019C98.8818-39.4019 101.34-34.3726 107.562-34.3726C111.457-34.3726 113.942-37.3784 116.132-39.5845L113.478-42.8013C111.303-40.73 109.57-38.5527 107.562-38.5527C104.032-38.5527 101.088-43.582 95.1109-43.582C89.1484-43.582 86.2388-38.5527 82.6597-38.5527C80.6699-38.5527 78.9224-40.7754 76.6831-42.8467L73.9985-39.645C76.2832-37.439 78.7197-34.3726 82.6597-34.3726ZM64.0537-25.8105L67.397-30.3076L52.8716-48.4058C49.2525-52.9175 44.2964-52.8838 40.6772-48.4058L11.7681-12.5161C7.95703-7.80078 9.66601-1.3994 16.2998-1.3994L53.9736-1.3994L53.9736-6.82617L17.0327-6.82617C15.6489-6.82617 15.1792-8.12744 16.0176-9.12744L44.8711-44.9917C46.0176-46.3789 47.5161-46.3789 48.6104-45.0254ZM35.5532-25.478C41.1704-25.478 43.3662-30.0107 46.75-30.0107C50.1489-30.0107 52.3784-25.478 57.9805-25.478C60.7608-25.478 62.731-27.3594 64.3374-29.02L61.9981-32.1021C60.5381-30.5913 59.314-29.2759 57.9805-29.2759C54.8037-29.2759 52.1719-33.7749 46.75-33.7749C41.377-33.7749 38.7114-29.2759 35.5532-29.2759C33.9385-29.2759 32.3809-31.4302 30.3701-33.2407L27.8809-30.4585C29.8022-28.6362 31.9561-25.478 35.5532-25.478Z"/>
  </g>
  <g id="Thin-S" transform="matrix(1 0 0 1 782.127 696)">
   <path d="M51.5664-3.12107L133.744-3.12107C138.535-3.12107 140.209-7.63086 137.566-11.1289L97.4278-63.8731C94.8243-67.2891 90.5-67.3164 87.8828-63.8731L47.7442-11.1152C45.0527-7.61719 46.7266-3.12107 51.5664-3.12107ZM51.9688-6.42579C49.9395-6.42579 49.4786-8.01367 50.4082-9.1875L90.4688-61.8555C91.7129-63.5117 93.5625-63.498 94.8282-61.8691L134.889-9.20117C135.797-8.02735 135.336-6.42579 133.328-6.42579ZM80.1973-35.2734C86.0938-35.2734 88.2657-40.3027 92.6485-40.3027C97.0801-40.3027 99.2383-35.2734 105.1-35.2734C108.914-35.2734 111.199-37.7988 113.51-39.5645L111.736-41.7402C109.461-40.0293 107.568-38.0723 105.1-38.0723C100.969-38.0723 98.2657-43.1016 92.6485-43.1016C87.0664-43.1016 84.377-38.0723 80.1973-38.0723C77.7071-38.0723 75.7793-40.1348 73.42-41.8457L71.5762-39.7051C74.041-37.9394 76.2774-35.2734 80.1973-35.2734ZM62.4922-27.0117L64.5743-29.707L49.8887-48.1055C47.2305-51.416 43.2754-51.4024 40.6172-48.1055L11.1875-11.375C8.27734-7.7207 9.98632-3.12107 14.7383-3.12107L51.9317-3.12107L51.9317-6.42579L14.8907-6.42579C13.2266-6.42579 12.7168-8.02735 13.6953-9.1875L43.1895-46.0527C44.4961-47.6601 45.9746-47.6601 47.2891-46.0664ZM34.0117-27.6601C39.3086-27.6601 41.2442-32.0527 45.2285-32.0527C49.2481-32.0527 51.1973-27.6601 56.459-27.6601C58.7188-27.6601 60.3887-28.8008 61.795-29.8808L60.2364-32.002C58.9766-31.0117 57.8125-30.2168 56.459-30.2168C52.7617-30.2168 50.3301-34.5957 45.2285-34.5957C40.1758-34.5957 37.7305-30.2168 34.0117-30.2168C32.4571-30.2168 31.0996-31.4102 29.5293-32.5801L27.8809-30.6387C29.502-29.3769 31.2754-27.6601 34.0117-27.6601Z"/>
  </g>
  <g id="Ultralight-S" transform="matrix(1 0 0 1 486.462 696)">
   <path d="M50.4283-4.0029L132.35-4.0029C136.331-4.0029 137.994-7.62061 135.649-10.729L95.4385-63.5757C93.2862-66.4073 89.4952-66.4141 87.3394-63.5757L47.1289-10.7256C44.7349-7.61719 46.3984-4.0029 50.4283-4.0029ZM50.4922-6.22071C48.2271-6.22071 47.7457-7.97266 48.7471-9.21826L89.0845-62.2656C90.4209-64.0346 92.3116-64.0312 93.69-62.269L134.027-9.22168C134.987-7.97608 134.505-6.22071 132.282-6.22071ZM78.9361-35.7348C84.6583-35.7348 86.6661-40.7641 91.3873-40.7641C96.1573-40.7641 98.1617-35.7348 103.838-35.7348C107.612-35.7348 109.794-38.0142 112.167-39.5542L110.844-41.1968C108.518-39.6704 106.543-37.8262 103.838-37.8262C99.4-37.8262 96.8199-42.8555 91.3873-42.8555C86-42.8555 83.4234-37.8262 78.9361-37.8262C76.1895-37.8262 74.1695-39.8067 71.7486-41.333L70.3355-39.7358C72.8926-38.1958 75.0264-35.7348 78.9361-35.7348ZM61.6924-27.6269L63.1285-29.3994L48.3609-47.9517C46.1949-50.647 42.7525-50.6436 40.5864-47.9517L10.8901-10.7905C8.4414-7.67969 10.1504-4.0029 13.9385-4.0029L50.8858-4.0029L50.8858-6.22071L13.7935-6.22071C11.9859-6.22071 11.4556-7.97608 12.5059-9.21826L42.3282-46.5962C43.7168-48.3164 45.1851-48.3164 46.6123-46.5996ZM33.2222-28.7778C38.355-28.7778 40.1573-33.0986 44.4492-33.0986C48.7866-33.0986 50.5923-28.7778 55.6797-28.7778C57.6729-28.7778 59.189-29.539 60.4927-30.3218L59.334-31.9507C58.1768-31.227 57.0435-30.6987 55.6797-30.6987C51.7159-30.6987 49.3868-35.0161 44.4492-35.0161C39.5606-35.0161 37.228-30.6987 33.2222-30.6987C31.6983-30.6987 30.4434-31.3999 29.0986-32.2417L27.8809-30.731C29.3481-29.7563 30.9268-28.7778 33.2222-28.7778Z"/>
  </g>
 </g>
</svg>
