<?xml version="1.0" encoding="UTF-8"?>
<!--Generator: Apple Native CoreSVG 175.5-->
<!DOCTYPE svg
PUBLIC "-//W3C//DTD SVG 1.1//EN"
       "http://www.w3.org/Graphics/SVG/1.1/DTD/svg11.dtd">
<svg version="1.1" xmlns="http://www.w3.org/2000/svg" xmlns:xlink="http://www.w3.org/1999/xlink" width="3300" height="2200">
 <!--glyph: "uni1002D6.medium", point size: 100.0, font version: "18.0d12e2", template writer version: "101"-->
 <g id="Notes">
  <rect height="2200" id="artboard" style="fill:white;opacity:1" width="3300" x="0" y="0"/>
  <line style="fill:none;stroke:black;opacity:1;stroke-width:0.5;" x1="263" x2="3036" y1="292" y2="292"/>
  <text style="stroke:none;fill:black;font-family:sans-serif;font-size:13;font-weight:bold;" transform="matrix(1 0 0 1 263 322)">Weight/Scale Variations</text>
  <text style="stroke:none;fill:black;font-family:sans-serif;font-size:13;text-anchor:middle;" transform="matrix(1 0 0 1 559.711 322)">Ultralight</text>
  <text style="stroke:none;fill:black;font-family:sans-serif;font-size:13;text-anchor:middle;" transform="matrix(1 0 0 1 856.422 322)">Thin</text>
  <text style="stroke:none;fill:black;font-family:sans-serif;font-size:13;text-anchor:middle;" transform="matrix(1 0 0 1 1153.13 322)">Light</text>
  <text style="stroke:none;fill:black;font-family:sans-serif;font-size:13;text-anchor:middle;" transform="matrix(1 0 0 1 1449.84 322)">Regular</text>
  <text style="stroke:none;fill:black;font-family:sans-serif;font-size:13;text-anchor:middle;" transform="matrix(1 0 0 1 1746.56 322)">Medium</text>
  <text style="stroke:none;fill:black;font-family:sans-serif;font-size:13;text-anchor:middle;" transform="matrix(1 0 0 1 2043.27 322)">Semibold</text>
  <text style="stroke:none;fill:black;font-family:sans-serif;font-size:13;text-anchor:middle;" transform="matrix(1 0 0 1 2339.98 322)">Bold</text>
  <text style="stroke:none;fill:black;font-family:sans-serif;font-size:13;text-anchor:middle;" transform="matrix(1 0 0 1 2636.69 322)">Heavy</text>
  <text style="stroke:none;fill:black;font-family:sans-serif;font-size:13;text-anchor:middle;" transform="matrix(1 0 0 1 2933.4 322)">Black</text>
  <line style="fill:none;stroke:black;opacity:1;stroke-width:0.5;" x1="263" x2="3036" y1="1903" y2="1903"/>
  <g transform="matrix(1 0 0 1 263 1933)">
   <path d="M9.24805 0.830078C13.5547 0.830078 17.1387-2.74414 17.1387-7.05078C17.1387-11.3574 13.5449-14.9316 9.23828-14.9316C4.94141-14.9316 1.36719-11.3574 1.36719-7.05078C1.36719-2.74414 4.95117 0.830078 9.24805 0.830078ZM9.24805-0.654297C5.70312-0.654297 2.87109-3.49609 2.87109-7.05078C2.87109-10.6055 5.69336-13.4473 9.23828-13.4473C12.793-13.4473 15.6445-10.6055 15.6445-7.05078C15.6445-3.49609 12.8027-0.654297 9.24805-0.654297ZM5.6543-7.05078C5.6543-6.62109 5.95703-6.32812 6.40625-6.32812L8.50586-6.32812L8.50586-4.20898C8.50586-3.76953 8.79883-3.4668 9.22852-3.4668C9.67773-3.4668 9.9707-3.76953 9.9707-4.20898L9.9707-6.32812L12.0898-6.32812C12.5293-6.32812 12.832-6.62109 12.832-7.05078C12.832-7.49023 12.5293-7.79297 12.0898-7.79297L9.9707-7.79297L9.9707-9.90234C9.9707-10.3516 9.67773-10.6543 9.22852-10.6543C8.79883-10.6543 8.50586-10.3516 8.50586-9.90234L8.50586-7.79297L6.40625-7.79297C5.95703-7.79297 5.6543-7.49023 5.6543-7.05078Z"/>
  </g>
  <g transform="matrix(1 0 0 1 281.867 1933)">
   <path d="M11.709 2.91016C17.1582 2.91016 21.6699-1.61133 21.6699-7.05078C21.6699-12.5 17.1484-17.0117 11.6992-17.0117C6.25977-17.0117 1.74805-12.5 1.74805-7.05078C1.74805-1.61133 6.26953 2.91016 11.709 2.91016ZM11.709 1.25C7.09961 1.25 3.41797-2.44141 3.41797-7.05078C3.41797-11.6602 7.08984-15.3516 11.6992-15.3516C16.3086-15.3516 20.0098-11.6602 20.0098-7.05078C20.0098-2.44141 16.3184 1.25 11.709 1.25ZM7.17773-7.05078C7.17773-6.57227 7.50977-6.25 8.00781-6.25L10.8789-6.25L10.8789-3.36914C10.8789-2.88086 11.2109-2.53906 11.6895-2.53906C12.1777-2.53906 12.5195-2.87109 12.5195-3.36914L12.5195-6.25L15.4004-6.25C15.8887-6.25 16.2305-6.57227 16.2305-7.05078C16.2305-7.53906 15.8887-7.88086 15.4004-7.88086L12.5195-7.88086L12.5195-10.752C12.5195-11.25 12.1777-11.5918 11.6895-11.5918C11.2109-11.5918 10.8789-11.25 10.8789-10.752L10.8789-7.88086L8.00781-7.88086C7.50977-7.88086 7.17773-7.53906 7.17773-7.05078Z"/>
  </g>
  <g transform="matrix(1 0 0 1 305.646 1933)">
   <path d="M14.9707 5.66406C21.9336 5.66406 27.6953-0.0976562 27.6953-7.05078C27.6953-14.0137 21.9238-19.7754 14.9609-19.7754C8.00781-19.7754 2.25586-14.0137 2.25586-7.05078C2.25586-0.0976562 8.01758 5.66406 14.9707 5.66406ZM14.9707 3.84766C8.93555 3.84766 4.08203-1.01562 4.08203-7.05078C4.08203-13.0957 8.92578-17.9492 14.9609-17.9492C21.0059-17.9492 25.8691-13.0957 25.8691-7.05078C25.8691-1.01562 21.0156 3.84766 14.9707 3.84766ZM9.19922-7.05078C9.19922-6.5332 9.57031-6.17188 10.1172-6.17188L14.0625-6.17188L14.0625-2.2168C14.0625-1.67969 14.4336-1.29883 14.9512-1.29883C15.4883-1.29883 15.8594-1.66992 15.8594-2.2168L15.8594-6.17188L19.8145-6.17188C20.3516-6.17188 20.7324-6.5332 20.7324-7.05078C20.7324-7.59766 20.3613-7.96875 19.8145-7.96875L15.8594-7.96875L15.8594-11.9141C15.8594-12.4609 15.4883-12.8418 14.9512-12.8418C14.4336-12.8418 14.0625-12.4609 14.0625-11.9141L14.0625-7.96875L10.1172-7.96875C9.57031-7.96875 9.19922-7.59766 9.19922-7.05078Z"/>
  </g>
  <text style="stroke:none;fill:black;font-family:sans-serif;font-size:13;font-weight:bold;" transform="matrix(1 0 0 1 263 1953)">Design Variations</text>
  <text style="stroke:none;fill:black;font-family:sans-serif;font-size:13;" transform="matrix(1 0 0 1 263 1971)">Symbols are supported in up to nine weights and three scales.</text>
  <text style="stroke:none;fill:black;font-family:sans-serif;font-size:13;" transform="matrix(1 0 0 1 263 1989)">For optimal layout with text and other symbols, vertically align</text>
  <text style="stroke:none;fill:black;font-family:sans-serif;font-size:13;" transform="matrix(1 0 0 1 263 2007)">symbols with the adjacent text.</text>
  <line style="fill:none;stroke:#00AEEF;stroke-width:0.5;opacity:1.0;" x1="776" x2="776" y1="1919" y2="1933"/>
  <g transform="matrix(1 0 0 1 776 1933)">
   <path d="M3.31055 0.15625C3.82812 0.15625 4.08203-0.0390625 4.26758-0.585938L5.52734-4.0332L11.2891-4.0332L12.5488-0.585938C12.7344-0.0390625 12.9883 0.15625 13.4961 0.15625C14.0137 0.15625 14.3457-0.15625 14.3457-0.644531C14.3457-0.810547 14.3164-0.966797 14.2383-1.17188L9.6582-13.3691C9.43359-13.9648 9.0332-14.2676 8.4082-14.2676C7.80273-14.2676 7.39258-13.9746 7.17773-13.3789L2.59766-1.16211C2.51953-0.957031 2.49023-0.800781 2.49023-0.634766C2.49023-0.146484 2.80273 0.15625 3.31055 0.15625ZM6.00586-5.51758L8.37891-12.0898L8.42773-12.0898L10.8008-5.51758Z"/>
  </g>
  <line style="fill:none;stroke:#00AEEF;stroke-width:0.5;opacity:1.0;" x1="793.197" x2="793.197" y1="1919" y2="1933"/>
  <text style="stroke:none;fill:black;font-family:sans-serif;font-size:13;font-weight:bold;" transform="matrix(1 0 0 1 776 1953)">Margins</text>
  <text style="stroke:none;fill:black;font-family:sans-serif;font-size:13;" transform="matrix(1 0 0 1 776 1971)">Leading and trailing margins on the left and right side of each symbol</text>
  <text style="stroke:none;fill:black;font-family:sans-serif;font-size:13;" transform="matrix(1 0 0 1 776 1989)">can be adjusted by modifying the x-location of the margin guidelines.</text>
  <text style="stroke:none;fill:black;font-family:sans-serif;font-size:13;" transform="matrix(1 0 0 1 776 2007)">Modifications are automatically applied proportionally to all</text>
  <text style="stroke:none;fill:black;font-family:sans-serif;font-size:13;" transform="matrix(1 0 0 1 776 2025)">scales and weights.</text>
  <g transform="matrix(1 0 0 1 1289 1933)">
   <path d="M2.8418 1.86523L4.54102 3.57422C5.40039 4.44336 6.38672 4.38477 7.31445 3.35938L18.0078-8.42773L17.041-9.4043L6.42578 2.27539C6.07422 2.67578 5.74219 2.77344 5.27344 2.30469L4.10156 1.14258C3.63281 0.683594 3.74023 0.341797 4.14062-0.0195312L15.6152-10.8203L14.6387-11.7871L3.04688-0.898438C2.06055 0.0195312 1.98242 0.996094 2.8418 1.86523ZM9.25781-16.3281C8.83789-15.918 8.80859-15.3418 9.04297-14.9512C9.27734-14.5898 9.73633-14.3555 10.3809-14.5215C11.8457-14.8633 13.3691-14.9219 14.7949-13.9844L14.209-12.5293C13.8672-11.6992 14.043-11.1133 14.5801-10.5664L16.875-8.25195C17.3633-7.76367 17.7734-7.74414 18.3398-7.8418L19.4043-8.03711L20.0684-7.36328L20.0293-6.80664C19.9902-6.30859 20.1172-5.92773 20.6055-5.44922L21.3672-4.70703C21.8457-4.22852 22.4609-4.19922 22.9297-4.66797L25.8398-7.58789C26.3086-8.05664 26.2891-8.65234 25.8105-9.13086L25.0391-9.89258C24.5605-10.3711 24.1895-10.5273 23.7109-10.4883L23.1348-10.4395L22.4902-11.0742L22.7344-12.1973C22.8613-12.7637 22.7051-13.2031 22.1191-13.7891L19.9219-15.9766C16.582-19.2969 12.1484-19.2188 9.25781-16.3281ZM10.752-15.957C13.1836-17.7344 16.4746-17.4316 18.7012-15.2051L21.1328-12.793C21.3672-12.5586 21.4062-12.373 21.3379-12.0312L21.0156-10.5469L22.5195-9.0625L23.5059-9.12109C23.7598-9.13086 23.8379-9.11133 24.0332-8.91602L24.6094-8.33984L22.168-5.89844L21.5918-6.47461C21.3965-6.66992 21.3672-6.74805 21.377-7.01172L21.4453-7.98828L19.9512-9.47266L18.4277-9.21875C18.1055-9.15039 17.959-9.17969 17.7148-9.41406L15.7129-11.416C15.459-11.6504 15.4297-11.8164 15.5859-12.1875L16.4648-14.2773C14.9023-15.7324 12.8711-16.3574 10.8398-15.7617C10.6836-15.7227 10.625-15.8496 10.752-15.957Z"/>
  </g>
  <text style="stroke:none;fill:black;font-family:sans-serif;font-size:13;font-weight:bold;" transform="matrix(1 0 0 1 1289 1953)">Exporting</text>
  <text style="stroke:none;fill:black;font-family:sans-serif;font-size:13;" transform="matrix(1 0 0 1 1289 1971)">Symbols should be outlined when exporting to ensure the</text>
  <text style="stroke:none;fill:black;font-family:sans-serif;font-size:13;" transform="matrix(1 0 0 1 1289 1989)">design is preserved when submitting to Xcode.</text>
  <text id="template-version" style="stroke:none;fill:black;font-family:sans-serif;font-size:13;text-anchor:end;" transform="matrix(1 0 0 1 3036 1933)">Template v.4.0</text>
  <text style="stroke:none;fill:black;font-family:sans-serif;font-size:13;text-anchor:end;" transform="matrix(1 0 0 1 3036 1951)">Requires Xcode 14 or greater</text>
  <text id="descriptive-name" style="stroke:none;fill:black;font-family:sans-serif;font-size:13;text-anchor:end;" transform="matrix(1 0 0 1 3036 1969)">Generated from location.circle.fill</text>
  <text style="stroke:none;fill:black;font-family:sans-serif;font-size:13;text-anchor:end;" transform="matrix(1 0 0 1 3036 1987)">Typeset at 100 points</text>
  <text style="stroke:none;fill:black;font-family:sans-serif;font-size:13;" transform="matrix(1 0 0 1 263 726)">Small</text>
  <text style="stroke:none;fill:black;font-family:sans-serif;font-size:13;" transform="matrix(1 0 0 1 263 1156)">Medium</text>
  <text style="stroke:none;fill:black;font-family:sans-serif;font-size:13;" transform="matrix(1 0 0 1 263 1586)">Large</text>
 </g>
 <g id="Guides">
  <g id="H-reference" style="fill:#27AAE1;stroke:none;" transform="matrix(1 0 0 1 339 696)">
   <path d="M0.993654 0L3.63775 0L29.3281-67.1323L30.0303-67.1323L30.0303-70.459L28.1226-70.459ZM11.6885-24.4799L46.9815-24.4799L46.2315-26.7285L12.4385-26.7285ZM55.1196 0L57.7637 0L30.6382-70.459L29.4326-70.459L29.4326-67.1323Z"/>
  </g>
  <line id="Baseline-S" style="fill:none;stroke:#27AAE1;opacity:1;stroke-width:0.5;" x1="263" x2="3036" y1="696" y2="696"/>
  <line id="Capline-S" style="fill:none;stroke:#27AAE1;opacity:1;stroke-width:0.5;" x1="263" x2="3036" y1="625.541" y2="625.541"/>
  <g id="H-reference" style="fill:#27AAE1;stroke:none;" transform="matrix(1 0 0 1 339 1126)">
   <path d="M0.993654 0L3.63775 0L29.3281-67.1323L30.0303-67.1323L30.0303-70.459L28.1226-70.459ZM11.6885-24.4799L46.9815-24.4799L46.2315-26.7285L12.4385-26.7285ZM55.1196 0L57.7637 0L30.6382-70.459L29.4326-70.459L29.4326-67.1323Z"/>
  </g>
  <line id="Baseline-M" style="fill:none;stroke:#27AAE1;opacity:1;stroke-width:0.5;" x1="263" x2="3036" y1="1126" y2="1126"/>
  <line id="Capline-M" style="fill:none;stroke:#27AAE1;opacity:1;stroke-width:0.5;" x1="263" x2="3036" y1="1055.54" y2="1055.54"/>
  <g id="H-reference" style="fill:#27AAE1;stroke:none;" transform="matrix(1 0 0 1 339 1556)">
   <path d="M0.993654 0L3.63775 0L29.3281-67.1323L30.0303-67.1323L30.0303-70.459L28.1226-70.459ZM11.6885-24.4799L46.9815-24.4799L46.2315-26.7285L12.4385-26.7285ZM55.1196 0L57.7637 0L30.6382-70.459L29.4326-70.459L29.4326-67.1323Z"/>
  </g>
  <line id="Baseline-L" style="fill:none;stroke:#27AAE1;opacity:1;stroke-width:0.5;" x1="263" x2="3036" y1="1556" y2="1556"/>
  <line id="Capline-L" style="fill:none;stroke:#27AAE1;opacity:1;stroke-width:0.5;" x1="263" x2="3036" y1="1485.54" y2="1485.54"/>
  <line id="left-margin-Regular-M" style="fill:none;stroke:#00AEEF;stroke-width:0.5;opacity:1.0;" x1="1391.32" x2="1391.32" y1="1030.79" y2="1150.12"/>
  <line id="right-margin-Regular-M" style="fill:none;stroke:#00AEEF;stroke-width:0.5;opacity:1.0;" x1="1508.37" x2="1508.37" y1="1030.79" y2="1150.12"/>
 </g>
 <g id="Symbols">
  <g id="Black-L" transform="matrix(1 0 0 1 2854.19 1556)">
   <path d="M79.1958 32.7257C116.56 32.7257 147.154 2.15259 147.154-35.2113C147.154-72.5752 116.539-103.148 79.175-103.148C41.8307-103.148 11.2588-72.5752 11.2588-35.2113C11.2588 2.15259 41.8515 32.7257 79.1958 32.7257ZM48.0723-30.1681C41.4113-30.1681 38.6057-38.4614 46.2505-41.9009L98.4231-65.7714C104.995-68.753 111.239-62.5531 108.276-55.9387L84.4275-3.72675C81.0488 3.87327 72.7155 1.07605 72.7155-5.61177L72.7143-27.7247C72.7143-29.1555 71.682-30.1669 70.2732-30.1669Z"/>
  </g>
  <g id="Heavy-L" transform="matrix(1 0 0 1 2558.42 1556)">
   <path d="M78.2532 31.7694C115.056 31.7694 145.278 1.57794 145.278-35.2251C145.278-72.0281 115.026-102.22 78.2231-102.22C41.4446-102.22 11.2588-72.0281 11.2588-35.2251C11.2588 1.57794 41.4748 31.7694 78.2532 31.7694ZM46.1147-30.1601C39.7611-30.1601 37.4611-37.8698 44.2472-40.9442L98.6664-66.0841C104.819-68.899 110.563-63.1972 107.767-57.0081L82.692-2.53973C79.6734 4.19832 71.9381 1.9376 71.9381-4.47426L71.9325-27.832C71.9325-29.201 70.9488-30.1545 69.6156-30.1545Z"/>
  </g>
  <g id="Bold-L" transform="matrix(1 0 0 1 2262.89 1556)">
   <path d="M77.0704 30.5711C113.182 30.5711 142.92 0.870872 142.92-35.2405C142.92-71.3519 113.144-101.052 77.0324-101.052C40.9458-101.052 11.2588-71.3519 11.2588-35.2405C11.2588 0.870872 40.9838 30.5711 77.0704 30.5711ZM43.791-30.2716C37.9258-30.2716 36.1887-37.1919 41.9367-39.8204L99.0109-66.4311C104.581-69.0088 109.673-63.9739 107.107-58.3596L80.5928-1.23596C78.0198 4.44148 71.0819 2.79698 71.0819-3.17234L71.0687-28.1341C71.0687-29.3964 70.1688-30.2584 68.9576-30.2584Z"/>
  </g>
  <g id="Semibold-L" transform="matrix(1 0 0 1 1966.99 1556)">
   <path d="M76.2549 29.745C111.889 29.745 141.294 0.383422 141.294-35.2511C141.294-70.8857 111.846-100.247 76.2116-100.247C40.6019-100.247 11.2588-70.8857 11.2588-35.2511C11.2588 0.383422 40.6453 29.745 76.2549 29.745ZM42.1891-30.3485C36.6606-30.3485 35.3115-36.7245 40.3439-39.0457L99.2483-66.6703C104.417-69.0845 109.06-64.5094 106.652-59.2914L79.1455-0.337153C76.8798 4.60911 70.4916 3.38943 70.4916-2.27481L70.4731-28.3424C70.4731-29.5312 69.631-30.33 68.504-30.33Z"/>
  </g>
  <g id="Medium-L" transform="matrix(1 0 0 1 1670.9 1556)">
   <path d="M75.6366 29.1187C110.91 29.1187 140.062 0.0138167 140.062-35.2592C140.062-70.5322 110.862-99.637 75.5892-99.637C40.3412-99.637 11.2588-70.5322 11.2588-35.2592C11.2588 0.0138167 40.3886 29.1187 75.6366 29.1187ZM40.9744-30.4067C35.7013-30.4067 34.6464-36.3702 39.1361-38.4583L99.4284-66.8517C104.293-69.1419 108.595-64.9154 106.307-59.9978L78.0482 0.344361C76.0155 4.73622 70.0441 3.83865 70.0441-1.59426L70.0216-28.5003C70.0216-29.6334 69.2232-30.3843 68.1601-30.3843Z"/>
  </g>
  <g id="Regular-L" transform="matrix(1 0 0 1 1374.99 1556)">
   <path d="M74.8301 28.3017C109.632 28.3017 138.454-0.468277 138.454-35.2697C138.454-70.0711 109.579-98.8411 74.7774-98.8411C40.0011-98.8411 11.2588-70.0711 11.2588-35.2697C11.2588-0.468277 40.0538 28.3017 74.8301 28.3017ZM39.3901-30.4828C34.4499-30.4828 33.7789-35.908 37.5608-37.6921L99.6632-67.0883C104.131-69.2167 107.988-65.445 105.857-60.9193L76.6168 1.23329C74.888 4.90201 69.4603 4.42459 69.4603-0.706592L69.4326-28.7063C69.4326-29.7666 68.6914-30.4551 67.7114-30.4551Z"/>
  </g>
  <g id="Light-L" transform="matrix(1 0 0 1 1079.2 1556)">
   <path d="M73.9141 27.3856C108.257 27.3856 136.603-0.926323 136.603-35.2697C136.603-69.6131 108.224-97.925 73.8804-97.925C39.5239-97.925 11.2588-69.6131 11.2588-35.2697C11.2588-0.926323 39.5576 27.3856 73.9141 27.3856ZM38.4358-31.3416C34.5263-31.3416 33.8362-35.7934 37.0646-37.3104L100.179-67.0692C103.845-68.835 107.034-65.8458 105.208-62.0263L75.4908 1.06152C74.0673 4.04317 69.5557 3.68026 69.5557-0.496654L69.5089-30.0041C69.5089-30.7972 68.9776-31.2949 68.2649-31.2949Z"/>
  </g>
  <g id="Thin-L" transform="matrix(1 0 0 1 783.716 1556)">
   <path d="M72.7024 26.174C106.44 26.174 134.155-1.53213 134.155-35.2697C134.155-69.0073 106.432-96.7134 72.694-96.7134C38.8929-96.7134 11.2588-69.0073 11.2588-35.2697C11.2588-1.53213 38.9013 26.174 72.7024 26.174ZM37.1737-32.4775C34.6272-32.4775 33.9119-35.642 36.4083-36.8056L100.86-67.044C103.466-68.3302 105.772-66.3759 104.35-63.4903L74.0015 0.834348C72.9819 2.90729 69.6819 2.69583 69.6819-0.218994L69.6099-31.7205C69.6099-32.1603 69.3563-32.4055 68.9969-32.4055Z"/>
  </g>
  <g id="Ultralight-L" transform="matrix(1 0 0 1 487.631 1556)">
   <path d="M72.0819 25.5534C105.509 25.5534 132.9-1.84242 132.9-35.2697C132.9-68.697 105.514-96.0928 72.0864-96.0928C38.5697-96.0928 11.2588-68.697 11.2588-35.2697C11.2588-1.84242 38.5652 25.5534 72.0819 25.5534ZM36.5273-33.0593C34.679-33.0593 33.9507-35.5644 36.0722-36.547L101.209-67.0311C103.272-68.0716 105.125-66.6474 103.911-64.2402L73.2387 0.71799C72.426 2.3255 69.7465 2.19161 69.7465-0.0767779L69.6616-32.5997C69.6616-32.8584 69.5502-32.9744 69.3718-32.9744Z"/>
  </g>
  <g id="Black-M" transform="matrix(1 0 0 1 2871.36 1126)">
   <path d="M62.0422 18.116C91.4096 18.116 115.367-5.83621 115.367-35.2035C115.367-64.5709 91.4041-88.5231 62.0367-88.5231C32.6752-88.5231 8.72266-64.5709 8.72266-35.2035C8.72266-5.83621 32.6807 18.116 62.0422 18.116ZM38.7968-31.4315C33.5116-31.4315 30.9009-38.2263 37.4866-41.1686L76.1133-58.6204C81.4571-61.0244 86.6327-55.899 84.2348-50.5046L66.7485-11.8664C63.8627-5.33065 57.0168-7.94336 57.0168-13.2326L57.0171-29.4988C57.0171-30.6242 56.204-31.4318 55.0838-31.4318Z"/>
  </g>
  <g id="Heavy-M" transform="matrix(1 0 0 1 2575.48 1126)">
   <path d="M61.2053 17.2657C90.0667 17.2657 113.704-6.35571 113.704-35.217C113.704-64.0783 90.0502-87.6997 61.1889-87.6997C32.3418-87.6997 8.72266-64.0783 8.72266-35.217C8.72266-6.35571 32.3582 17.2657 61.2053 17.2657ZM36.9711-31.3444C31.8914-31.3444 29.7767-37.6585 35.5741-40.2686L76.3036-58.9277C81.311-61.2023 86.0602-56.4917 83.7975-51.448L65.1558-10.6902C62.5939-4.93367 56.2481-7.03247 56.2481-12.1399L56.2458-29.484C56.2458-30.5736 55.4608-31.3422 54.3899-31.3422Z"/>
  </g>
  <g id="Bold-M" transform="matrix(1 0 0 1 2279.69 1126)">
   <path d="M60.2692 16.3144C88.5644 16.3144 111.844-6.93686 111.844-35.2321C111.844-63.5273 88.5358-86.7786 60.2405-86.7786C31.9688-86.7786 8.72266-63.5273 8.72266-35.2321C8.72266-6.93686 31.9974 16.3144 60.2692 16.3144ZM34.9288-31.247C30.079-31.247 28.5191-37.0234 33.4346-39.2618L76.5164-59.2716C81.1475-61.4014 85.4198-57.1547 83.3083-52.5032L63.3742-9.3744C61.1746-4.48959 55.3881-6.01351 55.3881-10.9177L55.383-29.4674C55.383-30.517 54.6295-31.2419 53.6136-31.2419Z"/>
  </g>
  <g id="Semibold-M" transform="matrix(1 0 0 1 1983.62 1126)">
   <path d="M59.6238 15.6586C87.5288 15.6586 110.562-7.33749 110.562-35.2425C110.562-63.1475 87.4917-86.1436 59.5867-86.1436C31.7117-86.1436 8.72266-63.1475 8.72266-35.2425C8.72266-7.33749 31.7487 15.6586 59.6238 15.6586ZM33.5209-31.1799C28.8295-31.1799 27.6521-36.5855 31.9597-38.5677L76.6632-59.5086C81.0348-61.5386 84.9783-57.6117 82.9711-53.2306L62.146-8.4673C60.1962-4.18344 54.7953-5.31104 54.7953-10.0751L54.7881-29.456C54.7881-30.478 54.0564-31.1728 53.0785-31.1728Z"/>
  </g>
  <g id="Medium-M" transform="matrix(1 0 0 1 1687.4 1126)">
   <path d="M59.1344 15.1614C86.7435 15.1614 109.59-7.64127 109.59-35.2504C109.59-62.8595 86.7001-85.6621 59.091-85.6621C31.5167-85.6621 8.72266-62.8595 8.72266-35.2504C8.72266-7.64127 31.5601 15.1614 59.1344 15.1614ZM32.4534-31.129C27.8821-31.129 26.9948-36.2535 30.8414-38.0414L76.7745-59.6883C80.9493-61.6426 84.6435-57.9583 82.7154-53.7822L61.2147-7.77949C59.4542-3.95131 54.3457-4.7784 54.3457-9.43615L54.3371-29.4474C54.3371-30.4485 53.6218-31.1204 52.6727-31.1204Z"/>
  </g>
  <g id="Regular-M" transform="matrix(1 0 0 1 1391.32 1126)">
   <path d="M58.4961 14.5128C85.7192 14.5128 108.321-8.0375 108.321-35.2606C108.321-62.4838 85.6675-85.0341 58.4443-85.0341C31.2624-85.0341 8.72266-62.4838 8.72266-35.2606C8.72266-8.0375 31.3141 14.5128 58.4961 14.5128ZM31.0609-31.0626C26.6463-31.0626 26.1373-35.8204 29.3827-37.3549L76.9196-59.9227C80.8378-61.7783 84.2068-58.4103 82.3819-54.5017L59.9999-6.88236C58.4865-3.64853 53.7594-4.08366 53.7594-8.60279L53.7488-29.4361C53.7488-30.4099 53.0549-31.052 52.1435-31.052Z"/>
  </g>
  <g id="Light-M" transform="matrix(1 0 0 1 1095.44 1126)">
   <path d="M57.6748 13.6915C84.4872 13.6915 106.662-8.44816 106.662-35.2606C106.662-62.0731 84.4526-84.2128 57.6401-84.2128C30.8346-84.2128 8.72266-62.0731 8.72266-35.2606C8.72266-8.44816 30.8693 13.6915 57.6748 13.6915ZM30.2054-31.8326C26.7147-31.8326 26.1886-35.7177 28.9378-37.0127L77.3816-59.9056C80.5812-61.4361 83.3513-58.7697 81.8001-55.4941L58.9904-7.03636C57.7508-4.41852 53.845-4.75099 53.845-8.41457L53.8173-30.5997C53.8173-31.3339 53.3116-31.8049 52.6397-31.8049Z"/>
  </g>
  <g id="Thin-M" transform="matrix(1 0 0 1 799.828 1126)">
   <path d="M56.5885 12.6052C82.8578 12.6052 104.466-8.9913 104.466-35.2606C104.466-61.53 82.8458-83.1265 56.5765-83.1265C30.2689-83.1265 8.72266-61.53 8.72266-35.2606C8.72266-8.9913 30.2809 12.6052 56.5885 12.6052ZM29.0738-32.851C26.8053-32.851 26.2565-35.5819 28.3494-36.5601L77.9927-59.883C80.2417-60.9835 82.2197-59.2449 81.0307-56.8067L57.6552-7.24004C56.7777-5.4369 53.9581-5.63358 53.9581-8.16563L53.9078-32.1385C53.9078-32.5559 53.6511-32.8007 53.296-32.8007Z"/>
  </g>
  <g id="Ultralight-M" transform="matrix(1 0 0 1 503.679 1126)">
   <path d="M56.0321 12.0488C82.0233 12.0488 103.342-9.26949 103.342-35.2606C103.342-61.2518 82.0228-82.5701 56.0317-82.5701C29.9791-82.5701 8.72266-61.2518 8.72266-35.2606C8.72266-9.26949 29.9795 12.0488 56.0321 12.0488ZM28.4943-33.3726C26.8516-33.3726 26.2913-35.5124 28.0481-36.3282L78.3056-59.8714C80.0678-60.7517 81.6402-59.4883 80.6366-57.479L56.9713-7.34436C56.2792-5.9585 54.0161-6.08564 54.0161-8.03813L53.9542-32.9268C53.9542-33.1819 53.8249-33.3107 53.6321-33.3107Z"/>
  </g>
  <g id="Black-S" transform="matrix(1 0 0 1 2884.57 696)">
   <path d="M48.8281 6.78711C71.9727 6.78711 90.8203-12.0605 90.8203-35.2051C90.8203-58.3496 71.9727-77.1973 48.8281-77.1973C25.6836-77.1973 6.83594-58.3496 6.83594-35.2051C6.83594-12.0605 25.6836 6.78711 48.8281 6.78711ZM30.9082-32.3242C26.7578-32.3242 24.5605-37.7441 29.9316-40.1367L59.6191-53.4668C63.8672-55.3711 68.0176-51.2695 66.1133-46.9727L52.7344-17.2852C50.3906-11.9629 44.9219-14.1602 44.9219-18.3105L44.9219-30.8105C44.9219-31.6895 44.2871-32.3242 43.4082-32.3242Z"/>
  </g>
  <g id="Heavy-S" transform="matrix(1 0 0 1 2588.47 696)">
   <path d="M48.2173 6.16479C70.9816 6.16479 89.6102-12.4524 89.6102-35.2166C89.6102-57.9808 70.97-76.598 48.2058-76.598C25.4531-76.598 6.83594-57.9808 6.83594-35.2166C6.83594-12.4524 25.4646 6.16479 48.2173 6.16479ZM29.4561-32.1514C25.3634-32.1514 23.5925-37.2716 28.3528-39.4107L59.7229-53.7319C63.775-55.567 67.6373-51.7305 65.8136-47.6526L51.5013-16.2595C49.3995-11.525 44.2535-13.2958 44.2535-17.4001L44.2535-30.6492C44.2535-31.5281 43.6187-32.1514 42.7513-32.1514Z"/>
  </g>
  <g id="Bold-S" transform="matrix(1 0 0 1 2292.43 696)">
   <path d="M47.5342 5.46875C69.873 5.46875 88.2568-12.8906 88.2568-35.2295C88.2568-57.5684 69.8486-75.9277 47.5098-75.9277C25.1953-75.9277 6.83594-57.5684 6.83594-35.2295C6.83594-12.8906 25.2197 5.46875 47.5342 5.46875ZM27.832-31.958C23.8037-31.958 22.5098-36.7432 26.5869-38.5986L59.8389-54.0283C63.6719-55.7861 67.2119-52.2461 65.4785-48.4131L50.1221-15.1123C48.291-11.0352 43.5059-12.3291 43.5059-16.3818L43.5059-30.4688C43.5059-31.3477 42.8711-31.958 42.0166-31.958Z"/>
  </g>
  <g id="Semibold-S" transform="matrix(1 0 0 1 1996.19 696)">
   <path d="M47.0632 4.98887C69.1088 4.98887 87.3237-13.1928 87.3237-35.2384C87.3237-57.284 69.0755-75.4656 47.0299-75.4656C25.0176-75.4656 6.83594-57.284 6.83594-35.2384C6.83594-13.1928 25.0509 4.98887 47.0632 4.98887ZM26.7123-31.8247C22.7284-31.8247 21.7633-36.3788 25.3694-38.0388L59.9188-54.2327C63.6008-55.9372 66.9187-52.6016 65.2475-48.9374L49.1712-14.3214C47.5268-10.6975 42.9904-11.6626 42.9904-15.6798L42.9904-30.3443C42.9904-31.2232 42.3557-31.8247 41.5101-31.8247Z"/>
  </g>
  <g id="Medium-S" transform="matrix(1 0 0 1 1699.83 696)">
   <path d="M46.7061 4.625C68.5293 4.625 86.6162-13.4219 86.6162-35.2451C86.6162-57.0684 68.4893-75.1152 46.666-75.1152C24.8828-75.1152 6.83594-57.0684 6.83594-35.2451C6.83594-13.4219 24.9229 4.625 46.7061 4.625ZM25.8633-31.7236C21.9131-31.7236 21.1973-36.1025 24.4463-37.6143L59.9795-54.3877C63.5469-56.0518 66.6963-52.8711 65.0723-49.335L48.4502-13.7217C46.9473-10.4414 42.5996-11.1572 42.5996-15.1475L42.5996-30.25C42.5996-31.1289 41.9648-31.7236 41.126-31.7236Z"/>
  </g>
  <g id="Regular-S" transform="matrix(1 0 0 1 1403.58 696)">
   <path d="M46.2402 4.15039C67.7734 4.15039 85.6934-13.7207 85.6934-35.2539C85.6934-56.7871 67.7246-74.6582 46.1914-74.6582C24.707-74.6582 6.83594-56.7871 6.83594-35.2539C6.83594-13.7207 24.7559 4.15039 46.2402 4.15039ZM24.7559-31.5918C20.8496-31.5918 20.459-35.7422 23.2422-37.0605L60.0586-54.5898C63.4766-56.2012 66.4062-53.2227 64.8438-49.8535L47.5098-12.9395C46.1914-10.1074 42.0898-10.498 42.0898-14.4531L42.0898-30.127C42.0898-31.0059 41.4551-31.5918 40.625-31.5918Z"/>
  </g>
  <g id="Light-S" transform="matrix(1 0 0 1 1107.6 696)">
   <path d="M45.5137 3.42383C66.6836 3.42383 84.2251-14.084 84.2251-35.2539C84.2251-56.4238 66.6499-73.9316 45.48-73.9316C24.3286-73.9316 6.83594-56.4238 6.83594-35.2539C6.83594-14.084 24.3623 3.42383 45.5137 3.42383ZM23.999-32.2729C20.9102-32.2729 20.5044-35.6514 22.8486-36.7578L60.4673-54.5747C63.2495-55.8984 65.6494-53.5405 64.3291-50.7314L46.6167-13.0757C45.5405-10.7886 42.1655-11.0884 42.1655-14.2866L42.1504-31.1562C42.1504-31.8232 41.6821-32.2578 41.064-32.2578Z"/>
  </g>
  <g id="Thin-S" transform="matrix(1 0 0 1 811.863 696)">
   <path d="M44.5527 2.4629C65.2422 2.4629 82.2832-14.5644 82.2832-35.2539C82.2832-55.9434 65.2285-72.9707 44.5391-72.9707C23.8281-72.9707 6.83594-55.9434 6.83594-35.2539C6.83594-14.5644 23.8418 2.4629 44.5527 2.4629ZM22.9981-33.1738C20.9902-33.1738 20.5645-35.5313 22.3281-36.3574L61.0078-54.5547C62.9492-55.4981 64.6485-53.9609 63.6484-51.8926L45.4356-13.2559C44.6797-11.6894 42.2656-11.8691 42.2656-14.0664L42.2305-32.5176C42.2305-32.9043 41.9824-33.1387 41.6445-33.1387Z"/>
  </g>
  <g id="Ultralight-S" transform="matrix(1 0 0 1 515.649 696)">
   <path d="M44.0606 1.97072C64.5039 1.97072 81.2886-14.8105 81.2886-35.2539C81.2886-55.6973 64.5005-72.4785 44.0571-72.4785C23.5718-72.4785 6.83594-55.6973 6.83594-35.2539C6.83594-14.8105 23.5752 1.97072 44.0606 1.97072ZM22.4854-33.6352C21.0312-33.6352 20.5952-35.4697 22.0615-36.1524L61.2847-54.5444C62.7954-55.293 64.1358-54.1763 63.2998-52.4873L44.8306-13.3481C44.2388-12.1509 42.3169-12.269 42.3169-13.9536L42.2715-33.2148C42.2715-33.458 42.1362-33.5898 41.9419-33.5898Z"/>
  </g>
 </g>
</svg>
