<?xml version="1.0" encoding="UTF-8"?>
<!--Generator: Apple Native CoreSVG 175.5-->
<!DOCTYPE svg
PUBLIC "-//W3C//DTD SVG 1.1//EN"
       "http://www.w3.org/Graphics/SVG/1.1/DTD/svg11.dtd">
<svg version="1.1" xmlns="http://www.w3.org/2000/svg" xmlns:xlink="http://www.w3.org/1999/xlink" width="3300" height="2200">
 <!--glyph: "uni1008D9.medium", point size: 100.0, font version: "18.0d12e2", template writer version: "101"-->
 <g id="Notes">
  <rect height="2200" id="artboard" style="fill:white;opacity:1" width="3300" x="0" y="0"/>
  <line style="fill:none;stroke:black;opacity:1;stroke-width:0.5;" x1="263" x2="3036" y1="292" y2="292"/>
  <text style="stroke:none;fill:black;font-family:sans-serif;font-size:13;font-weight:bold;" transform="matrix(1 0 0 1 263 322)">Weight/Scale Variations</text>
  <text style="stroke:none;fill:black;font-family:sans-serif;font-size:13;text-anchor:middle;" transform="matrix(1 0 0 1 559.711 322)">Ultralight</text>
  <text style="stroke:none;fill:black;font-family:sans-serif;font-size:13;text-anchor:middle;" transform="matrix(1 0 0 1 856.422 322)">Thin</text>
  <text style="stroke:none;fill:black;font-family:sans-serif;font-size:13;text-anchor:middle;" transform="matrix(1 0 0 1 1153.13 322)">Light</text>
  <text style="stroke:none;fill:black;font-family:sans-serif;font-size:13;text-anchor:middle;" transform="matrix(1 0 0 1 1449.84 322)">Regular</text>
  <text style="stroke:none;fill:black;font-family:sans-serif;font-size:13;text-anchor:middle;" transform="matrix(1 0 0 1 1746.56 322)">Medium</text>
  <text style="stroke:none;fill:black;font-family:sans-serif;font-size:13;text-anchor:middle;" transform="matrix(1 0 0 1 2043.27 322)">Semibold</text>
  <text style="stroke:none;fill:black;font-family:sans-serif;font-size:13;text-anchor:middle;" transform="matrix(1 0 0 1 2339.98 322)">Bold</text>
  <text style="stroke:none;fill:black;font-family:sans-serif;font-size:13;text-anchor:middle;" transform="matrix(1 0 0 1 2636.69 322)">Heavy</text>
  <text style="stroke:none;fill:black;font-family:sans-serif;font-size:13;text-anchor:middle;" transform="matrix(1 0 0 1 2933.4 322)">Black</text>
  <line style="fill:none;stroke:black;opacity:1;stroke-width:0.5;" x1="263" x2="3036" y1="1903" y2="1903"/>
  <g transform="matrix(1 0 0 1 263 1933)">
   <path d="M9.24805 0.830078C13.5547 0.830078 17.1387-2.74414 17.1387-7.05078C17.1387-11.3574 13.5449-14.9316 9.23828-14.9316C4.94141-14.9316 1.36719-11.3574 1.36719-7.05078C1.36719-2.74414 4.95117 0.830078 9.24805 0.830078ZM9.24805-0.654297C5.70312-0.654297 2.87109-3.49609 2.87109-7.05078C2.87109-10.6055 5.69336-13.4473 9.23828-13.4473C12.793-13.4473 15.6445-10.6055 15.6445-7.05078C15.6445-3.49609 12.8027-0.654297 9.24805-0.654297ZM5.6543-7.05078C5.6543-6.62109 5.95703-6.32812 6.40625-6.32812L8.50586-6.32812L8.50586-4.20898C8.50586-3.76953 8.79883-3.4668 9.22852-3.4668C9.67773-3.4668 9.9707-3.76953 9.9707-4.20898L9.9707-6.32812L12.0898-6.32812C12.5293-6.32812 12.832-6.62109 12.832-7.05078C12.832-7.49023 12.5293-7.79297 12.0898-7.79297L9.9707-7.79297L9.9707-9.90234C9.9707-10.3516 9.67773-10.6543 9.22852-10.6543C8.79883-10.6543 8.50586-10.3516 8.50586-9.90234L8.50586-7.79297L6.40625-7.79297C5.95703-7.79297 5.6543-7.49023 5.6543-7.05078Z"/>
  </g>
  <g transform="matrix(1 0 0 1 281.867 1933)">
   <path d="M11.709 2.91016C17.1582 2.91016 21.6699-1.61133 21.6699-7.05078C21.6699-12.5 17.1484-17.0117 11.6992-17.0117C6.25977-17.0117 1.74805-12.5 1.74805-7.05078C1.74805-1.61133 6.26953 2.91016 11.709 2.91016ZM11.709 1.25C7.09961 1.25 3.41797-2.44141 3.41797-7.05078C3.41797-11.6602 7.08984-15.3516 11.6992-15.3516C16.3086-15.3516 20.0098-11.6602 20.0098-7.05078C20.0098-2.44141 16.3184 1.25 11.709 1.25ZM7.17773-7.05078C7.17773-6.57227 7.50977-6.25 8.00781-6.25L10.8789-6.25L10.8789-3.36914C10.8789-2.88086 11.2109-2.53906 11.6895-2.53906C12.1777-2.53906 12.5195-2.87109 12.5195-3.36914L12.5195-6.25L15.4004-6.25C15.8887-6.25 16.2305-6.57227 16.2305-7.05078C16.2305-7.53906 15.8887-7.88086 15.4004-7.88086L12.5195-7.88086L12.5195-10.752C12.5195-11.25 12.1777-11.5918 11.6895-11.5918C11.2109-11.5918 10.8789-11.25 10.8789-10.752L10.8789-7.88086L8.00781-7.88086C7.50977-7.88086 7.17773-7.53906 7.17773-7.05078Z"/>
  </g>
  <g transform="matrix(1 0 0 1 305.646 1933)">
   <path d="M14.9707 5.66406C21.9336 5.66406 27.6953-0.0976562 27.6953-7.05078C27.6953-14.0137 21.9238-19.7754 14.9609-19.7754C8.00781-19.7754 2.25586-14.0137 2.25586-7.05078C2.25586-0.0976562 8.01758 5.66406 14.9707 5.66406ZM14.9707 3.84766C8.93555 3.84766 4.08203-1.01562 4.08203-7.05078C4.08203-13.0957 8.92578-17.9492 14.9609-17.9492C21.0059-17.9492 25.8691-13.0957 25.8691-7.05078C25.8691-1.01562 21.0156 3.84766 14.9707 3.84766ZM9.19922-7.05078C9.19922-6.5332 9.57031-6.17188 10.1172-6.17188L14.0625-6.17188L14.0625-2.2168C14.0625-1.67969 14.4336-1.29883 14.9512-1.29883C15.4883-1.29883 15.8594-1.66992 15.8594-2.2168L15.8594-6.17188L19.8145-6.17188C20.3516-6.17188 20.7324-6.5332 20.7324-7.05078C20.7324-7.59766 20.3613-7.96875 19.8145-7.96875L15.8594-7.96875L15.8594-11.9141C15.8594-12.4609 15.4883-12.8418 14.9512-12.8418C14.4336-12.8418 14.0625-12.4609 14.0625-11.9141L14.0625-7.96875L10.1172-7.96875C9.57031-7.96875 9.19922-7.59766 9.19922-7.05078Z"/>
  </g>
  <text style="stroke:none;fill:black;font-family:sans-serif;font-size:13;font-weight:bold;" transform="matrix(1 0 0 1 263 1953)">Design Variations</text>
  <text style="stroke:none;fill:black;font-family:sans-serif;font-size:13;" transform="matrix(1 0 0 1 263 1971)">Symbols are supported in up to nine weights and three scales.</text>
  <text style="stroke:none;fill:black;font-family:sans-serif;font-size:13;" transform="matrix(1 0 0 1 263 1989)">For optimal layout with text and other symbols, vertically align</text>
  <text style="stroke:none;fill:black;font-family:sans-serif;font-size:13;" transform="matrix(1 0 0 1 263 2007)">symbols with the adjacent text.</text>
  <line style="fill:none;stroke:#00AEEF;stroke-width:0.5;opacity:1.0;" x1="776" x2="776" y1="1919" y2="1933"/>
  <g transform="matrix(1 0 0 1 776 1933)">
   <path d="M3.31055 0.15625C3.82812 0.15625 4.08203-0.0390625 4.26758-0.585938L5.52734-4.0332L11.2891-4.0332L12.5488-0.585938C12.7344-0.0390625 12.9883 0.15625 13.4961 0.15625C14.0137 0.15625 14.3457-0.15625 14.3457-0.644531C14.3457-0.810547 14.3164-0.966797 14.2383-1.17188L9.6582-13.3691C9.43359-13.9648 9.0332-14.2676 8.4082-14.2676C7.80273-14.2676 7.39258-13.9746 7.17773-13.3789L2.59766-1.16211C2.51953-0.957031 2.49023-0.800781 2.49023-0.634766C2.49023-0.146484 2.80273 0.15625 3.31055 0.15625ZM6.00586-5.51758L8.37891-12.0898L8.42773-12.0898L10.8008-5.51758Z"/>
  </g>
  <line style="fill:none;stroke:#00AEEF;stroke-width:0.5;opacity:1.0;" x1="793.197" x2="793.197" y1="1919" y2="1933"/>
  <text style="stroke:none;fill:black;font-family:sans-serif;font-size:13;font-weight:bold;" transform="matrix(1 0 0 1 776 1953)">Margins</text>
  <text style="stroke:none;fill:black;font-family:sans-serif;font-size:13;" transform="matrix(1 0 0 1 776 1971)">Leading and trailing margins on the left and right side of each symbol</text>
  <text style="stroke:none;fill:black;font-family:sans-serif;font-size:13;" transform="matrix(1 0 0 1 776 1989)">can be adjusted by modifying the x-location of the margin guidelines.</text>
  <text style="stroke:none;fill:black;font-family:sans-serif;font-size:13;" transform="matrix(1 0 0 1 776 2007)">Modifications are automatically applied proportionally to all</text>
  <text style="stroke:none;fill:black;font-family:sans-serif;font-size:13;" transform="matrix(1 0 0 1 776 2025)">scales and weights.</text>
  <g transform="matrix(1 0 0 1 1289 1933)">
   <path d="M2.8418 1.86523L4.54102 3.57422C5.40039 4.44336 6.38672 4.38477 7.31445 3.35938L18.0078-8.42773L17.041-9.4043L6.42578 2.27539C6.07422 2.67578 5.74219 2.77344 5.27344 2.30469L4.10156 1.14258C3.63281 0.683594 3.74023 0.341797 4.14062-0.0195312L15.6152-10.8203L14.6387-11.7871L3.04688-0.898438C2.06055 0.0195312 1.98242 0.996094 2.8418 1.86523ZM9.25781-16.3281C8.83789-15.918 8.80859-15.3418 9.04297-14.9512C9.27734-14.5898 9.73633-14.3555 10.3809-14.5215C11.8457-14.8633 13.3691-14.9219 14.7949-13.9844L14.209-12.5293C13.8672-11.6992 14.043-11.1133 14.5801-10.5664L16.875-8.25195C17.3633-7.76367 17.7734-7.74414 18.3398-7.8418L19.4043-8.03711L20.0684-7.36328L20.0293-6.80664C19.9902-6.30859 20.1172-5.92773 20.6055-5.44922L21.3672-4.70703C21.8457-4.22852 22.4609-4.19922 22.9297-4.66797L25.8398-7.58789C26.3086-8.05664 26.2891-8.65234 25.8105-9.13086L25.0391-9.89258C24.5605-10.3711 24.1895-10.5273 23.7109-10.4883L23.1348-10.4395L22.4902-11.0742L22.7344-12.1973C22.8613-12.7637 22.7051-13.2031 22.1191-13.7891L19.9219-15.9766C16.582-19.2969 12.1484-19.2188 9.25781-16.3281ZM10.752-15.957C13.1836-17.7344 16.4746-17.4316 18.7012-15.2051L21.1328-12.793C21.3672-12.5586 21.4062-12.373 21.3379-12.0312L21.0156-10.5469L22.5195-9.0625L23.5059-9.12109C23.7598-9.13086 23.8379-9.11133 24.0332-8.91602L24.6094-8.33984L22.168-5.89844L21.5918-6.47461C21.3965-6.66992 21.3672-6.74805 21.377-7.01172L21.4453-7.98828L19.9512-9.47266L18.4277-9.21875C18.1055-9.15039 17.959-9.17969 17.7148-9.41406L15.7129-11.416C15.459-11.6504 15.4297-11.8164 15.5859-12.1875L16.4648-14.2773C14.9023-15.7324 12.8711-16.3574 10.8398-15.7617C10.6836-15.7227 10.625-15.8496 10.752-15.957Z"/>
  </g>
  <text style="stroke:none;fill:black;font-family:sans-serif;font-size:13;font-weight:bold;" transform="matrix(1 0 0 1 1289 1953)">Exporting</text>
  <text style="stroke:none;fill:black;font-family:sans-serif;font-size:13;" transform="matrix(1 0 0 1 1289 1971)">Symbols should be outlined when exporting to ensure the</text>
  <text style="stroke:none;fill:black;font-family:sans-serif;font-size:13;" transform="matrix(1 0 0 1 1289 1989)">design is preserved when submitting to Xcode.</text>
  <text id="template-version" style="stroke:none;fill:black;font-family:sans-serif;font-size:13;text-anchor:end;" transform="matrix(1 0 0 1 3036 1933)">Template v.4.0</text>
  <text style="stroke:none;fill:black;font-family:sans-serif;font-size:13;text-anchor:end;" transform="matrix(1 0 0 1 3036 1951)">Requires Xcode 14 or greater</text>
  <text id="descriptive-name" style="stroke:none;fill:black;font-family:sans-serif;font-size:13;text-anchor:end;" transform="matrix(1 0 0 1 3036 1969)">Generated from note.text.badge.plus</text>
  <text style="stroke:none;fill:black;font-family:sans-serif;font-size:13;text-anchor:end;" transform="matrix(1 0 0 1 3036 1987)">Typeset at 100 points</text>
  <text style="stroke:none;fill:black;font-family:sans-serif;font-size:13;" transform="matrix(1 0 0 1 263 726)">Small</text>
  <text style="stroke:none;fill:black;font-family:sans-serif;font-size:13;" transform="matrix(1 0 0 1 263 1156)">Medium</text>
  <text style="stroke:none;fill:black;font-family:sans-serif;font-size:13;" transform="matrix(1 0 0 1 263 1586)">Large</text>
 </g>
 <g id="Guides">
  <g id="H-reference" style="fill:#27AAE1;stroke:none;" transform="matrix(1 0 0 1 339 696)">
   <path d="M0.993654 0L3.63775 0L29.3281-67.1323L30.0303-67.1323L30.0303-70.459L28.1226-70.459ZM11.6885-24.4799L46.9815-24.4799L46.2315-26.7285L12.4385-26.7285ZM55.1196 0L57.7637 0L30.6382-70.459L29.4326-70.459L29.4326-67.1323Z"/>
  </g>
  <line id="Baseline-S" style="fill:none;stroke:#27AAE1;opacity:1;stroke-width:0.5;" x1="263" x2="3036" y1="696" y2="696"/>
  <line id="Capline-S" style="fill:none;stroke:#27AAE1;opacity:1;stroke-width:0.5;" x1="263" x2="3036" y1="625.541" y2="625.541"/>
  <g id="H-reference" style="fill:#27AAE1;stroke:none;" transform="matrix(1 0 0 1 339 1126)">
   <path d="M0.993654 0L3.63775 0L29.3281-67.1323L30.0303-67.1323L30.0303-70.459L28.1226-70.459ZM11.6885-24.4799L46.9815-24.4799L46.2315-26.7285L12.4385-26.7285ZM55.1196 0L57.7637 0L30.6382-70.459L29.4326-70.459L29.4326-67.1323Z"/>
  </g>
  <line id="Baseline-M" style="fill:none;stroke:#27AAE1;opacity:1;stroke-width:0.5;" x1="263" x2="3036" y1="1126" y2="1126"/>
  <line id="Capline-M" style="fill:none;stroke:#27AAE1;opacity:1;stroke-width:0.5;" x1="263" x2="3036" y1="1055.54" y2="1055.54"/>
  <g id="H-reference" style="fill:#27AAE1;stroke:none;" transform="matrix(1 0 0 1 339 1556)">
   <path d="M0.993654 0L3.63775 0L29.3281-67.1323L30.0303-67.1323L30.0303-70.459L28.1226-70.459ZM11.6885-24.4799L46.9815-24.4799L46.2315-26.7285L12.4385-26.7285ZM55.1196 0L57.7637 0L30.6382-70.459L29.4326-70.459L29.4326-67.1323Z"/>
  </g>
  <line id="Baseline-L" style="fill:none;stroke:#27AAE1;opacity:1;stroke-width:0.5;" x1="263" x2="3036" y1="1556" y2="1556"/>
  <line id="Capline-L" style="fill:none;stroke:#27AAE1;opacity:1;stroke-width:0.5;" x1="263" x2="3036" y1="1485.54" y2="1485.54"/>
  <line id="left-margin-Regular-M" style="fill:none;stroke:#00AEEF;stroke-width:0.5;opacity:1.0;" x1="1388.73" x2="1388.73" y1="1030.79" y2="1150.12"/>
  <line id="right-margin-Regular-M" style="fill:none;stroke:#FF3B30;stroke-width:0.5;opacity:1.0;" x1="1510.96" x2="1510.96" y1="1030.79" y2="1150.12"/>
 </g>
 <g id="Symbols">
  <g id="Black-L" transform="matrix(1 0 0 1 2849.21 1556)">
   <path d="M39.8556 26.4225L105.551 26.4225C101.673 20.5653 99.2257 13.6902 98.7351 6.42071L42.2533 6.42071C38.1455 6.42071 36.065 4.61543 36.065 0.211596L36.065-53.9774C36.065-58.3812 38.1455-60.1877 42.2533-60.1877L126.111-60.1877C130.214-60.1877 132.321-58.3812 132.321-53.9774L132.321-39.9318C135.58-40.7548 138.946-41.2052 142.374-41.2052C145.8-41.2052 149.11-40.7548 152.301-39.9914L152.301-73.0895C152.301-88.1888 143.695-96.7987 128.529-96.7987L39.8556-96.7987C24.7123-96.7987 16.084-88.1912 16.084-73.0895L16.084 2.71334C16.084 17.815 24.7123 26.4225 39.8556 26.4225ZM52.8074-39.8813L115.657-39.8813C118.183-39.8813 120.074-41.8518 120.074-44.3793C120.074-46.8264 118.183-48.7177 115.657-48.7177L52.8074-48.7177C50.2019-48.7177 48.3105-46.8264 48.3105-44.3793C48.3105-41.8518 50.2019-39.8813 52.8074-39.8813ZM52.8086-22.4653L106.513-22.4653C108.844-25.7874 111.573-28.7146 114.699-31.3005L52.8086-31.3005C50.2019-31.3005 48.3105-29.3312 48.3105-26.8037C48.3105-24.3566 50.2019-22.4653 52.8086-22.4653ZM52.8086-5.04925L91.5296-5.04925C94.0571-5.04925 95.9484-6.93937 95.9484-9.38764C95.9484-11.9139 94.0571-13.8845 91.5296-13.8845L52.8086-13.8845C50.2019-13.8845 48.3105-11.9139 48.3105-9.38764C48.3105-6.93937 50.2019-5.04925 52.8086-5.04925ZM142.37 36.6364C160.878 36.6364 176.262 21.1794 176.262 2.6873C176.262-15.8256 160.941-31.145 142.37-31.145C123.801-31.145 108.479-15.8244 108.479 2.6873C108.479 21.2211 123.801 36.6364 142.37 36.6364ZM142.37 25.0242C138.9 25.0242 136.58 22.7025 136.58 19.2917L136.58 8.53541L125.941 8.53541C122.531 8.53541 120.21 6.21728 120.151 2.74571C120.093-0.725862 122.414-3.04519 125.941-3.04519L136.58-3.04519L136.58-13.6238C136.58-17.0334 138.9-19.3563 142.37-19.4147C145.842-19.4732 148.161-17.1502 148.161-13.6238L148.161-3.04519L158.858-3.04519C162.267-3.04519 164.568-0.725862 164.568 2.74571C164.568 6.21728 162.267 8.53541 158.858 8.53541L148.161 8.53541L148.161 19.2917C148.161 22.7025 145.842 25.0242 142.37 25.0242Z"/>
  </g>
  <g id="Heavy-L" transform="matrix(1 0 0 1 2553.78 1556)">
   <path d="M38.8315 25.5159L104.717 25.5159C101.349 20.3419 99.1801 14.3333 98.6058 7.98528L40.4727 7.98528C35.9369 7.98528 33.5844 5.87166 33.5844 1.06674L33.5844-54.23C33.5844-59.0349 35.9369-61.1542 40.4727-61.1542L125.32-61.1542C129.834-61.1542 132.244-59.0349 132.244-54.23L132.244-39.2625C135.133-39.9388 138.067-40.3115 141.056-40.3115C144.04-40.3115 146.94-39.9388 149.739-39.3128L149.739-73.2263C149.739-87.7674 141.64-95.8832 126.992-95.8832L38.8315-95.8832C24.2188-95.8832 16.084-87.7786 16.084-73.2263L16.084 2.85894C16.084 17.4112 24.2188 25.5159 38.8315 25.5159ZM51.0431-40.1587L114.855-40.1587C117.275-40.1587 119.09-42.0492 119.09-44.4746C119.09-46.8196 117.275-48.6353 114.855-48.6353L51.0431-48.6353C48.5486-48.6353 46.7329-46.8196 46.7329-44.4746C46.7329-42.0492 48.5486-40.1587 51.0431-40.1587ZM51.0487-22.3462L106.218-22.3462C108.48-25.5308 111.12-28.3471 114.141-30.8171L51.0487-30.8171C48.5486-30.8171 46.7329-28.9322 46.7329-26.5068C46.7329-24.1619 48.5486-22.3462 51.0487-22.3462ZM51.0487-4.53362L90.7231-4.53362C93.1485-4.53362 94.9642-6.3437 94.9642-8.69428C94.9642-11.114 93.1485-13.0046 90.7231-13.0046L51.0487-13.0046C48.5486-13.0046 46.7329-11.114 46.7329-8.69428C46.7329-6.3437 48.5486-4.53362 51.0487-4.53362ZM141.039 36.1229C159.251 36.1229 174.44 20.9158 174.44 2.68289C174.44-15.5802 159.347-30.6679 141.039-30.6679C122.743-30.6679 107.644-15.5746 107.644 2.68289C107.644 20.9762 122.743 36.1229 141.039 36.1229ZM141.039 24.4744C137.86 24.4744 135.737 22.3397 135.737 19.2113L135.737 8.02968L124.645 8.02968C121.522 8.02968 119.387 5.91176 119.342 2.72751C119.298-0.456736 121.433-2.58027 124.645-2.58027L135.737-2.58027L135.737-13.6168C135.737-16.7395 137.86-18.8799 141.039-18.9245C144.223-18.9692 146.347-16.8288 146.347-13.6168L146.347-2.58027L157.478-2.58027C160.601-2.58027 162.706-0.456736 162.706 2.72751C162.706 5.91176 160.601 8.02968 157.478 8.02968L146.347 8.02968L146.347 19.2113C146.347 22.3397 144.223 24.4744 141.039 24.4744Z"/>
  </g>
  <g id="Bold-L" transform="matrix(1 0 0 1 2258.55 1556)">
   <path d="M37.5412 24.3865L104.037 24.3865C101.292 20.0653 99.4691 15.1249 98.817 9.90678L38.3792 9.90678C33.2386 9.90678 30.5257 7.38667 30.5257 2.0153L30.5257-54.3065C30.5257-59.6779 33.2386-62.2112 38.3792-62.2112L124.441-62.2112C129.529-62.2112 132.346-59.6779 132.346-54.3065L132.346-38.2837C134.789-38.7905 137.184-39.0709 139.636-39.0709C142.074-39.0709 144.466-38.7905 146.774-38.3261L146.774-73.3953C146.774-87.2076 139.283-94.7386 125.317-94.7386L37.5412-94.7386C23.6265-94.7386 16.084-87.2341 16.084-73.3953L16.084 3.04324C16.084 16.882 23.6265 24.3865 37.5412 24.3865ZM48.8608-40.5119L114.065-40.5119C116.309-40.5119 118.003-42.2727 118.003-44.5303C118.003-46.7075 116.309-48.4012 114.065-48.4012L48.8608-48.4012C46.5492-48.4012 44.8556-46.7075 44.8556-44.5303C44.8556-42.2727 46.5492-40.5119 48.8608-40.5119ZM48.874-22.2076L106.244-22.2076C108.376-25.1636 110.858-27.7968 113.688-30.0836L48.874-30.0836C46.5492-30.0836 44.8556-28.336 44.8556-26.0784C44.8556-23.9012 46.5492-22.2076 48.874-22.2076ZM48.874-3.90327L89.9254-3.90327C92.1831-3.90327 93.8767-5.58368 93.8767-7.77411C93.8767-10.0185 92.1831-11.7793 89.9254-11.7793L48.874-11.7793C46.5492-11.7793 44.8556-10.0185 44.8556-7.77411C44.8556-5.58368 46.5492-3.90327 48.874-3.90327ZM139.596 35.4629C157.439 35.4629 172.367 20.578 172.367 2.67527C172.367-15.2655 157.566-30.0539 139.596-30.0539C121.652-30.0539 106.837-15.2523 106.837 2.67527C106.837 20.654 121.652 35.4629 139.596 35.4629ZM139.596 23.8354C136.778 23.8354 134.901 21.9311 134.901 19.1561L134.901 7.39971L123.203 7.39971C120.441 7.39971 118.537 5.53519 118.507 2.70447C118.478-0.126238 120.382-2.00399 123.203-2.00399L134.901-2.00399L134.901-13.6463C134.901-16.4081 136.778-18.3256 139.596-18.3548C142.427-18.384 144.304-16.4665 144.304-13.6463L144.304-2.00399L156.018-2.00399C158.78-2.00399 160.646-0.126238 160.646 2.70447C160.646 5.53519 158.78 7.39971 156.018 7.39971L144.304 7.39971L144.304 19.1561C144.304 21.9311 142.427 23.8354 139.596 23.8354Z"/>
  </g>
  <g id="Semibold-L" transform="matrix(1 0 0 1 1962.86 1556)">
   <path d="M36.6517 23.608L103.569 23.608C101.253 19.8746 99.6683 15.6706 98.9627 11.2314L36.936 11.2314C31.3785 11.2314 28.4171 8.43112 28.4171 2.66924L28.4171-54.3593C28.4171-60.1211 31.3785-62.94 36.936-62.94L123.835-62.94C129.319-62.94 132.416-60.1211 132.416-54.3593L132.416-37.6088C134.551-37.9988 136.576-38.2156 138.656-38.2156C140.718-38.2156 142.761-37.9988 144.73-37.6459L144.73-73.5119C144.73-86.8217 137.658-93.9496 124.163-93.9496L36.6517-93.9496C23.2182-93.9496 16.084-86.8587 16.084-73.5119L16.084 3.17029C16.084 16.5171 23.2182 23.608 36.6517 23.608ZM47.3563-40.7554L113.52-40.7554C115.643-40.7554 117.253-42.4268 117.253-44.5688C117.253-46.6303 115.643-48.2398 113.52-48.2398L47.3563-48.2398C45.1709-48.2398 43.5614-46.6303 43.5614-44.5688C43.5614-42.4268 45.1709-40.7554 47.3563-40.7554ZM47.3748-22.112L106.263-22.112C108.305-24.9103 110.676-27.4174 113.376-29.578L47.3748-29.578C45.1709-29.578 43.5614-27.925 43.5614-25.7831C43.5614-23.7215 45.1709-22.112 47.3748-22.112ZM47.3748-3.46872L89.3755-3.46872C91.5175-3.46872 93.127-5.05973 93.127-7.13975C93.127-9.26323 91.5175-10.9347 89.3755-10.9347L47.3748-10.9347C45.1709-10.9347 43.5614-9.26323 43.5614-7.13975C43.5614-5.05973 45.1709-3.46872 47.3748-3.46872ZM138.601 35.0078C156.189 35.0078 170.939 20.3452 170.939 2.67002C170.939-15.0485 156.338-29.6306 138.601-29.6306C120.901-29.6306 106.282-15.0301 106.282 2.67002C106.282 20.4319 120.901 35.0078 138.601 35.0078ZM138.601 23.3948C136.032 23.3948 134.324 21.6495 134.324 19.1181L134.324 6.96541L122.209 6.96541C119.696 6.96541 117.95 5.27558 117.932 2.68859C117.913 0.101606 119.658-1.6067 122.209-1.6067L134.324-1.6067L134.324-13.6667C134.324-16.1796 136.032-17.9434 138.601-17.962C141.188-17.9805 142.896-16.2168 142.896-13.6667L142.896-1.6067L155.012-1.6067C157.525-1.6067 159.227 0.101606 159.227 2.68859C159.227 5.27558 157.525 6.96541 155.012 6.96541L142.896 6.96541L142.896 19.1181C142.896 21.6495 141.188 23.3948 138.601 23.3948Z"/>
  </g>
  <g id="Medium-L" transform="matrix(1 0 0 1 1666.92 1556)">
   <path d="M35.9773 23.0176L103.213 23.0176C101.223 19.73 99.8193 16.0844 99.0731 12.2359L35.8416 12.2359C29.968 12.2359 26.8183 9.22305 26.8183 3.16508L26.8183-54.3993C26.8183-60.4572 29.968-63.4925 35.8416-63.4925L123.375-63.4925C129.159-63.4925 132.469-60.4572 132.469-54.3993L132.469-37.0971C134.371-37.3986 136.115-37.5671 137.914-37.5671C139.69-37.5671 141.468-37.3986 143.181-37.1301L143.181-73.6003C143.181-86.5291 136.426-93.3513 123.287-93.3513L35.9773-93.3513C22.9086-93.3513 16.084-86.574 16.084-73.6003L16.084 3.26662C16.084 16.2404 22.9086 23.0176 35.9773 23.0176ZM46.2155-40.94L113.107-40.94C115.139-40.94 116.684-42.5436 116.684-44.5979C116.684-46.5717 115.139-48.1174 113.107-48.1174L46.2155-48.1174C44.1258-48.1174 42.5801-46.5717 42.5801-44.5979C42.5801-42.5436 44.1258-40.94 46.2155-40.94ZM46.238-22.0396L106.276-22.0396C108.252-24.7184 110.539-27.1298 113.139-29.1946L46.238-29.1946C44.1258-29.1946 42.5801-27.6134 42.5801-25.5591C42.5801-23.5853 44.1258-22.0396 46.238-22.0396ZM46.238-3.13922L88.9585-3.13922C91.0128-3.13922 92.5585-4.66244 92.5585-6.65876C92.5585-8.69056 91.0128-10.2942 88.9585-10.2942L46.238-10.2942C44.1258-10.2942 42.5801-8.69056 42.5801-6.65876C42.5801-4.66244 44.1258-3.13922 46.238-3.13922ZM137.846 34.6628C155.242 34.6628 169.855 20.1687 169.855 2.66604C169.855-14.884 155.407-29.3097 137.846-29.3097C120.331-29.3097 105.86-14.8616 105.86 2.66604C105.86 20.2635 120.331 34.6628 137.846 34.6628ZM137.846 23.0607C135.467 23.0607 133.887 21.436 133.887 19.0892L133.887 6.6361L121.455 6.6361C119.13 6.6361 117.506 5.07874 117.495 2.67655C117.485 0.274367 119.109-1.30547 121.455-1.30547L133.887-1.30547L133.887-13.6821C133.887-16.0064 135.467-17.6536 137.846-17.6641C140.249-17.6746 141.828-16.0274 141.828-13.6821L141.828-1.30547L154.249-1.30547C156.573-1.30547 158.15 0.274367 158.15 2.67655C158.15 5.07874 156.573 6.6361 154.249 6.6361L141.828 6.6361L141.828 19.0892C141.828 21.436 140.249 23.0607 137.846 23.0607Z"/>
  </g>
  <g id="Regular-L" transform="matrix(1 0 0 1 1371.22 1556)">
   <path d="M35.0976 22.2476L102.75 22.2476C101.185 19.5414 100.016 16.6241 99.2172 13.546L34.4142 13.546C28.1283 13.546 24.7328 10.256 24.7328 3.81183L24.7328-54.4514C24.7328-60.8956 28.1283-64.2132 34.4142-64.2132L122.776-64.2132C128.951-64.2132 132.538-60.8956 132.538-54.4514L132.538-36.4297C134.136-36.6157 135.513-36.7212 136.945-36.7212C138.35-36.7212 139.782-36.6157 141.159-36.4574L141.159-73.7155C141.159-86.1475 134.819-92.5709 122.146-92.5709L35.0976-92.5709C22.5048-92.5709 16.084-86.2028 16.084-73.7155L16.084 3.39227C16.084 15.8795 22.5048 22.2476 35.0976 22.2476ZM44.7276-41.1808L112.568-41.1808C114.481-41.1808 115.943-42.696 115.943-44.6359C115.943-46.4953 114.481-47.9578 112.568-47.9578L44.7276-47.9578C42.7626-47.9578 41.3001-46.4953 41.3001-44.6359C41.3001-42.696 42.7626-41.1808 44.7276-41.1808ZM44.7553-21.9451L106.294-21.9451C108.181-24.4679 110.36-26.7546 112.83-28.6945L44.7553-28.6945C42.7626-28.6945 41.3001-27.2069 41.3001-25.267C41.3001-23.4076 42.7626-21.9451 44.7553-21.9451ZM44.7553-2.70944L88.4146-2.70944C90.3545-2.70944 91.817-4.14425 91.817-6.03137C91.817-7.9436 90.3545-9.45882 88.4146-9.45882L44.7553-9.45882C42.7626-9.45882 41.3001-7.9436 41.3001-6.03137C41.3001-4.14425 42.7626-2.70944 44.7553-2.70944ZM136.862 34.2127C154.007 34.2127 168.442 19.9384 168.442 2.66084C168.442-14.6695 154.193-28.891 136.862-28.891C119.587-28.891 105.31-14.6418 105.31 2.66084C105.31 20.0439 119.587 34.2127 136.862 34.2127ZM136.862 22.625C134.729 22.625 133.317 21.1574 133.317 19.0516L133.317 6.20658L120.472 6.20658C118.393 6.20658 116.926 4.82198 116.926 2.66084C116.926 0.499707 118.393-0.912545 120.472-0.912545L133.317-0.912545L133.317-13.7023C133.317-15.7804 134.729-17.2756 136.862-17.2756C139.023-17.2756 140.436-15.7804 140.436-13.7023L140.436-0.912545L153.253-0.912545C155.331-0.912545 156.746 0.499707 156.746 2.66084C156.746 4.82198 155.331 6.20658 153.253 6.20658L140.436 6.20658L140.436 19.0516C140.436 21.1574 139.023 22.625 136.862 22.625Z"/>
  </g>
  <g id="Light-L" transform="matrix(1 0 0 1 1074.86 1556)">
   <path d="M34.067 21.4269L104.563 21.4269C103.36 19.3505 102.44 17.1394 101.756 14.7674L33.689 14.7674C26.5061 14.7674 22.7098 11.0385 22.7098 3.75457L22.7098-52.9819C22.7098-60.2658 26.5061-64.0415 33.689-64.0415L122.814-64.0415C129.81-64.0415 133.874-60.2658 133.874-52.9819L133.874-34.7884C135.243-34.9361 136.238-35.0035 137.327-35.0035C138.369-35.0035 139.458-34.9361 140.453-34.8351L140.453-73.83C140.453-85.5176 134.399-91.712 122.47-91.712L34.067-91.712C22.2185-91.712 16.084-85.6111 16.084-73.83L16.084 3.54496C16.084 15.3261 22.2185 21.4269 34.067 21.4269ZM43.2389-41.4861L113.332-41.4861C114.843-41.4861 116.038-42.7151 116.038-44.2733C116.038-45.751 114.843-46.9463 113.332-46.9463L43.2389-46.9463C41.6938-46.9463 40.4986-45.751 40.4986-44.2733C40.4986-42.7151 41.6938-41.4861 43.2389-41.4861ZM43.2857-21.9069L108.832-21.9069C110.357-23.8954 112.097-25.7622 114.051-27.3203L43.2857-27.3203C41.6938-27.3203 40.4986-26.1381 40.4986-24.58C40.4986-23.1022 41.6938-21.9069 43.2857-21.9069ZM43.2857-2.32773L89.159-2.32773C90.7171-2.32773 91.9124-3.47626 91.9124-5.00076C91.9124-6.5122 90.7171-7.74115 89.159-7.74115L43.2857-7.74115C41.6938-7.74115 40.4986-6.5122 40.4986-5.00076C40.4986-3.47626 41.6938-2.32773 43.2857-2.32773ZM137.187 33.602C154.064 33.602 168.194 19.633 168.194 2.64176C168.194-14.3832 154.212-28.3185 137.187-28.3185C120.255-28.3185 106.227-14.3364 106.227 2.64176C106.227 19.7004 120.255 33.602 137.187 33.602ZM137.187 22.4532C135.301 22.4532 134.08 21.1383 134.08 19.2997L134.08 5.74853L120.529 5.74853C118.737 5.74853 117.422 4.57387 117.422 2.64176C117.422 0.709645 118.737-0.511754 120.529-0.511754L134.08-0.511754L134.08-13.9695C134.08-15.7613 135.301-17.123 137.187-17.123C139.119-17.123 140.34-15.7613 140.34-13.9695L140.34-0.511754L153.845-0.511754C155.637-0.511754 156.918 0.709645 156.918 2.64176C156.918 4.57387 155.637 5.74853 153.845 5.74853L140.34 5.74853L140.34 19.2997C140.34 21.1383 139.119 22.4532 137.187 22.4532Z"/>
  </g>
  <g id="Thin-L" transform="matrix(1 0 0 1 778.621 1556)">
   <path d="M32.7039 20.3415L106.961 20.3415C106.238 19.0981 105.646 17.8209 105.113 16.3829L32.7298 16.3829C24.3605 16.3829 20.0342 12.0734 20.0342 3.67885L20.0342-51.0382C20.0342-59.4328 24.3605-63.8143 32.7298-63.8143L122.865-63.8143C130.946-63.8143 135.641-59.4328 135.641-51.0382L135.641-32.6176C136.707-32.7149 137.197-32.7317 137.832-32.7317C138.394-32.7317 139.029-32.7149 139.519-32.6896L139.519-73.9815C139.519-84.6847 133.844-90.5761 122.899-90.5761L32.7039-90.5761C21.8399-90.5761 16.084-84.8286 16.084-73.9815L16.084 3.74689C16.084 14.594 21.8399 20.3415 32.7039 20.3415ZM41.2701-41.89L114.341-41.89C115.323-41.89 116.165-42.7403 116.165-43.7937C116.165-44.7666 115.323-45.6085 114.341-45.6085L41.2701-45.6085C40.2803-45.6085 39.4384-44.7666 39.4384-43.7937C39.4384-42.7403 40.2803-41.89 41.2701-41.89ZM41.3421-21.8564L112.19-21.8564C113.235-23.1381 114.394-24.4496 115.667-25.5029L41.3421-25.5029C40.2803-25.5029 39.4384-24.7246 39.4384-23.6713C39.4384-22.6983 40.2803-21.8564 41.3421-21.8564ZM41.3421-1.8229L90.1434-1.8229C91.1967-1.8229 92.0386-2.5928 92.0386-3.63771C92.0386-4.61906 91.1967-5.46939 90.1434-5.46939L41.3421-5.46939C40.2803-5.46939 39.4384-4.61906 39.4384-3.63771C39.4384-2.5928 40.2803-1.8229 41.3421-1.8229ZM137.616 32.7942C154.14 32.7942 167.866 19.2291 167.866 2.61652C167.866-14.0045 154.237-27.5612 137.616-27.5612C121.139-27.5612 107.438-13.9326 107.438 2.61652C107.438 19.246 121.139 32.7942 137.616 32.7942ZM137.616 22.226C136.059 22.226 135.09 21.1131 135.09 19.6279L135.09 5.14273L120.605 5.14273C119.191 5.14273 118.078 4.24573 118.078 2.61652C118.078 0.987305 119.191 0.0183241 120.605 0.0183241L135.09 0.0183241L135.09-14.3228C135.09-15.7361 136.059-16.921 137.616-16.921C139.245-16.921 140.214-15.7361 140.214-14.3228L140.214 0.0183241L154.627 0.0183241C156.041 0.0183241 157.145 0.987305 157.145 2.61652C157.145 4.24573 156.041 5.14273 154.627 5.14273L140.214 5.14273L140.214 19.6279C140.214 21.1131 139.245 22.226 137.616 22.226Z"/>
  </g>
  <g id="Ultralight-L" transform="matrix(1 0 0 1 482.149 1556)">
   <path d="M32.0058 19.7856L108.189 19.7856C107.712 18.9688 107.288 18.17 106.832 17.2104L32.2385 17.2104C23.2616 17.2104 18.6637 12.6035 18.6637 3.64006L18.6637-50.0427C18.6637-59.0062 23.2616-63.6979 32.2385-63.6979L122.891-63.6979C131.528-63.6979 136.546-59.0062 136.546-50.0427L136.546-31.5057C137.457-31.5771 137.689-31.5682 138.09-31.5682C138.407-31.5682 138.809-31.5771 139.041-31.5906L139.041-74.0591C139.041-84.258 133.559-89.9943 123.119-89.9943L32.0058-89.9943C21.646-89.9943 16.084-84.4278 16.084-74.0591L16.084 3.85032C16.084 14.2191 21.646 19.7856 32.0058 19.7856ZM40.2616-42.0969L114.859-42.0969C115.568-42.0969 116.229-42.7532 116.229-43.548C116.229-44.2624 115.568-44.9232 114.859-44.9232L40.2616-44.9232C39.5563-44.9232 38.8954-44.2624 38.8954-43.548C38.8954-42.7532 39.5563-42.0969 40.2616-42.0969ZM40.3466-21.8306L113.909-21.8306C114.708-22.7503 115.57-23.7773 116.494-24.5721L40.3466-24.5721C39.5563-24.5721 38.8954-24.0006 38.8954-23.2058C38.8954-22.4915 39.5563-21.8306 40.3466-21.8306ZM40.3466-1.56432L90.6476-1.56432C91.4424-1.56432 92.1033-2.14029 92.1033-2.93955C92.1033-3.64941 91.4424-4.3058 90.6476-4.3058L40.3466-4.3058C39.5563-4.3058 38.8954-3.64941 38.8954-2.93955C38.8954-2.14029 39.5563-1.56432 40.3466-1.56432ZM137.836 32.3805C154.178 32.3805 167.698 19.0223 167.698 2.60359C167.698-13.8106 154.25-27.1734 137.836-27.1734C121.591-27.1734 108.059-13.7257 108.059 2.60359C108.059 19.0133 121.591 32.3805 137.836 32.3805ZM137.836 22.1097C136.447 22.1097 135.607 21.1002 135.607 19.7959L135.607 4.83244L120.643 4.83244C119.424 4.83244 118.415 4.07766 118.415 2.60359C118.415 1.12952 119.424 0.289828 120.643 0.289828L135.607 0.289828L135.607-14.5038C135.607-15.7232 136.447-16.8176 137.836-16.8176C139.31-16.8176 140.149-15.7232 140.149-14.5038L140.149 0.289828L155.028 0.289828C156.247 0.289828 157.261 1.12952 157.261 2.60359C157.261 4.07766 156.247 4.83244 155.028 4.83244L140.149 4.83244L140.149 19.7959C140.149 21.1002 139.31 22.1097 137.836 22.1097Z"/>
  </g>
  <g id="Black-M" transform="matrix(1 0 0 1 2867.12 1126)">
   <path d="M31.6184 13.203L82.7382 13.203C79.3429 8.16315 77.2419 2.18783 76.9493-4.14048L34.1674-4.14048C31.2314-4.14048 29.7989-5.33358 29.7989-8.51448L29.7989-49.338C29.7989-52.5189 31.2314-53.7118 34.1674-53.7118L98.388-53.7118C101.325-53.7118 102.762-52.5189 102.762-49.338L102.762-39.2254C105.574-39.9839 108.502-40.3945 111.487-40.3945C114.472-40.3945 117.343-39.9839 120.1-39.2822L120.1-64.4592C120.1-76.5361 113.035-83.6002 100.942-83.6002L31.6184-83.6002C19.5311-83.6002 12.4609-76.5356 12.4609-64.4592L12.4609-5.93804C12.4609 6.13832 19.5311 13.203 31.6184 13.203ZM42.2266-38.6364L90.3968-38.6364C92.3913-38.6364 93.8854-40.193 93.8854-42.1872C93.8854-44.1191 92.3913-45.6132 90.3968-45.6132L42.2266-45.6132C40.1696-45.6132 38.6755-44.1191 38.6755-42.1872C38.6755-40.193 40.1696-38.6364 42.2266-38.6364ZM42.2264-25.4377L83.1173-25.4377C84.9347-28.0572 87.0648-30.3635 89.5075-32.4148L42.2264-32.4148C40.1696-32.4148 38.6755-30.8579 38.6755-28.8637C38.6755-26.9318 40.1696-25.4377 42.2264-25.4377ZM42.2264-12.239L71.7057-12.239C73.6999-12.239 75.194-13.7334 75.194-15.665C75.194-17.6595 73.6999-19.2161 71.7057-19.2161L42.2264-19.2161C40.1696-19.2161 38.6755-17.6595 38.6755-15.665C38.6755-13.7334 40.1696-12.239 42.2264-12.239ZM111.488 20.8066C126.045 20.8066 138.09 8.65808 138.09-5.85255C138.09-20.3687 126.061-32.3975 111.488-32.3975C96.914-32.3975 84.8857-20.3689 84.8857-5.85255C84.8857 8.66906 96.914 20.8066 111.488 20.8066ZM111.488 11.9008C108.582 11.9008 106.643 9.96203 106.643 7.11308L106.643-0.950401L98.6934-0.950401C95.8442-0.950401 93.9055-2.88997 93.8484-5.79545C93.7913-8.70093 95.73-10.6402 98.6934-10.6402L106.643-10.6402L106.643-18.533C106.643-21.3822 108.582-23.3207 111.488-23.3778C114.393-23.4348 116.333-21.4964 116.333-18.533L116.333-10.6402L124.339-10.6402C127.188-10.6402 129.122-8.70093 129.122-5.79545C129.122-2.88997 127.188-0.950401 124.339-0.950401L116.333-0.950401L116.333 7.11308C116.333 9.96203 114.393 11.9008 111.488 11.9008Z"/>
  </g>
  <g id="Heavy-M" transform="matrix(1 0 0 1 2571.63 1126)">
   <path d="M30.7123 12.3923L81.7549 12.3923C78.8259 7.96241 76.9737 2.76891 76.5887-2.72369L32.4937-2.72369C29.2219-2.72369 27.5605-4.17772 27.5605-7.67324L27.5605-49.7206C27.5605-53.2161 29.2219-54.6724 32.4937-54.6724L97.6116-54.6724C100.874-54.6724 102.563-53.2161 102.563-49.7206L102.563-38.7226C105.035-39.3411 107.575-39.6793 110.164-39.6793C112.75-39.6793 115.251-39.3411 117.661-38.7685L117.661-64.5823C117.661-76.1823 111.065-82.7845 99.4094-82.7845L30.7123-82.7845C19.075-82.7845 12.4609-76.1868 12.4609-64.5823L12.4609-5.80979C12.4609 5.79468 19.075 12.3923 30.7123 12.3923ZM40.6393-38.8794L89.5424-38.8794C91.4697-38.8794 92.9145-40.3842 92.9145-42.3138C92.9145-44.1811 91.4697-45.6259 89.5424-45.6259L40.6393-45.6259C38.652-45.6259 37.2072-44.1811 37.2072-42.3138C37.2072-40.3842 38.652-38.8794 40.6393-38.8794ZM40.6416-25.3248L82.595-25.3248C84.3773-27.8592 86.462-30.0958 88.8492-32.069L40.6416-32.069C38.652-32.069 37.2072-30.5665 37.2072-28.6369C37.2072-26.7696 38.652-25.3248 40.6416-25.3248ZM40.6416-11.7702L70.8487-11.7702C72.7783-11.7702 74.2231-13.2127 74.2231-15.0823C74.2231-17.0096 72.7783-18.5144 70.8487-18.5144L40.6416-18.5144C38.652-18.5144 37.2072-17.0096 37.2072-15.0823C37.2072-13.2127 38.652-11.7702 40.6416-11.7702ZM110.157 20.361C124.449 20.361 136.332 8.42852 136.332-5.85511C136.332-20.1551 124.5-31.9839 110.157-31.9839C95.8177-31.9839 83.9843-20.1529 83.9843-5.85511C83.9843 8.46134 95.8177 20.361 110.157 20.361ZM110.157 11.3792C107.513 11.3792 105.748 9.60913 105.748 7.01158L105.748-1.40253L97.421-1.40253C94.8257-1.40253 93.0557-3.16576 93.012-5.81148C92.9684-8.45721 94.7385-10.2227 97.421-10.2227L105.748-10.2227L105.748-18.5014C105.748-21.0967 107.513-22.869 110.157-22.9126C112.803-22.9563 114.568-21.1839 114.568-18.5014L114.568-10.2227L122.936-10.2227C125.532-10.2227 127.285-8.45721 127.285-5.81148C127.285-3.16576 125.532-1.40253 122.936-1.40253L114.568-1.40253L114.568 7.01158C114.568 9.60913 112.803 11.3792 110.157 11.3792Z"/>
  </g>
  <g id="Bold-M" transform="matrix(1 0 0 1 2276.28 1126)">
   <path d="M29.6986 11.4855L80.6549 11.4855C78.2476 7.73785 76.6738 3.41892 76.1853-1.13881L30.6214-1.13881C26.974-1.13881 25.0566-2.88472 25.0566-6.7322L25.0566-50.1485C25.0566-53.996 26.974-55.747 30.6214-55.747L96.743-55.747C100.37-55.747 102.342-53.996 102.342-50.1485L102.342-38.16C104.432-38.6222 106.538-38.8792 108.683-38.8792C110.823-38.8792 112.911-38.6222 114.932-38.1937L114.932-64.7201C114.932-75.7864 108.862-81.8719 97.6944-81.8719L29.6986-81.8719C18.5648-81.8719 12.4609-75.7967 12.4609-64.7201L12.4609-5.66632C12.4609 5.41026 18.5648 11.4855 29.6986 11.4855ZM38.8636-39.1513L88.5866-39.1513C90.4388-39.1513 91.8284-40.5981 91.8284-42.4554C91.8284-44.2505 90.4388-45.6401 88.5866-45.6401L38.8636-45.6401C36.9543-45.6401 35.5646-44.2505 35.5646-42.4554C35.5646-40.5981 36.9543-39.1513 38.8636-39.1513ZM38.8688-25.1985L82.0107-25.1985C83.7537-27.6378 85.7878-29.7963 88.1128-31.6822L38.8688-31.6822C36.9543-31.6822 35.5646-30.2405 35.5646-28.3832C35.5646-26.5882 36.9543-25.1985 38.8688-25.1985ZM38.8688-11.2457L69.89-11.2457C71.7474-11.2457 73.137-12.6302 73.137-14.4304C73.137-16.2826 71.7474-17.7294 69.89-17.7294L38.8688-17.7294C36.9543-17.7294 35.5646-16.2826 35.5646-14.4304C35.5646-12.6302 36.9543-11.2457 38.8688-11.2457ZM108.668 19.8625C122.664 19.8625 134.365 8.17173 134.365-5.85797C134.365-19.9163 122.755-31.5213 108.668-31.5213C94.5913-31.5213 82.9761-19.9112 82.9761-5.85797C82.9761 8.22897 94.5913 19.8625 108.668 19.8625ZM108.668 10.7957C106.318 10.7957 104.747 9.21436 104.747 6.89802L104.747-1.90831L95.9976-1.90831C93.6864-1.90831 92.105-3.47426 92.0765-5.82942C92.0479-8.18457 93.6293-9.75566 95.9976-9.75566L104.747-9.75566L104.747-18.4661C104.747-20.7773 106.318-22.3638 108.668-22.3923C111.023-22.4209 112.594-20.8344 112.594-18.4661L112.594-9.75566L121.367-9.75566C123.678-9.75566 125.231-8.18457 125.231-5.82942C125.231-3.47426 123.678-1.90831 121.367-1.90831L112.594-1.90831L112.594 6.89802C112.594 9.21436 111.023 10.7957 108.668 10.7957Z"/>
  </g>
  <g id="Semibold-M" transform="matrix(1 0 0 1 1980.51 1126)">
   <path d="M28.9998 10.8604L79.8966 10.8604C77.8489 7.58304 76.467 3.86704 75.9072-0.0461991L29.3307-0.0461991C25.4243-0.0461991 23.3305-1.99334 23.3305-6.08345L23.3305-50.4435C23.3305-54.5336 25.4243-56.4879 29.3307-56.4879L96.1442-56.4879C100.022-56.4879 102.189-54.5336 102.189-50.4435L102.189-37.7722C104.016-38.1265 105.823-38.3277 107.663-38.3277C109.495-38.3277 111.298-38.1265 113.051-37.7975L113.051-64.8151C113.051-75.5135 107.343-81.2428 96.5121-81.2428L28.9998-81.2428C18.2131-81.2428 12.4609-75.5277 12.4609-64.8151L12.4609-5.56741C12.4609 5.14525 18.2131 10.8604 28.9998 10.8604ZM37.6395-39.3387L87.9277-39.3387C89.728-39.3387 91.0797-40.7456 91.0797-42.5531C91.0797-44.2983 89.728-45.6499 87.9277-45.6499L37.6395-45.6499C35.7839-45.6499 34.4323-44.2983 34.4323-42.5531C34.4323-40.7456 35.7839-39.3387 37.6395-39.3387ZM37.6466-25.1114L81.6079-25.1114C83.3239-27.4851 85.3229-29.5899 87.6051-31.4155L37.6466-31.4155C35.7839-31.4155 34.4323-30.0158 34.4323-28.2083C34.4323-26.4631 35.7839-25.1114 37.6466-25.1114ZM37.6466-10.8841L69.2291-10.8841C71.0366-10.8841 72.3883-12.2287 72.3883-13.981C72.3883-15.7814 71.0366-17.1882 69.2291-17.1882L37.6466-17.1882C35.7839-17.1882 34.4323-15.7814 34.4323-13.981C34.4323-12.2287 35.7839-10.8841 37.6466-10.8841ZM107.642 19.5188C121.433 19.5188 133.009 7.9947 133.009-5.85994C133.009-19.7516 121.551-31.2024 107.642-31.2024C93.7459-31.2024 82.2809-19.7445 82.2809-5.85994C82.2809 8.06878 93.7459 19.5188 107.642 19.5188ZM107.642 10.3935C105.494 10.3935 104.057 8.94221 104.057 6.81974L104.057-2.25698L95.0163-2.25698C92.901-2.25698 91.4497-3.68694 91.4315-5.84178C91.4134-7.99662 92.8646-9.43368 95.0163-9.43368L104.057-9.43368L104.057-18.4417C104.057-20.5571 105.494-22.0155 107.642-22.0336C109.796-22.0518 111.233-20.5934 111.233-18.4417L111.233-9.43368L120.285-9.43368C122.4-9.43368 123.814-7.99662 123.814-5.84178C123.814-3.68694 122.4-2.25698 120.285-2.25698L111.233-2.25698L111.233 6.81974C111.233 8.94221 109.796 10.3935 107.642 10.3935Z"/>
  </g>
  <g id="Medium-M" transform="matrix(1 0 0 1 1684.51 1126)">
   <path d="M28.47 10.3864L79.3217 10.3864C77.5466 7.46566 76.3101 4.20682 75.6963 0.782262L28.352 0.782262C24.2493 0.782262 22.0216-1.31745 22.0216-5.59154L22.0216-50.6672C22.0216-54.9413 24.2493-57.0496 28.352-57.0496L95.6902-57.0496C99.7585-57.0496 102.073-54.9413 102.073-50.6672L102.073-37.4782C103.701-37.7507 105.281-37.9095 106.889-37.9095C108.488-37.9095 110.075-37.7507 111.625-37.4971L111.625-64.8871C111.625-75.3066 106.191-80.7658 95.6157-80.7658L28.47-80.7658C17.9464-80.7658 12.4609-75.3238 12.4609-64.8871L12.4609-5.49242C12.4609 4.9443 17.9464 10.3864 28.47 10.3864ZM36.7113-39.4808L87.428-39.4808C89.1891-39.4808 90.512-40.8574 90.512-42.6271C90.512-44.3345 89.1891-45.6574 87.428-45.6574L36.7113-45.6574C34.8965-45.6574 33.5736-44.3345 33.5736-42.6271C33.5736-40.8574 34.8965-39.4808 36.7113-39.4808ZM36.7199-25.0454L81.3025-25.0454C82.9979-27.3693 84.9705-29.4334 87.2201-31.2133L36.7199-31.2133C34.8965-31.2133 33.5736-29.8454 33.5736-28.0757C33.5736-26.3683 34.8965-25.0454 36.7199-25.0454ZM36.7199-10.61L68.728-10.61C70.4977-10.61 71.8206-11.9242 71.8206-13.6402C71.8206-15.4013 70.4977-16.7779 68.728-16.7779L36.7199-16.7779C34.8965-16.7779 33.5736-15.4013 33.5736-13.6402C33.5736-11.9242 34.8965-10.61 36.7199-10.61ZM106.863 19.2582C120.5 19.2582 131.981 7.86047 131.981-5.86143C131.981-19.6268 120.639-30.9605 106.863-30.9605C93.1049-30.9605 81.7539-19.6182 81.7539-5.86143C81.7539 7.94732 93.1049 19.2582 106.863 19.2582ZM106.863 10.0885C104.869 10.0885 103.533 8.73586 103.533 6.76039L103.533-2.52137L94.2723-2.52137C92.3054-2.52137 90.9528-3.84821 90.9425-5.85116C90.9322-7.8541 92.2848-9.18955 94.2723-9.18955L103.533-9.18955L103.533-18.4233C103.533-20.3901 104.869-21.7514 106.863-21.7617C108.866-21.7719 110.202-20.4107 110.202-18.4233L110.202-9.18955L119.465-9.18955C121.431-9.18955 122.741-7.8541 122.741-5.85116C122.741-3.84821 121.431-2.52137 119.465-2.52137L110.202-2.52137L110.202 6.76039C110.202 8.73586 108.866 10.0885 106.863 10.0885Z"/>
  </g>
  <g id="Regular-M" transform="matrix(1 0 0 1 1388.73 1126)">
   <path d="M27.7789 9.76808L78.5717 9.76808C77.1522 7.31256 76.1056 4.65001 75.4213 1.86286L27.0754 1.86286C22.7166 1.86286 20.3144-0.435864 20.3144-4.94991L20.3144-50.959C20.3144-55.473 22.7166-57.7823 27.0754-57.7823L95.0981-57.7823C99.4146-57.7823 101.921-55.473 101.921-50.959L101.921-37.0947C103.29-37.2605 104.574-37.364 105.88-37.364C107.175-37.364 108.48-37.2605 109.764-37.1052L109.764-64.981C109.764-75.0367 104.689-80.1437 94.4464-80.1437L27.7789-80.1437C17.5986-80.1437 12.4609-75.0578 12.4609-64.981L12.4609-5.3946C12.4609 4.6822 17.5986 9.76808 27.7789 9.76808ZM35.5007-39.6662L86.7763-39.6662C88.4862-39.6662 89.7715-41.0032 89.7715-42.7237C89.7715-44.3818 88.4862-45.6671 86.7763-45.6671L35.5007-45.6671C33.739-45.6671 32.4537-44.3818 32.4537-42.7237C32.4537-41.0032 33.739-39.6662 35.5007-39.6662ZM35.5112-24.9593L80.9041-24.9593C82.5727-27.2183 84.5107-29.2292 86.718-30.9496L35.5112-30.9496C33.739-30.9496 32.4537-29.6231 32.4537-27.9027C32.4537-26.2446 33.739-24.9593 35.5112-24.9593ZM35.5112-10.2524L68.0744-10.2524C69.7948-10.2524 71.0801-11.5271 71.0801-13.1958C71.0801-14.9056 69.7948-16.2427 68.0744-16.2427L35.5112-16.2427C33.739-16.2427 32.4537-14.9056 32.4537-13.1958C32.4537-11.5271 33.739-10.2524 35.5112-10.2524ZM105.848 18.9183C119.283 18.9183 130.64 7.68538 130.64-5.86338C130.64-19.4639 119.449-30.6451 105.848-30.6451C92.2687-30.6451 81.0664-19.4534 81.0664-5.86338C81.0664 7.78889 92.2687 18.9183 105.848 18.9183ZM105.848 9.69069C104.054 9.69069 102.851 8.4667 102.851 6.68296L102.851-2.86621L93.3018-2.86621C91.5286-2.86621 90.3046-4.05855 90.3046-5.86338C90.3046-7.66822 91.5286-8.8711 93.3018-8.8711L102.851-8.8711L102.851-18.3992C102.851-20.1724 104.054-21.4069 105.848-21.4069C107.653-21.4069 108.856-20.1724 108.856-18.3992L108.856-8.8711L118.394-8.8711C120.168-8.8711 121.34-7.66822 121.34-5.86338C121.34-4.05855 120.168-2.86621 118.394-2.86621L108.856-2.86621L108.856 6.68296C108.856 8.4667 107.653 9.69069 105.848 9.69069Z"/>
  </g>
  <g id="Light-M" transform="matrix(1 0 0 1 1092.34 1126)">
   <path d="M26.8549 9.03231L80.1972 9.03231C79.1029 7.14145 78.2787 5.11201 77.697 2.95796L26.4252 2.95796C21.2622 2.95796 18.5006 0.265684 18.5006-5.00125L18.5006-49.6414C18.5006-54.9083 21.2622-57.6283 26.4252-57.6283L95.1323-57.6283C100.185-57.6283 103.119-54.9083 103.119-49.6414L103.119-35.6231C104.283-35.7547 105.225-35.824 106.222-35.824C107.192-35.824 108.189-35.7547 109.131-35.6508L109.131-65.0836C109.131-74.472 104.313-79.3737 94.7372-79.3737L26.8549-79.3737C17.3419-79.3737 12.4609-74.5273 12.4609-65.0836L12.4609-5.25771C12.4609 4.18599 17.3419 9.03231 26.8549 9.03231ZM34.166-39.94L87.4608-39.94C88.8113-39.94 89.8571-41.0203 89.8571-42.3985C89.8571-43.7144 88.8113-44.7602 87.4608-44.7602L34.166-44.7602C32.7808-44.7602 31.7351-43.7144 31.7351-42.3985C31.7351-41.0203 32.7808-39.94 34.166-39.94ZM34.1937-24.925L83.1798-24.925C84.5234-26.705 86.0678-28.3394 87.8131-29.7176L34.1937-29.7176C32.7808-29.7176 31.7351-28.6649 31.7351-27.2867C31.7351-25.9708 32.7808-24.925 34.1937-24.925ZM34.1937-9.91014L68.7417-9.91014C70.1199-9.91014 71.1657-10.9282 71.1657-12.2718C71.1657-13.6223 70.1199-14.7027 68.7417-14.7027L34.1937-14.7027C32.7808-14.7027 31.7351-13.6223 31.7351-12.2718C31.7351-10.9282 32.7808-9.91014 34.1937-9.91014ZM106.139 18.3708C119.334 18.3708 130.418 7.41161 130.418-5.88049C130.418-19.2072 119.466-30.1318 106.139-30.1318C92.8676-30.1318 81.8877-19.1796 81.8877-5.88049C81.8877 7.48089 92.8676 18.3708 106.139 18.3708ZM106.139 9.53669C104.567 9.53669 103.535 8.44958 103.535 6.90541L103.535-3.27688L93.3531-3.27688C91.8366-3.27688 90.7495-4.28099 90.7495-5.88049C90.7495-7.48 91.8366-8.51177 93.3531-8.51177L103.535-8.51177L103.535-18.6387C103.535-20.1552 104.567-21.27 106.139-21.27C107.739-21.27 108.77-20.1552 108.77-18.6387L108.77-8.51177L118.925-8.51177C120.441-8.51177 121.494-7.48 121.494-5.88049C121.494-4.28099 120.441-3.27688 118.925-3.27688L108.77-3.27688L108.77 6.90541C108.77 8.44958 107.739 9.53669 106.139 9.53669Z"/>
  </g>
  <g id="Thin-M" transform="matrix(1 0 0 1 796.045 1126)">
   <path d="M25.6328 8.0592L82.3471 8.0592C81.6828 6.91514 81.1528 5.72304 80.7069 4.40632L25.5652 4.40632C19.3386 4.40632 16.1018 1.19354 16.1018-5.06914L16.1018-47.8989C16.1018-54.1615 19.3386-57.4246 25.5652-57.4246L95.1775-57.4246C101.203-57.4246 104.703-54.1615 104.703-47.8989L104.703-33.6769C105.595-33.7632 106.085-33.7872 106.675-33.7872C107.214-33.7872 107.804-33.7632 108.294-33.7272L108.294-65.2194C108.294-73.7252 103.815-78.3553 95.122-78.3553L25.6328-78.3553C17.0024-78.3553 12.4609-73.8258 12.4609-65.2194L12.4609-5.07666C12.4609 3.5297 17.0024 8.0592 25.6328 8.0592ZM32.4008-40.302L88.366-40.302C89.2413-40.302 89.9702-41.043 89.9702-41.9686C89.9702-42.8319 89.2413-43.5608 88.366-43.5608L32.4008-43.5608C31.5135-43.5608 30.7846-42.8319 30.7846-41.9686C30.7846-41.043 31.5135-40.302 32.4008-40.302ZM32.4511-24.8798L86.1897-24.8798C87.1033-26.0261 88.1272-27.1626 89.2615-28.0882L32.4511-28.0882C31.5135-28.0882 30.7846-27.3976 30.7846-26.472C30.7846-25.6087 31.5135-24.8798 32.4511-24.8798ZM32.4511-9.45753L69.6243-9.45753C70.5499-9.45753 71.2788-10.1361 71.2788-11.0497C71.2788-11.925 70.5499-12.666 69.6243-12.666L32.4511-12.666C31.5135-12.666 30.7846-11.925 30.7846-11.0497C30.7846-10.1361 31.5135-9.45753 32.4511-9.45753ZM106.524 17.6466C119.402 17.6466 130.124 7.04952 130.124-5.90312C130.124-18.8678 119.488-29.4528 106.524-29.4528C93.6597-29.4528 82.974-18.8175 82.974-5.90312C82.974 7.07354 93.6597 17.6466 106.524 17.6466ZM106.524 9.33301C105.246 9.33301 104.441 8.42695 104.441 7.1996L104.441-3.82001L93.421-3.82001C92.2439-3.82001 91.3379-4.57519 91.3379-5.90312C91.3379-7.23106 92.2439-8.03653 93.421-8.03653L104.441-8.03653L104.441-18.9556C104.441-20.1326 105.246-21.089 106.524-21.089C107.852-21.089 108.657-20.1326 108.657-18.9556L108.657-8.03653L119.626-8.03653C120.804-8.03653 121.698-7.23106 121.698-5.90312C121.698-4.57519 120.804-3.82001 119.626-3.82001L108.657-3.82001L108.657 7.1996C108.657 8.42695 107.852 9.33301 106.524 9.33301Z"/>
  </g>
  <g id="Ultralight-M" transform="matrix(1 0 0 1 499.548 1126)">
   <path d="M25.0069 7.56077L83.4483 7.56077C83.0042 6.79923 82.6249 6.036 82.2485 5.14816L25.1248 5.14816C18.3533 5.14816 14.8731 1.66878 14.8731-5.10391L14.8731-47.0063C14.8731-53.779 18.3533-57.3203 25.1248-57.3203L95.2007-57.3203C101.725-57.3203 105.515-53.779 105.515-47.0063L105.515-32.68C106.267-32.7432 106.525-32.744 106.906-32.744C107.226-32.744 107.607-32.7432 107.865-32.7419L107.865-65.289C107.865-73.3427 103.56-77.8337 95.319-77.8337L25.0069-77.8337C16.8286-77.8337 12.4609-73.4665 12.4609-65.289L12.4609-4.98393C12.4609 3.19355 16.8286 7.56077 25.0069 7.56077ZM31.4967-40.4875L88.8297-40.4875C89.4615-40.4875 90.0282-41.0546 90.0282-41.7483C90.0282-42.3798 89.4615-42.9464 88.8297-42.9464L31.4967-42.9464C30.8644-42.9464 30.2978-42.3798 30.2978-41.7483C30.2978-41.0546 30.8644-40.4875 31.4967-40.4875ZM31.5586-24.8566L87.7313-24.8566C88.4247-25.6783 89.182-26.5599 90.0033-27.2536L31.5586-27.2536C30.8644-27.2536 30.2978-26.7485 30.2978-26.0547C30.2978-25.4232 30.8644-24.8566 31.5586-24.8566ZM31.5586-9.2257L70.0764-9.2257C70.7701-9.2257 71.3368-9.73045 71.3368-10.4238C71.3368-11.0557 70.7701-11.6227 70.0764-11.6227L31.5586-11.6227C30.8644-11.6227 30.2978-11.0557 30.2978-10.4238C30.2978-9.73045 30.8644-9.2257 31.5586-9.2257ZM106.721 17.2757C119.437 17.2757 129.973 6.86406 129.973-5.91472C129.973-18.6939 119.5-29.1051 106.721-29.1051C94.0653-29.1051 83.5304-18.632 83.5304-5.91472C83.5304 6.8649 94.0653 17.2757 106.721 17.2757ZM106.721 9.22869C105.594 9.22869 104.904 8.41536 104.904 7.35029L104.904-4.0982L93.4558-4.0982C92.4526-4.0982 91.6393-4.72588 91.6393-5.91472C91.6393-7.10355 92.4526-7.79311 93.4558-7.79311L104.904-7.79311L104.904-19.1178C104.904-20.121 105.594-20.9962 106.721-20.9962C107.91-20.9962 108.599-20.121 108.599-19.1178L108.599-7.79311L119.986-7.79311C120.989-7.79311 121.802-7.10355 121.802-5.91472C121.802-4.72588 120.989-4.0982 119.986-4.0982L108.599-4.0982L108.599 7.35029C108.599 8.41536 107.91 9.22869 106.721 9.22869Z"/>
  </g>
  <g id="Black-S" transform="matrix(1 0 0 1 2881.11 696)">
   <path d="M25 2.92969L65.2344 2.92969C62.4512-1.17188 60.7422-6.05469 60.5469-11.2305L27.2461-11.2305C25-11.2305 23.9258-12.1094 23.9258-14.5508L23.9258-46.0938C23.9258-48.5352 25-49.4141 27.2461-49.4141L77.3438-49.4141C79.5898-49.4141 80.6641-48.5352 80.6641-46.0938L80.6641-38.4277C82.959-39.0625 85.3516-39.4043 87.793-39.4043C90.2344-39.4043 92.5781-39.0625 94.8242-38.4766L94.8242-58.1055C94.8242-67.6758 89.1602-73.3398 79.5898-73.3398L25-73.3398C15.4297-73.3398 9.76562-67.6758 9.76562-58.1055L9.76562-12.3047C9.76562-2.73438 15.4297 2.92969 25 2.92969ZM33.4961-37.8418L71.1426-37.8418C72.7051-37.8418 73.877-39.0625 73.877-40.625C73.877-42.1387 72.7051-43.3105 71.1426-43.3105L33.4961-43.3105C31.8848-43.3105 30.7129-42.1387 30.7129-40.625C30.7129-39.0625 31.8848-37.8418 33.4961-37.8418ZM33.4961-27.5879L65.4297-27.5879C66.8457-29.6387 68.5059-31.4453 70.4102-33.0566L33.4961-33.0566C31.8848-33.0566 30.7129-31.8359 30.7129-30.2734C30.7129-28.7598 31.8848-27.5879 33.4961-27.5879ZM33.4961-17.334L56.4941-17.334C58.0566-17.334 59.2285-18.5059 59.2285-20.0195C59.2285-21.582 58.0566-22.8027 56.4941-22.8027L33.4961-22.8027C31.8848-22.8027 30.7129-21.582 30.7129-20.0195C30.7129-18.5059 31.8848-17.334 33.4961-17.334ZM87.793 8.78906C99.2676 8.78906 108.74-0.78125 108.74-12.207C108.74-23.6328 99.2676-33.1055 87.793-33.1055C76.3184-33.1055 66.8457-23.6328 66.8457-12.207C66.8457-0.78125 76.3184 8.78906 87.793 8.78906ZM87.793 1.85547C85.4492 1.85547 83.8867 0.292969 83.8867-2.00195L83.8867-8.25195L77.7344-8.25195C75.4395-8.25195 73.877-9.81445 73.8281-12.1582C73.7793-14.502 75.3418-16.0645 77.7344-16.0645L83.8867-16.0645L83.8867-22.168C83.8867-24.4629 85.4492-26.0254 87.793-26.0742C90.1367-26.123 91.6992-24.5605 91.6992-22.168L91.6992-16.0645L97.9004-16.0645C100.195-16.0645 101.758-14.502 101.758-12.1582C101.758-9.81445 100.195-8.25195 97.9004-8.25195L91.6992-8.25195L91.6992-2.00195C91.6992 0.292969 90.1367 1.85547 87.793 1.85547Z"/>
  </g>
  <g id="Heavy-S" transform="matrix(1 0 0 1 2585.4 696)">
   <path d="M24.3431 2.33042L64.1856 2.33042C61.7597-1.32169 60.2351-5.61676 59.9476-10.1587L25.8977-10.1587C23.4672-10.1587 22.2432-11.2105 22.2432-13.8247L22.2432-46.5893C22.2432-49.2036 23.4672-50.2553 25.8977-50.2553L76.6753-50.2553C79.1058-50.2553 80.3414-49.2036 80.3414-46.5893L80.3414-38.1857C82.3712-38.7052 84.4757-38.9894 86.6175-38.9894C88.7592-38.9894 90.8264-38.7052 92.819-38.223L92.819-58.1977C92.819-67.4453 87.5237-72.7406 78.2415-72.7406L24.3431-72.7406C15.0724-72.7406 9.76562-67.4453 9.76562-58.1977L9.76562-12.2125C9.76562-2.96486 15.0724 2.33042 24.3431 2.33042ZM32.3091-38.0147L70.3243-38.0147C71.8753-38.0147 73.0357-39.2238 73.0357-40.7748C73.0357-42.277 71.8753-43.4373 70.3243-43.4373L32.3091-43.4373C30.7093-43.4373 29.5489-42.277 29.5489-40.7748C29.5489-39.2238 30.7093-38.0147 32.3091-38.0147ZM32.3091-27.4957L64.6921-27.4957C66.1197-29.535 67.7913-31.3301 69.7072-32.9183L32.3091-32.9183C30.7093-32.9183 29.5489-31.7092 29.5489-30.1582C29.5489-28.656 30.7093-27.4957 32.3091-27.4957ZM32.3091-16.9767L55.6759-16.9767C57.2269-16.9767 58.3872-18.1371 58.3872-19.6392C58.3872-21.1902 57.2269-22.3994 55.6759-22.3994L32.3091-22.3994C30.7093-22.3994 29.5489-21.1902 29.5489-19.6392C29.5489-18.1371 30.7093-16.9767 32.3091-16.9767ZM86.6175 8.4779C97.8962 8.4779 107.265-0.942593 107.265-12.207C107.265-23.483 97.9307-32.8174 86.6175-32.8174C75.3042-32.8174 65.9698-23.483 65.9698-12.207C65.9698-0.919544 75.3042 8.4779 86.6175 8.4779ZM86.6175 1.42906C84.4696 1.42906 83.0339-0.00666735 83.0339-2.1172L83.0339-8.58616L76.6396-8.58616C74.529-8.58616 73.0933-10.0219 73.056-12.1697C73.0187-14.3176 74.4544-15.7533 76.6396-15.7533L83.0339-15.7533L83.0339-22.1103C83.0339-24.2209 84.4696-25.6566 86.6175-25.6939C88.7653-25.7312 90.201-24.2955 90.201-22.1103L90.201-15.7533L96.6327-15.7533C98.7432-15.7533 100.167-14.3176 100.167-12.1697C100.167-10.0219 98.7432-8.58616 96.6327-8.58616L90.201-8.58616L90.201-2.1172C90.201-0.00666735 88.7653 1.42906 86.6175 1.42906Z"/>
  </g>
  <g id="Bold-S" transform="matrix(1 0 0 1 2289.81 696)">
   <path d="M23.6084 1.66016L63.0127 1.66016C60.9863-1.48926 59.668-5.12695 59.2773-8.95996L24.3896-8.95996C21.7529-8.95996 20.3613-10.2051 20.3613-13.0127L20.3613-47.1436C20.3613-49.9512 21.7529-51.1963 24.3896-51.1963L75.9277-51.1963C78.5645-51.1963 79.9805-49.9512 79.9805-47.1436L79.9805-37.915C81.7139-38.3057 83.4961-38.5254 85.3027-38.5254C87.1094-38.5254 88.8672-38.3057 90.5762-37.9395L90.5762-58.3008C90.5762-67.1875 85.6934-72.0703 76.7334-72.0703L23.6084-72.0703C14.6729-72.0703 9.76562-67.1875 9.76562-58.3008L9.76562-12.1094C9.76562-3.22266 14.6729 1.66016 23.6084 1.66016ZM30.9814-38.208L69.4092-38.208C70.9473-38.208 72.0947-39.4043 72.0947-40.9424C72.0947-42.4316 70.9473-43.5791 69.4092-43.5791L30.9814-43.5791C29.3945-43.5791 28.2471-42.4316 28.2471-40.9424C28.2471-39.4043 29.3945-38.208 30.9814-38.208ZM30.9814-27.3926L63.8672-27.3926C65.3076-29.4189 66.9922-31.2012 68.9209-32.7637L30.9814-32.7637C29.3945-32.7637 28.2471-31.5674 28.2471-30.0293C28.2471-28.54 29.3945-27.3926 30.9814-27.3926ZM30.9814-16.5771L54.7607-16.5771C56.2988-16.5771 57.4463-17.7246 57.4463-19.2139C57.4463-20.752 56.2988-21.9482 54.7607-21.9482L30.9814-21.9482C29.3945-21.9482 28.2471-20.752 28.2471-19.2139C28.2471-17.7246 29.3945-16.5771 30.9814-16.5771ZM85.3027 8.12988C96.3623 8.12988 105.615-1.12305 105.615-12.207C105.615-23.3154 96.4355-32.4951 85.3027-32.4951C74.1699-32.4951 64.9902-23.3154 64.9902-12.207C64.9902-1.07422 74.1699 8.12988 85.3027 8.12988ZM85.3027 0.952148C83.374 0.952148 82.0801-0.341797 82.0801-2.24609L82.0801-8.95996L75.415-8.95996C73.5107-8.95996 72.2168-10.2539 72.1924-12.1826C72.168-14.1113 73.4619-15.4053 75.415-15.4053L82.0801-15.4053L82.0801-22.0459C82.0801-23.9502 83.374-25.2441 85.3027-25.2686C87.2314-25.293 88.5254-23.999 88.5254-22.0459L88.5254-15.4053L95.2148-15.4053C97.1191-15.4053 98.3887-14.1113 98.3887-12.1826C98.3887-10.2539 97.1191-8.95996 95.2148-8.95996L88.5254-8.95996L88.5254-2.24609C88.5254-0.341797 87.2314 0.952148 85.3027 0.952148Z"/>
  </g>
  <g id="Semibold-S" transform="matrix(1 0 0 1 1993.87 696)">
   <path d="M23.1019 1.19805L62.204 1.19805C60.4531-1.60479 59.277-4.78926 58.8152-8.1335L23.3499-8.1335C20.571-8.1335 19.0639-9.51191 19.0639-12.4528L19.0639-47.5257C19.0639-50.4666 20.571-51.845 23.3499-51.845L75.4123-51.845C78.1912-51.845 79.7316-50.4666 79.7316-47.5257L79.7316-37.7284C81.2606-38.0302 82.8207-38.2055 84.3963-38.2055C85.9719-38.2055 87.5164-38.0302 89.0299-37.7439L89.0299-58.3719C89.0299-67.0098 84.4314-71.6082 75.6937-71.6082L23.1019-71.6082C14.3974-71.6082 9.76562-67.0098 9.76562-58.3719L9.76562-12.0383C9.76562-3.40039 14.3974 1.19805 23.1019 1.19805ZM30.0661-38.3413L68.7782-38.3413C70.3074-38.3413 71.446-39.5287 71.446-41.0579C71.446-42.5383 70.3074-43.6769 68.7782-43.6769L30.0661-43.6769C28.4881-43.6769 27.3495-42.5383 27.3495-41.0579C27.3495-39.5287 28.4881-38.3413 30.0661-38.3413ZM30.0661-27.3215L63.2984-27.3215C64.7478-29.339 66.4412-31.1123 68.3788-32.657L30.0661-32.657C28.4881-32.657 27.3495-31.4696 27.3495-29.9404C27.3495-28.4601 28.4881-27.3215 30.0661-27.3215ZM30.0661-16.3017L54.1298-16.3017C55.659-16.3017 56.7976-17.4402 56.7976-18.9206C56.7976-20.4498 55.659-21.6372 54.1298-21.6372L30.0661-21.6372C28.4881-21.6372 27.3495-20.4498 27.3495-18.9206C27.3495-17.4402 28.4881-16.3017 30.0661-16.3017ZM84.3963 7.88994C95.3048 7.88994 104.478-1.24746 104.478-12.207C104.478-23.1999 95.4047-32.2729 84.3963-32.2729C73.3879-32.2729 64.3148-23.1999 64.3148-12.207C64.3148-1.18086 73.3879 7.88994 84.3963 7.88994ZM84.3963 0.62334C82.6187 0.62334 81.4225-0.572852 81.4225-2.33496L81.4225-9.21768L74.5708-9.21768C72.8087-9.21768 71.6125-10.4139 71.597-12.1915C71.5814-13.9691 72.7776-15.1653 74.5708-15.1653L81.4225-15.1653L81.4225-22.0015C81.4225-23.7636 82.6187-24.9598 84.3963-24.9753C86.1739-24.9908 87.3701-23.7946 87.3701-22.0015L87.3701-15.1653L94.2373-15.1653C95.9994-15.1653 97.1623-13.9691 97.1623-12.1915C97.1623-10.4139 95.9994-9.21768 94.2373-9.21768L87.3701-9.21768L87.3701-2.33496C87.3701-0.572852 86.1739 0.62334 84.3963 0.62334Z"/>
  </g>
  <g id="Medium-S" transform="matrix(1 0 0 1 1697.74 696)">
   <path d="M22.7178 0.847656L61.5908 0.847656C60.0488-1.69238 58.9805-4.5332 58.4648-7.50684L22.5615-7.50684C19.6748-7.50684 18.0801-8.98633 18.0801-12.0283L18.0801-47.8154C18.0801-50.8574 19.6748-52.3369 22.5615-52.3369L75.0215-52.3369C77.9082-52.3369 79.543-50.8574 79.543-47.8154L79.543-37.5869C80.917-37.8213 82.3086-37.9629 83.709-37.9629C85.1094-37.9629 86.4922-37.8213 87.8574-37.5957L87.8574-58.4258C87.8574-66.875 83.4746-71.2578 74.9053-71.2578L22.7178-71.2578C14.1885-71.2578 9.76562-66.875 9.76562-58.4258L9.76562-11.9844C9.76562-3.53516 14.1885 0.847656 22.7178 0.847656ZM29.3721-38.4424L68.2998-38.4424C69.8223-38.4424 70.9541-39.623 70.9541-41.1455C70.9541-42.6191 69.8223-43.751 68.2998-43.751L29.3721-43.751C27.8008-43.751 26.6689-42.6191 26.6689-41.1455C26.6689-39.623 27.8008-38.4424 29.3721-38.4424ZM29.3721-27.2676L62.8672-27.2676C64.3232-29.2783 66.0234-31.0449 67.9678-32.5762L29.3721-32.5762C27.8008-32.5762 26.6689-31.3955 26.6689-29.873C26.6689-28.3994 27.8008-27.2676 29.3721-27.2676ZM29.3721-16.0928L53.6514-16.0928C55.1738-16.0928 56.3057-17.2246 56.3057-18.6982C56.3057-20.2207 55.1738-21.4014 53.6514-21.4014L29.3721-21.4014C27.8008-21.4014 26.6689-20.2207 26.6689-18.6982C26.6689-17.2246 27.8008-16.0928 29.3721-16.0928ZM83.709 7.70801C94.5029 7.70801 103.615-1.3418 103.615-12.207C103.615-23.1123 94.623-32.1045 83.709-32.1045C72.7949-32.1045 63.8027-23.1123 63.8027-12.207C63.8027-1.26172 72.7949 7.70801 83.709 7.70801ZM83.709 0.374023C82.0459 0.374023 80.9238-0.748047 80.9238-2.40234L80.9238-9.41309L73.9307-9.41309C72.2764-9.41309 71.1543-10.5352 71.1455-12.1982C71.1367-13.8613 72.2588-14.9834 73.9307-14.9834L80.9238-14.9834L80.9238-21.9678C80.9238-23.6221 82.0459-24.7441 83.709-24.7529C85.3721-24.7617 86.4941-23.6396 86.4941-21.9678L86.4941-14.9834L93.4961-14.9834C95.1504-14.9834 96.2324-13.8613 96.2324-12.1982C96.2324-10.5352 95.1504-9.41309 93.4961-9.41309L86.4941-9.41309L86.4941-2.40234C86.4941-0.748047 85.3721 0.374023 83.709 0.374023Z"/>
  </g>
  <g id="Regular-S" transform="matrix(1 0 0 1 1401.8 696)">
   <path d="M22.2168 0.390625L60.791 0.390625C59.5215-1.80664 58.5938-4.19922 58.0078-6.68945L21.5332-6.68945C18.5059-6.68945 16.7969-8.30078 16.7969-11.4746L16.7969-48.1934C16.7969-51.3672 18.5059-52.9785 21.5332-52.9785L74.5117-52.9785C77.5391-52.9785 79.2969-51.3672 79.2969-48.1934L79.2969-37.4023C80.4688-37.5488 81.6406-37.6465 82.8125-37.6465C83.9844-37.6465 85.1562-37.5488 86.3281-37.4023L86.3281-58.4961C86.3281-66.6992 82.2266-70.8008 73.877-70.8008L22.2168-70.8008C13.916-70.8008 9.76562-66.6992 9.76562-58.4961L9.76562-11.9141C9.76562-3.71094 13.916 0.390625 22.2168 0.390625ZM28.4668-38.5742L67.6758-38.5742C69.1895-38.5742 70.3125-39.7461 70.3125-41.2598C70.3125-42.7246 69.1895-43.8477 67.6758-43.8477L28.4668-43.8477C26.9043-43.8477 25.7812-42.7246 25.7812-41.2598C25.7812-39.7461 26.9043-38.5742 28.4668-38.5742ZM28.4668-27.1973L62.3047-27.1973C63.7695-29.1992 65.4785-30.957 67.4316-32.4707L28.4668-32.4707C26.9043-32.4707 25.7812-31.2988 25.7812-29.7852C25.7812-28.3203 26.9043-27.1973 28.4668-27.1973ZM28.4668-15.8203L53.0273-15.8203C54.541-15.8203 55.6641-16.9434 55.6641-18.4082C55.6641-19.9219 54.541-21.0938 53.0273-21.0938L28.4668-21.0938C26.9043-21.0938 25.7812-19.9219 25.7812-18.4082C25.7812-16.9434 26.9043-15.8203 28.4668-15.8203ZM82.8125 7.4707C93.457 7.4707 102.49-1.46484 102.49-12.207C102.49-22.998 93.6035-31.8848 82.8125-31.8848C72.0215-31.8848 63.1348-22.998 63.1348-12.207C63.1348-1.36719 72.0215 7.4707 82.8125 7.4707ZM82.8125 0.0488281C81.2988 0.0488281 80.2734-0.976562 80.2734-2.49023L80.2734-9.66797L73.0957-9.66797C71.582-9.66797 70.5566-10.6934 70.5566-12.207C70.5566-13.7207 71.582-14.7461 73.0957-14.7461L80.2734-14.7461L80.2734-21.9238C80.2734-23.4375 81.2988-24.4629 82.8125-24.4629C84.3262-24.4629 85.3516-23.4375 85.3516-21.9238L85.3516-14.7461L92.5293-14.7461C94.043-14.7461 95.0195-13.7207 95.0195-12.207C95.0195-10.6934 94.043-9.66797 92.5293-9.66797L85.3516-9.66797L85.3516-2.49023C85.3516-0.976562 84.3262 0.0488281 82.8125 0.0488281Z"/>
  </g>
  <g id="Light-S" transform="matrix(1 0 0 1 1105.37 696)">
   <path d="M21.3994-0.260249L62.229-0.260249C61.2471-1.95801 60.5161-3.79053 60.021-5.72071L20.958-5.72071C17.2192-5.72071 15.1924-7.68018 15.1924-11.52L15.1924-47.0278C15.1924-50.8677 17.2192-52.8423 20.958-52.8423L74.542-52.8423C78.2202-52.8423 80.3564-50.8677 80.3564-47.0278L80.3564-36.1006C81.3467-36.2168 82.2158-36.2842 83.1152-36.2842C83.9995-36.2842 84.8989-36.2168 85.7681-36.1157L85.7681-58.5869C85.7681-66.1997 81.8936-70.1196 74.1343-70.1196L21.3994-70.1196C13.689-70.1196 9.76562-66.23 9.76562-58.5869L9.76562-11.793C9.76562-4.1499 13.689-0.260249 21.3994-0.260249ZM27.2861-38.8164L68.2812-38.8164C69.477-38.8164 70.3882-39.7612 70.3882-40.9722C70.3882-42.1343 69.477-43.0454 68.2812-43.0454L27.2861-43.0454C26.0566-43.0454 25.1455-42.1343 25.1455-40.9722C25.1455-39.7612 26.0566-38.8164 27.2861-38.8164ZM27.3013-27.167L64.3179-27.167C65.4951-28.7451 66.8559-30.1699 68.4004-31.3809L27.3013-31.3809C26.0566-31.3809 25.1455-30.4512 25.1455-29.2402C25.1455-28.0781 26.0566-27.167 27.3013-27.167ZM27.3013-15.5176L53.6177-15.5176C54.8286-15.5176 55.7397-16.4136 55.7397-17.5908C55.7397-18.7866 54.8286-19.7315 53.6177-19.7315L27.3013-19.7315C26.0566-19.7315 25.1455-18.7866 25.1455-17.5908C25.1455-16.4136 26.0566-15.5176 27.3013-15.5176ZM83.0698 6.98633C93.5024 6.98633 102.293-1.70703 102.293-12.2222C102.293-22.771 93.6187-31.4307 83.0698-31.4307C72.5513-31.4307 63.8613-22.7559 63.8613-12.2222C63.8613-1.63965 72.5513 6.98633 83.0698 6.98633ZM83.0698-0.0874013C81.7529-0.0874013 80.8789-0.991699 80.8789-2.29346L80.8789-10.0312L73.1411-10.0312C71.8545-10.0312 70.9502-10.8901 70.9502-12.2222C70.9502-13.5542 71.8545-14.4282 73.1411-14.4282L80.8789-14.4282L80.8789-22.1357C80.8789-23.4224 81.7529-24.3418 83.0698-24.3418C84.4019-24.3418 85.2759-23.4224 85.2759-22.1357L85.2759-14.4282L92.9985-14.4282C94.2852-14.4282 95.1558-13.5542 95.1558-12.2222C95.1558-10.8901 94.2852-10.0312 92.9985-10.0312L85.2759-10.0312L85.2759-2.29346C85.2759-0.991699 84.4019-0.0874013 83.0698-0.0874013Z"/>
  </g>
  <g id="Thin-S" transform="matrix(1 0 0 1 809.026 696)">
   <path d="M20.3184-1.12108L64.1308-1.12108C63.5293-2.1582 63.0586-3.25001 62.6836-4.43947L20.1973-4.43947C15.5176-4.43947 13.0703-6.85939 13.0703-11.5801L13.0703-45.4863C13.0703-50.207 15.5176-52.6621 20.1973-52.6621L74.582-52.6621C79.1211-52.6621 81.7578-50.207 81.7578-45.4863L81.7578-34.3789C82.5078-34.4551 82.9766-34.4824 83.5156-34.4824C84.0195-34.4824 84.5586-34.4551 85.0274-34.4141L85.0274-58.707C85.0274-65.5391 81.4531-69.2188 74.4746-69.2188L20.3184-69.2188C13.3887-69.2188 9.76562-65.6094 9.76562-58.707L9.76562-11.6328C9.76562-4.73046 13.3887-1.12108 20.3184-1.12108ZM25.7246-39.1367L69.082-39.1367C69.8574-39.1367 70.4883-39.7812 70.4883-40.5918C70.4883-41.3535 69.8574-41.9844 69.082-41.9844L25.7246-41.9844C24.9356-41.9844 24.3047-41.3535 24.3047-40.5918C24.3047-39.7812 24.9356-39.1367 25.7246-39.1367ZM25.7598-27.127L66.9804-27.127C67.7773-28.1445 68.6777-29.1289 69.6816-29.9395L25.7598-29.9395C24.9356-29.9395 24.3047-29.3301 24.3047-28.5195C24.3047-27.7578 24.9356-27.127 25.7598-27.127ZM25.7598-15.1172L54.3984-15.1172C55.209-15.1172 55.8398-15.7129 55.8398-16.5098C55.8398-17.2852 55.209-17.9297 54.3984-17.9297L25.7598-17.9297C24.9356-17.9297 24.3047-17.2852 24.3047-16.5098C24.3047-15.7129 24.9356-15.1172 25.7598-15.1172ZM83.4102 6.34571C93.5625 6.34571 102.033-2.02734 102.033-12.2422C102.033-22.4707 93.6387-30.8301 83.4102-30.8301C73.2519-30.8301 64.8223-22.4356 64.8223-12.2422C64.8223-2 73.2519 6.34571 83.4102 6.34571ZM83.4102-0.267576C82.3535-0.267576 81.6797-1.01172 81.6797-2.03321L81.6797-10.5117L73.2012-10.5117C72.2148-10.5117 71.4707-11.1504 71.4707-12.2422C71.4707-13.334 72.2148-14.0078 73.2012-14.0078L81.6797-14.0078L81.6797-22.416C81.6797-23.4023 82.3535-24.1816 83.4102-24.1816C84.502-24.1816 85.1758-23.4023 85.1758-22.416L85.1758-14.0078L93.6191-14.0078C94.6055-14.0078 95.3359-13.334 95.3359-12.2422C95.3359-11.1504 94.6055-10.5117 93.6191-10.5117L85.1758-10.5117L85.1758-2.03321C85.1758-1.01172 84.502-0.267576 83.4102-0.267576Z"/>
  </g>
  <g id="Ultralight-S" transform="matrix(1 0 0 1 512.504 696)">
   <path d="M19.7647-1.562L65.1049-1.562C64.6982-2.26074 64.3608-2.97315 64.0473-3.78323L19.8076-3.78323C14.646-3.78323 11.9834-6.43898 11.9834-11.6108L11.9834-44.6968C11.9834-49.8687 14.646-52.5698 19.8076-52.5698L74.6025-52.5698C79.5825-52.5698 82.4756-49.8687 82.4756-44.6968L82.4756-33.4971C83.1025-33.5528 83.3662-33.5596 83.7207-33.5596C84.0298-33.5596 84.3843-33.5528 84.648-33.5425L84.648-58.7686C84.648-65.2007 81.2275-68.7573 74.6489-68.7573L19.7647-68.7573C13.2349-68.7573 9.76562-65.2915 9.76562-58.7686L9.76562-11.5508C9.76562-5.02782 13.2349-1.562 19.7647-1.562ZM24.9248-39.3008L69.4922-39.3008C70.0522-39.3008 70.5395-39.7915 70.5395-40.397C70.5395-40.9536 70.0522-41.4409 69.4922-41.4409L24.9248-41.4409C24.3613-41.4409 23.874-40.9536 23.874-40.397C23.874-39.7915 24.3613-39.3008 24.9248-39.3008ZM24.9702-27.1064L68.3442-27.1064C68.9462-27.8369 69.6108-28.5957 70.3379-29.2012L24.9702-29.2012C24.3613-29.2012 23.874-28.7559 23.874-28.1504C23.874-27.5938 24.3613-27.1064 24.9702-27.1064ZM24.9702-14.9121L54.7983-14.9121C55.4038-14.9121 55.8911-15.354 55.8911-15.9561C55.8911-16.5161 55.4038-17.0069 54.7983-17.0069L24.9702-17.0069C24.3613-17.0069 23.874-16.5161 23.874-15.9561C23.874-15.354 24.3613-14.9121 24.9702-14.9121ZM83.5845 6.01759C93.5933 6.01759 101.9-2.1914 101.9-12.2524C101.9-22.3169 93.6489-30.5225 83.5845-30.5225C73.6108-30.5225 65.3144-22.2715 65.3144-12.2524C65.3144-2.18456 73.6108 6.01759 83.5845 6.01759ZM83.5845-0.35986C82.6611-0.35986 82.0898-1.02197 82.0898-1.89991L82.0898-10.7578L73.2319-10.7578C72.3994-10.7578 71.7373-11.2837 71.7373-12.2524C71.7373-13.2212 72.3994-13.7925 73.2319-13.7925L82.0898-13.7925L82.0898-22.5596C82.0898-23.3921 82.6611-24.0996 83.5845-24.0996C84.5532-24.0996 85.1245-23.3921 85.1245-22.5596L85.1245-13.7925L93.937-13.7925C94.7695-13.7925 95.4282-13.2212 95.4282-12.2524C95.4282-11.2837 94.7695-10.7578 93.937-10.7578L85.1245-10.7578L85.1245-1.89991C85.1245-1.02197 84.5532-0.35986 83.5845-0.35986Z"/>
  </g>
 </g>
</svg>
