<?xml version="1.0" encoding="UTF-8"?>
<!--Generator: Apple Native CoreSVG 175.5-->
<!DOCTYPE svg
PUBLIC "-//W3C//DTD SVG 1.1//EN"
       "http://www.w3.org/Graphics/SVG/1.1/DTD/svg11.dtd">
<svg version="1.1" xmlns="http://www.w3.org/2000/svg" xmlns:xlink="http://www.w3.org/1999/xlink" width="3300" height="2200">
 <!--glyph: "uni1013A4.medium", point size: 100.0, font version: "18.0d12e2", template writer version: "101"-->
 <g id="Notes">
  <rect height="2200" id="artboard" style="fill:white;opacity:1" width="3300" x="0" y="0"/>
  <line style="fill:none;stroke:black;opacity:1;stroke-width:0.5;" x1="263" x2="3036" y1="292" y2="292"/>
  <text style="stroke:none;fill:black;font-family:sans-serif;font-size:13;font-weight:bold;" transform="matrix(1 0 0 1 263 322)">Weight/Scale Variations</text>
  <text style="stroke:none;fill:black;font-family:sans-serif;font-size:13;text-anchor:middle;" transform="matrix(1 0 0 1 559.711 322)">Ultralight</text>
  <text style="stroke:none;fill:black;font-family:sans-serif;font-size:13;text-anchor:middle;" transform="matrix(1 0 0 1 856.422 322)">Thin</text>
  <text style="stroke:none;fill:black;font-family:sans-serif;font-size:13;text-anchor:middle;" transform="matrix(1 0 0 1 1153.13 322)">Light</text>
  <text style="stroke:none;fill:black;font-family:sans-serif;font-size:13;text-anchor:middle;" transform="matrix(1 0 0 1 1449.84 322)">Regular</text>
  <text style="stroke:none;fill:black;font-family:sans-serif;font-size:13;text-anchor:middle;" transform="matrix(1 0 0 1 1746.56 322)">Medium</text>
  <text style="stroke:none;fill:black;font-family:sans-serif;font-size:13;text-anchor:middle;" transform="matrix(1 0 0 1 2043.27 322)">Semibold</text>
  <text style="stroke:none;fill:black;font-family:sans-serif;font-size:13;text-anchor:middle;" transform="matrix(1 0 0 1 2339.98 322)">Bold</text>
  <text style="stroke:none;fill:black;font-family:sans-serif;font-size:13;text-anchor:middle;" transform="matrix(1 0 0 1 2636.69 322)">Heavy</text>
  <text style="stroke:none;fill:black;font-family:sans-serif;font-size:13;text-anchor:middle;" transform="matrix(1 0 0 1 2933.4 322)">Black</text>
  <line style="fill:none;stroke:black;opacity:1;stroke-width:0.5;" x1="263" x2="3036" y1="1903" y2="1903"/>
  <g transform="matrix(1 0 0 1 263 1933)">
   <path d="M9.24805 0.830078C13.5547 0.830078 17.1387-2.74414 17.1387-7.05078C17.1387-11.3574 13.5449-14.9316 9.23828-14.9316C4.94141-14.9316 1.36719-11.3574 1.36719-7.05078C1.36719-2.74414 4.95117 0.830078 9.24805 0.830078ZM9.24805-0.654297C5.70312-0.654297 2.87109-3.49609 2.87109-7.05078C2.87109-10.6055 5.69336-13.4473 9.23828-13.4473C12.793-13.4473 15.6445-10.6055 15.6445-7.05078C15.6445-3.49609 12.8027-0.654297 9.24805-0.654297ZM5.6543-7.05078C5.6543-6.62109 5.95703-6.32812 6.40625-6.32812L8.50586-6.32812L8.50586-4.20898C8.50586-3.76953 8.79883-3.4668 9.22852-3.4668C9.67773-3.4668 9.9707-3.76953 9.9707-4.20898L9.9707-6.32812L12.0898-6.32812C12.5293-6.32812 12.832-6.62109 12.832-7.05078C12.832-7.49023 12.5293-7.79297 12.0898-7.79297L9.9707-7.79297L9.9707-9.90234C9.9707-10.3516 9.67773-10.6543 9.22852-10.6543C8.79883-10.6543 8.50586-10.3516 8.50586-9.90234L8.50586-7.79297L6.40625-7.79297C5.95703-7.79297 5.6543-7.49023 5.6543-7.05078Z"/>
  </g>
  <g transform="matrix(1 0 0 1 281.867 1933)">
   <path d="M11.709 2.91016C17.1582 2.91016 21.6699-1.61133 21.6699-7.05078C21.6699-12.5 17.1484-17.0117 11.6992-17.0117C6.25977-17.0117 1.74805-12.5 1.74805-7.05078C1.74805-1.61133 6.26953 2.91016 11.709 2.91016ZM11.709 1.25C7.09961 1.25 3.41797-2.44141 3.41797-7.05078C3.41797-11.6602 7.08984-15.3516 11.6992-15.3516C16.3086-15.3516 20.0098-11.6602 20.0098-7.05078C20.0098-2.44141 16.3184 1.25 11.709 1.25ZM7.17773-7.05078C7.17773-6.57227 7.50977-6.25 8.00781-6.25L10.8789-6.25L10.8789-3.36914C10.8789-2.88086 11.2109-2.53906 11.6895-2.53906C12.1777-2.53906 12.5195-2.87109 12.5195-3.36914L12.5195-6.25L15.4004-6.25C15.8887-6.25 16.2305-6.57227 16.2305-7.05078C16.2305-7.53906 15.8887-7.88086 15.4004-7.88086L12.5195-7.88086L12.5195-10.752C12.5195-11.25 12.1777-11.5918 11.6895-11.5918C11.2109-11.5918 10.8789-11.25 10.8789-10.752L10.8789-7.88086L8.00781-7.88086C7.50977-7.88086 7.17773-7.53906 7.17773-7.05078Z"/>
  </g>
  <g transform="matrix(1 0 0 1 305.646 1933)">
   <path d="M14.9707 5.66406C21.9336 5.66406 27.6953-0.0976562 27.6953-7.05078C27.6953-14.0137 21.9238-19.7754 14.9609-19.7754C8.00781-19.7754 2.25586-14.0137 2.25586-7.05078C2.25586-0.0976562 8.01758 5.66406 14.9707 5.66406ZM14.9707 3.84766C8.93555 3.84766 4.08203-1.01562 4.08203-7.05078C4.08203-13.0957 8.92578-17.9492 14.9609-17.9492C21.0059-17.9492 25.8691-13.0957 25.8691-7.05078C25.8691-1.01562 21.0156 3.84766 14.9707 3.84766ZM9.19922-7.05078C9.19922-6.5332 9.57031-6.17188 10.1172-6.17188L14.0625-6.17188L14.0625-2.2168C14.0625-1.67969 14.4336-1.29883 14.9512-1.29883C15.4883-1.29883 15.8594-1.66992 15.8594-2.2168L15.8594-6.17188L19.8145-6.17188C20.3516-6.17188 20.7324-6.5332 20.7324-7.05078C20.7324-7.59766 20.3613-7.96875 19.8145-7.96875L15.8594-7.96875L15.8594-11.9141C15.8594-12.4609 15.4883-12.8418 14.9512-12.8418C14.4336-12.8418 14.0625-12.4609 14.0625-11.9141L14.0625-7.96875L10.1172-7.96875C9.57031-7.96875 9.19922-7.59766 9.19922-7.05078Z"/>
  </g>
  <text style="stroke:none;fill:black;font-family:sans-serif;font-size:13;font-weight:bold;" transform="matrix(1 0 0 1 263 1953)">Design Variations</text>
  <text style="stroke:none;fill:black;font-family:sans-serif;font-size:13;" transform="matrix(1 0 0 1 263 1971)">Symbols are supported in up to nine weights and three scales.</text>
  <text style="stroke:none;fill:black;font-family:sans-serif;font-size:13;" transform="matrix(1 0 0 1 263 1989)">For optimal layout with text and other symbols, vertically align</text>
  <text style="stroke:none;fill:black;font-family:sans-serif;font-size:13;" transform="matrix(1 0 0 1 263 2007)">symbols with the adjacent text.</text>
  <line style="fill:none;stroke:#00AEEF;stroke-width:0.5;opacity:1.0;" x1="776" x2="776" y1="1919" y2="1933"/>
  <g transform="matrix(1 0 0 1 776 1933)">
   <path d="M3.31055 0.15625C3.82812 0.15625 4.08203-0.0390625 4.26758-0.585938L5.52734-4.0332L11.2891-4.0332L12.5488-0.585938C12.7344-0.0390625 12.9883 0.15625 13.4961 0.15625C14.0137 0.15625 14.3457-0.15625 14.3457-0.644531C14.3457-0.810547 14.3164-0.966797 14.2383-1.17188L9.6582-13.3691C9.43359-13.9648 9.0332-14.2676 8.4082-14.2676C7.80273-14.2676 7.39258-13.9746 7.17773-13.3789L2.59766-1.16211C2.51953-0.957031 2.49023-0.800781 2.49023-0.634766C2.49023-0.146484 2.80273 0.15625 3.31055 0.15625ZM6.00586-5.51758L8.37891-12.0898L8.42773-12.0898L10.8008-5.51758Z"/>
  </g>
  <line style="fill:none;stroke:#00AEEF;stroke-width:0.5;opacity:1.0;" x1="793.197" x2="793.197" y1="1919" y2="1933"/>
  <text style="stroke:none;fill:black;font-family:sans-serif;font-size:13;font-weight:bold;" transform="matrix(1 0 0 1 776 1953)">Margins</text>
  <text style="stroke:none;fill:black;font-family:sans-serif;font-size:13;" transform="matrix(1 0 0 1 776 1971)">Leading and trailing margins on the left and right side of each symbol</text>
  <text style="stroke:none;fill:black;font-family:sans-serif;font-size:13;" transform="matrix(1 0 0 1 776 1989)">can be adjusted by modifying the x-location of the margin guidelines.</text>
  <text style="stroke:none;fill:black;font-family:sans-serif;font-size:13;" transform="matrix(1 0 0 1 776 2007)">Modifications are automatically applied proportionally to all</text>
  <text style="stroke:none;fill:black;font-family:sans-serif;font-size:13;" transform="matrix(1 0 0 1 776 2025)">scales and weights.</text>
  <g transform="matrix(1 0 0 1 1289 1933)">
   <path d="M2.8418 1.86523L4.54102 3.57422C5.40039 4.44336 6.38672 4.38477 7.31445 3.35938L18.0078-8.42773L17.041-9.4043L6.42578 2.27539C6.07422 2.67578 5.74219 2.77344 5.27344 2.30469L4.10156 1.14258C3.63281 0.683594 3.74023 0.341797 4.14062-0.0195312L15.6152-10.8203L14.6387-11.7871L3.04688-0.898438C2.06055 0.0195312 1.98242 0.996094 2.8418 1.86523ZM9.25781-16.3281C8.83789-15.918 8.80859-15.3418 9.04297-14.9512C9.27734-14.5898 9.73633-14.3555 10.3809-14.5215C11.8457-14.8633 13.3691-14.9219 14.7949-13.9844L14.209-12.5293C13.8672-11.6992 14.043-11.1133 14.5801-10.5664L16.875-8.25195C17.3633-7.76367 17.7734-7.74414 18.3398-7.8418L19.4043-8.03711L20.0684-7.36328L20.0293-6.80664C19.9902-6.30859 20.1172-5.92773 20.6055-5.44922L21.3672-4.70703C21.8457-4.22852 22.4609-4.19922 22.9297-4.66797L25.8398-7.58789C26.3086-8.05664 26.2891-8.65234 25.8105-9.13086L25.0391-9.89258C24.5605-10.3711 24.1895-10.5273 23.7109-10.4883L23.1348-10.4395L22.4902-11.0742L22.7344-12.1973C22.8613-12.7637 22.7051-13.2031 22.1191-13.7891L19.9219-15.9766C16.582-19.2969 12.1484-19.2188 9.25781-16.3281ZM10.752-15.957C13.1836-17.7344 16.4746-17.4316 18.7012-15.2051L21.1328-12.793C21.3672-12.5586 21.4062-12.373 21.3379-12.0312L21.0156-10.5469L22.5195-9.0625L23.5059-9.12109C23.7598-9.13086 23.8379-9.11133 24.0332-8.91602L24.6094-8.33984L22.168-5.89844L21.5918-6.47461C21.3965-6.66992 21.3672-6.74805 21.377-7.01172L21.4453-7.98828L19.9512-9.47266L18.4277-9.21875C18.1055-9.15039 17.959-9.17969 17.7148-9.41406L15.7129-11.416C15.459-11.6504 15.4297-11.8164 15.5859-12.1875L16.4648-14.2773C14.9023-15.7324 12.8711-16.3574 10.8398-15.7617C10.6836-15.7227 10.625-15.8496 10.752-15.957Z"/>
  </g>
  <text style="stroke:none;fill:black;font-family:sans-serif;font-size:13;font-weight:bold;" transform="matrix(1 0 0 1 1289 1953)">Exporting</text>
  <text style="stroke:none;fill:black;font-family:sans-serif;font-size:13;" transform="matrix(1 0 0 1 1289 1971)">Symbols should be outlined when exporting to ensure the</text>
  <text style="stroke:none;fill:black;font-family:sans-serif;font-size:13;" transform="matrix(1 0 0 1 1289 1989)">design is preserved when submitting to Xcode.</text>
  <text id="template-version" style="stroke:none;fill:black;font-family:sans-serif;font-size:13;text-anchor:end;" transform="matrix(1 0 0 1 3036 1933)">Template v.4.0</text>
  <text style="stroke:none;fill:black;font-family:sans-serif;font-size:13;text-anchor:end;" transform="matrix(1 0 0 1 3036 1951)">Requires Xcode 14 or greater</text>
  <text id="descriptive-name" style="stroke:none;fill:black;font-family:sans-serif;font-size:13;text-anchor:end;" transform="matrix(1 0 0 1 3036 1969)">Generated from wineglass</text>
  <text style="stroke:none;fill:black;font-family:sans-serif;font-size:13;text-anchor:end;" transform="matrix(1 0 0 1 3036 1987)">Typeset at 100 points</text>
  <text style="stroke:none;fill:black;font-family:sans-serif;font-size:13;" transform="matrix(1 0 0 1 263 726)">Small</text>
  <text style="stroke:none;fill:black;font-family:sans-serif;font-size:13;" transform="matrix(1 0 0 1 263 1156)">Medium</text>
  <text style="stroke:none;fill:black;font-family:sans-serif;font-size:13;" transform="matrix(1 0 0 1 263 1586)">Large</text>
 </g>
 <g id="Guides">
  <g id="H-reference" style="fill:#27AAE1;stroke:none;" transform="matrix(1 0 0 1 339 696)">
   <path d="M0.993654 0L3.63775 0L29.3281-67.1323L30.0303-67.1323L30.0303-70.459L28.1226-70.459ZM11.6885-24.4799L46.9815-24.4799L46.2315-26.7285L12.4385-26.7285ZM55.1196 0L57.7637 0L30.6382-70.459L29.4326-70.459L29.4326-67.1323Z"/>
  </g>
  <line id="Baseline-S" style="fill:none;stroke:#27AAE1;opacity:1;stroke-width:0.5;" x1="263" x2="3036" y1="696" y2="696"/>
  <line id="Capline-S" style="fill:none;stroke:#27AAE1;opacity:1;stroke-width:0.5;" x1="263" x2="3036" y1="625.541" y2="625.541"/>
  <g id="H-reference" style="fill:#27AAE1;stroke:none;" transform="matrix(1 0 0 1 339 1126)">
   <path d="M0.993654 0L3.63775 0L29.3281-67.1323L30.0303-67.1323L30.0303-70.459L28.1226-70.459ZM11.6885-24.4799L46.9815-24.4799L46.2315-26.7285L12.4385-26.7285ZM55.1196 0L57.7637 0L30.6382-70.459L29.4326-70.459L29.4326-67.1323Z"/>
  </g>
  <line id="Baseline-M" style="fill:none;stroke:#27AAE1;opacity:1;stroke-width:0.5;" x1="263" x2="3036" y1="1126" y2="1126"/>
  <line id="Capline-M" style="fill:none;stroke:#27AAE1;opacity:1;stroke-width:0.5;" x1="263" x2="3036" y1="1055.54" y2="1055.54"/>
  <g id="H-reference" style="fill:#27AAE1;stroke:none;" transform="matrix(1 0 0 1 339 1556)">
   <path d="M0.993654 0L3.63775 0L29.3281-67.1323L30.0303-67.1323L30.0303-70.459L28.1226-70.459ZM11.6885-24.4799L46.9815-24.4799L46.2315-26.7285L12.4385-26.7285ZM55.1196 0L57.7637 0L30.6382-70.459L29.4326-70.459L29.4326-67.1323Z"/>
  </g>
  <line id="Baseline-L" style="fill:none;stroke:#27AAE1;opacity:1;stroke-width:0.5;" x1="263" x2="3036" y1="1556" y2="1556"/>
  <line id="Capline-L" style="fill:none;stroke:#27AAE1;opacity:1;stroke-width:0.5;" x1="263" x2="3036" y1="1485.54" y2="1485.54"/>
  <line id="left-margin-Regular-M" style="fill:none;stroke:#00AEEF;stroke-width:0.5;opacity:1.0;" x1="1401.72" x2="1401.72" y1="1030.79" y2="1150.12"/>
  <line id="right-margin-Regular-M" style="fill:none;stroke:#00AEEF;stroke-width:0.5;opacity:1.0;" x1="1497.97" x2="1497.97" y1="1030.79" y2="1150.12"/>
 </g>
 <g id="Symbols">
  <g id="Black-L" transform="matrix(1 0 0 1 2866.13 1556)">
   <path d="M67.228-13.9959C97.919-13.9959 118.452-32.5211 118.452-60.3015C118.452-74.4837 112.582-93.0326 104.004-106.219C99.3969-113.224 86.3174-116.983 67.2292-116.983C48.1022-116.983 34.963-113.224 30.4527-106.219C21.8958-93.091 16.084-74.5421 16.084-60.3015C16.084-32.5211 36.5965-13.9959 67.228-13.9959ZM67.228-30.0891C45.4045-30.0891 32.198-41.5448 32.198-60.3015C32.198-69.1005 34.9191-79.8812 39.5243-89.4176C45.871-86.8853 55.463-85.557 67.2292-85.557C79.0149-85.557 88.5861-86.8853 94.9328-89.4176C99.5964-79.7059 102.359-68.9252 102.359-60.3015C102.359-41.6032 89.0734-30.0891 67.228-30.0891ZM67.2292-97.1032C55.2045-97.1032 45.2048-99.0283 45.2048-101.34C45.2048-103.549 55.2485-105.475 67.2292-105.475C79.2086-105.475 89.2731-103.549 89.2731-101.34C89.2731-99.0283 79.2526-97.1032 67.2292-97.1032ZM67.228 26.7671C71.6314 26.7671 75.2674 23.0726 75.2674 18.7497L75.2674-24.6629L59.2922-24.6629L59.2922 18.7497C59.2922 23.1322 62.905 26.7671 67.228 26.7671ZM67.228 46.4438C93.5459 46.3634 108.873 39.4057 108.873 26.9923C108.873 14.5801 93.4267 7.60166 67.228 7.60166C41.0304 7.60166 25.6655 14.5801 25.6655 26.9923C25.6655 39.4069 40.9696 46.3634 67.228 46.4438ZM67.228 31.8148C51.8449 31.8136 42.6093 29.9891 42.6093 26.9923C42.6093 23.9991 51.8496 22.1515 67.228 22.1515C82.6659 22.1515 91.9294 23.9991 91.9294 26.9923C91.9294 29.9855 82.6683 31.8136 67.228 31.8148Z"/>
  </g>
  <g id="Heavy-L" transform="matrix(1 0 0 1 2570.74 1556)">
   <path d="M65.9082-14.9434C95.8298-14.9434 115.813-32.927 115.813-59.9749C115.813-73.8571 110.066-92.0056 101.642-104.942C97.2581-111.637 84.4604-115.268 65.9138-115.268C47.3471-115.268 34.4991-111.637 30.1797-104.942C21.7866-92.0503 16.084-73.9018 16.084-59.9749C16.084-32.927 36.0367-14.9434 65.9082-14.9434ZM65.9082-29.3307C43.9215-29.3307 30.5015-41.0004 30.5015-59.9749C30.5015-68.9504 33.3627-80.0847 38.1946-89.7805C44.3019-87.144 54.002-85.7026 65.9138-85.7026C77.8501-85.7026 87.52-87.144 93.6274-89.7805C98.5038-79.9508 101.425-68.8166 101.425-59.9749C101.425-41.045 87.9306-29.3307 65.9082-29.3307ZM65.9138-96.5018C53.7474-96.5018 43.3759-98.422 43.3759-100.548C43.3759-102.563 53.819-104.484 65.9138-104.484C78.0029-104.484 88.4762-102.563 88.4762-100.548C88.4762-98.422 78.0745-96.5018 65.9138-96.5018ZM65.9082 26.2145C69.8477 26.2145 73.1153 22.9023 73.1153 19.0431L73.1153-24.182L58.8228-24.182L58.8228 19.0431C58.8228 22.9525 62.049 26.2145 65.9082 26.2145ZM65.9082 44.7291C91.3177 44.6486 106.227 38.0368 106.227 26.3537C106.227 14.6762 91.2172 8.03419 65.9082 8.03419C40.6047 8.03419 25.681 14.6762 25.681 26.3537C25.681 38.0424 40.5488 44.6486 65.9082 44.7291ZM65.9082 31.5032C50.3596 31.4976 40.861 29.4828 40.861 26.3537C40.861 23.2414 50.3821 21.1852 65.9082 21.1852C81.4844 21.1852 91.0469 23.2414 91.0469 26.3537C91.0469 29.466 81.4957 31.4976 65.9082 31.5032Z"/>
  </g>
  <g id="Bold-L" transform="matrix(1 0 0 1 2275.7 1556)">
   <path d="M64.2417-16.1264C93.1956-16.1264 112.48-33.4266 112.48-59.5454C112.48-73.0438 106.886-90.6855 98.6625-103.307C94.555-109.61 82.1181-113.088 64.2549-113.088C46.3874-113.088 33.908-109.61 29.8341-103.307C21.6484-90.7147 16.084-73.073 16.084-59.5454C16.084-33.4266 35.3302-16.1264 64.2417-16.1264ZM64.2417-28.3485C42.0403-28.3485 28.3441-40.287 28.3441-59.5454C28.3441-68.7585 31.3968-80.3606 36.5278-90.2561C42.3057-87.4816 52.1589-85.8869 64.2549-85.8869C76.3757-85.8869 86.1909-87.4816 91.9689-90.2561C97.1291-80.273 100.258-68.6709 100.258-59.5454C100.258-40.3162 86.4944-28.3485 64.2417-28.3485ZM64.2549-95.6148C51.9193-95.6148 41.057-97.602 41.057-99.5422C41.057-101.364 52.0218-103.351 64.2549-103.351C76.4749-103.351 87.4776-101.364 87.4776-99.5422C87.4776-97.602 76.5773-95.6148 64.2549-95.6148ZM64.2417 25.5455C67.5901 25.5455 70.3894 22.7171 70.3894 19.4491L70.3894-23.62L58.2389-23.62L58.2389 19.4491C58.2389 22.7595 60.9737 25.5455 64.2417 25.5455ZM64.2417 42.5486C88.4772 42.4682 102.849 36.294 102.849 25.5697C102.849 14.8587 88.3923 8.64653 64.2417 8.64653C40.1044 8.64653 25.7412 14.8587 25.7412 25.5697C25.7412 36.3072 40.0487 42.4682 64.2417 42.5486ZM64.2417 31.1413C48.5082 31.1281 38.6644 28.8603 38.6644 25.5697C38.6644 22.3188 48.5611 19.9866 64.2417 19.9866C79.9648 19.9866 89.9259 22.3188 89.9259 25.5697C89.9259 28.8206 79.9912 31.1281 64.2417 31.1413Z"/>
  </g>
  <g id="Semibold-L" transform="matrix(1 0 0 1 1980.13 1556)">
   <path d="M63.0929-16.942C91.3797-16.942 110.182-33.771 110.182-59.2493C110.182-72.4831 104.695-89.7754 96.6084-102.18C92.6916-108.213 80.5033-111.585 63.1114-111.585C45.7257-111.585 33.5004-108.213 29.5959-102.18C21.5531-89.794 16.084-72.5017 16.084-59.2493C16.084-33.771 34.8432-16.942 63.0929-16.942ZM63.0929-27.6714C40.7434-27.6714 26.8567-39.7952 26.8567-59.2493C26.8567-68.6262 30.0415-80.5508 35.3787-90.584C40.9296-87.7143 50.8883-86.0139 63.1114-86.0139C75.3593-86.0139 85.2747-87.7143 90.8256-90.584C96.1813-80.4951 99.4528-68.5705 99.4528-59.2493C99.4528-39.8138 85.5042-27.6714 63.0929-27.6714ZM63.1114-95.0034C50.6591-95.0034 39.4584-97.0367 39.4584-98.8488C39.4584-100.537 50.7828-102.571 63.1114-102.571C75.4215-102.571 86.7892-100.537 86.7892-98.8488C86.7892-97.0367 75.5452-95.0034 63.1114-95.0034ZM63.0929 25.0843C66.0338 25.0843 68.5101 22.5894 68.5101 19.7289L68.5101-23.2326L57.8364-23.2326L57.8364 19.7289C57.8364 22.6264 60.2324 25.0843 63.0929 25.0843ZM63.0929 41.0454C86.5189 40.9649 100.52 35.0925 100.52 25.0292C100.52 14.9844 86.4448 9.06867 63.0929 9.06867C39.7595 9.06867 25.7827 14.9844 25.7827 25.0292C25.7827 35.111 39.7039 40.9649 63.0929 41.0454ZM63.0929 30.8918C47.2318 30.8734 37.15 28.4311 37.15 25.0292C37.15 21.6828 47.3057 19.1602 63.0929 19.1602C78.9171 19.1602 89.1531 21.6828 89.1531 25.0292C89.1531 28.3757 78.9541 30.8734 63.0929 30.8918Z"/>
  </g>
  <g id="Medium-L" transform="matrix(1 0 0 1 1684.29 1556)">
   <path d="M62.2218-17.5604C90.0027-17.5604 108.44-34.0321 108.44-59.0248C108.44-72.0579 103.033-89.0853 95.0508-101.325C91.2786-107.153 79.2789-110.445 62.2443-110.445C45.2241-110.445 33.1914-107.153 29.4153-101.325C21.4808-89.0958 16.084-72.0684 16.084-59.0248C16.084-34.0321 34.4738-17.5604 62.2218-17.5604ZM62.2218-27.1579C39.76-27.1579 25.729-39.4223 25.729-59.0248C25.729-68.5259 29.0139-80.695 34.5074-90.8326C39.8861-87.8907 49.9248-86.1103 62.2443-86.1103C74.5887-86.1103 84.58-87.8907 89.9587-90.8326C95.4627-80.6635 98.8425-68.4944 98.8425-59.0248C98.8425-39.4328 84.7535-27.1579 62.2218-27.1579ZM62.2443-94.5398C49.7035-94.5398 38.2463-96.608 38.2463-98.3231C38.2463-99.9103 49.8433-101.979 62.2443-101.979C74.6227-101.979 86.2672-99.9103 86.2672-98.3231C86.2672-96.608 74.7625-94.5398 62.2443-94.5398ZM62.2218 24.7346C64.8537 24.7346 67.0852 22.4926 67.0852 19.9411L67.0852-22.9389L57.5312-22.9389L57.5312 19.9411C57.5312 22.5255 59.6704 24.7346 62.2218 24.7346ZM62.2218 39.9056C85.0341 39.8251 98.7548 34.1815 98.7548 24.6194C98.7548 15.0798 84.9681 9.38875 62.2218 9.38875C39.498 9.38875 25.8142 15.0798 25.8142 24.6194C25.8142 34.204 39.4425 39.8251 62.2218 39.9056ZM62.2218 30.7027C46.264 30.6802 36.0018 28.1057 36.0018 24.6194C36.0018 21.2006 46.3538 18.5337 62.2218 18.5337C78.1227 18.5337 88.5672 21.2006 88.5672 24.6194C88.5672 28.0383 78.1677 30.6802 62.2218 30.7027Z"/>
  </g>
  <g id="Regular-L" transform="matrix(1 0 0 1 1388.72 1556)">
   <path d="M61.0856-18.367C88.2067-18.367 106.168-34.3727 106.168-58.7319C106.168-71.5034 100.865-88.1852 93.0192-100.21C89.4356-105.772 77.6819-108.958 61.1133-108.958C44.5697-108.958 32.7884-105.772 29.1797-100.21C21.3866-88.1852 16.084-71.5034 16.084-58.7319C16.084-34.3727 33.9921-18.367 61.0856-18.367ZM61.0856-26.4882C38.4774-26.4882 24.258-38.9359 24.258-58.7319C24.258-68.3951 27.6735-80.8831 33.3709-91.1568C38.5251-88.1209 48.6682-86.2359 61.1133-86.2359C73.5834-86.2359 83.6738-88.1209 88.8279-91.1568C94.5254-80.8831 98.0464-68.3951 98.0464-58.7319C98.0464-38.9359 83.7742-26.4882 61.0856-26.4882ZM61.1133-93.935C48.4571-93.935 36.6652-96.0489 36.6652-97.6373C36.6652-99.0925 48.618-101.206 61.1133-101.206C73.5809-101.206 85.5864-99.0925 85.5864-97.6373C85.5864-96.0489 73.7417-93.935 61.1133-93.935ZM61.0856 24.2785C63.3144 24.2785 65.2266 22.3663 65.2266 20.2179L65.2266-22.5557L57.1331-22.5557L57.1331 20.2179C57.1331 22.3939 58.9372 24.2785 61.0856 24.2785ZM61.0856 38.4189C83.0973 38.3385 96.4517 32.9933 96.4517 24.0849C96.4517 15.2042 83.042 9.80626 61.0856 9.80626C39.1569 9.80626 25.8552 15.2042 25.8552 24.0849C25.8552 33.0209 39.1015 38.3385 61.0856 38.4189ZM61.0856 30.4559C45.0016 30.4283 34.5041 27.6812 34.5041 24.0849C34.5041 20.5715 45.1122 17.7164 61.0856 17.7164C77.0866 17.7164 87.8029 20.5715 87.8029 24.0849C87.8029 27.5983 77.1419 30.4283 61.0856 30.4559Z"/>
  </g>
  <g id="Light-L" transform="matrix(1 0 0 1 1093.36 1556)">
   <path d="M59.7305-19.2449C86.0883-19.2449 103.458-34.6972 103.458-58.2739C103.458-70.7018 98.2694-86.9638 90.6144-98.7408C87.2217-103.978 75.7925-107.088 59.7773-107.088C43.749-107.088 32.2731-103.978 28.8934-98.7408C21.2721-86.9638 16.084-70.7018 16.084-58.2739C16.084-34.6972 33.4196-19.2449 59.7305-19.2449ZM59.7305-25.534C36.8933-25.534 22.4067-38.1915 22.4067-58.2739C22.4067-68.2233 26.0703-81.2266 32.0922-91.6531C36.8074-88.4644 47.1795-86.3886 59.7773-86.3886C72.362-86.3886 82.7004-88.4644 87.4156-91.6531C93.4375-81.2266 97.1685-68.2233 97.1685-58.2739C97.1685-38.1915 82.6482-25.534 59.7305-25.534ZM59.7773-92.4082C47.0448-92.4082 34.7185-95.0374 34.7185-96.7785C34.7185-98.4054 47.2056-101.035 59.7773-101.035C72.3022-101.035 84.823-98.4054 84.823-96.7785C84.823-95.0374 72.463-92.4082 59.7773-92.4082ZM59.7305 23.9159C61.444 23.9159 62.9555 22.4044 62.9555 20.7714L62.9555-22.3839L56.7132-22.3839L56.7132 20.7714C56.7132 22.4512 58.0975 23.9159 59.7305 23.9159ZM59.7305 36.5485C80.6162 36.4681 93.4744 31.4855 93.4744 23.5887C93.4744 15.7386 80.5227 10.7223 59.7305 10.7223C38.9851 10.7223 26.1606 15.7386 26.1606 23.5887C26.1606 31.5323 38.8916 36.4681 59.7305 36.5485ZM59.7305 30.3605C43.6466 30.3138 32.7864 27.2805 32.7864 23.5887C32.7864 20.0371 43.8335 16.8767 59.7305 16.8767C75.6743 16.8767 86.8486 20.0371 86.8486 23.5887C86.8486 27.1402 75.7678 30.3138 59.7305 30.3605Z"/>
  </g>
  <g id="Thin-L" transform="matrix(1 0 0 1 798.444 1556)">
   <path d="M57.9384-20.4061C83.2864-20.4061 99.8732-35.1263 99.8732-57.6681C99.8732-69.6416 94.8365-85.3483 87.434-96.7972C84.2936-101.605 73.2935-104.614 58.0104-104.614C42.6636-104.614 31.5915-101.605 28.5148-96.7972C21.1206-85.3483 16.084-69.6416 16.084-57.6681C16.084-35.1263 32.6623-20.4061 57.9384-20.4061ZM57.9384-24.2719C34.7982-24.2719 19.9582-37.2071 19.9582-57.6681C19.9582-67.9961 23.95-81.681 30.401-92.3093C34.5356-88.9188 45.2107-86.5905 58.0104-86.5905C70.7465-86.5905 81.4131-88.9188 85.5477-92.3093C91.9987-81.681 96.0074-67.9961 96.0074-57.6681C96.0074-37.2071 81.1589-24.2719 57.9384-24.2719ZM58.0104-90.3889C45.1769-90.3889 32.1438-93.6996 32.1438-95.6426C32.1438-97.4967 45.3378-100.807 58.0104-100.807C70.611-100.807 83.8133-97.4967 83.8133-95.6426C83.8133-93.6996 70.7718-90.3889 58.0104-90.3889ZM57.9384 23.4363C58.9703 23.4363 59.9517 22.4549 59.9517 21.5034L59.9517-22.1568L56.1579-22.1568L56.1579 21.5034C56.1579 22.5269 56.9868 23.4363 57.9384 23.4363ZM57.9384 34.0748C77.3348 33.9944 89.5367 29.4914 89.5367 22.9324C89.5367 16.4454 77.1908 11.934 57.9384 11.934C38.7579 11.934 26.5644 16.4454 26.5644 22.9324C26.5644 29.5634 38.6139 33.9944 57.9384 34.0748ZM57.9384 30.2343C41.8544 30.1623 30.5146 26.7504 30.5146 22.9324C30.5146 19.3304 42.1423 15.766 57.9384 15.766C73.8064 15.766 85.5865 19.3304 85.5865 22.9324C85.5865 26.5344 73.9504 30.1623 57.9384 30.2343Z"/>
  </g>
  <g id="Ultralight-L" transform="matrix(1 0 0 1 502.65 1556)">
   <path d="M57.0204-21.0008C81.8513-21.0008 98.0373-35.3461 98.0373-57.3578C98.0373-69.0986 93.0782-84.5208 85.8049-95.8017C82.7939-100.39 72.0136-103.347 57.1053-103.347C42.1077-103.347 31.2425-100.39 28.3208-95.8017C21.0431-84.5208 16.084-69.0986 16.084-57.3578C16.084-35.3461 32.2745-21.0008 57.0204-21.0008ZM57.0204-23.6254C33.7252-23.6254 18.7042-36.7029 18.7042-57.3578C18.7042-67.8798 22.864-81.9137 29.5348-92.6455C33.372-89.1515 44.2022-86.694 57.1053-86.694C69.9191-86.694 80.7537-89.1515 84.591-92.6455C91.2618-81.9137 95.4126-67.8798 95.4126-57.3578C95.4126-36.7029 80.3961-23.6254 57.0204-23.6254ZM57.1053-89.3546C44.2202-89.3546 30.8251-93.0144 30.8251-95.0608C30.8251-97.0313 44.381-100.691 57.1053-100.691C69.7447-100.691 83.2962-97.0313 83.2962-95.0608C83.2962-93.0144 69.9056-89.3546 57.1053-89.3546ZM57.0204 23.1906C57.7033 23.1906 58.4132 22.4808 58.4132 21.8783L58.4132-22.0404L55.8734-22.0404L55.8734 21.8783C55.8734 22.5657 56.418 23.1906 57.0204 23.1906ZM57.0204 32.8078C75.6541 32.7274 87.5198 28.4701 87.5198 22.5963C87.5198 16.8074 75.4842 12.5545 57.0204 12.5545C38.6415 12.5545 26.7713 16.8074 26.7713 22.5963C26.7713 28.555 38.4717 32.7274 57.0204 32.8078ZM57.0204 30.1697C40.9364 30.0847 29.351 26.4789 29.351 22.5963C29.351 18.9684 41.2761 15.1972 57.0204 15.1972C72.8497 15.1972 84.9401 18.9684 84.9401 22.5963C84.9401 26.2241 73.0195 30.0847 57.0204 30.1697Z"/>
  </g>
  <g id="Black-M" transform="matrix(1 0 0 1 2880.33 1126)">
   <path d="M53.035-18.0836C77.3704-18.0836 93.6714-32.8263 93.6714-54.8724C93.6714-66.0713 89.0333-80.7292 82.2809-91.1271C78.5452-96.7754 68.2136-99.7878 53.0347-99.7878C37.8045-99.7878 27.4161-96.7754 23.7888-91.1271C17.0419-80.7862 12.4609-66.1284 12.4609-54.8724C12.4609-32.8263 28.7564-18.0836 53.035-18.0836ZM53.035-31.7695C36.2368-31.7695 26.1524-40.4893 26.1524-54.8724C26.1524-61.5764 28.1737-69.6946 31.5906-76.9666C36.6541-75.0736 44.0234-74.1159 53.0347-74.1159C62.0518-74.1159 69.4157-75.0736 74.4791-76.9666C77.9531-69.5233 79.9854-61.4051 79.9854-54.8724C79.9854-40.5464 69.8384-31.7695 53.035-31.7695ZM53.0347-83.4757C43.8302-83.4757 36.3301-85.0411 36.3301-87.0115C36.3301-88.9142 43.8406-90.4796 53.0347-90.4796C62.2291-90.4796 69.7451-88.9142 69.7451-87.0115C69.7451-85.0411 62.2395-83.4757 53.0347-83.4757ZM53.035 13.2276C56.7753 13.2276 59.8546 10.0912 59.8546 6.41318L59.8546-27.433L46.2826-27.433L46.2826 6.41318C46.2826 10.148 49.357 13.2276 53.035 13.2276ZM53.035 29.2665C74.0528 29.2042 86.2196 23.5658 86.2196 13.458C86.2196 3.34992 73.9392-2.29402 53.035-2.29402C32.1305-2.29402 19.9121 3.34992 19.9121 13.458C19.9121 23.5655 32.074 29.2042 53.035 29.2665ZM53.035 16.9673C41.2592 16.9676 34.2811 15.6789 34.2811 13.458C34.2811 11.2362 41.2581 9.94257 53.035 9.94257C64.8687 9.94257 71.8507 11.2362 71.8507 13.458C71.8507 15.6797 64.8682 16.9676 53.035 16.9673Z"/>
  </g>
  <g id="Heavy-M" transform="matrix(1 0 0 1 2584.79 1126)">
   <path d="M51.8698-18.9288C75.5235-18.9288 91.341-33.1932 91.341-54.5954C91.341-65.5327 86.8126-79.8379 80.1936-90.0139C76.6586-95.3897 66.5726-98.2841 51.8721-98.2841C37.1421-98.2841 27.0102-95.3897 23.5483-90.0139C16.9457-79.8815 12.4609-65.5763 12.4609-54.5954C12.4609-33.1932 28.262-18.9288 51.8698-18.9288ZM51.8698-31.1162C34.9331-31.1162 24.6647-40.0257 24.6647-54.5954C24.6647-61.4456 26.8001-69.8619 30.4087-77.2756C35.2786-75.2948 42.7326-74.2441 51.8721-74.2441C61.0258-74.2441 68.4633-75.2948 73.3332-77.2756C76.9854-69.731 79.1536-61.3147 79.1536-54.5954C79.1536-40.0693 68.8252-31.1162 51.8698-31.1162ZM51.8721-83.0286C42.5361-83.0286 34.7218-84.5417 34.7218-86.3171C34.7218-88.0137 42.5734-89.5268 51.8721-89.5268C61.1685-89.5268 69.0365-88.0137 69.0365-86.3171C69.0365-84.5417 61.2058-83.0286 51.8721-83.0286ZM51.8698 12.7209C55.2042 12.7209 57.9604 9.92114 57.9604 6.64902L57.9604-26.9788L45.8625-26.9788L45.8625 6.64902C45.8625 9.96704 48.5977 12.7209 51.8698 12.7209ZM51.8698 27.7628C72.1035 27.7005 83.9073 22.3666 83.9073 12.8795C83.9073 3.39456 72.0117-1.9557 51.8698-1.9557C31.7302-1.9557 19.8991 3.39456 19.8991 12.8795C19.8991 22.3689 31.6821 27.7005 51.8698 27.7628ZM51.8698 16.6716C39.9323 16.6693 32.7304 15.221 32.7304 12.8795C32.7304 10.5448 39.9414 9.07548 51.8698 9.07548C63.8441 9.07548 71.076 10.5448 71.076 12.8795C71.076 15.2141 63.8486 16.6693 51.8698 16.6716Z"/>
  </g>
  <g id="Bold-M" transform="matrix(1 0 0 1 2289.38 1126)">
   <path d="M50.5664-19.8743C73.4575-19.8743 88.7341-33.6036 88.7341-54.2856C88.7341-64.9302 84.3284-78.8409 77.8586-88.7687C74.5481-93.8396 64.7369-96.6019 50.5715-96.6019C36.4011-96.6019 26.5561-93.8396 23.2793-88.7687C16.8381-78.8694 12.4609-64.9588 12.4609-54.2856C12.4609-33.6036 27.7089-19.8743 50.5664-19.8743ZM50.5664-30.3853C33.4748-30.3853 23.0005-39.5072 23.0005-54.2856C23.0005-61.2993 25.2635-70.0491 29.0866-77.6213C33.7399-75.5423 41.2885-74.3876 50.5715-74.3876C59.878-74.3876 67.398-75.5423 72.0513-77.6213C75.9029-69.9634 78.2232-61.2136 78.2232-54.2856C78.2232-39.5357 67.6918-30.3853 50.5664-30.3853ZM50.5715-82.5284C41.0884-82.5284 32.9228-83.9832 32.9228-85.5402C32.9228-87.0063 41.1559-88.461 50.5715-88.461C59.982-88.461 68.2438-87.0063 68.2438-85.5402C68.2438-83.9832 60.0495-82.5284 50.5715-82.5284ZM50.5664 12.154C53.4467 12.154 55.8413 9.73091 55.8413 6.91285L55.8413-26.4708L45.3926-26.4708L45.3926 6.91285C45.3926 9.76459 47.7483 12.154 50.5664 12.154ZM50.5664 26.0807C69.9228 26.0184 81.3207 21.0252 81.3207 12.2323C81.3207 3.4445 69.8555-1.57723 50.5664-1.57723C31.2824-1.57723 19.8846 3.4445 19.8846 12.2323C19.8846 21.0304 31.2436 26.0184 50.5664 26.0807ZM50.5664 16.3407C38.448 16.3356 30.9958 14.7087 30.9958 12.2323C30.9958 9.77132 38.4686 8.10552 50.5664 8.10552C62.6979 8.10552 70.2095 9.77132 70.2095 12.2323C70.2095 14.6933 62.7082 16.3356 50.5664 16.3407Z"/>
  </g>
  <g id="Semibold-M" transform="matrix(1 0 0 1 1993.57 1126)">
   <path d="M49.6678-20.5262C72.0332-20.5262 86.937-33.8865 86.937-54.072C86.937-64.5149 82.6158-78.1535 76.2488-87.9103C73.0932-92.771 63.4713-95.4423 49.6749-95.4423C35.8902-95.4423 26.2431-92.771 23.0939-87.9103C16.764-78.1717 12.4609-64.533 12.4609-54.072C12.4609-33.8865 27.3276-20.5262 49.6678-20.5262ZM49.6678-29.8814C32.4694-29.8814 21.8532-39.1497 21.8532-54.072C21.8532-61.1984 24.2042-70.1781 28.1751-77.8596C32.6792-75.7129 40.293-74.4865 49.6749-74.4865C59.0867-74.4865 66.6635-75.7129 71.1676-77.8596C75.1566-70.1236 77.5817-61.1439 77.5817-54.072C77.5817-39.1679 66.9104-29.8814 49.6678-29.8814ZM49.6749-82.1836C40.0904-82.1836 31.6825-83.5981 31.6825-85.0046C31.6825-86.3118 40.1787-87.7263 49.6749-87.7263C59.164-87.7263 67.6973-86.3118 67.6973-85.0046C67.6973-83.5981 59.2523-82.1836 49.6749-82.1836ZM49.6678 11.7633C52.2351 11.7633 54.3805 9.59976 54.3805 7.09473L54.3805-26.1205L45.0687-26.1205L45.0687 7.09473C45.0687 9.62502 47.1628 11.7633 49.6678 11.7633ZM49.6678 24.921C68.4195 24.8587 79.5375 20.1005 79.5375 11.7862C79.5375 3.47893 68.369-1.31632 49.6678-1.31632C30.9737-1.31632 19.8746 3.47893 19.8746 11.7862C19.8746 20.1076 30.9414 24.8587 49.6678 24.921ZM49.6678 16.1127C37.4247 16.1055 29.8 14.3555 29.8 11.7862C29.8 9.2381 37.4532 7.43683 49.6678 7.43683C61.9077 7.43683 69.6121 9.2381 69.6121 11.7862C69.6121 14.3342 61.9219 16.1055 49.6678 16.1127Z"/>
  </g>
  <g id="Medium-M" transform="matrix(1 0 0 1 1697.54 1126)">
   <path d="M48.9865-21.0205C70.9533-21.0205 85.5743-34.101 85.5743-53.9101C85.5743-64.2 81.3172-77.6324 75.0282-87.2593C71.99-91.9607 62.5118-94.563 48.9951-94.563C35.5029-94.563 26.0058-91.9607 22.9533-87.2593C16.7077-77.6426 12.4609-64.2102 12.4609-53.9101C12.4609-34.101 27.0385-21.0205 48.9865-21.0205ZM48.9865-29.4994C31.7071-29.4994 20.9833-38.8787 20.9833-53.9101C20.9833-61.1219 23.401-70.2759 27.484-78.0403C31.8749-75.8422 39.5382-74.5615 48.9951-74.5615C58.4868-74.5615 66.1066-75.8422 70.4975-78.0403C74.5908-70.2451 77.0953-61.0911 77.0953-53.9101C77.0953-38.889 66.3179-29.4994 48.9865-29.4994ZM48.9951-81.9222C39.3336-81.9222 30.742-83.3061 30.742-84.5985C30.742-85.7852 39.4377-87.1691 48.9951-87.1691C58.5438-87.1691 67.2829-85.7852 67.2829-84.5985C67.2829-83.3061 58.6479-81.9222 48.9951-81.9222ZM48.9865 11.467C51.3164 11.467 53.2728 9.50032 53.2728 7.23264L53.2728-25.8549L44.823-25.8549L44.823 7.23264C44.823 9.5192 46.7188 11.467 48.9865 11.467ZM48.9865 24.0417C67.2796 23.9794 78.1854 19.3993 78.1854 11.4479C78.1854 3.50503 67.2419-1.11849 48.9865-1.11849C30.7397-1.11849 19.867 3.50503 19.867 11.4479C19.867 19.4079 30.7122 23.9794 48.9865 24.0417ZM48.9865 15.9397C36.6488 15.9311 28.8933 14.0878 28.8933 11.4479C28.8933 8.83379 36.6833 6.92981 48.9865 6.92981C61.3085 6.92981 69.1592 8.83379 69.1592 11.4479C69.1592 14.062 61.3257 15.9311 48.9865 15.9397Z"/>
  </g>
  <g id="Regular-M" transform="matrix(1 0 0 1 1401.72 1126)">
   <path d="M48.0978-21.6651C69.5447-21.6651 83.7969-34.3808 83.7969-53.6988C83.7969-63.7892 79.6235-76.9526 73.4362-86.4103C70.5511-90.9038 61.2601-93.4161 48.1083-93.4161C34.9977-93.4161 25.6962-90.9038 22.7699-86.4103C16.6344-76.9526 12.4609-63.7892 12.4609-53.6988C12.4609-34.3808 26.6614-21.6651 48.0978-21.6651ZM48.0978-29.0011C30.7127-29.0011 19.8486-38.5251 19.8486-53.6988C19.8486-61.0221 22.3534-70.4035 26.5825-78.276C30.8258-76.0109 38.5536-74.6593 48.1083-74.6593C57.7042-74.6593 65.3803-76.0109 69.6235-78.276C73.8527-70.4035 76.4609-61.0221 76.4609-53.6988C76.4609-38.5251 65.5451-29.0011 48.0978-29.0011ZM48.1083-81.5812C38.3466-81.5812 29.5154-82.9253 29.5154-84.0689C29.5154-85.0984 38.4712-86.4424 48.1083-86.4424C57.7349-86.4424 66.7424-85.0984 66.7424-84.0689C66.7424-82.9253 57.8595-81.5812 48.1083-81.5812ZM48.0978 11.0805C50.1181 11.0805 51.828 9.37061 51.828 7.41252L51.828-25.5085L44.5026-25.5085L44.5026 7.41252C44.5026 9.38116 46.1397 11.0805 48.0978 11.0805ZM48.0978 22.8948C65.7928 22.8325 76.4218 18.4847 76.4218 11.0066C76.4218 3.53908 65.7717-0.860445 48.0978-0.860445C30.4343-0.860445 19.8571 3.53908 19.8571 11.0066C19.8571 18.4953 30.4132 22.8325 48.0978 22.8948ZM48.0978 15.7141C35.6368 15.7036 27.7106 13.7385 27.7106 11.0066C27.7106 8.30643 35.679 6.26847 48.0978 6.26847C60.527 6.26847 68.5683 8.30643 68.5683 11.0066C68.5683 13.7068 60.5481 15.7036 48.0978 15.7141Z"/>
  </g>
  <g id="Light-M" transform="matrix(1 0 0 1 1106.22 1126)">
   <path d="M46.8829-22.4522C67.6453-22.4522 81.3671-34.6717 81.3671-53.2882C81.3671-63.0705 77.2964-75.8575 71.2802-85.0928C68.5662-89.2954 59.5662-91.7392 46.9105-91.7392C34.2619-91.7392 25.2342-89.2954 22.5132-85.0928C16.5317-75.8575 12.4609-63.0705 12.4609-53.2882C12.4609-34.6717 26.1481-22.4522 46.8829-22.4522ZM46.8829-28.1455C29.2925-28.1455 18.1889-37.8578 18.1889-53.2882C18.1889-60.8681 20.916-70.7115 25.4361-78.7209C29.2858-76.3189 37.2189-74.7962 46.9105-74.7962C56.6091-74.7962 64.5076-76.3189 68.3573-78.7209C72.8774-70.7115 75.6738-60.8681 75.6738-53.2882C75.6738-37.8578 64.5355-28.1455 46.8829-28.1455ZM46.9105-80.2123C37.0804-80.2123 27.7701-82.0184 27.7701-83.2989C27.7701-84.4824 37.205-86.2884 46.9105-86.2884C56.5884-86.2884 66.058-84.4824 66.058-83.2989C66.058-82.0184 56.7131-80.2123 46.9105-80.2123ZM46.8829 10.7554C48.4413 10.7554 49.7918 9.40484 49.7918 7.90874L49.7918-25.3545L44.1262-25.3545L44.1262 7.90874C44.1262 9.4325 45.3868 10.7554 46.8829 10.7554ZM46.8829 21.2179C63.5684 21.1556 73.7525 17.133 73.7525 10.5617C73.7525 4.01819 63.5131-0.0391197 46.8829-0.0391197C30.2803-0.0391197 20.1309 4.01819 20.1309 10.5617C20.1309 17.1606 30.225 21.1556 46.8829 21.2179ZM46.8829 15.6286C34.4219 15.6009 26.1706 13.3792 26.1706 10.5617C26.1706 7.82732 34.5326 5.51559 46.8829 5.51559C59.2608 5.51559 67.7128 7.82732 67.7128 10.5617C67.7128 13.2962 59.3162 15.6009 46.8829 15.6286Z"/>
  </g>
  <g id="Thin-M" transform="matrix(1 0 0 1 811.115 1126)">
   <path d="M45.2761-23.4932C65.1333-23.4932 78.1536-35.0564 78.1536-52.745C78.1536-62.12 74.2186-74.4091 68.4288-83.3502C65.9411-87.1681 57.3257-89.5214 45.3264-89.5214C33.2888-89.5214 24.6232-87.1681 22.1737-83.3502C16.3959-74.4091 12.4609-62.12 12.4609-52.745C12.4609-35.0564 25.4692-23.4932 45.2761-23.4932ZM45.2761-27.014C27.4142-27.014 15.9937-36.9752 15.9937-52.745C15.9937-60.6645 19.0151-71.1188 23.9199-79.3093C27.2491-76.7263 35.4537-74.9772 45.3264-74.9772C55.1608-74.9772 63.3534-76.7263 66.6826-79.3093C71.5874-71.1188 74.6328-60.6645 74.6328-52.745C74.6328-36.9752 63.2003-27.014 45.2761-27.014ZM45.3264-78.4019C35.4057-78.4019 25.4618-80.819 25.4618-82.2805C25.4618-83.6677 35.5303-86.0848 45.3264-86.0848C55.0722-86.0848 65.1528-83.6677 65.1528-82.2805C65.1528-80.819 55.1968-78.4019 45.3264-78.4019ZM45.2761 10.3254C46.2235 10.3254 47.0988 9.4501 47.0988 8.56503L47.0988-25.1508L43.6283-25.1508L43.6283 8.56503C43.6283 9.50039 44.391 10.3254 45.2761 10.3254ZM45.2761 19.0001C60.6264 18.9378 70.2221 15.3451 70.2221 9.97335C70.2221 4.65184 60.5258 1.04715 45.2761 1.04715C30.0767 1.04715 20.493 4.65184 20.493 9.97335C20.493 15.3954 29.9761 18.9378 45.2761 19.0001ZM45.2761 15.5154C32.8152 15.4651 24.1338 12.9039 24.1338 9.97335C24.1338 7.19366 33.0163 4.51984 45.2761 4.51984C57.5862 4.51984 66.5813 7.19366 66.5813 9.97335C66.5813 12.753 57.6867 15.4651 45.2761 15.5154Z"/>
  </g>
  <g id="Ultralight-M" transform="matrix(1 0 0 1 515.227 1126)">
   <path d="M44.4531-24.0264C63.8467-24.0264 76.5076-35.2535 76.5076-52.4668C76.5076-61.6332 72.6422-73.6673 66.9683-82.4577C64.5965-86.0785 56.1782-88.3855 44.515-88.3855C32.7904-88.3855 24.3102-86.0785 21.9999-82.4577C16.3264-73.6673 12.4609-61.6332 12.4609-52.4668C12.4609-35.2535 25.1214-24.0264 44.4531-24.0264ZM44.4531-26.4344C26.4521-26.4344 14.8693-36.5232 14.8693-52.4668C14.8693-60.5601 18.0414-71.3275 23.1432-79.6106C26.2058-76.9349 34.5496-75.07 44.515-75.07C54.4189-75.07 62.7623-76.9349 65.8249-79.6106C70.9267-71.3275 74.0996-60.5601 74.0996-52.4668C74.0996-36.5232 62.5164-26.4344 44.4531-26.4344ZM44.515-77.4746C34.5479-77.4746 24.2794-80.2046 24.2794-81.7589C24.2794-83.2504 34.6725-85.9804 44.515-85.9804C54.2956-85.9804 64.6891-83.2504 64.6891-81.7589C64.6891-80.2046 54.4202-77.4746 44.515-77.4746ZM44.4531 10.1052C45.0875 10.1052 45.7194 9.47328 45.7194 8.90117L45.7194-25.0465L43.3733-25.0465L43.3733 8.90117C43.3733 9.53516 43.881 10.1052 44.4531 10.1052ZM44.4531 17.8642C59.1196 17.8019 68.4139 14.4294 68.4139 9.67198C68.4139 4.9764 58.9958 1.60353 44.4531 1.60353C29.9723 1.60353 20.6784 4.9764 20.6784 9.67198C20.6784 14.4913 29.8486 17.8019 44.4531 17.8642ZM44.4531 15.4575C31.9922 15.3956 23.0906 12.6605 23.0906 9.67198C23.0906 6.86911 32.2397 4.00983 44.4531 4.00983C56.7284 4.00983 66.0017 6.86911 66.0017 9.67198C66.0017 12.4748 56.8522 15.3956 44.4531 15.4575Z"/>
  </g>
  <g id="Black-S" transform="matrix(1 0 0 1 2891.53 696)">
   <path d="M41.8457-21.582C61.084-21.582 73.9746-33.252 73.9746-50.6836C73.9746-59.5215 70.3125-71.0938 64.9902-79.2969C62.0117-83.7891 53.8574-86.1816 41.8457-86.1816C29.7852-86.1816 21.582-83.7891 18.7012-79.2969C13.3789-71.1426 9.76562-59.5703 9.76562-50.6836C9.76562-33.252 22.6562-21.582 41.8457-21.582ZM41.8457-32.666C28.7109-32.666 20.8496-39.4531 20.8496-50.6836C20.8496-55.9082 22.4121-62.207 25.0488-67.8711C29.0527-66.4062 34.8145-65.6738 41.8457-65.6738C48.877-65.6738 54.6387-66.4062 58.6426-67.8711C61.3281-62.0605 62.8906-55.7617 62.8906-50.6836C62.8906-39.502 54.9805-32.666 41.8457-32.666ZM41.8457-73.0957C34.668-73.0957 28.8574-74.3652 28.8574-75.9766C28.8574-77.5391 34.668-78.8086 41.8457-78.8086C49.0234-78.8086 54.834-77.5391 54.834-75.9766C54.834-74.3652 49.0234-73.0957 41.8457-73.0957ZM41.8457 2.88086C44.873 2.88086 47.3633 0.341797 47.3633-2.63672L47.3633-29.248L36.377-29.248L36.377-2.63672C36.377 0.390625 38.8672 2.88086 41.8457 2.88086ZM41.8457 15.6738C58.4961 15.625 68.1152 11.1328 68.1152 3.07617C68.1152-4.98047 58.3984-9.47266 41.8457-9.47266C25.293-9.47266 15.625-4.98047 15.625 3.07617C15.625 11.1328 25.2441 15.625 41.8457 15.6738ZM41.8457 5.76172C32.666 5.76172 27.2461 4.78516 27.2461 3.07617C27.2461 1.36719 32.666 0.390625 41.8457 0.390625C51.0742 0.390625 56.4941 1.36719 56.4941 3.07617C56.4941 4.78516 51.0742 5.76172 41.8457 5.76172Z"/>
  </g>
  <g id="Heavy-S" transform="matrix(1 0 0 1 2595.66 696)">
   <path d="M41.0044-22.2044C59.7471-22.2044 72.292-33.5285 72.292-50.4992C72.292-59.1527 68.7106-70.4714 63.4805-78.5132C60.6518-82.8095 52.6704-85.1099 41.0044-85.1099C29.3127-85.1099 21.2939-82.8095 18.5283-78.5132C13.3098-70.5087 9.76562-59.19 9.76562-50.4992C9.76562-33.5285 22.299-22.2044 41.0044-22.2044ZM41.0044-32.2166C27.7775-32.2166 19.7894-39.142 19.7894-50.4992C19.7894-55.816 21.421-62.3108 24.1845-68.0785C28.0732-66.5561 33.881-65.766 41.0044-65.766C48.1394-65.766 53.9357-66.5561 57.8243-68.0785C60.6251-62.1988 62.2798-55.7041 62.2798-50.4992C62.2798-39.1793 54.2429-32.2166 41.0044-32.2166ZM41.0044-72.8883C33.723-72.8883 27.705-74.0541 27.705-75.481C27.705-76.8476 33.746-78.0134 41.0044-78.0134C48.2628-78.0134 54.3154-76.8476 54.3154-75.481C54.3154-74.0541 48.2859-72.8883 41.0044-72.8883ZM41.0044 2.48903C43.7436 2.48903 46.0034 0.191979 46.0034-2.49843L46.0034-28.8793L36.0658-28.8793L36.0658-2.49843C36.0658 0.229282 38.314 2.48903 41.0044 2.48903ZM41.0044 14.6021C57.1132 14.5532 66.4788 10.28 66.4788 2.63824C66.4788-5.00352 57.0386-9.28826 41.0044-9.28826C24.9703-9.28826 15.5789-5.00352 15.5789 2.63824C15.5789 10.28 24.933 14.5532 41.0044 14.6021ZM41.0044 5.5197C31.6864 5.5197 26.1167 4.43942 26.1167 2.63824C26.1167 0.837062 31.6864-0.254745 41.0044-0.254745C50.3597-0.254745 55.941 0.837062 55.941 2.63824C55.941 4.43942 50.3597 5.5197 41.0044 5.5197Z"/>
  </g>
  <g id="Bold-S" transform="matrix(1 0 0 1 2299.89 696)">
   <path d="M40.0635-22.9004C58.252-22.9004 70.4102-33.8379 70.4102-50.293C70.4102-58.7402 66.9189-69.7754 61.792-77.6367C59.1309-81.7139 51.3428-83.9111 40.0635-83.9111C28.7842-83.9111 20.9717-81.7139 18.335-77.6367C13.2324-69.7998 9.76562-58.7646 9.76562-50.293C9.76562-33.8379 21.8994-22.9004 40.0635-22.9004ZM40.0635-31.7139C26.7334-31.7139 18.6035-38.7939 18.6035-50.293C18.6035-55.7129 20.3125-62.4268 23.2178-68.3105C26.9775-66.7236 32.8369-65.8691 40.0635-65.8691C47.3145-65.8691 53.1494-66.7236 56.9092-68.3105C59.8389-62.3535 61.5967-55.6396 61.5967-50.293C61.5967-38.8184 53.418-31.7139 40.0635-31.7139ZM40.0635-72.6562C32.666-72.6562 26.416-73.7061 26.416-74.9268C26.416-76.0742 32.7148-77.124 40.0635-77.124C47.4121-77.124 53.7354-76.0742 53.7354-74.9268C53.7354-73.7061 47.4609-72.6562 40.0635-72.6562ZM40.0635 2.05078C42.4805 2.05078 44.4824 0.0244141 44.4824-2.34375L44.4824-28.4668L35.7178-28.4668L35.7178-2.34375C35.7178 0.0488281 37.6953 2.05078 40.0635 2.05078ZM40.0635 13.4033C55.5664 13.3545 64.6484 9.32617 64.6484 2.14844C64.6484-5.0293 55.5176-9.08203 40.0635-9.08203C24.6094-9.08203 15.5273-5.0293 15.5273 2.14844C15.5273 9.32617 24.585 13.3545 40.0635 13.4033ZM40.0635 5.24902C30.5908 5.24902 24.8535 4.05273 24.8535 2.14844C24.8535 0.244141 30.5908-0.976562 40.0635-0.976562C49.5605-0.976562 55.3223 0.244141 55.3223 2.14844C55.3223 4.05273 49.5605 5.24902 40.0635 5.24902Z"/>
  </g>
  <g id="Semibold-S" transform="matrix(1 0 0 1 2003.83 696)">
   <path d="M39.4147-23.3803C57.2211-23.3803 69.1127-34.0512 69.1127-50.1508C69.1127-58.4559 65.6837-69.2955 60.6278-77.0324C58.0822-80.9585 50.4274-83.0847 39.4147-83.0847C28.4198-83.0847 20.7495-80.9585 18.2017-77.0324C13.1791-69.311 9.76562-58.4714 9.76562-50.1508C9.76562-34.0512 21.6239-23.3803 39.4147-23.3803ZM39.4147-31.3673C26.0136-31.3673 17.7859-38.554 17.7859-50.1508C17.7859-55.6418 19.5482-62.5067 22.5513-68.4705C26.2222-66.8392 32.1171-65.9402 39.4147-65.9402C46.7457-65.9402 52.6073-66.8392 56.2782-68.4705C59.2968-62.4602 61.1257-55.5952 61.1257-50.1508C61.1257-38.5695 52.8492-31.3673 39.4147-31.3673ZM39.4147-72.4963C31.9373-72.4963 25.5273-73.4661 25.5273-74.5446C25.5273-75.541 32.0039-76.5108 39.4147-76.5108C46.8256-76.5108 53.3354-75.541 53.3354-74.5446C53.3354-73.4661 46.8922-72.4963 39.4147-72.4963ZM39.4147 1.74863C41.6096 1.74863 43.4338-0.0911133 43.4338-2.23711L43.4338-28.1824L35.4778-28.1824L35.4778-2.23711C35.4778-0.0755859 37.2687 1.74863 39.4147 1.74863ZM39.4147 12.5769C54.5 12.528 63.3865 8.66855 63.3865 1.81074C63.3865-5.04707 54.4689-8.93984 39.4147-8.93984C24.3605-8.93984 15.4918-5.04707 15.4918 1.81074C15.4918 8.66855 24.345 12.528 39.4147 12.5769ZM39.4147 5.0624C29.8354 5.0624 23.9826 3.78613 23.9826 1.81074C23.9826-0.164648 29.8354-1.47422 39.4147-1.47422C49.0096-1.47422 54.8957-0.164648 54.8957 1.81074C54.8957 3.78613 49.0096 5.0624 39.4147 5.0624Z"/>
  </g>
  <g id="Medium-S" transform="matrix(1 0 0 1 1707.61 696)">
   <path d="M38.9229-23.7441C56.4395-23.7441 68.1289-34.2129 68.1289-50.043C68.1289-58.2402 64.7471-68.9316 59.7451-76.5742C57.2871-80.3857 49.7334-82.458 38.9229-82.458C28.1436-82.458 20.5811-80.3857 18.1006-76.5742C13.1387-68.9404 9.76562-58.249 9.76562-50.043C9.76562-34.2129 21.415-23.7441 38.9229-23.7441ZM38.9229-31.1045C25.4678-31.1045 17.166-38.3721 17.166-50.043C17.166-55.5879 18.9688-62.5674 22.0459-68.5918C25.6494-66.9268 31.5713-65.9941 38.9229-65.9941C46.3145-65.9941 52.1963-66.9268 55.7998-68.5918C58.8857-62.541 60.7686-55.5615 60.7686-50.043C60.7686-38.3809 52.418-31.1045 38.9229-31.1045ZM38.9229-72.375C31.3848-72.375 24.8535-73.2842 24.8535-74.2549C24.8535-75.1367 31.4648-76.0459 38.9229-76.0459C46.3809-76.0459 53.0322-75.1367 53.0322-74.2549C53.0322-73.2842 46.4609-72.375 38.9229-72.375ZM38.9229 1.51953C40.9492 1.51953 42.6387-0.178711 42.6387-2.15625L42.6387-27.9668L35.2959-27.9668L35.2959-2.15625C35.2959-0.169922 36.9453 1.51953 38.9229 1.51953ZM38.9229 11.9502C53.6914 11.9014 62.4297 8.16992 62.4297 1.55469C62.4297-5.06055 53.6738-8.83203 38.9229-8.83203C24.1719-8.83203 15.4648-5.06055 15.4648 1.55469C15.4648 8.16992 24.1631 11.9014 38.9229 11.9502ZM38.9229 4.9209C29.2627 4.9209 23.3223 3.58398 23.3223 1.55469C23.3223-0.474609 29.2627-1.85156 38.9229-1.85156C48.5918-1.85156 54.5723-0.474609 54.5723 1.55469C54.5723 3.58398 48.5918 4.9209 38.9229 4.9209Z"/>
  </g>
  <g id="Regular-S" transform="matrix(1 0 0 1 1411.54 696)">
   <path d="M38.2812-24.2188C55.4199-24.2188 66.8457-34.4238 66.8457-49.9023C66.8457-57.959 63.5254-68.457 58.5938-75.9766C56.25-79.6387 48.8281-81.6406 38.2812-81.6406C27.7832-81.6406 20.3613-79.6387 17.9688-75.9766C13.0859-68.457 9.76562-57.959 9.76562-49.9023C9.76562-34.4238 21.1426-24.2188 38.2812-24.2188ZM38.2812-30.7617C24.7559-30.7617 16.3574-38.1348 16.3574-49.9023C16.3574-55.5176 18.2129-62.6465 21.3867-68.75C24.9023-67.041 30.8594-66.0645 38.2812-66.0645C45.752-66.0645 51.6602-67.041 55.1758-68.75C58.3496-62.6465 60.3027-55.5176 60.3027-49.9023C60.3027-38.1348 51.8555-30.7617 38.2812-30.7617ZM38.2812-72.2168C30.6641-72.2168 23.9746-73.0469 23.9746-73.877C23.9746-74.6094 30.7617-75.4395 38.2812-75.4395C45.8008-75.4395 52.6367-74.6094 52.6367-73.877C52.6367-73.0469 45.8984-72.2168 38.2812-72.2168ZM38.2812 1.2207C40.0879 1.2207 41.6016-0.292969 41.6016-2.05078L41.6016-27.6855L35.0586-27.6855L35.0586-2.05078C35.0586-0.292969 36.5234 1.2207 38.2812 1.2207ZM38.2812 11.1328C52.6367 11.084 61.1816 7.51953 61.1816 1.2207C61.1816-5.07812 52.6367-8.69141 38.2812-8.69141C23.9258-8.69141 15.4297-5.07812 15.4297 1.2207C15.4297 7.51953 23.9258 11.084 38.2812 11.1328ZM38.2812 4.73633C28.5156 4.73633 22.4609 3.32031 22.4609 1.2207C22.4609-0.878906 28.5156-2.34375 38.2812-2.34375C48.0469-2.34375 54.1504-0.878906 54.1504 1.2207C54.1504 3.32031 48.0469 4.73633 38.2812 4.73633Z"/>
  </g>
  <g id="Light-S" transform="matrix(1 0 0 1 1115.9 696)">
   <path d="M37.2066-24.915C53.7398-24.915 64.6963-34.6812 64.6963-49.5391C64.6963-57.3232 61.4668-67.4883 56.6865-74.811C54.4942-78.2158 47.3296-80.1572 37.2217-80.1572C27.1323-80.1572 19.9526-78.2158 17.7417-74.811C12.9951-67.4883 9.76562-57.3232 9.76562-49.5391C9.76562-34.6812 20.6885-24.915 37.2066-24.915ZM37.2066-30.0049C23.4995-30.0049 14.8892-37.5444 14.8892-49.5391C14.8892-55.3813 16.9414-62.9189 20.3726-69.1436C23.54-67.3135 29.6787-66.1855 37.2217-66.1855C44.7832-66.1855 50.8882-67.3135 54.0557-69.1436C57.4868-62.9189 59.6065-55.3813 59.6065-49.5391C59.6065-37.5444 50.9624-30.0049 37.2066-30.0049ZM37.2217-71.0059C29.544-71.0059 22.4307-72.2446 22.4307-73.1958C22.4307-74.0645 29.6416-75.3032 37.2217-75.3032C44.7866-75.3032 52.0313-74.0645 52.0313-73.1958C52.0313-72.2446 44.8843-71.0059 37.2217-71.0059ZM37.2066 0.933108C38.6045 0.933108 39.8003-0.262696 39.8003-1.61182L39.8003-27.5493L34.7256-27.5493L34.7256-1.61182C34.7256-0.247559 35.8574 0.933108 37.2066 0.933108ZM37.2066 9.64943C50.669 9.6006 58.8203 6.32374 58.8203 0.827152C58.8203-4.6543 50.6387-7.96485 37.2066-7.96485C23.7896-7.96485 15.6719-4.6543 15.6719 0.827152C15.6719 6.33888 23.7593 9.6006 37.2066 9.64943ZM37.2066 4.66065C27.4409 4.64551 21.0986 3.00244 21.0986 0.827152C21.0986-1.30273 27.5015-3.00976 37.2066-3.00976C46.9268-3.00976 53.3936-1.30273 53.3936 0.827152C53.3936 2.95703 46.957 4.64551 37.2066 4.66065Z"/>
  </g>
  <g id="Thin-S" transform="matrix(1 0 0 1 820.613 696)">
   <path d="M35.7852-25.8359C51.5176-25.8359 61.8536-35.0215 61.8536-49.0586C61.8536-56.4824 58.7442-66.207 54.1641-73.2696C52.1719-76.334 45.3477-78.1953 35.8203-78.1953C26.2715-78.1953 19.4121-76.334 17.4414-73.2696C12.875-66.207 9.76562-56.4824 9.76562-49.0586C9.76562-35.0215 20.0879-25.8359 35.7852-25.8359ZM35.7852-29.0039C21.8379-29.0039 12.9473-36.7637 12.9473-49.0586C12.9473-55.2012 15.2598-63.2793 19.0313-69.6641C21.7383-67.6738 28.1172-66.3457 35.8203-66.3457C43.502-66.3457 49.8672-67.6738 52.5742-69.6641C56.3457-63.2793 58.6856-55.2012 58.6856-49.0586C58.6856-36.7637 49.7813-29.0039 35.7852-29.0039ZM35.8203-69.4043C28.0625-69.4043 20.3887-71.1836 20.3887-72.2949C20.3887-73.3438 28.1602-75.123 35.8203-75.123C43.4453-75.123 51.2305-73.3438 51.2305-72.2949C51.2305-71.1836 43.543-69.4043 35.8203-69.4043ZM35.7852 0.55274C36.6426 0.55274 37.418-0.222657 37.418-1.03126L37.418-27.3691L34.2852-27.3691L34.2852-1.03126C34.2852-0.187501 34.9766 0.55274 35.7852 0.55274ZM35.7852 7.68753C48.0664 7.6387 55.6973 4.74221 55.6973 0.306648C55.6973-4.09376 47.9961-7.00392 35.7852-7.00392C23.6094-7.00392 15.9922-4.09376 15.9922 0.306648C15.9922 4.77737 23.5391 7.6387 35.7852 7.68753ZM35.7852 4.56055C26.0196 4.52539 19.2969 2.58204 19.2969 0.306648C19.2969-1.86327 26.1602-3.89061 35.7852-3.89061C45.4453-3.89061 52.3926-1.86327 52.3926 0.306648C52.3926 2.47657 45.5156 4.52539 35.7852 4.56055Z"/>
  </g>
  <g id="Ultralight-S" transform="matrix(1 0 0 1 524.63 696)">
   <path d="M35.0572-26.3076C50.3794-26.3076 60.3975-35.1958 60.3975-48.8125C60.3975-56.0518 57.3497-65.5508 52.8721-72.48C50.9825-75.3702 44.3326-77.1905 35.1026-77.1905C25.8306-77.1905 19.1353-75.3702 17.2876-72.48C12.8135-65.5508 9.76562-56.0518 9.76562-48.8125C9.76562-35.1958 19.7803-26.3076 35.0572-26.3076ZM35.0572-28.4912C20.9868-28.4912 11.9527-36.3638 11.9527-48.8125C11.9527-55.1089 14.3985-63.4639 18.3443-69.9307C20.8155-67.8584 27.3174-66.4277 35.1026-66.4277C42.8457-66.4277 49.3443-67.8584 51.8155-69.9307C55.7613-63.4639 58.2139-55.1089 58.2139-48.8125C58.2139-36.3638 49.1763-28.4912 35.0572-28.4912ZM35.1026-68.584C27.3037-68.584 19.3428-70.6402 19.3428-71.8335C19.3428-72.9746 27.4014-75.0308 35.1026-75.0308C42.7583-75.0308 50.8203-72.9746 50.8203-71.8335C50.8203-70.6402 42.856-68.584 35.1026-68.584ZM35.0572 0.357917C35.6377 0.357917 36.1978-0.202149 36.1978-0.733897L36.1978-27.2769L34.0596-27.2769L34.0596-0.733897C34.0596-0.156739 34.5254 0.357917 35.0572 0.357917ZM35.0572 6.68265C46.7334 6.63382 54.0977 3.93216 54.0977 0.0400484C54.0977-3.80665 46.6426-6.51174 35.0572-6.51174C23.5171-6.51174 16.1562-3.80665 16.1562 0.0400484C16.1562 3.97757 23.4263 6.63382 35.0572 6.68265ZM35.0572 4.50928C25.2915 4.46387 18.3741 2.36671 18.3741 0.0400484C18.3741-2.15038 25.4732-4.34178 35.0572-4.34178C44.6865-4.34178 51.8799-2.15038 51.8799 0.0400484C51.8799 2.23048 44.7774 4.46387 35.0572 4.50928Z"/>
  </g>
 </g>
</svg>
