<?xml version="1.0" encoding="UTF-8"?>
<!--Generator: Apple Native CoreSVG 175.5-->
<!DOCTYPE svg
PUBLIC "-//W3C//DTD SVG 1.1//EN"
       "http://www.w3.org/Graphics/SVG/1.1/DTD/svg11.dtd">
<svg version="1.1" xmlns="http://www.w3.org/2000/svg" xmlns:xlink="http://www.w3.org/1999/xlink" width="3300" height="2200">
 <!--glyph: "uni10077B.medium", point size: 100.0, font version: "18.0d12e2", template writer version: "101"-->
 <g id="Notes">
  <rect height="2200" id="artboard" style="fill:white;opacity:1" width="3300" x="0" y="0"/>
  <line style="fill:none;stroke:black;opacity:1;stroke-width:0.5;" x1="263" x2="3036" y1="292" y2="292"/>
  <text style="stroke:none;fill:black;font-family:sans-serif;font-size:13;font-weight:bold;" transform="matrix(1 0 0 1 263 322)">Weight/Scale Variations</text>
  <text style="stroke:none;fill:black;font-family:sans-serif;font-size:13;text-anchor:middle;" transform="matrix(1 0 0 1 559.711 322)">Ultralight</text>
  <text style="stroke:none;fill:black;font-family:sans-serif;font-size:13;text-anchor:middle;" transform="matrix(1 0 0 1 856.422 322)">Thin</text>
  <text style="stroke:none;fill:black;font-family:sans-serif;font-size:13;text-anchor:middle;" transform="matrix(1 0 0 1 1153.13 322)">Light</text>
  <text style="stroke:none;fill:black;font-family:sans-serif;font-size:13;text-anchor:middle;" transform="matrix(1 0 0 1 1449.84 322)">Regular</text>
  <text style="stroke:none;fill:black;font-family:sans-serif;font-size:13;text-anchor:middle;" transform="matrix(1 0 0 1 1746.56 322)">Medium</text>
  <text style="stroke:none;fill:black;font-family:sans-serif;font-size:13;text-anchor:middle;" transform="matrix(1 0 0 1 2043.27 322)">Semibold</text>
  <text style="stroke:none;fill:black;font-family:sans-serif;font-size:13;text-anchor:middle;" transform="matrix(1 0 0 1 2339.98 322)">Bold</text>
  <text style="stroke:none;fill:black;font-family:sans-serif;font-size:13;text-anchor:middle;" transform="matrix(1 0 0 1 2636.69 322)">Heavy</text>
  <text style="stroke:none;fill:black;font-family:sans-serif;font-size:13;text-anchor:middle;" transform="matrix(1 0 0 1 2933.4 322)">Black</text>
  <line style="fill:none;stroke:black;opacity:1;stroke-width:0.5;" x1="263" x2="3036" y1="1903" y2="1903"/>
  <g transform="matrix(1 0 0 1 263 1933)">
   <path d="M9.24805 0.830078C13.5547 0.830078 17.1387-2.74414 17.1387-7.05078C17.1387-11.3574 13.5449-14.9316 9.23828-14.9316C4.94141-14.9316 1.36719-11.3574 1.36719-7.05078C1.36719-2.74414 4.95117 0.830078 9.24805 0.830078ZM9.24805-0.654297C5.70312-0.654297 2.87109-3.49609 2.87109-7.05078C2.87109-10.6055 5.69336-13.4473 9.23828-13.4473C12.793-13.4473 15.6445-10.6055 15.6445-7.05078C15.6445-3.49609 12.8027-0.654297 9.24805-0.654297ZM5.6543-7.05078C5.6543-6.62109 5.95703-6.32812 6.40625-6.32812L8.50586-6.32812L8.50586-4.20898C8.50586-3.76953 8.79883-3.4668 9.22852-3.4668C9.67773-3.4668 9.9707-3.76953 9.9707-4.20898L9.9707-6.32812L12.0898-6.32812C12.5293-6.32812 12.832-6.62109 12.832-7.05078C12.832-7.49023 12.5293-7.79297 12.0898-7.79297L9.9707-7.79297L9.9707-9.90234C9.9707-10.3516 9.67773-10.6543 9.22852-10.6543C8.79883-10.6543 8.50586-10.3516 8.50586-9.90234L8.50586-7.79297L6.40625-7.79297C5.95703-7.79297 5.6543-7.49023 5.6543-7.05078Z"/>
  </g>
  <g transform="matrix(1 0 0 1 281.867 1933)">
   <path d="M11.709 2.91016C17.1582 2.91016 21.6699-1.61133 21.6699-7.05078C21.6699-12.5 17.1484-17.0117 11.6992-17.0117C6.25977-17.0117 1.74805-12.5 1.74805-7.05078C1.74805-1.61133 6.26953 2.91016 11.709 2.91016ZM11.709 1.25C7.09961 1.25 3.41797-2.44141 3.41797-7.05078C3.41797-11.6602 7.08984-15.3516 11.6992-15.3516C16.3086-15.3516 20.0098-11.6602 20.0098-7.05078C20.0098-2.44141 16.3184 1.25 11.709 1.25ZM7.17773-7.05078C7.17773-6.57227 7.50977-6.25 8.00781-6.25L10.8789-6.25L10.8789-3.36914C10.8789-2.88086 11.2109-2.53906 11.6895-2.53906C12.1777-2.53906 12.5195-2.87109 12.5195-3.36914L12.5195-6.25L15.4004-6.25C15.8887-6.25 16.2305-6.57227 16.2305-7.05078C16.2305-7.53906 15.8887-7.88086 15.4004-7.88086L12.5195-7.88086L12.5195-10.752C12.5195-11.25 12.1777-11.5918 11.6895-11.5918C11.2109-11.5918 10.8789-11.25 10.8789-10.752L10.8789-7.88086L8.00781-7.88086C7.50977-7.88086 7.17773-7.53906 7.17773-7.05078Z"/>
  </g>
  <g transform="matrix(1 0 0 1 305.646 1933)">
   <path d="M14.9707 5.66406C21.9336 5.66406 27.6953-0.0976562 27.6953-7.05078C27.6953-14.0137 21.9238-19.7754 14.9609-19.7754C8.00781-19.7754 2.25586-14.0137 2.25586-7.05078C2.25586-0.0976562 8.01758 5.66406 14.9707 5.66406ZM14.9707 3.84766C8.93555 3.84766 4.08203-1.01562 4.08203-7.05078C4.08203-13.0957 8.92578-17.9492 14.9609-17.9492C21.0059-17.9492 25.8691-13.0957 25.8691-7.05078C25.8691-1.01562 21.0156 3.84766 14.9707 3.84766ZM9.19922-7.05078C9.19922-6.5332 9.57031-6.17188 10.1172-6.17188L14.0625-6.17188L14.0625-2.2168C14.0625-1.67969 14.4336-1.29883 14.9512-1.29883C15.4883-1.29883 15.8594-1.66992 15.8594-2.2168L15.8594-6.17188L19.8145-6.17188C20.3516-6.17188 20.7324-6.5332 20.7324-7.05078C20.7324-7.59766 20.3613-7.96875 19.8145-7.96875L15.8594-7.96875L15.8594-11.9141C15.8594-12.4609 15.4883-12.8418 14.9512-12.8418C14.4336-12.8418 14.0625-12.4609 14.0625-11.9141L14.0625-7.96875L10.1172-7.96875C9.57031-7.96875 9.19922-7.59766 9.19922-7.05078Z"/>
  </g>
  <text style="stroke:none;fill:black;font-family:sans-serif;font-size:13;font-weight:bold;" transform="matrix(1 0 0 1 263 1953)">Design Variations</text>
  <text style="stroke:none;fill:black;font-family:sans-serif;font-size:13;" transform="matrix(1 0 0 1 263 1971)">Symbols are supported in up to nine weights and three scales.</text>
  <text style="stroke:none;fill:black;font-family:sans-serif;font-size:13;" transform="matrix(1 0 0 1 263 1989)">For optimal layout with text and other symbols, vertically align</text>
  <text style="stroke:none;fill:black;font-family:sans-serif;font-size:13;" transform="matrix(1 0 0 1 263 2007)">symbols with the adjacent text.</text>
  <line style="fill:none;stroke:#00AEEF;stroke-width:0.5;opacity:1.0;" x1="776" x2="776" y1="1919" y2="1933"/>
  <g transform="matrix(1 0 0 1 776 1933)">
   <path d="M3.31055 0.15625C3.82812 0.15625 4.08203-0.0390625 4.26758-0.585938L5.52734-4.0332L11.2891-4.0332L12.5488-0.585938C12.7344-0.0390625 12.9883 0.15625 13.4961 0.15625C14.0137 0.15625 14.3457-0.15625 14.3457-0.644531C14.3457-0.810547 14.3164-0.966797 14.2383-1.17188L9.6582-13.3691C9.43359-13.9648 9.0332-14.2676 8.4082-14.2676C7.80273-14.2676 7.39258-13.9746 7.17773-13.3789L2.59766-1.16211C2.51953-0.957031 2.49023-0.800781 2.49023-0.634766C2.49023-0.146484 2.80273 0.15625 3.31055 0.15625ZM6.00586-5.51758L8.37891-12.0898L8.42773-12.0898L10.8008-5.51758Z"/>
  </g>
  <line style="fill:none;stroke:#00AEEF;stroke-width:0.5;opacity:1.0;" x1="793.197" x2="793.197" y1="1919" y2="1933"/>
  <text style="stroke:none;fill:black;font-family:sans-serif;font-size:13;font-weight:bold;" transform="matrix(1 0 0 1 776 1953)">Margins</text>
  <text style="stroke:none;fill:black;font-family:sans-serif;font-size:13;" transform="matrix(1 0 0 1 776 1971)">Leading and trailing margins on the left and right side of each symbol</text>
  <text style="stroke:none;fill:black;font-family:sans-serif;font-size:13;" transform="matrix(1 0 0 1 776 1989)">can be adjusted by modifying the x-location of the margin guidelines.</text>
  <text style="stroke:none;fill:black;font-family:sans-serif;font-size:13;" transform="matrix(1 0 0 1 776 2007)">Modifications are automatically applied proportionally to all</text>
  <text style="stroke:none;fill:black;font-family:sans-serif;font-size:13;" transform="matrix(1 0 0 1 776 2025)">scales and weights.</text>
  <g transform="matrix(1 0 0 1 1289 1933)">
   <path d="M2.8418 1.86523L4.54102 3.57422C5.40039 4.44336 6.38672 4.38477 7.31445 3.35938L18.0078-8.42773L17.041-9.4043L6.42578 2.27539C6.07422 2.67578 5.74219 2.77344 5.27344 2.30469L4.10156 1.14258C3.63281 0.683594 3.74023 0.341797 4.14062-0.0195312L15.6152-10.8203L14.6387-11.7871L3.04688-0.898438C2.06055 0.0195312 1.98242 0.996094 2.8418 1.86523ZM9.25781-16.3281C8.83789-15.918 8.80859-15.3418 9.04297-14.9512C9.27734-14.5898 9.73633-14.3555 10.3809-14.5215C11.8457-14.8633 13.3691-14.9219 14.7949-13.9844L14.209-12.5293C13.8672-11.6992 14.043-11.1133 14.5801-10.5664L16.875-8.25195C17.3633-7.76367 17.7734-7.74414 18.3398-7.8418L19.4043-8.03711L20.0684-7.36328L20.0293-6.80664C19.9902-6.30859 20.1172-5.92773 20.6055-5.44922L21.3672-4.70703C21.8457-4.22852 22.4609-4.19922 22.9297-4.66797L25.8398-7.58789C26.3086-8.05664 26.2891-8.65234 25.8105-9.13086L25.0391-9.89258C24.5605-10.3711 24.1895-10.5273 23.7109-10.4883L23.1348-10.4395L22.4902-11.0742L22.7344-12.1973C22.8613-12.7637 22.7051-13.2031 22.1191-13.7891L19.9219-15.9766C16.582-19.2969 12.1484-19.2188 9.25781-16.3281ZM10.752-15.957C13.1836-17.7344 16.4746-17.4316 18.7012-15.2051L21.1328-12.793C21.3672-12.5586 21.4062-12.373 21.3379-12.0312L21.0156-10.5469L22.5195-9.0625L23.5059-9.12109C23.7598-9.13086 23.8379-9.11133 24.0332-8.91602L24.6094-8.33984L22.168-5.89844L21.5918-6.47461C21.3965-6.66992 21.3672-6.74805 21.377-7.01172L21.4453-7.98828L19.9512-9.47266L18.4277-9.21875C18.1055-9.15039 17.959-9.17969 17.7148-9.41406L15.7129-11.416C15.459-11.6504 15.4297-11.8164 15.5859-12.1875L16.4648-14.2773C14.9023-15.7324 12.8711-16.3574 10.8398-15.7617C10.6836-15.7227 10.625-15.8496 10.752-15.957Z"/>
  </g>
  <text style="stroke:none;fill:black;font-family:sans-serif;font-size:13;font-weight:bold;" transform="matrix(1 0 0 1 1289 1953)">Exporting</text>
  <text style="stroke:none;fill:black;font-family:sans-serif;font-size:13;" transform="matrix(1 0 0 1 1289 1971)">Symbols should be outlined when exporting to ensure the</text>
  <text style="stroke:none;fill:black;font-family:sans-serif;font-size:13;" transform="matrix(1 0 0 1 1289 1989)">design is preserved when submitting to Xcode.</text>
  <text id="template-version" style="stroke:none;fill:black;font-family:sans-serif;font-size:13;text-anchor:end;" transform="matrix(1 0 0 1 3036 1933)">Template v.4.0</text>
  <text style="stroke:none;fill:black;font-family:sans-serif;font-size:13;text-anchor:end;" transform="matrix(1 0 0 1 3036 1951)">Requires Xcode 14 or greater</text>
  <text id="descriptive-name" style="stroke:none;fill:black;font-family:sans-serif;font-size:13;text-anchor:end;" transform="matrix(1 0 0 1 3036 1969)">Generated from figure.wave</text>
  <text style="stroke:none;fill:black;font-family:sans-serif;font-size:13;text-anchor:end;" transform="matrix(1 0 0 1 3036 1987)">Typeset at 100 points</text>
  <text style="stroke:none;fill:black;font-family:sans-serif;font-size:13;" transform="matrix(1 0 0 1 263 726)">Small</text>
  <text style="stroke:none;fill:black;font-family:sans-serif;font-size:13;" transform="matrix(1 0 0 1 263 1156)">Medium</text>
  <text style="stroke:none;fill:black;font-family:sans-serif;font-size:13;" transform="matrix(1 0 0 1 263 1586)">Large</text>
 </g>
 <g id="Guides">
  <g id="H-reference" style="fill:#27AAE1;stroke:none;" transform="matrix(1 0 0 1 339 696)">
   <path d="M0.993654 0L3.63775 0L29.3281-67.1323L30.0303-67.1323L30.0303-70.459L28.1226-70.459ZM11.6885-24.4799L46.9815-24.4799L46.2315-26.7285L12.4385-26.7285ZM55.1196 0L57.7637 0L30.6382-70.459L29.4326-70.459L29.4326-67.1323Z"/>
  </g>
  <line id="Baseline-S" style="fill:none;stroke:#27AAE1;opacity:1;stroke-width:0.5;" x1="263" x2="3036" y1="696" y2="696"/>
  <line id="Capline-S" style="fill:none;stroke:#27AAE1;opacity:1;stroke-width:0.5;" x1="263" x2="3036" y1="625.541" y2="625.541"/>
  <g id="H-reference" style="fill:#27AAE1;stroke:none;" transform="matrix(1 0 0 1 339 1126)">
   <path d="M0.993654 0L3.63775 0L29.3281-67.1323L30.0303-67.1323L30.0303-70.459L28.1226-70.459ZM11.6885-24.4799L46.9815-24.4799L46.2315-26.7285L12.4385-26.7285ZM55.1196 0L57.7637 0L30.6382-70.459L29.4326-70.459L29.4326-67.1323Z"/>
  </g>
  <line id="Baseline-M" style="fill:none;stroke:#27AAE1;opacity:1;stroke-width:0.5;" x1="263" x2="3036" y1="1126" y2="1126"/>
  <line id="Capline-M" style="fill:none;stroke:#27AAE1;opacity:1;stroke-width:0.5;" x1="263" x2="3036" y1="1055.54" y2="1055.54"/>
  <g id="H-reference" style="fill:#27AAE1;stroke:none;" transform="matrix(1 0 0 1 339 1556)">
   <path d="M0.993654 0L3.63775 0L29.3281-67.1323L30.0303-67.1323L30.0303-70.459L28.1226-70.459ZM11.6885-24.4799L46.9815-24.4799L46.2315-26.7285L12.4385-26.7285ZM55.1196 0L57.7637 0L30.6382-70.459L29.4326-70.459L29.4326-67.1323Z"/>
  </g>
  <line id="Baseline-L" style="fill:none;stroke:#27AAE1;opacity:1;stroke-width:0.5;" x1="263" x2="3036" y1="1556" y2="1556"/>
  <line id="Capline-L" style="fill:none;stroke:#27AAE1;opacity:1;stroke-width:0.5;" x1="263" x2="3036" y1="1485.54" y2="1485.54"/>
  <line id="left-margin-Regular-M" style="fill:none;stroke:#00AEEF;stroke-width:0.5;opacity:1.0;" x1="1411.75" x2="1411.75" y1="1030.79" y2="1150.12"/>
  <line id="right-margin-Regular-M" style="fill:none;stroke:#00AEEF;stroke-width:0.5;opacity:1.0;" x1="1487.94" x2="1487.94" y1="1030.79" y2="1150.12"/>
 </g>
 <g id="Symbols">
  <g id="Black-L" transform="matrix(1 0 0 1 2880.59 1556)">
   <path d="M16.084-102.902L17.2879-79.5006C17.528-75.2127 19.2484-72.2793 22.55-69.9183L37.0275-59.3701C38.7151-58.165 39.0961-57.3376 39.0961-55.3562L39.0961 32.8129C39.0961 36.9647 42.3501 40.2394 46.5226 40.2394C50.6368 40.2394 53.9504 36.9062 53.9504 32.8129L53.9504-14.7838C53.9504-15.7309 54.7574-16.5367 55.7253-16.5367C56.6932-16.5367 57.5002-15.7309 57.5002-14.7838L57.5002 32.8129C57.5002 36.9062 60.8138 40.2394 64.9268 40.2394C69.0993 40.2394 72.3545 36.9647 72.3545 32.8129L72.3545-45.1061C72.3545-46.074 73.1407-46.8394 74.1086-46.8394C75.0765-46.8394 75.8627-46.074 75.8627-45.1061L75.8627-19.5162C75.8627-15.7433 78.935-12.6502 82.7287-12.6502C86.5212-12.6502 89.5339-15.7433 89.5339-19.5162L89.5339-48.1132C89.5339-63.375 77.6591-73.529 61.0386-73.529L46.6318-73.529C42.8361-73.529 40.6219-74.1932 37.5683-76.3633L31.0395-81.0449L29.776-103.581C29.5567-107.373 26.304-110.407 22.5103-110.108C18.7386-109.808 15.8647-106.693 16.084-102.902ZM55.7253-80.1203C64.2513-80.1203 71.213-87.0832 71.213-95.6092C71.213-104.135 64.2513-111.097 55.7253-111.097C47.1993-111.097 40.2364-104.135 40.2364-95.6092C40.2364-87.0832 47.1993-80.1203 55.7253-80.1203Z"/>
  </g>
  <g id="Heavy-L" transform="matrix(1 0 0 1 2584.83 1556)">
   <path d="M16.084-102.008L17.2791-78.9474C17.5147-74.7268 19.1899-71.935 22.3861-69.6568L36.6552-59.2487C38.3384-58.048 38.8572-57.2024 38.8572-54.9911L38.8572 31.6657C38.8572 35.6256 41.965 38.7636 45.9551 38.7636C49.9005 38.7636 53.0585 35.581 53.0585 31.6657L53.0585-15.1049C53.0585-16.0801 53.9031-16.919 54.9084-16.919C55.9138-16.919 56.7583-16.0801 56.7583-15.1049L56.7583 31.6657C56.7583 35.581 59.9163 38.7636 63.8561 38.7636C67.8462 38.7636 70.9596 35.6256 70.9596 31.6657L70.9596-45.0101C70.9596-46.0155 71.7739-46.7997 72.7793-46.7997C73.7847-46.7997 74.599-46.0155 74.599-45.0101L74.599-19.7644C74.599-16.1653 77.5158-13.2183 81.1451-13.2183C84.7689-13.2183 87.6354-16.1653 87.6354-19.7644L87.6354-47.9721C87.6354-62.8973 76.1852-72.8192 60.0265-72.8192L45.9816-72.8192C42.1941-72.8192 39.9568-73.4927 36.912-75.6585L30.3959-80.3362L29.1506-102.655C28.9451-106.279 25.8429-109.175 22.2136-108.895C18.62-108.609 15.8785-105.627 16.084-102.008ZM54.9084-79.5202C63.1973-79.5202 69.9494-86.2779 69.9494-94.5668C69.9494-102.856 63.1973-109.608 54.9084-109.608C46.6195-109.608 39.8618-102.856 39.8618-94.5668C39.8618-86.2779 46.6195-79.5202 54.9084-79.5202Z"/>
  </g>
  <g id="Bold-L" transform="matrix(1 0 0 1 2289.35 1556)">
   <path d="M16.084-100.835L17.2638-78.2187C17.4919-74.0976 19.1057-71.4751 22.1788-69.2893L36.1718-59.0728C37.8474-57.8797 38.5204-57.0111 38.5204-54.5452L38.5204 30.2219C38.5204 33.951 41.4514 36.9199 45.2185 36.9199C48.9564 36.9199 51.9298 33.9218 51.9298 30.2219L51.9298-15.5416C51.9298-16.5402 52.8055-17.4027 53.842-17.4027C54.8786-17.4027 55.7543-16.5402 55.7543-15.5416L55.7543 30.2219C55.7543 33.9218 58.7277 36.9199 62.4524 36.9199C66.2195 36.9199 69.1637 33.951 69.1637 30.2219L69.1637-44.8948C69.1637-45.9313 70.0014-46.7311 71.038-46.7311C72.0745-46.7311 72.9123-45.9313 72.9123-44.8948L72.9123-20.1091C72.9123-16.7176 75.6444-13.9475 79.0739-13.9475C82.4901-13.9475 85.1798-16.7176 85.1798-20.1091L85.1798-47.7954C85.1798-62.2908 74.2448-71.9208 58.7069-71.9208L45.1524-71.9208C41.3876-71.9208 39.1271-72.6021 36.0976-74.7602L29.6117-79.4229L28.3895-101.443C28.1994-104.859 25.2817-107.587 21.8522-107.33C18.474-107.059 15.8939-104.238 16.084-100.835ZM53.842-78.7526C61.8389-78.7526 68.3298-85.2567 68.3298-93.2536C68.3298-101.25 61.8389-107.741 53.842-107.741C45.8452-107.741 39.3411-101.25 39.3411-93.2536C39.3411-85.2567 45.8452-78.7526 53.842-78.7526Z"/>
  </g>
  <g id="Semibold-L" transform="matrix(1 0 0 1 1993.48 1556)">
   <path d="M16.084-100.026L17.2533-77.7164C17.4761-73.6638 19.0477-71.1579 22.0359-69.036L35.8386-58.9515C37.5089-57.7637 38.2882-56.8791 38.2882-54.2378L38.2882 29.2265C38.2882 32.7965 41.0972 35.6489 44.7106 35.6489C48.3055 35.6489 51.1516 32.7779 51.1516 29.2265L51.1516-15.8428C51.1516-16.8575 52.0488-17.7362 53.1069-17.7362C54.165-17.7362 55.0622-16.8575 55.0622-15.8428L55.0622 29.2265C55.0622 32.7779 57.9083 35.6489 61.4847 35.6489C65.0981 35.6489 67.9256 32.7965 67.9256 29.2265L67.9256-44.8152C67.9256-45.8733 68.7795-46.6838 69.8375-46.6838C70.8956-46.6838 71.7495-45.8733 71.7495-44.8152L71.7495-20.3466C71.7495-17.0984 74.3543-14.4502 77.646-14.4502C80.9191-14.4502 83.4869-17.0984 83.4869-20.3466L83.4869-47.6736C83.4869-61.8726 72.907-71.3014 57.7971-71.3014L44.5808-71.3014C40.8317-71.3014 38.5551-71.9881 35.5361-74.141L29.0711-78.7933L27.8647-100.607C27.6853-103.881 24.8948-106.492 21.6031-106.25C18.3733-105.99 15.9046-103.28 16.084-100.026ZM53.1069-78.2234C60.9024-78.2234 67.2132-84.5527 67.2132-92.3482C67.2132-100.144 60.9024-106.455 53.1069-106.455C45.3114-106.455 38.9821-100.144 38.9821-92.3482C38.9821-84.5527 45.3114-78.2234 53.1069-78.2234Z"/>
  </g>
  <g id="Medium-L" transform="matrix(1 0 0 1 1697.41 1556)">
   <path d="M16.084-99.4123L17.2454-77.3355C17.4642-73.3349 19.0037-70.9175 21.9275-68.8439L35.5859-58.8595C37.2522-57.6757 38.1121-56.7791 38.1121-54.0048L38.1121 28.4717C38.1121 31.9211 40.8287 34.6852 44.3256 34.6852C47.812 34.6852 50.5615 31.9106 50.5615 28.4717L50.5615-16.0711C50.5615-17.098 51.4751-17.9891 52.5495-17.9891C53.6239-17.9891 54.5374-17.098 54.5374-16.0711L54.5374 28.4717C54.5374 31.9106 57.287 34.6852 60.7509 34.6852C64.2478 34.6852 66.9868 31.9211 66.9868 28.4717L66.9868-44.7549C66.9868-45.8293 67.8529-46.648 68.9273-46.648C70.0017-46.648 70.8678-45.8293 70.8678-44.7549L70.8678-20.5268C70.8678-17.3871 73.3761-14.8313 76.5633-14.8313C79.7279-14.8313 82.2033-17.3871 82.2033-20.5268L82.2033-47.5812C82.2033-61.5555 71.8927-70.8318 57.1074-70.8318L44.1474-70.8318C40.4101-70.8318 38.1214-71.5226 35.1104-73.6715L28.6612-78.3159L27.4669-99.9738C27.2955-103.139 24.6014-105.661 21.4143-105.432C18.297-105.18 15.9126-102.555 16.084-99.4123ZM52.5495-77.8221C60.1923-77.8221 66.3666-84.0189 66.3666-91.6617C66.3666-99.3046 60.1923-105.479 52.5495-105.479C44.9066-105.479 38.7099-99.3046 38.7099-91.6617C38.7099-84.0189 44.9066-77.8221 52.5495-77.8221Z"/>
  </g>
  <g id="Regular-L" transform="matrix(1 0 0 1 1401.54 1556)">
   <path d="M16.084-98.6122L17.235-76.8388C17.4486-72.9058 18.9463-70.6039 21.7861-68.5934L35.2563-58.7396C36.9175-57.5609 37.8825-56.6487 37.8825-53.7008L37.8825 27.4873C37.8825 30.7794 40.4785 33.4281 43.8234 33.4281C47.1682 33.4281 49.7919 30.7794 49.7919 27.4873L49.7919-16.3689C49.7919-17.4118 50.7267-18.3189 51.8224-18.3189C52.9181-18.3189 53.8529-17.4118 53.8529-16.3689L53.8529 27.4873C53.8529 30.7794 56.4766 33.4281 59.7938 33.4281C63.1387 33.4281 65.7623 30.7794 65.7623 27.4873L65.7623-44.6763C65.7623-45.772 66.6444-46.6013 67.74-46.6013C68.8357-46.6013 69.7178-45.772 69.7178-44.6763L69.7178-20.7618C69.7178-17.7637 72.1002-15.3285 75.151-15.3285C78.1742-15.3285 80.529-17.7637 80.529-20.7618L80.529-47.4608C80.529-61.142 70.5697-70.2192 56.2076-70.2192L43.5821-70.2192C39.8602-70.2192 37.5557-70.9153 34.5551-73.059L28.1266-77.6932L26.9479-99.1474C26.7871-102.171 24.2188-104.578 21.1679-104.365C18.1975-104.123 15.9231-101.608 16.084-98.6122ZM51.8224-77.2987C59.2661-77.2987 65.2623-83.3226 65.2623-90.7663C65.2623-98.2101 59.2661-104.206 51.8224-104.206C44.3787-104.206 38.3548-98.2101 38.3548-90.7663C38.3548-83.3226 44.3787-77.2987 51.8224-77.2987Z"/>
  </g>
  <g id="Light-L" transform="matrix(1 0 0 1 1106.01 1556)">
   <path d="M16.084-97.3716L17.1968-76.0563C17.3913-72.2951 18.8127-70.0695 21.6144-68.059L34.7792-58.4533C36.4212-57.2937 37.3863-56.3624 37.3863-53.4336L37.3863 26.3421C37.3863 29.5197 39.8868 32.054 43.0981 32.054C46.3094 32.054 48.8567 29.5197 48.8567 26.3421L48.8567-16.9223C48.8567-17.908 49.7152-18.7197 50.7345-18.7197C51.7539-18.7197 52.6124-17.908 52.6124-16.9223L52.6124 26.3421C52.6124 29.5197 55.1597 32.054 58.3242 32.054C61.5355 32.054 64.0828 29.5197 64.0828 26.3421L64.0828-44.619C64.0828-45.6384 64.9076-46.4295 65.9269-46.4295C66.9463-46.4295 67.7711-45.6384 67.7711-44.619L67.7711-21.2389C67.7711-18.3362 70.0771-15.9965 73.0135-15.9965C75.9031-15.9965 78.1624-18.3362 78.1624-21.2389L78.1624-47.3272C78.1624-60.6267 68.4894-69.4749 54.8717-69.4749L42.8569-69.4749C39.2304-69.4749 36.945-70.1519 33.9825-72.2765L27.6685-76.8343L26.509-97.8878C26.3481-100.777 23.8943-103.07 20.958-102.876C18.102-102.635 15.9231-100.214 16.084-97.3716ZM50.7345-76.6117C57.9874-76.6117 63.7928-82.4637 63.7928-89.7166C63.7928-96.9695 57.9874-102.775 50.7345-102.775C43.4816-102.775 37.6296-96.9695 37.6296-89.7166C37.6296-82.4637 43.4816-76.6117 50.7345-76.6117Z"/>
  </g>
  <g id="Thin-L" transform="matrix(1 0 0 1 810.864 1556)">
   <path d="M16.084-95.7309L17.1463-75.0213C17.3156-71.4874 18.6361-69.3627 21.3872-67.3522L34.1481-58.0747C35.7649-56.9403 36.73-55.9837 36.73-53.0802L36.73 24.8276C36.73 27.8538 39.1043 30.2366 42.1389 30.2366C45.1735 30.2366 47.6199 27.8538 47.6199 24.8276L47.6199-17.6544C47.6199-18.5643 48.3774-19.2498 49.2958-19.2498C50.2141-19.2498 50.9716-18.5643 50.9716-17.6544L50.9716 24.8276C50.9716 27.8538 53.418 30.2366 56.3806 30.2366C59.4152 30.2366 61.8615 27.8538 61.8615 24.8276L61.8615-44.5433C61.8615-45.4617 62.6106-46.2023 63.529-46.2023C64.4473-46.2023 65.1964-45.4617 65.1964-44.5433L65.1964-21.8699C65.1964-19.0935 67.4015-16.88 70.1864-16.88C72.8993-16.88 75.0324-19.0935 75.0324-21.8699L75.0324-47.1505C75.0324-59.9451 65.738-68.4905 53.1047-68.4905L41.8977-68.4905C38.3974-68.4905 36.1372-69.1423 33.2253-71.2416L27.0627-75.6985L25.9284-96.2218C25.7676-98.9348 23.4652-101.076 20.6803-100.907C17.9758-100.666 15.9231-98.3718 16.084-95.7309ZM49.2958-75.7029C56.2962-75.7029 61.8491-81.3278 61.8491-88.3283C61.8491-95.3288 56.2962-100.882 49.2958-100.882C42.2953-100.882 36.6704-95.3288 36.6704-88.3283C36.6704-81.3278 42.2953-75.7029 49.2958-75.7029Z"/>
  </g>
  <g id="Ultralight-L" transform="matrix(1 0 0 1 514.954 1556)">
   <path d="M16.084-94.8905L17.1205-74.4913C17.2768-71.0736 18.5456-69.0007 21.2708-66.9902L33.8249-57.8807C35.4288-56.7593 36.3938-55.7898 36.3938-52.8992L36.3938 24.0519C36.3938 27.0005 38.7036 29.3057 41.6476 29.3057C44.5917 29.3057 46.9864 27.0005 46.9864 24.0519L46.9864-18.0293C46.9864-18.9004 47.6922-19.5213 48.5588-19.5213C49.4255-19.5213 50.1313-18.9004 50.1313-18.0293L50.1313 24.0519C50.1313 27.0005 52.5259 29.3057 55.3851 29.3057C58.3292 29.3057 60.7238 27.0005 60.7238 24.0519L60.7238-44.5045C60.7238-45.3712 61.4341-46.086 62.3007-46.086C63.1674-46.086 63.8777-45.3712 63.8777-44.5045L63.8777-22.1931C63.8777-19.4813 66.0311-17.3325 68.7384-17.3325C71.3608-17.3325 73.4292-19.4813 73.4292-22.1931L73.4292-47.06C73.4292-59.5961 64.3288-67.9862 52.1997-67.9862L41.4064-67.9862C37.9708-67.9862 35.7235-68.6251 32.8374-70.7115L26.7524-75.1167L25.631-95.3686C25.4702-97.991 23.2454-100.055 20.5381-99.8986C17.9112-99.6573 15.9231-97.428 16.084-94.8905ZM48.5588-75.2375C55.43-75.2375 60.8536-80.7461 60.8536-87.6172C60.8536-94.4884 55.43-99.9121 48.5588-99.9121C41.6876-99.9121 36.1791-94.4884 36.1791-87.6172C36.1791-80.7461 41.6876-75.2375 48.5588-75.2375Z"/>
  </g>
  <g id="Black-M" transform="matrix(1 0 0 1 2891.83 1126)">
   <path d="M12.4609-88.2581L13.3961-69.8976C13.5833-66.5411 14.9447-64.1569 17.5879-62.2567L28.9421-53.9978C30.2508-53.0629 30.4275-52.4349 30.4275-51.1L30.4275 18.3166C30.4275 21.6825 33.0611 24.3216 36.4326 24.3216C39.7469 24.3216 42.4374 21.6254 42.4374 18.3166L42.4374-19.1884C42.4374-19.8903 43.0201-20.4733 43.7274-20.4733C44.4347-20.4733 45.0174-19.8903 45.0174-19.1884L45.0174 18.3166C45.0174 21.6254 47.7079 24.3216 51.0225 24.3216C54.394 24.3216 57.0273 21.6825 57.0273 18.3166L57.0273-42.956C57.0273-43.6633 57.6045-44.2351 58.3119-44.2351C59.0192-44.2351 59.5964-43.6633 59.5964-42.956L59.5964-22.907C59.5964-19.8477 62.0999-17.3386 65.1648-17.3386C68.2299-17.3386 70.6766-19.8477 70.6766-22.907L70.6766-45.3143C70.6766-57.3756 61.1506-65.4109 47.978-65.4109L36.5882-65.4109C33.6533-65.4109 31.9604-65.9149 29.5922-67.5974L24.5386-71.2174L23.5467-88.8087C23.365-91.8738 20.731-94.326 17.6662-94.0817C14.6066-93.8377 12.2792-91.3235 12.4609-88.2581ZM43.7274-70.4309C50.5108-70.4309 56.0586-75.9784 56.0586-82.7618C56.0586-89.5453 50.5108-95.093 43.7274-95.093C36.944-95.093 31.3965-89.5453 31.3965-82.7618C31.3965-75.9784 36.944-70.4309 43.7274-70.4309Z"/>
  </g>
  <g id="Heavy-M" transform="matrix(1 0 0 1 2595.94 1126)">
   <path d="M12.4609-87.499L13.391-69.429C13.5756-66.1224 14.8998-63.8697 17.4436-62.0504L28.6222-53.9055C29.9283-52.9732 30.2397-52.3292 30.2397-50.7678L30.2397 17.3008C30.2397 20.4897 32.7393 23.0057 35.9446 23.0057C39.1063 23.0057 41.6518 20.4461 41.6518 17.3008L41.6518-19.4512C41.6518-20.1858 42.2782-20.8099 43.0292-20.8099C43.7802-20.8099 44.4066-20.1858 44.4066-19.4512L44.4066 17.3008C44.4066 20.4461 46.952 23.0057 50.1115 23.0057C53.3168 23.0057 55.8187 20.4897 55.8187 17.3008L55.8187-42.8675C55.8187-43.6185 56.4286-44.2121 57.1796-44.2121C57.9306-44.2121 58.5406-43.6185 58.5406-42.8675L58.5406-23.1057C58.5406-20.2073 60.8991-17.8324 63.8139-17.8324C66.7264-17.8324 69.0391-20.2073 69.0391-23.1057L69.0391-45.1886C69.0391-56.9563 59.9017-64.7857 47.1118-64.7857L36.0195-64.7857C33.0838-64.7857 31.3665-65.3006 29.0035-66.9805L23.9518-70.6038L22.9758-88.0201C22.8076-90.9326 20.3103-93.2617 17.3955-93.0334C14.4995-92.8029 12.2927-90.4092 12.4609-87.499ZM43.0292-69.9077C49.5984-69.9077 54.9589-75.2704 54.9589-81.8397C54.9589-88.4089 49.5984-93.7694 43.0292-93.7694C36.46-93.7694 31.0972-88.4089 31.0972-81.8397C31.0972-75.2704 36.46-69.9077 43.0292-69.9077Z"/>
  </g>
  <g id="Bold-M" transform="matrix(1 0 0 1 2300.14 1126)">
   <path d="M12.4609-86.6499L13.3852-68.9047C13.567-65.654 14.8497-63.5485 17.2822-61.8196L28.2643-53.8023C29.5675-52.8729 30.0297-52.2109 30.0297-50.3961L30.0297 16.1645C30.0297 19.1553 32.3793 21.5336 35.3988 21.5336C38.3898 21.5336 40.7731 19.1268 40.7731 16.1645L40.7731-19.7452C40.7731-20.5164 41.4483-21.1865 42.2482-21.1865C43.048-21.1865 43.7232-20.5164 43.7232-19.7452L43.7232 16.1645C43.7232 19.1268 46.1065 21.5336 49.0923 21.5336C52.1118 21.5336 54.4666 19.1553 54.4666 16.1645L54.4666-42.7685C54.4666-43.5683 55.1132-44.1863 55.9131-44.1863C56.7129-44.1863 57.3595-43.5683 57.3595-42.7685L57.3595-23.3279C57.3595-20.6097 59.5559-18.3847 62.3028-18.3847C65.0445-18.3847 67.2072-20.6097 67.2072-23.3279L67.2072-45.048C67.2072-56.4871 58.5047-64.0863 46.1429-64.0863L35.3832-64.0863C32.4468-64.0863 30.7022-64.6134 28.3449-66.2905L23.2952-69.9173L22.3373-87.1379C22.1841-89.8797 19.8396-92.071 17.0927-91.8607C14.3796-91.6452 12.3078-89.3864 12.4609-86.6499ZM42.2482-69.3224C48.5777-69.3224 53.7287-74.4785 53.7287-80.8081C53.7287-87.1377 48.5777-92.2887 42.2482-92.2887C35.9186-92.2887 30.7624-87.1377 30.7624-80.8081C30.7624-74.4785 35.9186-69.3224 42.2482-69.3224Z"/>
  </g>
  <g id="Semibold-M" transform="matrix(1 0 0 1 2004.06 1126)">
   <path d="M12.4609-86.0645L13.3813-68.5433C13.5611-65.3311 14.8151-63.327 17.1709-61.6604L28.0175-53.7312C29.3188-52.8037 29.8849-52.1294 29.8849-50.1399L29.8849 15.3811C29.8849 18.2354 32.1311 20.5187 35.0225 20.5187C37.8958 20.5187 40.1673 18.2173 40.1673 15.3811L40.1673-19.9479C40.1673-20.7443 40.8762-21.4462 41.7097-21.4462C42.5432-21.4462 43.2521-20.7443 43.2521-19.9479L43.2521 15.3811C43.2521 18.2173 45.5236 20.5187 48.3898 20.5187C51.2812 20.5187 53.5345 18.2354 53.5345 15.3811L53.5345-42.7002C53.5345-43.5337 54.2064-44.1686 55.0399-44.1686C55.8734-44.1686 56.5453-43.5337 56.5453-42.7002L56.5453-23.4811C56.5453-20.8871 58.6299-18.7654 61.261-18.7654C63.885-18.7654 65.9443-20.8871 65.9443-23.4811L65.9443-44.9511C65.9443-56.1637 57.5415-63.6041 45.4749-63.6041L34.9446-63.6041C32.0076-63.6041 30.2442-64.1396 27.8908-65.8147L22.8426-69.4441L21.897-86.5298C21.7543-89.1538 19.5151-91.2502 16.884-91.0522C14.297-90.8471 12.3182-88.6814 12.4609-86.0645ZM41.7097-68.9189C47.8741-68.9189 52.8807-73.9325 52.8807-80.0969C52.8807-86.2613 47.8741-91.2679 41.7097-91.2679C35.5453-91.2679 30.5316-86.2613 30.5316-80.0969C30.5316-73.9325 35.5453-68.9189 41.7097-68.9189Z"/>
  </g>
  <g id="Medium-M" transform="matrix(1 0 0 1 1707.83 1126)">
   <path d="M12.4609-85.6206L13.3783-68.2693C13.5566-65.0863 14.7889-63.1591 17.0866-61.5398L27.8304-53.6772C29.1302-52.7513 29.7751-52.0676 29.7751-49.9456L29.7751 14.7871C29.7751 17.5379 31.943 19.7492 34.7372 19.7492C37.5212 19.7492 39.7079 17.5277 39.7079 14.7871L39.7079-20.1015C39.7079-20.9172 40.4424-21.643 41.3014-21.643C42.1605-21.643 42.8949-20.9172 42.8949-20.1015L42.8949 14.7871C42.8949 17.5277 45.0817 19.7492 47.857 19.7492C50.6513 19.7492 52.8277 17.5379 52.8277 14.7871L52.8277-42.6485C52.8277-43.5075 53.5188-44.1551 54.3778-44.1551C55.2369-44.1551 55.9279-43.5075 55.9279-42.6485L55.9279-23.5973C55.9279-21.0974 57.9277-19.0541 60.4711-19.0541C63.0058-19.0541 64.9868-21.0974 64.9868-23.5973L64.9868-44.8776C64.9868-55.9185 56.8113-63.2385 44.9684-63.2385L34.612-63.2385C31.6746-63.2385 29.897-63.7804 27.5466-65.454L22.4995-69.0853L21.5632-86.0687C21.4283-88.6034 19.2691-90.6278 16.7257-90.4392C14.2344-90.242 12.3261-88.1467 12.4609-85.6206ZM41.3014-68.6129C47.3406-68.6129 52.2376-73.5186 52.2376-79.5577C52.2376-85.5968 47.3406-90.4939 41.3014-90.4939C35.2623-90.4939 30.3566-85.5968 30.3566-79.5577C30.3566-73.5186 35.2623-68.6129 41.3014-68.6129Z"/>
  </g>
  <g id="Regular-M" transform="matrix(1 0 0 1 1411.75 1126)">
   <path d="M12.4609-85.0416L13.3744-67.9118C13.5508-64.767 14.7547-62.94 16.9765-61.3824L27.5864-53.6069C28.8843-52.6829 29.6319-51.9869 29.6319-49.6922L29.6319 14.0123C29.6319 16.6281 31.6975 18.7455 34.3651 18.7455C37.0326 18.7455 39.1088 16.6281 39.1088 14.0123L39.1088-20.302C39.1088-21.1426 39.8765-21.8998 40.7689-21.8998C41.6613-21.8998 42.429-21.1426 42.429-20.302L42.429 14.0123C42.429 16.6281 44.5052 18.7455 47.1622 18.7455C49.8297 18.7455 51.9059 16.6281 51.9059 14.0123L51.9059-42.5809C51.9059-43.4733 52.6219-44.1376 53.5143-44.1376C54.4066-44.1376 55.1226-43.4733 55.1226-42.5809L55.1226-23.7488C55.1226-21.3717 57.0119-19.4307 59.4407-19.4307C61.8591-19.4307 63.7378-21.3717 63.7378-23.7488L63.7378-44.7817C63.7378-55.5986 55.8587-62.7617 44.3077-62.7617L34.1782-62.7617C31.2403-62.7617 29.444-63.3118 27.0975-64.9835L22.0519-68.6173L21.1278-85.4672C21.0032-87.8855 18.9482-89.816 16.5193-89.6396C14.1527-89.4527 12.3363-87.4494 12.4609-85.0416ZM40.7689-68.2138C46.6446-68.2138 51.3989-72.9786 51.3989-78.8544C51.3989-84.7301 46.6446-89.4844 40.7689-89.4844C34.8932-89.4844 30.1284-84.7301 30.1284-78.8544C30.1284-72.9786 34.8932-68.2138 40.7689-68.2138Z"/>
  </g>
  <g id="Light-M" transform="matrix(1 0 0 1 1116.09 1126)">
   <path d="M12.4609-83.9294L13.3402-67.2103C13.4994-64.2194 14.6349-62.4609 16.8225-60.9033L27.1586-53.3502C28.4394-52.4433 29.187-51.7303 29.187-49.4527L29.187 12.9857C29.187 15.4988 31.1671 17.5135 33.7149 17.5135C36.2626 17.5135 38.2703 15.4988 38.2703 12.9857L38.2703-20.7982C38.2703-21.5875 38.9697-22.2591 39.7936-22.2591C40.6175-22.2591 41.3168-21.5875 41.3168-20.7982L41.3168 12.9857C41.3168 15.4988 43.3245 17.5135 45.8446 17.5135C48.3924 17.5135 50.4001 15.4988 50.4001 12.9857L50.4001-42.5296C50.4001-43.3535 51.0648-43.9836 51.8887-43.9836C52.7126-43.9836 53.3773-43.3535 53.3773-42.5296L53.3773-24.1766C53.3773-21.885 55.1981-20.0296 57.5243-20.0296C59.8229-20.0296 61.616-21.885 61.616-24.1766L61.616-44.6619C61.616-55.1366 53.9936-62.0943 43.11-62.0943L33.5279-62.0943C30.6756-62.0943 28.8965-62.6274 26.5842-64.282L21.6412-67.8473L20.7343-84.3379C20.6097-86.6364 18.6573-88.4642 16.3311-88.305C14.0672-88.118 12.3363-86.2003 12.4609-83.9294ZM39.7936-67.5978C45.4982-67.5978 50.0814-72.2086 50.0814-77.9133C50.0814-83.6179 45.4982-88.201 39.7936-88.201C34.0889-88.201 29.4781-83.6179 29.4781-77.9133C29.4781-72.2086 34.0889-67.5978 39.7936-67.5978Z"/>
  </g>
  <g id="Thin-M" transform="matrix(1 0 0 1 820.787 1126)">
   <path d="M12.4609-82.4584L13.2949-66.2824C13.4315-63.4952 14.4765-61.8273 16.6189-60.2696L26.5929-53.0107C27.851-52.1265 28.5986-51.3908 28.5986-49.1358L28.5986 11.6279C28.5986 14.0052 30.4655 15.8841 32.8549 15.8841C35.2443 15.8841 37.1614 14.0052 37.1614 11.6279L37.1614-21.4545C37.1614-22.1759 37.7702-22.7344 38.5036-22.7344C39.237-22.7344 39.8458-22.1759 39.8458-21.4545L39.8458 11.6279C39.8458 14.0052 41.763 15.8841 44.1021 15.8841C46.4914 15.8841 48.4086 14.0052 48.4086 11.6279L48.4086-42.4617C48.4086-43.1951 49.0054-43.7799 49.7388-43.7799C50.4722-43.7799 51.069-43.1951 51.069-42.4617L51.069-24.7424C51.069-22.564 52.7993-20.8217 54.9897-20.8217C57.1298-20.8217 58.8098-22.564 58.8098-24.7424L58.8098-44.5035C58.8098-54.5256 51.5269-61.2117 41.5258-61.2117L32.668-61.2117C29.9288-61.2117 28.1723-61.7222 25.9053-63.3541L21.0981-66.8289L20.2138-82.8443C20.0892-84.9844 18.2726-86.6764 16.0821-86.5398C13.954-86.3529 12.3363-84.5483 12.4609-82.4584ZM38.5036-66.7831C43.982-66.7831 48.3388-71.1903 48.3388-76.6686C48.3388-82.1469 43.982-86.5037 38.5036-86.5037C33.0253-86.5037 28.6182-82.1469 28.6182-76.6686C28.6182-71.1903 33.0253-66.7831 38.5036-66.7831Z"/>
  </g>
  <g id="Ultralight-M" transform="matrix(1 0 0 1 524.794 1126)">
   <path d="M12.4609-81.705L13.2717-65.8072C13.3968-63.1243 14.3953-61.5027 16.5145-59.9451L26.3031-52.8369C27.5496-51.9642 28.2973-51.217 28.2973-48.9736L28.2973 10.9324C28.2973 13.2402 30.1062 15.0495 32.4144 15.0495C34.7226 15.0495 36.5935 13.2402 36.5935 10.9324L36.5935-21.7906C36.5935-22.4772 37.1559-22.9778 37.8429-22.9778C38.53-22.9778 39.0924-22.4772 39.0924-21.7906L39.0924 10.9324C39.0924 13.2402 40.9632 15.0495 43.2096 15.0495C45.5178 15.0495 47.3886 13.2402 47.3886 10.9324L47.3886-42.4269C47.3886-43.114 47.9506-43.6756 48.6376-43.6756C49.3247-43.6756 49.8867-43.114 49.8867-42.4269L49.8867-25.0322C49.8867-22.9117 51.5706-21.2274 53.6915-21.2274C55.7505-21.2274 57.3725-22.9117 57.3725-25.0322L57.3725-44.4224C57.3725-54.2126 50.2634-60.7597 40.7144-60.7597L32.2275-60.7597C29.5463-60.7597 27.8014-61.2585 25.5575-62.8789L20.8199-66.3073L19.9472-82.0792C19.8226-84.1382 18.0755-85.7607 15.9546-85.6357C13.896-85.4487 12.3363-83.7021 12.4609-81.705ZM37.8429-66.3658C43.2053-66.3658 47.4463-70.6686 47.4463-76.0311C47.4463-81.3935 43.2053-85.6344 37.8429-85.6344C32.4805-85.6344 28.1777-81.3935 28.1777-76.0311C28.1777-70.6686 32.4805-66.3658 37.8429-66.3658Z"/>
  </g>
  <g id="Black-S" transform="matrix(1 0 0 1 2900.64 696)">
   <path d="M9.76562-76.9531L10.498-62.5C10.6445-59.8633 11.7188-57.959 13.8184-56.4453L22.7539-49.9512C23.7793-49.2188 23.877-48.7305 23.877-47.7539L23.877 6.98242C23.877 9.66797 25.9766 11.7676 28.6621 11.7676C31.2988 11.7676 33.4473 9.61914 33.4473 6.98242L33.4473-22.6074C33.4473-23.1445 33.8867-23.584 34.4238-23.584C34.9609-23.584 35.4004-23.1445 35.4004-22.6074L35.4004 6.98242C35.4004 9.61914 37.5488 11.7676 40.1855 11.7676C42.8711 11.7676 44.9707 9.66797 44.9707 6.98242L44.9707-41.3086C44.9707-41.8457 45.4102-42.2852 45.9473-42.2852C46.4844-42.2852 46.9238-41.8457 46.9238-41.3086L46.9238-25.5371C46.9238-23.0957 48.9258-21.0938 51.3672-21.0938C53.8086-21.0938 55.7617-23.0957 55.7617-25.5371L55.7617-43.1641C55.7617-52.6855 48.1934-59.0332 37.793-59.0332L28.8086-59.0332C26.5137-59.0332 25.1953-59.4238 23.3398-60.7422L19.3848-63.5742L18.6035-77.3926C18.457-79.834 16.3574-81.7871 13.916-81.5918C11.4746-81.3965 9.61914-79.3945 9.76562-76.9531ZM34.4238-62.9395C39.7949-62.9395 44.1895-67.334 44.1895-72.7051C44.1895-78.0762 39.7949-82.4707 34.4238-82.4707C29.0527-82.4707 24.6582-78.0762 24.6582-72.7051C24.6582-67.334 29.0527-62.9395 34.4238-62.9395Z"/>
  </g>
  <g id="Heavy-S" transform="matrix(1 0 0 1 2604.49 696)">
   <path d="M9.76562-76.446L10.498-62.1888C10.6445-59.5752 11.6957-57.7746 13.7146-56.3301L22.5349-49.9051C23.5603-49.1727 23.7732-48.6728 23.7732-47.5004L23.7732 6.24486C23.7732 8.79211 25.7691 10.7995 28.3279 10.7995C30.8494 10.7995 32.8826 8.75481 32.8826 6.24486L32.8826-22.7688C32.8826-23.3404 33.3681-23.826 33.9513-23.826C34.5345-23.826 35.0201-23.3404 35.0201-22.7688L35.0201 6.24486C35.0201 8.75481 37.0533 10.7995 39.5748 10.7995C42.1335 10.7995 44.1294 8.79211 44.1294 6.24486L44.1294-41.2394C44.1294-41.8227 44.6034-42.2852 45.1867-42.2852C45.7699-42.2852 46.2439-41.8227 46.2439-41.2394L46.2439-25.6524C46.2439-23.3377 48.1306-21.4395 50.4568-21.4395C52.7829-21.4395 54.6323-23.3377 54.6323-25.6524L54.6323-43.0719C54.6323-52.3859 47.3636-58.5837 37.2052-58.5837L28.4052-58.5837C26.0988-58.5837 24.7574-58.9859 22.9019-60.3043L18.9353-63.1478L18.1656-76.8625C18.0306-79.1886 16.0347-81.0495 13.7086-80.8658C11.3939-80.682 9.63067-78.7722 9.76562-76.446ZM33.9513-62.5707C39.1611-62.5707 43.4173-66.8269 43.4173-72.0367C43.4173-77.2464 39.1611-81.5026 33.9513-81.5026C28.7416-81.5026 24.4853-77.2464 24.4853-72.0367C24.4853-66.8269 28.7416-62.5707 33.9513-62.5707Z"/>
  </g>
  <g id="Bold-S" transform="matrix(1 0 0 1 2308.41 696)">
   <path d="M9.76562-75.8789L10.498-61.8408C10.6445-59.2529 11.6699-57.5684 13.5986-56.2012L22.29-49.8535C23.3154-49.1211 23.6572-48.6084 23.6572-47.2168L23.6572 5.41992C23.6572 7.8125 25.5371 9.7168 27.9541 9.7168C30.3467 9.7168 32.251 7.78809 32.251 5.41992L32.251-22.9492C32.251-23.5596 32.7881-24.0967 33.4229-24.0967C34.0576-24.0967 34.5947-23.5596 34.5947-22.9492L34.5947 5.41992C34.5947 7.78809 36.499 9.7168 38.8916 9.7168C41.3086 9.7168 43.1885 7.8125 43.1885 5.41992L43.1885-41.1621C43.1885-41.7969 43.7012-42.2852 44.3359-42.2852C44.9707-42.2852 45.4834-41.7969 45.4834-41.1621L45.4834-25.7812C45.4834-23.6084 47.2412-21.8262 49.4385-21.8262C51.6357-21.8262 53.3691-23.6084 53.3691-25.7812L53.3691-42.9688C53.3691-52.0508 46.4355-58.0811 36.5479-58.0811L27.9541-58.0811C25.6348-58.0811 24.2676-58.4961 22.4121-59.8145L18.4326-62.6709L17.6758-76.2695C17.5537-78.4668 15.6738-80.2246 13.4766-80.0537C11.3037-79.8828 9.64355-78.0762 9.76562-75.8789ZM33.4229-62.1582C38.4521-62.1582 42.5537-66.2598 42.5537-71.2891C42.5537-76.3184 38.4521-80.4199 33.4229-80.4199C28.3936-80.4199 24.292-76.3184 24.292-71.2891C24.292-66.2598 28.3936-62.1582 33.4229-62.1582Z"/>
  </g>
  <g id="Semibold-S" transform="matrix(1 0 0 1 2012.13 696)">
   <path d="M9.76562-75.4879L10.498-61.6009C10.6445-59.0308 11.6521-57.4262 13.5187-56.1123L22.1212-49.818C23.1466-49.0855 23.5772-48.564 23.5772-47.0213L23.5772 4.85117C23.5772 7.13711 25.3771 8.97031 27.6964 8.97031C30.0001 8.97031 31.8155 7.12158 31.8155 4.85117L31.8155-23.0736C31.8155-23.7106 32.3882-24.2833 33.0585-24.2833C33.7288-24.2833 34.3015-23.7106 34.3015-23.0736L34.3015 4.85117C34.3015 7.12158 36.1169 8.97031 38.4206 8.97031C40.7398 8.97031 42.5397 7.13711 42.5397 4.85117L42.5397-41.1088C42.5397-41.7791 43.0791-42.2852 43.7494-42.2852C44.4197-42.2852 44.9591-41.7791 44.9591-41.1088L44.9591-25.8701C44.9591-23.795 46.628-22.0928 48.7364-22.0928C50.8448-22.0928 52.4982-23.795 52.4982-25.8701L52.4982-42.8977C52.4982-51.8197 45.7957-57.7345 36.0946-57.7345L27.6431-57.7345C25.3148-57.7345 23.9299-58.1584 22.0744-59.4768L18.086-62.3421L17.3381-75.8607C17.2249-77.9691 15.425-79.6559 13.3166-79.4938C11.2415-79.3318 9.65244-77.5963 9.76562-75.4879ZM33.0585-61.8738C37.9634-61.8738 41.9583-65.8688 41.9583-70.7736C41.9583-75.6785 37.9634-79.6734 33.0585-79.6734C28.1536-79.6734 24.1587-75.6785 24.1587-70.7736C24.1587-65.8688 28.1536-61.8738 33.0585-61.8738Z"/>
  </g>
  <g id="Medium-S" transform="matrix(1 0 0 1 1715.75 696)">
   <path d="M9.76562-75.1914L10.498-61.4189C10.6445-58.8623 11.6387-57.3184 13.458-56.0449L21.9932-49.791C23.0186-49.0586 23.5166-48.5303 23.5166-46.873L23.5166 4.41992C23.5166 6.625 25.2559 8.4043 27.501 8.4043C29.7373 8.4043 31.4854 6.61621 31.4854 4.41992L31.4854-23.168C31.4854-23.8252 32.085-24.4248 32.7822-24.4248C33.4795-24.4248 34.0791-23.8252 34.0791-23.168L34.0791 4.41992C34.0791 6.61621 35.8271 8.4043 38.0635 8.4043C40.3086 8.4043 42.0479 6.625 42.0479 4.41992L42.0479-41.0684C42.0479-41.7656 42.6074-42.2852 43.3047-42.2852C44.002-42.2852 44.5615-41.7656 44.5615-41.0684L44.5615-25.9375C44.5615-23.9365 46.1631-22.2949 48.2041-22.2949C50.2451-22.2949 51.8379-23.9365 51.8379-25.9375L51.8379-42.8438C51.8379-51.6445 45.3105-57.4717 35.751-57.4717L27.4072-57.4717C25.0723-57.4717 23.6738-57.9023 21.8184-59.2207L17.8232-62.0928L17.082-75.5508C16.9756-77.5918 15.2363-79.2246 13.1953-79.0693C11.1943-78.9141 9.65918-77.2324 9.76562-75.1914ZM32.7822-61.6582C37.5928-61.6582 41.5068-65.5723 41.5068-70.3828C41.5068-75.1934 37.5928-79.1074 32.7822-79.1074C27.9717-79.1074 24.0576-75.1934 24.0576-70.3828C24.0576-65.5723 27.9717-61.6582 32.7822-61.6582Z"/>
  </g>
  <g id="Regular-S" transform="matrix(1 0 0 1 1419.47 696)">
   <path d="M9.76562-74.8047L10.498-61.1816C10.6445-58.6426 11.6211-57.1777 13.3789-55.957L21.8262-49.7559C22.8516-49.0234 23.4375-48.4863 23.4375-46.6797L23.4375 3.85742C23.4375 5.95703 25.0977 7.66602 27.2461 7.66602C29.3945 7.66602 31.0547 5.95703 31.0547 3.85742L31.0547-23.291C31.0547-23.9746 31.6895-24.6094 32.4219-24.6094C33.1543-24.6094 33.7891-23.9746 33.7891-23.291L33.7891 3.85742C33.7891 5.95703 35.4492 7.66602 37.5977 7.66602C39.7461 7.66602 41.4062 5.95703 41.4062 3.85742L41.4062-41.0156C41.4062-41.748 41.9922-42.2852 42.7246-42.2852C43.457-42.2852 44.043-41.748 44.043-41.0156L44.043-26.0254C44.043-24.1211 45.5566-22.5586 47.5098-22.5586C49.4629-22.5586 50.9766-24.1211 50.9766-26.0254L50.9766-42.7734C50.9766-51.416 44.6777-57.1289 35.3027-57.1289L27.0996-57.1289C24.7559-57.1289 23.3398-57.5684 21.4844-58.8867L17.4805-61.7676L16.748-75.1465C16.6504-77.0996 14.9902-78.6621 13.0371-78.5156C11.1328-78.3691 9.66797-76.7578 9.76562-74.8047ZM32.4219-61.377C37.1094-61.377 40.918-65.1855 40.918-69.873C40.918-74.5605 37.1094-78.3691 32.4219-78.3691C27.7344-78.3691 23.9258-74.5605 23.9258-69.873C23.9258-65.1855 27.7344-61.377 32.4219-61.377Z"/>
  </g>
  <g id="Light-S" transform="matrix(1 0 0 1 1123.7 696)">
   <path d="M9.76562-73.8208L10.4678-60.561C10.5991-58.1582 11.5151-56.7539 13.2427-55.5332L21.4478-49.5288C22.458-48.8115 23.0439-48.2593 23.0439-46.4678L23.0439 2.94923C23.0439 4.95802 24.6284 6.57618 26.6709 6.57618C28.7134 6.57618 30.313 4.95802 30.313 2.94923L30.313-23.73C30.313-24.3682 30.8872-24.9272 31.5591-24.9272C32.231-24.9272 32.8052-24.3682 32.8052-23.73L32.8052 2.94923C32.8052 4.95802 34.4048 6.57618 36.4321 6.57618C38.4746 6.57618 40.0742 4.95802 40.0742 2.94923L40.0742-40.9702C40.0742-41.6421 40.6148-42.1489 41.2866-42.1489C41.9585-42.1489 42.499-41.6421 42.499-40.9702L42.499-26.4038C42.499-24.5752 43.9522-23.0884 45.8145-23.0884C47.6616-23.0884 49.0996-24.5752 49.0996-26.4038L49.0996-42.6675C49.0996-51.0073 43.0278-56.5386 34.2432-56.5386L26.5244-56.5386C24.2564-56.5386 22.8555-56.9629 21.0303-58.2661L17.1172-61.0864L16.3999-74.1475C16.3022-75.9946 14.7329-77.4663 12.8706-77.335C11.0571-77.1885 9.66797-75.6528 9.76562-73.8208ZM31.5591-60.832C36.0952-60.832 39.7525-64.5044 39.7525-69.0405C39.7525-73.5767 36.0952-77.2339 31.5591-77.2339C27.023-77.2339 23.3506-73.5767 23.3506-69.0405C23.3506-64.5044 27.023-60.832 31.5591-60.832Z"/>
  </g>
  <g id="Thin-S" transform="matrix(1 0 0 1 828.231 696)">
   <path d="M9.76562-72.5195L10.4277-59.7402C10.5391-57.5176 11.375-56.1934 13.0625-54.9727L20.9473-49.2285C21.9375-48.5313 22.5234-47.959 22.5234-46.1875L22.5234 1.74806C22.5234 3.63674 24.0078 5.13479 25.9102 5.13479C27.8125 5.13479 29.332 3.63674 29.332 1.74806L29.332-24.3105C29.332-24.8887 29.8262-25.3477 30.418-25.3477C31.0098-25.3477 31.5039-24.8887 31.5039-24.3105L31.5039 1.74806C31.5039 3.63674 33.0235 5.13479 34.8906 5.13479C36.793 5.13479 38.3125 3.63674 38.3125 1.74806L38.3125-40.9102C38.3125-41.502 38.793-41.9688 39.3848-41.9688C39.9766-41.9688 40.4571-41.502 40.4571-40.9102L40.4571-26.9043C40.4571-25.1758 41.8301-23.7891 43.5723-23.7891C45.2793-23.7891 46.6172-25.1758 46.6172-26.9043L46.6172-42.5273C46.6172-50.4668 40.8457-55.7578 32.8418-55.7578L25.7637-55.7578C23.5957-55.7578 22.2149-56.1621 20.4297-57.4453L16.6367-60.1856L15.9395-72.8262C15.8418-74.5332 14.3926-75.8848 12.6504-75.7735C10.957-75.627 9.66797-74.1914 9.76562-72.5195ZM30.418-60.1113C34.7539-60.1113 38.211-63.6035 38.211-67.9395C38.211-72.2754 34.7539-75.7324 30.418-75.7324C26.082-75.7324 22.5899-72.2754 22.5899-67.9395C22.5899-63.6035 26.082-60.1113 30.418-60.1113Z"/>
  </g>
  <g id="Ultralight-S" transform="matrix(1 0 0 1 532.155 696)">
   <path d="M9.76562-71.8531L10.4072-59.3198C10.5083-57.1895 11.3032-55.9063 12.9702-54.6856L20.6909-49.0747C21.6709-48.3877 22.2568-47.8052 22.2568-46.044L22.2568 1.13283C22.2568 2.95998 23.69 4.39651 25.5205 4.39651C27.3511 4.39651 28.8296 2.95998 28.8296 1.13283L28.8296-24.6079C28.8296-25.1553 29.2827-25.563 29.8335-25.563C30.3843-25.563 30.8374-25.1553 30.8374-24.6079L30.8374 1.13283C30.8374 2.95998 32.3159 4.39651 34.1011 4.39651C35.9317 4.39651 37.4102 2.95998 37.4102 1.13283L37.4102-40.8794C37.4102-41.4302 37.8599-41.8765 38.4107-41.8765C38.9615-41.8765 39.4112-41.4302 39.4112-40.8794L39.4112-27.1606C39.4112-25.4834 40.7432-24.1479 42.4239-24.1479C44.0591-24.1479 45.3457-25.4834 45.3457-27.1606L45.3457-42.4556C45.3457-50.19 39.7281-55.3579 32.124-55.3579L25.374-55.3579C23.2573-55.3579 21.8867-55.752 20.1221-57.0249L16.3906-59.7241L15.7036-72.1494C15.606-73.7847 14.2183-75.0747 12.5376-74.9737C10.9058-74.8272 9.66797-73.4429 9.76562-71.8531ZM29.8335-59.7422C34.0669-59.7422 37.4214-63.1421 37.4214-67.3755C37.4214-71.6089 34.0669-74.9634 29.8335-74.9634C25.6001-74.9634 22.2002-71.6089 22.2002-67.3755C22.2002-63.1421 25.6001-59.7422 29.8335-59.7422Z"/>
  </g>
 </g>
</svg>
