<?xml version="1.0" encoding="UTF-8"?>
<!--Generator: Apple Native CoreSVG 175.5-->
<!DOCTYPE svg
PUBLIC "-//W3C//DTD SVG 1.1//EN"
       "http://www.w3.org/Graphics/SVG/1.1/DTD/svg11.dtd">
<svg version="1.1" xmlns="http://www.w3.org/2000/svg" xmlns:xlink="http://www.w3.org/1999/xlink" width="3300" height="2200">
 <!--glyph: "uni1015E1.medium", point size: 100.0, font version: "18.0d12e2", template writer version: "101"-->
 <g id="Notes">
  <rect height="2200" id="artboard" style="fill:white;opacity:1" width="3300" x="0" y="0"/>
  <line style="fill:none;stroke:black;opacity:1;stroke-width:0.5;" x1="263" x2="3036" y1="292" y2="292"/>
  <text style="stroke:none;fill:black;font-family:sans-serif;font-size:13;font-weight:bold;" transform="matrix(1 0 0 1 263 322)">Weight/Scale Variations</text>
  <text style="stroke:none;fill:black;font-family:sans-serif;font-size:13;text-anchor:middle;" transform="matrix(1 0 0 1 559.711 322)">Ultralight</text>
  <text style="stroke:none;fill:black;font-family:sans-serif;font-size:13;text-anchor:middle;" transform="matrix(1 0 0 1 856.422 322)">Thin</text>
  <text style="stroke:none;fill:black;font-family:sans-serif;font-size:13;text-anchor:middle;" transform="matrix(1 0 0 1 1153.13 322)">Light</text>
  <text style="stroke:none;fill:black;font-family:sans-serif;font-size:13;text-anchor:middle;" transform="matrix(1 0 0 1 1449.84 322)">Regular</text>
  <text style="stroke:none;fill:black;font-family:sans-serif;font-size:13;text-anchor:middle;" transform="matrix(1 0 0 1 1746.56 322)">Medium</text>
  <text style="stroke:none;fill:black;font-family:sans-serif;font-size:13;text-anchor:middle;" transform="matrix(1 0 0 1 2043.27 322)">Semibold</text>
  <text style="stroke:none;fill:black;font-family:sans-serif;font-size:13;text-anchor:middle;" transform="matrix(1 0 0 1 2339.98 322)">Bold</text>
  <text style="stroke:none;fill:black;font-family:sans-serif;font-size:13;text-anchor:middle;" transform="matrix(1 0 0 1 2636.69 322)">Heavy</text>
  <text style="stroke:none;fill:black;font-family:sans-serif;font-size:13;text-anchor:middle;" transform="matrix(1 0 0 1 2933.4 322)">Black</text>
  <line style="fill:none;stroke:black;opacity:1;stroke-width:0.5;" x1="263" x2="3036" y1="1903" y2="1903"/>
  <g transform="matrix(1 0 0 1 263 1933)">
   <path d="M9.24805 0.830078C13.5547 0.830078 17.1387-2.74414 17.1387-7.05078C17.1387-11.3574 13.5449-14.9316 9.23828-14.9316C4.94141-14.9316 1.36719-11.3574 1.36719-7.05078C1.36719-2.74414 4.95117 0.830078 9.24805 0.830078ZM9.24805-0.654297C5.70312-0.654297 2.87109-3.49609 2.87109-7.05078C2.87109-10.6055 5.69336-13.4473 9.23828-13.4473C12.793-13.4473 15.6445-10.6055 15.6445-7.05078C15.6445-3.49609 12.8027-0.654297 9.24805-0.654297ZM5.6543-7.05078C5.6543-6.62109 5.95703-6.32812 6.40625-6.32812L8.50586-6.32812L8.50586-4.20898C8.50586-3.76953 8.79883-3.4668 9.22852-3.4668C9.67773-3.4668 9.9707-3.76953 9.9707-4.20898L9.9707-6.32812L12.0898-6.32812C12.5293-6.32812 12.832-6.62109 12.832-7.05078C12.832-7.49023 12.5293-7.79297 12.0898-7.79297L9.9707-7.79297L9.9707-9.90234C9.9707-10.3516 9.67773-10.6543 9.22852-10.6543C8.79883-10.6543 8.50586-10.3516 8.50586-9.90234L8.50586-7.79297L6.40625-7.79297C5.95703-7.79297 5.6543-7.49023 5.6543-7.05078Z"/>
  </g>
  <g transform="matrix(1 0 0 1 281.867 1933)">
   <path d="M11.709 2.91016C17.1582 2.91016 21.6699-1.61133 21.6699-7.05078C21.6699-12.5 17.1484-17.0117 11.6992-17.0117C6.25977-17.0117 1.74805-12.5 1.74805-7.05078C1.74805-1.61133 6.26953 2.91016 11.709 2.91016ZM11.709 1.25C7.09961 1.25 3.41797-2.44141 3.41797-7.05078C3.41797-11.6602 7.08984-15.3516 11.6992-15.3516C16.3086-15.3516 20.0098-11.6602 20.0098-7.05078C20.0098-2.44141 16.3184 1.25 11.709 1.25ZM7.17773-7.05078C7.17773-6.57227 7.50977-6.25 8.00781-6.25L10.8789-6.25L10.8789-3.36914C10.8789-2.88086 11.2109-2.53906 11.6895-2.53906C12.1777-2.53906 12.5195-2.87109 12.5195-3.36914L12.5195-6.25L15.4004-6.25C15.8887-6.25 16.2305-6.57227 16.2305-7.05078C16.2305-7.53906 15.8887-7.88086 15.4004-7.88086L12.5195-7.88086L12.5195-10.752C12.5195-11.25 12.1777-11.5918 11.6895-11.5918C11.2109-11.5918 10.8789-11.25 10.8789-10.752L10.8789-7.88086L8.00781-7.88086C7.50977-7.88086 7.17773-7.53906 7.17773-7.05078Z"/>
  </g>
  <g transform="matrix(1 0 0 1 305.646 1933)">
   <path d="M14.9707 5.66406C21.9336 5.66406 27.6953-0.0976562 27.6953-7.05078C27.6953-14.0137 21.9238-19.7754 14.9609-19.7754C8.00781-19.7754 2.25586-14.0137 2.25586-7.05078C2.25586-0.0976562 8.01758 5.66406 14.9707 5.66406ZM14.9707 3.84766C8.93555 3.84766 4.08203-1.01562 4.08203-7.05078C4.08203-13.0957 8.92578-17.9492 14.9609-17.9492C21.0059-17.9492 25.8691-13.0957 25.8691-7.05078C25.8691-1.01562 21.0156 3.84766 14.9707 3.84766ZM9.19922-7.05078C9.19922-6.5332 9.57031-6.17188 10.1172-6.17188L14.0625-6.17188L14.0625-2.2168C14.0625-1.67969 14.4336-1.29883 14.9512-1.29883C15.4883-1.29883 15.8594-1.66992 15.8594-2.2168L15.8594-6.17188L19.8145-6.17188C20.3516-6.17188 20.7324-6.5332 20.7324-7.05078C20.7324-7.59766 20.3613-7.96875 19.8145-7.96875L15.8594-7.96875L15.8594-11.9141C15.8594-12.4609 15.4883-12.8418 14.9512-12.8418C14.4336-12.8418 14.0625-12.4609 14.0625-11.9141L14.0625-7.96875L10.1172-7.96875C9.57031-7.96875 9.19922-7.59766 9.19922-7.05078Z"/>
  </g>
  <text style="stroke:none;fill:black;font-family:sans-serif;font-size:13;font-weight:bold;" transform="matrix(1 0 0 1 263 1953)">Design Variations</text>
  <text style="stroke:none;fill:black;font-family:sans-serif;font-size:13;" transform="matrix(1 0 0 1 263 1971)">Symbols are supported in up to nine weights and three scales.</text>
  <text style="stroke:none;fill:black;font-family:sans-serif;font-size:13;" transform="matrix(1 0 0 1 263 1989)">For optimal layout with text and other symbols, vertically align</text>
  <text style="stroke:none;fill:black;font-family:sans-serif;font-size:13;" transform="matrix(1 0 0 1 263 2007)">symbols with the adjacent text.</text>
  <line style="fill:none;stroke:#00AEEF;stroke-width:0.5;opacity:1.0;" x1="776" x2="776" y1="1919" y2="1933"/>
  <g transform="matrix(1 0 0 1 776 1933)">
   <path d="M3.31055 0.15625C3.82812 0.15625 4.08203-0.0390625 4.26758-0.585938L5.52734-4.0332L11.2891-4.0332L12.5488-0.585938C12.7344-0.0390625 12.9883 0.15625 13.4961 0.15625C14.0137 0.15625 14.3457-0.15625 14.3457-0.644531C14.3457-0.810547 14.3164-0.966797 14.2383-1.17188L9.6582-13.3691C9.43359-13.9648 9.0332-14.2676 8.4082-14.2676C7.80273-14.2676 7.39258-13.9746 7.17773-13.3789L2.59766-1.16211C2.51953-0.957031 2.49023-0.800781 2.49023-0.634766C2.49023-0.146484 2.80273 0.15625 3.31055 0.15625ZM6.00586-5.51758L8.37891-12.0898L8.42773-12.0898L10.8008-5.51758Z"/>
  </g>
  <line style="fill:none;stroke:#00AEEF;stroke-width:0.5;opacity:1.0;" x1="793.197" x2="793.197" y1="1919" y2="1933"/>
  <text style="stroke:none;fill:black;font-family:sans-serif;font-size:13;font-weight:bold;" transform="matrix(1 0 0 1 776 1953)">Margins</text>
  <text style="stroke:none;fill:black;font-family:sans-serif;font-size:13;" transform="matrix(1 0 0 1 776 1971)">Leading and trailing margins on the left and right side of each symbol</text>
  <text style="stroke:none;fill:black;font-family:sans-serif;font-size:13;" transform="matrix(1 0 0 1 776 1989)">can be adjusted by modifying the x-location of the margin guidelines.</text>
  <text style="stroke:none;fill:black;font-family:sans-serif;font-size:13;" transform="matrix(1 0 0 1 776 2007)">Modifications are automatically applied proportionally to all</text>
  <text style="stroke:none;fill:black;font-family:sans-serif;font-size:13;" transform="matrix(1 0 0 1 776 2025)">scales and weights.</text>
  <g transform="matrix(1 0 0 1 1289 1933)">
   <path d="M2.8418 1.86523L4.54102 3.57422C5.40039 4.44336 6.38672 4.38477 7.31445 3.35938L18.0078-8.42773L17.041-9.4043L6.42578 2.27539C6.07422 2.67578 5.74219 2.77344 5.27344 2.30469L4.10156 1.14258C3.63281 0.683594 3.74023 0.341797 4.14062-0.0195312L15.6152-10.8203L14.6387-11.7871L3.04688-0.898438C2.06055 0.0195312 1.98242 0.996094 2.8418 1.86523ZM9.25781-16.3281C8.83789-15.918 8.80859-15.3418 9.04297-14.9512C9.27734-14.5898 9.73633-14.3555 10.3809-14.5215C11.8457-14.8633 13.3691-14.9219 14.7949-13.9844L14.209-12.5293C13.8672-11.6992 14.043-11.1133 14.5801-10.5664L16.875-8.25195C17.3633-7.76367 17.7734-7.74414 18.3398-7.8418L19.4043-8.03711L20.0684-7.36328L20.0293-6.80664C19.9902-6.30859 20.1172-5.92773 20.6055-5.44922L21.3672-4.70703C21.8457-4.22852 22.4609-4.19922 22.9297-4.66797L25.8398-7.58789C26.3086-8.05664 26.2891-8.65234 25.8105-9.13086L25.0391-9.89258C24.5605-10.3711 24.1895-10.5273 23.7109-10.4883L23.1348-10.4395L22.4902-11.0742L22.7344-12.1973C22.8613-12.7637 22.7051-13.2031 22.1191-13.7891L19.9219-15.9766C16.582-19.2969 12.1484-19.2188 9.25781-16.3281ZM10.752-15.957C13.1836-17.7344 16.4746-17.4316 18.7012-15.2051L21.1328-12.793C21.3672-12.5586 21.4062-12.373 21.3379-12.0312L21.0156-10.5469L22.5195-9.0625L23.5059-9.12109C23.7598-9.13086 23.8379-9.11133 24.0332-8.91602L24.6094-8.33984L22.168-5.89844L21.5918-6.47461C21.3965-6.66992 21.3672-6.74805 21.377-7.01172L21.4453-7.98828L19.9512-9.47266L18.4277-9.21875C18.1055-9.15039 17.959-9.17969 17.7148-9.41406L15.7129-11.416C15.459-11.6504 15.4297-11.8164 15.5859-12.1875L16.4648-14.2773C14.9023-15.7324 12.8711-16.3574 10.8398-15.7617C10.6836-15.7227 10.625-15.8496 10.752-15.957Z"/>
  </g>
  <text style="stroke:none;fill:black;font-family:sans-serif;font-size:13;font-weight:bold;" transform="matrix(1 0 0 1 1289 1953)">Exporting</text>
  <text style="stroke:none;fill:black;font-family:sans-serif;font-size:13;" transform="matrix(1 0 0 1 1289 1971)">Symbols should be outlined when exporting to ensure the</text>
  <text style="stroke:none;fill:black;font-family:sans-serif;font-size:13;" transform="matrix(1 0 0 1 1289 1989)">design is preserved when submitting to Xcode.</text>
  <text id="template-version" style="stroke:none;fill:black;font-family:sans-serif;font-size:13;text-anchor:end;" transform="matrix(1 0 0 1 3036 1933)">Template v.4.0</text>
  <text style="stroke:none;fill:black;font-family:sans-serif;font-size:13;text-anchor:end;" transform="matrix(1 0 0 1 3036 1951)">Requires Xcode 14 or greater</text>
  <text id="descriptive-name" style="stroke:none;fill:black;font-family:sans-serif;font-size:13;text-anchor:end;" transform="matrix(1 0 0 1 3036 1969)">Generated from person.bust</text>
  <text style="stroke:none;fill:black;font-family:sans-serif;font-size:13;text-anchor:end;" transform="matrix(1 0 0 1 3036 1987)">Typeset at 100 points</text>
  <text style="stroke:none;fill:black;font-family:sans-serif;font-size:13;" transform="matrix(1 0 0 1 263 726)">Small</text>
  <text style="stroke:none;fill:black;font-family:sans-serif;font-size:13;" transform="matrix(1 0 0 1 263 1156)">Medium</text>
  <text style="stroke:none;fill:black;font-family:sans-serif;font-size:13;" transform="matrix(1 0 0 1 263 1586)">Large</text>
 </g>
 <g id="Guides">
  <g id="H-reference" style="fill:#27AAE1;stroke:none;" transform="matrix(1 0 0 1 339 696)">
   <path d="M0.993654 0L3.63775 0L29.3281-67.1323L30.0303-67.1323L30.0303-70.459L28.1226-70.459ZM11.6885-24.4799L46.9815-24.4799L46.2315-26.7285L12.4385-26.7285ZM55.1196 0L57.7637 0L30.6382-70.459L29.4326-70.459L29.4326-67.1323Z"/>
  </g>
  <line id="Baseline-S" style="fill:none;stroke:#27AAE1;opacity:1;stroke-width:0.5;" x1="263" x2="3036" y1="696" y2="696"/>
  <line id="Capline-S" style="fill:none;stroke:#27AAE1;opacity:1;stroke-width:0.5;" x1="263" x2="3036" y1="625.541" y2="625.541"/>
  <g id="H-reference" style="fill:#27AAE1;stroke:none;" transform="matrix(1 0 0 1 339 1126)">
   <path d="M0.993654 0L3.63775 0L29.3281-67.1323L30.0303-67.1323L30.0303-70.459L28.1226-70.459ZM11.6885-24.4799L46.9815-24.4799L46.2315-26.7285L12.4385-26.7285ZM55.1196 0L57.7637 0L30.6382-70.459L29.4326-70.459L29.4326-67.1323Z"/>
  </g>
  <line id="Baseline-M" style="fill:none;stroke:#27AAE1;opacity:1;stroke-width:0.5;" x1="263" x2="3036" y1="1126" y2="1126"/>
  <line id="Capline-M" style="fill:none;stroke:#27AAE1;opacity:1;stroke-width:0.5;" x1="263" x2="3036" y1="1055.54" y2="1055.54"/>
  <g id="H-reference" style="fill:#27AAE1;stroke:none;" transform="matrix(1 0 0 1 339 1556)">
   <path d="M0.993654 0L3.63775 0L29.3281-67.1323L30.0303-67.1323L30.0303-70.459L28.1226-70.459ZM11.6885-24.4799L46.9815-24.4799L46.2315-26.7285L12.4385-26.7285ZM55.1196 0L57.7637 0L30.6382-70.459L29.4326-70.459L29.4326-67.1323Z"/>
  </g>
  <line id="Baseline-L" style="fill:none;stroke:#27AAE1;opacity:1;stroke-width:0.5;" x1="263" x2="3036" y1="1556" y2="1556"/>
  <line id="Capline-L" style="fill:none;stroke:#27AAE1;opacity:1;stroke-width:0.5;" x1="263" x2="3036" y1="1485.54" y2="1485.54"/>
  <line id="left-margin-Regular-M" style="fill:none;stroke:#00AEEF;stroke-width:0.5;opacity:1.0;" x1="1394.43" x2="1394.43" y1="1030.79" y2="1150.12"/>
  <line id="right-margin-Regular-M" style="fill:none;stroke:#00AEEF;stroke-width:0.5;opacity:1.0;" x1="1505.26" x2="1505.26" y1="1030.79" y2="1150.12"/>
 </g>
 <g id="Symbols">
  <g id="Black-L" transform="matrix(1 0 0 1 2857.76 1556)">
   <path d="M75.659-60.4106C88.1361-60.4094 97.8461-70.9468 97.8461-84.2745C97.8461-97.1405 87.9561-107.772 75.659-107.772C63.3595-107.772 53.3915-97.1197 53.4523-84.2329C53.5131-70.926 63.1819-60.4106 75.659-60.4106ZM75.659-73.6882C70.7217-73.6882 66.9548-77.6376 66.9548-84.2913C66.8964-90.4277 70.8409-94.4947 75.659-94.4947C80.5343-94.4947 84.3644-90.4277 84.3644-84.2745C84.3644-77.6585 80.6547-73.6882 75.659-73.6882ZM43.973-15.37L107.321-15.37C114.127-15.37 118.697-19.0557 118.697-25.9596C118.697-41.1231 100.374-55.7782 75.6566-55.7782C50.9409-55.7782 32.5978-41.1231 32.5978-25.9596C32.5978-19.0557 37.1663-15.37 43.973-15.37ZM48.4338-28.7268C48.0114-28.7268 47.7941-28.9573 47.8357-29.2777C48.2092-33.9969 58.2625-42.4798 75.6566-42.4798C93.0299-42.4798 103.084-33.9969 103.459-29.2777C103.501-28.9573 103.303-28.7268 102.881-28.7268ZM24.9064 36.6709L126.353 36.6709C131.228 36.6709 135.196 32.7036 135.196 27.8485C135.196 22.9738 131.228 19.0261 126.353 19.0261L122.436 19.0261L122.436 9.61289C122.436 0.664295 116.624-5.27218 107.53-5.27218L43.7492-5.27218C34.6341-5.27218 28.8445 0.664295 28.8445 9.61289L28.8445 19.0261L24.9064 19.0261C20.0513 19.0261 16.084 22.9738 16.084 27.8485C16.084 32.7036 20.0513 36.6709 24.9064 36.6709ZM63.8442 22.0592C60.3803 22.0592 57.5537 19.2715 57.5537 15.6687C57.5537 12.1452 60.3803 9.35618 63.8442 9.35618L87.3778 9.35618C90.9597 9.35618 93.6903 12.1452 93.6903 15.6687C93.6903 19.2715 90.9597 22.0592 87.3778 22.0592Z"/>
  </g>
  <g id="Heavy-L" transform="matrix(1 0 0 1 2562.14 1556)">
   <path d="M74.5608-59.5424C86.8934-59.5368 96.4997-69.9887 96.4997-83.2083C96.4997-95.9756 86.7371-106.452 74.5608-106.452C62.3733-106.452 52.5415-95.9454 52.5974-83.1479C52.6532-69.9585 62.2283-59.5424 74.5608-59.5424ZM74.5608-71.6501C69.1155-71.6501 64.9911-76.118 64.9911-83.1926C64.9465-89.8105 69.216-94.3442 74.5608-94.3442C79.9446-94.3442 84.1361-89.8105 84.1361-83.2083C84.1361-76.1482 80.0507-71.6501 74.5608-71.6501ZM42.1714-14.3741L106.903-14.3741C113.347-14.3741 117.54-17.8882 117.54-24.3019C117.54-38.9283 99.7069-54.5289 74.5496-54.5289C49.3979-54.5289 31.54-38.9283 31.54-24.3019C31.54-17.8882 35.7281-14.3741 42.1714-14.3741ZM46.2316-26.5565C45.5455-26.5565 45.2278-26.8416 45.2882-27.3463C45.8259-32.7804 56.3139-42.3911 74.5496-42.3911C92.7551-42.3911 103.249-32.7804 103.792-27.3463C103.852-26.8416 103.559-26.5565 102.873-26.5565ZM23.9417 35.502L125.135 35.502C129.478 35.502 133.023 31.9621 133.023 27.6442C133.023 23.3018 129.478 19.7865 125.135 19.7865L121.236 19.7865L121.236 8.94186C121.236 0.627074 116.074-4.71601 107.548-4.71601L41.5535-4.71601C32.9973-4.71601 27.8711 0.627074 27.8711 8.94186L27.8711 19.7865L23.9417 19.7865C19.6238 19.7865 16.084 23.3018 16.084 27.6442C16.084 31.9621 19.6238 35.502 23.9417 35.502ZM62.5424 21.1303C59.4209 21.1303 56.9147 18.6442 56.9147 15.3977C56.9147 12.226 59.4209 9.73423 62.5424 9.73423L86.5202 9.73423C89.7366 9.73423 92.1837 12.226 92.1837 15.3977C92.1837 18.6442 89.7366 21.1303 86.5202 21.1303Z"/>
  </g>
  <g id="Bold-L" transform="matrix(1 0 0 1 2266.85 1556)">
   <path d="M73.1262-58.4294C85.2596-58.4162 94.7205-68.7457 94.7205-81.8122C94.7205-94.4341 85.1191-104.726 73.1262-104.726C61.1069-104.726 51.4516-94.3962 51.5072-81.7362C51.5629-68.7077 60.9928-58.4294 73.1262-58.4294ZM73.1262-68.9955C67.0136-68.9955 62.4064-74.1237 62.4064-81.7654C62.3772-89.0049 67.0985-94.1597 73.1262-94.1597C79.1699-94.1597 83.8593-89.0049 83.8593-81.8122C83.8593-74.1617 79.268-68.9955 73.1262-68.9955ZM40.0249-13.1743L106.15-13.1743C112.192-13.1743 115.954-16.4511 115.954-22.295C115.954-36.3126 98.6909-52.9173 73.0998-52.9173C47.5219-52.9173 30.2336-36.3126 30.2336-22.295C30.2336-16.4511 33.9827-13.1743 40.0249-13.1743ZM43.5113-23.8076C42.4203-23.8076 41.9797-24.1617 42.0556-24.9342C42.7262-31.334 53.7967-42.3132 73.0998-42.3132C92.3648-42.3132 103.449-31.334 104.132-24.9342C104.208-24.1617 103.792-23.8076 102.701-23.8076ZM22.7208 33.9455L123.502 33.9455C127.169 33.9455 130.177 30.9507 130.177 27.3087C130.177 23.6419 127.169 20.6719 123.502 20.6719L119.626 20.6719L119.626 7.91819C119.626 0.454282 115.234-4.16613 107.504-4.16613L38.744-4.16613C30.9762-4.16613 26.6349 0.454282 26.6349 7.91819L26.6349 20.6719L22.7208 20.6719C19.0788 20.6719 16.084 23.6419 16.084 27.3087C16.084 30.9507 19.0788 33.9455 22.7208 33.9455ZM60.7648 19.8958C58.0585 19.8958 55.9295 17.7712 55.9295 14.9553C55.9295 12.2066 58.0585 10.0688 60.7648 10.0688L85.4672 10.0688C88.2451 10.0688 90.3538 12.2066 90.3538 14.9553C90.3538 17.7712 88.2451 19.8958 85.4672 19.8958Z"/>
  </g>
  <g id="Semibold-L" transform="matrix(1 0 0 1 1971.12 1556)">
   <path d="M72.1372-57.6621C84.1333-57.6437 93.4939-67.8887 93.4939-80.8497C93.4939-93.3715 84.0037-103.536 72.1372-103.536C60.2338-103.536 50.7002-93.3281 50.7557-80.763C50.8112-67.8454 60.1411-57.6621 72.1372-57.6621ZM72.1372-67.1654C65.5646-67.1654 60.6245-72.7488 60.6245-80.7815C60.6059-88.4496 65.6387-94.0325 72.1372-94.0325C78.6359-94.0325 83.6685-88.4496 83.6685-80.8497C83.6685-72.7922 78.7285-67.1654 72.1372-67.1654ZM38.5452-12.3472L105.63-12.3472C111.396-12.3472 114.861-15.4603 114.861-20.9114C114.861-34.5093 97.9904-51.8062 72.1003-51.8062C46.2286-51.8062 29.333-34.5093 29.333-20.9114C29.333-15.4603 32.7794-12.3472 38.5452-12.3472ZM41.6359-21.9124C40.2658-21.9124 39.7404-22.3143 39.8271-23.2713C40.5892-30.3368 52.0615-42.2596 72.1003-42.2596C92.0957-42.2596 103.586-30.3368 104.367-23.2713C104.454-22.3143 103.953-21.9124 102.583-21.9124ZM21.8791 32.8725L122.377 32.8725C125.578 32.8725 128.215 30.2535 128.215 27.0774C128.215 23.8764 125.578 21.2823 122.377 21.2823L118.517 21.2823L118.517 7.21248C118.517 0.335161 114.655-3.78704 107.474-3.78704L36.8071-3.78704C29.5829-3.78704 25.7827 0.335161 25.7827 7.21248L25.7827 21.2823L21.8791 21.2823C18.703 21.2823 16.084 23.8764 16.084 27.0774C16.084 30.2535 18.703 32.8725 21.8791 32.8725ZM59.5394 19.0448C57.1194 19.0448 55.2503 17.1694 55.2503 14.6504C55.2503 12.1933 57.1194 10.2994 59.5394 10.2994L84.7413 10.2994C87.217 10.2994 89.0922 12.1933 89.0922 14.6504C89.0922 17.1694 87.217 19.0448 84.7413 19.0448Z"/>
  </g>
  <g id="Medium-L" transform="matrix(1 0 0 1 1675.15 1556)">
   <path d="M71.3873-57.0803C83.2793-57.0579 92.5638-67.239 92.5638-80.1199C92.5638-92.5658 83.1579-102.634 71.3873-102.634C59.5718-102.634 50.1304-92.5183 50.1858-80.025C50.2413-67.1915 59.4953-57.0803 71.3873-57.0803ZM71.3873-65.7778C64.4659-65.7778 59.2734-71.7063 59.2734-80.0355C59.2628-88.0285 64.5318-93.9361 71.3873-93.9361C78.2309-93.9361 83.5238-88.0285 83.5238-80.1199C83.5238-71.7537 78.3193-65.7778 71.3873-65.7778ZM37.4232-11.7201L105.237-11.7201C110.793-11.7201 114.032-14.709 114.032-19.8623C114.032-33.142 97.4593-50.9638 71.3424-50.9638C45.248-50.9638 28.6501-33.142 28.6501-19.8623C28.6501-14.709 31.8671-11.7201 37.4232-11.7201ZM40.2139-20.4755C38.6322-20.4755 38.0425-20.9134 38.1374-22.0104C38.9689-29.5807 50.7457-42.2189 71.3424-42.2189C91.8917-42.2189 103.691-29.5807 104.545-22.0104C104.64-20.9134 104.075-20.4755 102.493-20.4755ZM21.2409 32.0589L121.523 32.0589C124.371 32.0589 126.728 29.7248 126.728 26.902C126.728 24.0542 124.371 21.7451 121.523 21.7451L117.675 21.7451L117.675 6.67739C117.675 0.244838 114.215-3.4996 107.451-3.4996L35.3385-3.4996C28.5264-3.4996 25.1365 0.244838 25.1365 6.67739L25.1365 21.7451L21.2409 21.7451C18.4181 21.7451 16.084 24.0542 16.084 26.902C16.084 29.7248 18.4181 32.0589 21.2409 32.0589ZM58.6102 18.3995C56.4072 18.3995 54.7353 16.7131 54.7353 14.4191C54.7353 12.1832 56.4072 10.4743 58.6102 10.4743L84.1909 10.4743C86.4373 10.4743 88.1357 12.1832 88.1357 14.4191C88.1357 16.7131 86.4373 18.3995 84.1909 18.3995Z"/>
  </g>
  <g id="Regular-L" transform="matrix(1 0 0 1 1379.41 1556)">
   <path d="M70.4092-56.3215C82.1654-56.2938 91.3507-66.3914 91.3507-79.168C91.3507-91.5148 82.0548-101.457 70.4092-101.457C58.7083-101.457 49.3872-91.462 49.4426-79.0625C49.4979-66.3387 58.653-56.3215 70.4092-56.3215ZM70.4092-63.9678C63.0327-63.9678 57.511-70.3465 57.511-79.0625C57.511-87.4793 63.088-93.8103 70.4092-93.8103C77.7027-93.8103 83.335-87.4793 83.335-79.168C83.335-70.3993 77.7857-63.9678 70.4092-63.9678ZM35.9597-10.9021L104.723-10.9021C110.006-10.9021 112.951-13.7291 112.951-18.4939C112.951-31.3585 96.7665-49.8649 70.3539-49.8649C43.9689-49.8649 27.7594-31.3585 27.7594-18.4939C27.7594-13.7291 30.6771-10.9021 35.9597-10.9021ZM38.3591-18.6012C36.5014-18.6012 35.8279-19.0863 35.9334-20.3657C36.8555-28.5945 49.0295-42.1658 70.3539-42.1658C91.6256-42.1658 103.827-28.5945 104.777-20.3657C104.882-19.0863 104.234-18.6012 102.376-18.6012ZM20.4084 30.9977L120.41 30.9977C122.797 30.9977 124.787 29.0352 124.787 26.6732C124.787 24.2862 122.797 22.3488 120.41 22.3488L116.577 22.3488L116.577 5.97943C116.577 0.127025 113.642-3.12468 107.421-3.12468L33.4229-3.12468C27.1484-3.12468 24.2937 0.127025 24.2937 5.97943L24.2937 22.3488L20.4084 22.3488C18.0464 22.3488 16.084 24.2862 16.084 26.6732C16.084 29.0352 18.0464 30.9977 20.4084 30.9977ZM57.3982 17.5577C55.4784 17.5577 54.0636 16.1178 54.0636 14.1175C54.0636 12.17 55.4784 10.7024 57.3982 10.7024L83.4729 10.7024C85.4205 10.7024 86.888 12.17 86.888 14.1175C86.888 16.1178 85.4205 17.5577 83.4729 17.5577Z"/>
  </g>
  <g id="Light-L" transform="matrix(1 0 0 1 1084.18 1556)">
   <path d="M68.9396-55.31C80.4287-55.2632 89.404-65.17 89.404-77.7175C89.404-89.8162 80.2417-99.6817 68.9396-99.6817C57.5441-99.6817 48.3948-89.7825 48.4883-77.6502C48.5818-65.1363 57.4506-55.31 68.9396-55.31ZM68.9396-61.2959C60.857-61.2959 54.7437-68.2471 54.7437-77.6502C54.7437-86.6586 60.9505-93.6958 68.9396-93.6958C76.882-93.6958 83.1824-86.6586 83.1824-77.7175C83.1824-68.2808 77.0223-61.2959 68.9396-61.2959ZM35.0245-10.2913L102.681-10.2913C108.002-10.2913 110.871-12.7939 110.871-17.406C110.871-30.2134 94.8389-48.3381 68.8462-48.3381C42.9001-48.3381 26.8815-30.2134 26.8815-17.406C26.8815-12.7939 29.7037-10.2913 35.0245-10.2913ZM36.5269-16.311C33.8867-16.311 33.1368-16.8533 33.2042-18.5717C33.7636-27.9837 46.6247-42.3185 68.8462-42.3185C91.0339-42.3185 103.942-27.9837 104.548-18.5717C104.615-16.8533 103.852-16.311 101.212-16.311ZM19.3969 29.2227L118.482 29.2227C120.297 29.2227 121.829 27.7374 121.829 25.9098C121.829 24.0953 120.297 22.5969 118.482 22.5969L114.669 22.5969L114.669 4.03274C114.669-0.808153 112.039-3.63999 106.963-3.63999L30.9036-3.63999C25.7933-3.63999 23.244-0.808153 23.244 4.03274L23.244 22.5969L19.3969 22.5969C17.5693 22.5969 16.084 24.0953 16.084 25.9098C16.084 27.7374 17.5693 29.2227 19.3969 29.2227ZM55.108 16.1645C53.4172 16.1645 52.1359 14.8964 52.1359 13.1251C52.1359 11.3875 53.4172 10.0726 55.108 10.0726L82.8049 10.0726C84.5425 10.0726 85.8574 11.3875 85.8574 13.1251C85.8574 14.8964 84.5425 16.1645 82.8049 16.1645Z"/>
  </g>
  <g id="Thin-L" transform="matrix(1 0 0 1 789.422 1556)">
   <path d="M66.996-53.9721C78.1317-53.9002 86.8294-63.5545 86.8294-75.7991C86.8294-87.5697 77.8437-97.3342 66.996-97.3342C56.0044-97.3342 47.0822-87.5613 47.2262-75.7823C47.3702-63.5461 55.8604-53.9721 66.996-53.9721ZM66.996-57.762C57.9794-57.762 51.0836-65.4705 51.0836-75.7823C51.0836-85.5732 58.1234-93.5443 66.996-93.5443C75.7966-93.5443 82.9804-85.5732 82.9804-75.7991C82.9804-65.479 76.0126-57.762 66.996-57.762ZM33.7876-9.4836L99.98-9.4836C105.351-9.4836 108.119-11.5571 108.119-15.9673C108.119-28.6989 92.2895-46.3188 66.8521-46.3188C41.4866-46.3188 25.7203-28.6989 25.7203-15.9673C25.7203-11.5571 28.4164-9.4836 33.7876-9.4836ZM34.1037-13.2819C30.4286-13.2819 29.5777-13.9 29.5946-16.199C29.6745-27.176 43.4443-42.5204 66.8521-42.5204C90.2514-42.5204 104.093-27.176 104.245-16.199C104.262-13.9 103.347-13.2819 99.6724-13.2819ZM18.0591 26.8753L115.933 26.8753C116.99 26.8753 117.916 26.021 117.916 24.9002C117.916 23.8429 116.99 22.9251 115.933 22.9251L112.145 22.9251L112.145 1.45807C112.145-2.045 109.919-4.32152 106.357-4.32152L27.5717-4.32152C24.0012-4.32152 21.8557-2.045 21.8557 1.45807L21.8557 22.9251L18.0591 22.9251C16.9382 22.9251 16.084 23.8429 16.084 24.9002C16.084 26.021 16.9382 26.8753 18.0591 26.8753ZM52.079 14.3219C50.691 14.3219 49.5865 13.2809 49.5865 11.8125C49.5865 10.3526 50.691 9.23965 52.079 9.23965L81.9215 9.23965C83.3814 9.23965 84.4944 10.3526 84.4944 11.8125C84.4944 13.2809 83.3814 14.3219 81.9215 14.3219Z"/>
  </g>
  <g id="Ultralight-L" transform="matrix(1 0 0 1 493.713 1556)">
   <path d="M66.0005-53.2869C76.9551-53.202 85.5107-62.7271 85.5107-74.8165C85.5107-86.419 76.6155-96.1319 66.0005-96.1319C55.2157-96.1319 46.4099-86.4235 46.5798-74.8255C46.7496-62.7315 55.0459-53.2869 66.0005-53.2869ZM66.0005-55.952C56.5056-55.952 49.2089-64.0484 49.2089-74.8255C49.2089-85.0173 56.6754-93.4668 66.0005-93.4668C75.2407-93.4668 82.877-85.0173 82.877-74.8165C82.877-64.0439 75.4954-55.952 66.0005-55.952ZM33.1541-9.06988L98.5966-9.06988C103.994-9.06988 106.71-10.9236 106.71-15.2303C106.71-27.9232 90.9837-45.2845 65.8307-45.2845C40.7626-45.2845 25.1256-27.9232 25.1256-15.2303C25.1256-10.9236 27.757-9.06988 33.1541-9.06988ZM32.8626-11.7305C28.6574-11.7305 27.7548-12.3873 27.7458-14.9837C27.58-26.7623 41.8152-42.6239 65.8307-42.6239C89.8506-42.6239 104.171-26.7623 104.09-14.9837C104.081-12.3873 103.089-11.7305 98.8837-11.7305ZM17.3739 25.6729L114.627 25.6729C115.297 25.6729 115.913 25.1418 115.913 24.383C115.913 23.7136 115.297 23.0931 114.627 23.0931L110.852 23.0931L110.852 0.13934C110.852-2.67851 108.833-4.67059 106.046-4.67059L25.8651-4.67059C23.0832-4.67059 21.1446-2.67851 21.1446 0.13934L21.1446 23.0931L17.3739 23.0931C16.615 23.0931 16.084 23.7136 16.084 24.383C16.084 25.1418 16.615 25.6729 17.3739 25.6729ZM50.5275 13.3781C49.2947 13.3781 48.2807 12.4535 48.2807 11.1402C48.2807 9.82252 49.2947 8.813 50.5275 8.813L81.469 8.813C82.7867 8.813 83.7962 9.82252 83.7962 11.1402C83.7962 12.4535 82.7867 13.3781 81.469 13.3781Z"/>
  </g>
  <g id="Black-M" transform="matrix(1 0 0 1 2874.06 1126)">
   <path d="M59.3609-55.3474C69.1155-55.3477 76.6989-63.5591 76.6989-73.9465C76.6989-83.9657 68.9453-92.3258 59.3609-92.3258C49.7771-92.3258 41.9606-83.9602 42.0171-73.9356C42.0737-63.5536 49.6064-55.3474 59.3609-55.3474ZM59.3609-66.4146C55.8767-66.4146 53.1854-69.1064 53.1854-73.9927C53.1283-78.4131 55.9904-81.2586 59.3609-81.2586C62.7889-81.2586 65.5362-78.4131 65.5362-73.9465C65.5362-69.1119 62.9022-66.4146 59.3609-66.4146ZM35.4893-20.6167L83.2279-20.6167C88.8187-20.6167 92.6719-23.5757 92.6719-29.325C92.6719-41.5266 78.0753-52.0162 59.3615-52.0162C40.6474-52.0162 26.045-41.5266 26.045-29.325C26.045-23.5757 29.8985-20.6167 35.4893-20.6167ZM39.168-31.7465C38.9614-31.7465 38.869-31.8859 38.88-32.0352C38.9791-35.2373 46.4874-40.9435 59.3615-40.9435C72.2301-40.9435 79.7381-35.2373 79.8369-32.0352C79.8479-31.8859 79.7613-31.7465 79.5547-31.7465ZM19.988 21.2388L98.6768 21.2388C102.833 21.2388 106.209 17.8624 106.209 13.7117C106.209 9.55527 102.833 6.1847 98.6768 6.1847L95.6288 6.1847L95.6288-0.175262C95.6288-7.51579 90.6094-12.5681 83.2304-12.5681L35.4401-12.5681C28.0556-12.5681 23.0415-7.51579 23.0415-0.175262L23.0415 6.1847L19.988 6.1847C15.8373 6.1847 12.4609 9.55527 12.4609 13.7117C12.4609 17.8624 15.8373 21.2388 19.988 21.2388ZM50.2714 9.76406C47.3245 9.76406 44.8774 7.36828 44.8774 4.30193C44.8774 1.29816 47.3245-1.09733 50.2714-1.09733L68.3417-1.09733C71.4026-1.09733 73.741 1.29816 73.741 4.30193C73.741 7.36828 71.4026 9.76406 68.3417 9.76406Z"/>
  </g>
  <g id="Heavy-M" transform="matrix(1 0 0 1 2578.28 1126)">
   <path d="M58.4229-54.592C68.0608-54.5898 75.5623-62.7352 75.5623-73.0381C75.5623-82.9835 67.9209-91.1987 58.4229-91.1987C48.9204-91.1987 41.2213-82.9671 41.2695-73.0052C41.3176-62.7188 48.785-54.592 58.4229-54.592ZM58.4229-64.6687C54.5073-64.6687 51.5211-67.8146 51.5211-73.0489C51.4774-77.8855 54.5991-81.122 58.4229-81.122C62.2882-81.122 65.3271-77.8855 65.3271-73.0381C65.3271-67.831 62.3822-64.6687 58.4229-64.6687ZM33.8144-19.6995L83.0082-19.6995C88.2403-19.6995 91.733-22.5206 91.733-27.8049C91.733-39.4867 77.6015-50.9358 58.4184-50.9358C39.2376-50.9358 25.0919-39.4867 25.0919-27.8049C25.0919-22.5206 28.5823-19.6995 33.8144-19.6995ZM37.1843-29.8362C36.7921-29.8362 36.6086-30.0237 36.6414-30.3127C36.9345-34.1044 44.8042-40.8427 58.4184-40.8427C72.0161-40.8427 79.8882-34.1044 80.1835-30.3127C80.2164-30.0237 80.047-29.8362 79.6548-29.8362ZM19.1383 20.2599L97.6639 20.2599C101.353 20.2599 104.358 17.2574 104.358 13.5825C104.358 9.89352 101.353 6.90515 97.6639 6.90515L94.632 6.90515L94.632-0.651656C94.632-7.4659 90.2194-11.9769 83.2903-11.9769L33.526-11.9769C26.5805-11.9769 22.1867-7.4659 22.1867-0.651656L22.1867 6.90515L19.1383 6.90515C15.4634 6.90515 12.4609 9.89352 12.4609 13.5825C12.4609 17.2574 15.4634 20.2599 19.1383 20.2599ZM49.21 8.98452C46.5767 8.98452 44.4305 6.86777 44.4305 4.12855C44.4305 1.44935 46.5767-0.669668 49.21-0.669668L67.565-0.669668C70.2879-0.669668 72.3633 1.44935 72.3633 4.12855C72.3633 6.86777 70.2879 8.98452 67.565 8.98452Z"/>
  </g>
  <g id="Bold-M" transform="matrix(1 0 0 1 2282.6 1126)">
   <path d="M57.3737-53.7471C66.8811-53.7419 74.2908-61.8135 74.2908-72.0218C74.2908-81.8848 66.7749-89.9379 57.3737-89.9379C47.9622-89.9379 40.3943-81.8562 40.4331-71.9646C40.4719-61.7849 47.8662-53.7471 57.3737-53.7471ZM57.3737-62.7157C52.9753-62.7157 49.6593-66.3694 49.6593-71.9931C49.6307-77.2952 53.0427-80.9692 57.3737-80.9692C61.728-80.9692 65.0932-77.2952 65.0932-72.0218C65.0932-66.3981 61.8005-62.7157 57.3737-62.7157ZM31.9408-18.6734L82.7624-18.6734C87.5933-18.6734 90.6826-21.3404 90.6826-26.1043C90.6826-37.2048 77.0714-49.7272 57.3634-49.7272C37.6605-49.7272 24.0258-37.2048 24.0258-26.1043C24.0258-21.3404 27.11-18.6734 31.9408-18.6734ZM34.9652-27.6992C34.3653-27.6992 34.0799-27.9405 34.1372-28.3857C34.6472-32.8372 42.9214-40.7299 57.3634-40.7299C71.7767-40.7299 80.0561-32.8372 80.5713-28.3857C80.6285-27.9405 80.3666-27.6992 79.7667-27.6992ZM18.1878 19.1649L96.5309 19.1649C99.697 19.1649 102.286 16.5805 102.286 13.438C102.286 10.2719 99.697 7.71108 96.5309 7.71108L93.5169 7.71108L93.5169-1.18457C93.5169-7.41009 89.7832-11.3155 83.3574-11.3155L31.3849-11.3155C24.9304-11.3155 21.2305-7.41009 21.2305-1.18457L21.2305 7.71108L18.1878 7.71108C15.0453 7.71108 12.4609 10.2719 12.4609 13.438C12.4609 16.5805 15.0453 19.1649 18.1878 19.1649ZM48.0227 8.11249C45.7402 8.11249 43.9306 6.30788 43.9306 3.9346C43.9306 1.61848 45.7402-0.191264 48.0227-0.191264L66.6962-0.191264C69.0409-0.191264 70.822 1.61848 70.822 3.9346C70.822 6.30788 69.0409 8.11249 66.6962 8.11249Z"/>
  </g>
  <g id="Semibold-M" transform="matrix(1 0 0 1 1986.61 1126)">
   <path d="M56.6503-53.1646C66.0678-53.1574 73.4142-61.1782 73.4142-71.3212C73.4142-81.1274 65.9849-89.0687 56.6503-89.0687C47.3015-89.0687 39.8241-81.0904 39.8565-71.2471C39.8888-61.1411 47.2328-53.1646 56.6503-53.1646ZM56.6503-61.3694C51.9192-61.3694 48.3758-65.3732 48.3758-71.2653C48.3576-76.8883 51.9698-80.8638 56.6503-80.8638C61.3419-80.8638 64.9319-76.8883 64.9319-71.3212C64.9319-65.4102 61.3995-61.3694 56.6503-61.3694ZM30.6492-17.966L82.593-17.966C87.1473-17.966 89.9585-20.5268 89.9585-24.932C89.9585-35.6317 76.706-48.894 56.6361-48.894C36.5733-48.894 23.2908-35.6317 23.2908-24.932C23.2908-20.5268 26.095-17.966 30.6492-17.966ZM33.4354-26.226C32.6923-26.226 32.3367-26.5044 32.4108-27.0573C33.0704-31.9635 41.6235-40.6522 56.6361-40.6522C71.6117-40.6522 80.1718-31.9635 80.8386-27.0573C80.9127-26.5044 80.587-26.226 79.8438-26.226ZM17.5326 18.4099L95.7499 18.4099C98.5554 18.4099 100.859 16.1139 100.859 13.3383C100.859 10.5328 98.5554 8.26668 95.7499 8.26668L92.7482 8.26668L92.7482-1.55196C92.7482-7.37162 89.4825-10.8596 83.4036-10.8596L29.9088-10.8596C23.7928-10.8596 20.5713-7.37162 20.5713-1.55196L20.5713 8.26668L17.5326 8.26668C14.757 8.26668 12.4609 10.5328 12.4609 13.3383C12.4609 16.1139 14.757 18.4099 17.5326 18.4099ZM47.2041 7.51132C45.1636 7.51132 43.5859 5.9219 43.5859 3.80089C43.5859 1.73507 45.1636 0.138545 47.2041 0.138545L66.0972 0.138545C68.1812 0.138545 69.7595 1.73507 69.7595 3.80089C69.7595 5.9219 68.1812 7.51132 66.0972 7.51132Z"/>
  </g>
  <g id="Medium-M" transform="matrix(1 0 0 1 1690.44 1126)">
   <path d="M56.1018-52.7229C65.4511-52.7143 72.7495-60.6964 72.7495-70.79C72.7495-80.5531 65.3858-88.4096 56.1018-88.4096C46.8006-88.4096 39.3918-80.5097 39.4193-70.7031C39.4468-60.653 46.7526-52.7229 56.1018-52.7229ZM56.1018-60.3485C51.1184-60.3485 47.4026-64.6178 47.4026-70.7134C47.3923-76.5797 51.1562-80.784 56.1018-80.784C61.0491-80.784 64.8096-76.5797 64.8096-70.79C64.8096-64.6612 61.0955-60.3485 56.1018-60.3485ZM29.6698-17.4296L82.4646-17.4296C86.8091-17.4296 89.4095-19.9099 89.4095-24.0431C89.4095-34.4389 76.4289-48.2623 56.0846-48.2623C35.7489-48.2623 22.7335-34.4389 22.7335-24.0431C22.7335-19.9099 25.3253-17.4296 29.6698-17.4296ZM32.2755-25.109C31.4238-25.109 31.0149-25.4155 31.1017-26.0501C31.8748-31.3011 40.6393-40.5932 56.0846-40.5932C71.4865-40.5932 80.2596-31.3011 81.0413-26.0501C81.1281-25.4155 80.7541-25.109 79.9023-25.109ZM17.0357 17.8375L95.1576 17.8375C97.6898 17.8375 99.7758 15.7601 99.7758 13.2627C99.7758 10.7305 97.6898 8.68796 95.1576 8.68796L92.1653 8.68796L92.1653-1.83053C92.1653-7.34245 89.2545-10.5138 83.4386-10.5138L28.7896-10.5138C22.9303-10.5138 20.0715-7.34245 20.0715-1.83053L20.0715 8.68796L17.0357 8.68796C14.5383 8.68796 12.4609 10.7305 12.4609 13.2627C12.4609 15.7601 14.5383 17.8375 17.0357 17.8375ZM46.5835 7.05549C44.7263 7.05549 43.3246 5.62923 43.3246 3.6995C43.3246 1.82348 44.7263 0.38862 46.5835 0.38862L65.643 0.38862C67.5293 0.38862 68.9539 1.82348 68.9539 3.6995C68.9539 5.62923 67.5293 7.05549 65.643 7.05549Z"/>
  </g>
  <g id="Regular-M" transform="matrix(1 0 0 1 1394.43 1126)">
   <path d="M55.3864-52.1468C64.6467-52.1362 71.8826-60.068 71.8826-70.097C71.8826-79.804 64.6045-87.5499 55.3864-87.5499C46.1472-87.5499 38.8279-79.7523 38.849-69.9935C38.8701-60.0162 46.1261-52.1468 55.3864-52.1468ZM55.3864-59.0169C50.0739-59.0169 46.1332-63.6325 46.1332-69.9935C46.1332-76.1773 50.095-80.6798 55.3864-80.6798C60.6672-80.6798 64.6502-76.1773 64.6502-70.097C64.6502-63.6842 60.6989-59.0169 55.3864-59.0169ZM28.3924-16.73L82.297-16.73C86.3679-16.73 88.6933-19.1052 88.6933-22.8836C88.6933-32.8831 76.0675-47.4382 55.3653-47.4382C34.6736-47.4382 22.0066-32.8831 22.0066-22.8836C22.0066-19.1052 24.3215-16.73 28.3924-16.73ZM30.7625-23.6519C29.7692-23.6519 29.2908-23.9951 29.3943-24.7362C30.3153-30.4371 39.3555-40.5163 55.3653-40.5163C71.3233-40.5163 80.374-30.4371 81.3056-24.7362C81.4091-23.9951 80.972-23.6519 79.9787-23.6519ZM16.3877 17.0909L94.3851 17.0909C96.5608 17.0909 98.3636 15.2986 98.3636 13.1642C98.3636 10.9885 96.5608 9.23746 94.3851 9.23746L91.4051 9.23746L91.4051-2.19388C91.4051-7.3044 88.9571-10.0629 83.4843-10.0629L27.3297-10.0629C21.8052-10.0629 19.4195-7.3044 19.4195-2.19388L19.4195 9.23746L16.3877 9.23746C14.2532 9.23746 12.4609 10.9885 12.4609 13.1642C12.4609 15.2986 14.2532 17.0909 16.3877 17.0909ZM45.7739 6.46093C44.156 6.46093 42.9838 5.24749 42.9838 3.56726C42.9838 1.93879 44.156 0.714804 45.7739 0.714804L65.0506 0.714804C66.6791 0.714804 67.9031 1.93879 67.9031 3.56726C67.9031 5.24749 66.6791 6.46093 65.0506 6.46093Z"/>
  </g>
  <g id="Light-M" transform="matrix(1 0 0 1 1099.05 1126)">
   <path d="M54.0689-51.2399C63.0896-51.2122 70.1373-58.9729 70.1373-68.7966C70.1373-78.2812 62.9789-85.9586 54.0689-85.9586C45.1034-85.9586 37.9381-78.2465 37.9935-68.7273C38.0488-58.9383 45.0481-51.2399 54.0689-51.2399ZM54.0689-56.6214C48.1233-56.6214 43.6521-61.7502 43.6521-68.7273C43.6521-75.4415 48.1786-80.5771 54.0689-80.5771C59.9314-80.5771 64.5133-75.4415 64.5133-68.7966C64.5133-61.7849 60.0144-56.6214 54.0689-56.6214ZM27.5539-16.1825L80.4661-16.1825C84.5713-16.1825 86.8282-18.2667 86.8282-21.9083C86.8282-31.8564 74.3393-46.0694 54.0135-46.0694C33.7154-46.0694 21.2195-31.8564 21.2195-21.9083C21.2195-18.2667 23.4488-16.1825 27.5539-16.1825ZM29.1198-21.5986C27.425-21.5986 26.8782-21.9931 26.9475-23.1278C27.5434-29.8895 37.1996-40.6532 54.0135-40.6532C70.7929-40.6532 80.4767-29.8895 81.1003-23.1278C81.1696-21.9931 80.6298-21.5986 78.9349-21.5986ZM15.4808 15.4996L92.6569 15.4996C94.3192 15.4996 95.7114 14.1351 95.7114 12.4798C95.7114 10.8174 94.3192 9.4599 92.6569 9.4599L89.694 9.4599L89.694-3.9392C89.694-8.14284 87.5198-10.5249 83.0736-10.5249L25.0711-10.5249C20.5903-10.5249 18.4784-8.14284 18.4784-3.9392L18.4784 9.4599L15.4808 9.4599C13.8254 9.4599 12.4609 10.8174 12.4609 12.4798C12.4609 14.1351 13.8254 15.4996 15.4808 15.4996ZM43.7206 5.21183C42.308 5.21183 41.2556 4.15239 41.2556 2.6775C41.2556 1.23725 42.308 0.150143 43.7206 0.150143L64.4518 0.150143C65.892 0.150143 66.9791 1.23725 66.9791 2.6775C66.9791 4.15239 65.892 5.21183 64.4518 5.21183Z"/>
  </g>
  <g id="Thin-M" transform="matrix(1 0 0 1 804.09 1126)">
   <path d="M52.3263-50.0405C61.0302-49.9902 67.8289-57.5245 67.8289-67.0767C67.8289-76.267 60.829-83.8539 52.3263-83.8539C43.723-83.8539 36.7613-76.255 36.8619-67.0527C36.9625-57.5125 43.6224-50.0405 52.3263-50.0405ZM52.3263-53.4531C45.5434-53.4531 40.3707-59.2609 40.3707-67.0527C40.3707-74.4684 45.644-80.4413 52.3263-80.4413C58.9583-80.4413 64.3322-74.4684 64.3322-67.0767C64.3322-59.2729 59.1092-53.4531 52.3263-53.4531ZM26.445-15.4583L78.0447-15.4583C82.1951-15.4583 84.3615-17.1578 84.3615-20.6184C84.3615-30.4986 72.0537-44.2589 52.2257-44.2589C32.4481-44.2589 20.1785-30.4986 20.1785-20.6184C20.1785-17.1578 22.2946-15.4583 26.445-15.4583ZM26.9473-18.883C24.3246-18.883 23.6873-19.3454 23.7113-21.0005C23.8772-29.1653 34.3481-40.8343 52.2257-40.8343C70.0913-40.8343 80.6125-29.1653 80.8287-21.0005C80.8527-19.3454 80.1772-18.883 77.5544-18.883ZM14.2814 13.395L90.3712 13.395C91.3546 13.395 92.2037 12.5962 92.2037 11.5745C92.2037 10.5911 91.3546 9.7541 90.3712 9.7541L87.4309 9.7541L87.4309-6.24752C87.4309-9.25174 85.6188-11.1359 82.5305-11.1359L22.0838-11.1359C18.9835-11.1359 17.2337-9.25174 17.2337-6.24752L17.2337 9.7541L14.2814 9.7541C13.2597 9.7541 12.4609 10.5911 12.4609 11.5745C12.4609 12.5962 13.2597 13.395 14.2814 13.395ZM41.0049 3.55979C39.8639 3.55979 38.9699 2.70403 38.9699 1.5007C38.9699 0.309391 39.8639-0.596667 41.0049-0.596667L63.6597-0.596667C64.851-0.596667 65.7571 0.309391 65.7571 1.5007C65.7571 2.70403 64.851 3.55979 63.6597 3.55979Z"/>
  </g>
  <g id="Ultralight-M" transform="matrix(1 0 0 1 508.277 1126)">
   <path d="M51.4338-49.4261C59.9754-49.3642 66.6466-56.7827 66.6466-66.1958C66.6466-75.2354 59.7279-82.776 51.4338-82.776C43.0159-82.776 36.1586-75.235 36.2824-66.1949C36.4061-56.7823 42.8921-49.4261 51.4338-49.4261ZM51.4338-51.8303C44.222-51.8303 38.6899-57.9858 38.6899-66.1949C38.6899-73.97 44.3458-80.3718 51.4338-80.3718C58.4599-80.3718 64.2395-73.97 64.2395-66.1958C64.2395-57.9863 58.6455-51.8303 51.4338-51.8303ZM25.8771-15.0874L76.8044-15.0874C80.978-15.0874 83.098-16.5899 83.098-19.9577C83.098-29.8031 70.8829-43.3316 51.31-43.3316C31.799-43.3316 19.6453-29.8031 19.6453-19.9577C19.6453-16.5899 21.7035-15.0874 25.8771-15.0874ZM25.8345-17.492C22.7366-17.492 22.0529-17.9892 22.0537-19.9109C21.9994-28.7944 32.8876-40.927 51.31-40.927C69.732-40.927 80.682-28.7944 80.6896-19.9109C80.6905-17.9892 79.9453-17.492 76.8474-17.492ZM13.667 12.317L89.2005 12.317C89.8362 12.317 90.407 11.808 90.407 11.1109C90.407 10.4752 89.8362 9.90478 89.2005 9.90478L86.2718 9.90478L86.2718-7.42983C86.2718-9.81971 84.6451-11.4489 82.2523-11.4489L20.5538-11.4489C18.1605-11.4489 16.5962-9.81971 16.5962-7.42983L16.5962 9.90478L13.667 9.90478C12.9699 9.90478 12.4609 10.4752 12.4609 11.1109C12.4609 11.808 12.9699 12.317 13.667 12.317ZM39.614 2.71363C38.6121 2.71363 37.7991 1.96219 37.7991 0.897958C37.7991-0.165851 38.6121-0.979179 39.614-0.979179L63.254-0.979179C64.3178-0.979179 65.1311-0.165851 65.1311 0.897958C65.1311 1.96219 64.3178 2.71363 63.254 2.71363Z"/>
  </g>
  <g id="Black-S" transform="matrix(1 0 0 1 2886.7 696)">
   <path d="M46.7285-51.1719C54.3945-51.1719 60.3516-57.6172 60.3516-65.7715C60.3516-73.6328 54.248-80.2246 46.7285-80.2246C39.209-80.2246 33.0566-73.6328 33.1055-65.7715C33.1543-57.6172 39.0625-51.1719 46.7285-51.1719ZM46.7285-60.0586C44.0918-60.0586 42.041-62.0605 42.041-65.8203C41.9922-69.1895 44.1895-71.3379 46.7285-71.3379C49.3164-71.3379 51.416-69.1895 51.416-65.7715C51.416-62.0605 49.4141-60.0586 46.7285-60.0586ZM28.2715-24.0234L65.1855-24.0234C69.6777-24.0234 72.8027-26.3672 72.8027-31.0059C72.8027-40.7227 61.2305-48.6328 46.7285-48.6328C32.2266-48.6328 20.6543-40.7227 20.6543-31.0059C20.6543-26.3672 23.7793-24.0234 28.2715-24.0234ZM31.2012-32.959C31.0547-32.959 31.0059-33.0566 31.0059-33.1543C31.0059-35.5469 36.8164-39.7461 46.7285-39.7461C56.6406-39.7461 62.4512-35.5469 62.4512-33.1543C62.4512-33.0566 62.4023-32.959 62.2559-32.959ZM15.8691 9.22852L77.5391 9.22852C80.9082 9.22852 83.6426 6.49414 83.6426 3.125C83.6426-0.244141 80.9082-2.97852 77.5391-2.97852L75.1465-2.97852L75.1465-7.71484C75.1465-13.5742 71.0449-17.6758 65.1855-17.6758L28.2227-17.6758C22.3633-17.6758 18.2617-13.5742 18.2617-7.71484L18.2617-2.97852L15.8691-2.97852C12.5-2.97852 9.76562-0.244141 9.76562 3.125C9.76562 6.49414 12.5 9.22852 15.8691 9.22852ZM39.5996 0.195312C37.207 0.195312 35.2051-1.75781 35.2051-4.24805C35.2051-6.68945 37.207-8.64258 39.5996-8.64258L53.7598-8.64258C56.25-8.64258 58.1543-6.68945 58.1543-4.24805C58.1543-1.75781 56.25 0.195312 53.7598 0.195312Z"/>
  </g>
  <g id="Heavy-S" transform="matrix(1 0 0 1 2590.61 696)">
   <path d="M46.0947-50.6417C53.6915-50.6417 59.6025-57.0525 59.6025-65.1607C59.6025-72.9874 53.5796-79.464 46.0947-79.464C38.6097-79.464 32.538-72.9759 32.5753-65.1376C32.6126-57.041 38.4978-50.6417 46.0947-50.6417ZM46.0947-58.8716C43.1698-58.8716 40.9347-61.1962 40.9347-65.1749C40.8974-68.8322 43.2444-71.2342 46.0947-71.2342C48.9822-71.2342 51.2547-68.8322 51.2547-65.1607C51.2547-61.2077 49.0568-58.8716 46.0947-58.8716ZM26.9462-23.3089L65.2316-23.3089C69.4127-23.3089 72.238-25.572 72.238-29.8304C72.238-39.1092 61.0461-47.8837 46.0947-47.8837C31.1433-47.8837 19.9398-39.1092 19.9398-29.8304C19.9398-25.572 22.7651-23.3089 26.9462-23.3089ZM29.7145-31.5876C29.4989-31.5876 29.3809-31.7198 29.404-31.8866C29.6114-34.648 35.6524-39.6424 46.0947-39.6424C56.5254-39.6424 62.5664-34.648 62.7739-31.8866C62.7969-31.7198 62.6905-31.5876 62.4748-31.5876ZM15.2583 8.59467L76.8937 8.59467C79.9286 8.59467 82.3979 6.12536 82.3979 3.10195C82.3979 0.0670199 79.9286-2.39077 76.8937-2.39077L74.5126-2.39077L74.5126-7.89924C74.5126-13.4244 70.8951-17.1111 65.2893-17.1111L26.8743-17.1111C21.2569-17.1111 17.6509-13.4244 17.6509-7.89924L17.6509-2.39077L15.2583-2.39077C12.2349-2.39077 9.76562 0.0670199 9.76562 3.10195C9.76562 6.12536 12.2349 8.59467 15.2583 8.59467ZM38.9542-0.311764C36.8037-0.311764 35.0437-2.04592 35.0437-4.28262C35.0437-6.47049 36.8037-8.20465 38.9542-8.20465L53.172-8.20465C55.3972-8.20465 57.094-6.47049 57.094-4.28262C57.094-2.04592 55.3972-0.311764 53.172-0.311764Z"/>
  </g>
  <g id="Bold-S" transform="matrix(1 0 0 1 2294.59 696)">
   <path d="M45.3857-50.0488C52.9053-50.0488 58.7646-56.4209 58.7646-64.4775C58.7646-72.2656 52.832-78.6133 45.3857-78.6133C37.9395-78.6133 31.958-72.2412 31.9824-64.4287C32.0068-56.3965 37.8662-50.0488 45.3857-50.0488ZM45.3857-57.5439C42.1387-57.5439 39.6973-60.2295 39.6973-64.4531C39.6729-68.4326 42.1875-71.1182 45.3857-71.1182C48.6084-71.1182 51.0742-68.4326 51.0742-64.4775C51.0742-60.2539 48.6572-57.5439 45.3857-57.5439ZM25.4639-22.5098L65.2832-22.5098C69.1162-22.5098 71.6064-24.6826 71.6064-28.5156C71.6064-37.3047 60.8398-47.0459 45.3857-47.0459C29.9316-47.0459 19.1406-37.3047 19.1406-28.5156C19.1406-24.6826 21.6309-22.5098 25.4639-22.5098ZM28.0518-30.0537C27.7588-30.0537 27.5635-30.2246 27.6123-30.4688C28.0518-33.6426 34.3506-39.5264 45.3857-39.5264C56.3965-39.5264 62.6953-33.6426 63.1348-30.4688C63.1836-30.2246 63.0127-30.0537 62.7197-30.0537ZM14.5752 7.88574L76.1719 7.88574C78.833 7.88574 81.0059 5.71289 81.0059 3.07617C81.0059 0.415039 78.833-1.7334 76.1719-1.7334L73.8037-1.7334L73.8037-8.10547C73.8037-13.2568 70.7275-16.4795 65.4053-16.4795L25.3662-16.4795C20.0195-16.4795 16.9678-13.2568 16.9678-8.10547L16.9678-1.7334L14.5752-1.7334C11.9385-1.7334 9.76562 0.415039 9.76562 3.07617C9.76562 5.71289 11.9385 7.88574 14.5752 7.88574ZM38.2324-0.878906C36.3525-0.878906 34.8633-2.36816 34.8633-4.32129C34.8633-6.22559 36.3525-7.71484 38.2324-7.71484L52.5146-7.71484C54.4434-7.71484 55.9082-6.22559 55.9082-4.32129C55.9082-2.36816 54.4434-0.878906 52.5146-0.878906Z"/>
  </g>
  <g id="Semibold-S" transform="matrix(1 0 0 1 1998.36 696)">
   <path d="M44.897-49.64C52.3632-49.64 58.187-55.9854 58.187-64.0065C58.187-71.768 52.3166-78.0268 44.897-78.0268C37.4773-78.0268 31.5581-71.7347 31.5736-63.9399C31.5892-55.9521 37.4308-49.64 44.897-49.64ZM44.897-56.6286C41.4277-56.6286 38.8441-59.563 38.8441-63.9555C38.8286-68.1571 41.4588-71.0382 44.897-71.0382C48.3507-71.0382 50.9498-68.1571 50.9498-64.0065C50.9498-59.5963 48.3817-56.6286 44.897-56.6286ZM24.4419-21.9588L65.3187-21.9588C68.9118-21.9588 71.171-24.0694 71.171-27.6092C71.171-36.0605 60.6977-46.4683 44.897-46.4683C29.0963-46.4683 18.5896-36.0605 18.5896-27.6092C18.5896-24.0694 20.8488-21.9588 24.4419-21.9588ZM26.9054-28.9962C26.5591-28.9962 26.3104-29.1938 26.3771-29.4912C26.9765-32.9494 33.453-39.4464 44.897-39.4464C56.3076-39.4464 62.7842-32.9494 63.3836-29.4912C63.4502-29.1938 63.2349-28.9962 62.8886-28.9962ZM14.1042 7.39697L75.6742 7.39697C78.0776 7.39697 80.0461 5.42852 80.0461 3.0584C80.0461 0.65498 78.0776-1.28018 75.6742-1.28018L73.3149-1.28018L73.3149-8.24766C73.3149-13.1413 70.612-16.044 65.4853-16.044L24.3265-16.044C19.1664-16.044 16.4968-13.1413 16.4968-8.24766L16.4968-1.28018L14.1042-1.28018C11.7341-1.28018 9.76562 0.65498 9.76562 3.0584C9.76562 5.42852 11.7341 7.39697 14.1042 7.39697ZM37.7348-1.26992C36.0415-1.26992 34.7389-2.59033 34.7389-4.34795C34.7389-6.05674 36.0415-7.37715 37.7348-7.37715L52.0614-7.37715C53.7857-7.37715 55.0906-6.05674 55.0906-4.34795C55.0906-2.59033 53.7857-1.26992 52.0614-1.26992Z"/>
  </g>
  <g id="Medium-S" transform="matrix(1 0 0 1 1702.01 696)">
   <path d="M44.5264-49.3301C51.9521-49.3301 57.749-55.6553 57.749-63.6494C57.749-71.3906 51.9258-77.582 44.5264-77.582C37.127-77.582 31.2549-71.3506 31.2637-63.5693C31.2725-55.6152 37.1006-49.3301 44.5264-49.3301ZM44.5264-55.9346C40.8887-55.9346 38.1973-59.0576 38.1973-63.5781C38.1885-67.9482 40.9062-70.9775 44.5264-70.9775C48.1553-70.9775 50.8555-67.9482 50.8555-63.6494C50.8555-59.0977 48.1729-55.9346 44.5264-55.9346ZM23.667-21.541L65.3457-21.541C68.7568-21.541 70.8408-23.6045 70.8408-26.9219C70.8408-35.1172 60.5898-46.0303 44.5264-46.0303C28.4629-46.0303 18.1719-35.1172 18.1719-26.9219C18.1719-23.6045 20.2559-21.541 23.667-21.541ZM26.0361-28.1943C25.6494-28.1943 25.3604-28.4121 25.4404-28.75C26.1611-32.4238 32.7725-39.3857 44.5264-39.3857C56.2402-39.3857 62.8516-32.4238 63.5723-28.75C63.6523-28.4121 63.4033-28.1943 63.0166-28.1943ZM13.7471 7.02637L75.2969 7.02637C77.5049 7.02637 79.3184 5.21289 79.3184 3.04492C79.3184 0.836914 77.5049-0.936523 75.2969-0.936523L72.9443-0.936523L72.9443-8.35547C72.9443-13.0537 70.5244-15.7139 65.5459-15.7139L23.5381-15.7139C18.5195-15.7139 16.1396-13.0537 16.1396-8.35547L16.1396-0.936523L13.7471-0.936523C11.5791-0.936523 9.76562 0.836914 9.76562 3.04492C9.76562 5.21289 11.5791 7.02637 13.7471 7.02637ZM37.3574-1.56641C35.8057-1.56641 34.6445-2.75879 34.6445-4.36816C34.6445-5.92871 35.8057-7.12109 37.3574-7.12109L51.7178-7.12109C53.2871-7.12109 54.4707-5.92871 54.4707-4.36816C54.4707-2.75879 53.2871-1.56641 51.7178-1.56641Z"/>
  </g>
  <g id="Regular-S" transform="matrix(1 0 0 1 1405.78 696)">
   <path d="M44.043-48.9258C51.416-48.9258 57.1777-55.2246 57.1777-63.1836C57.1777-70.8984 51.416-77.002 44.043-77.002C36.6699-77.002 30.8594-70.8496 30.8594-63.0859C30.8594-55.1758 36.6699-48.9258 44.043-48.9258ZM44.043-55.0293C40.1855-55.0293 37.3535-58.3984 37.3535-63.0859C37.3535-67.6758 40.1855-70.8984 44.043-70.8984C47.9004-70.8984 50.7324-67.6758 50.7324-63.1836C50.7324-58.4473 47.9004-55.0293 44.043-55.0293ZM22.6562-20.9961L65.3809-20.9961C68.5547-20.9961 70.4102-22.998 70.4102-26.0254C70.4102-33.8867 60.4492-45.459 44.043-45.459C27.6367-45.459 17.627-33.8867 17.627-26.0254C17.627-22.998 19.4824-20.9961 22.6562-20.9961ZM24.9023-27.1484C24.4629-27.1484 24.1211-27.3926 24.2188-27.7832C25.0977-31.7383 31.8848-39.3066 44.043-39.3066C56.1523-39.3066 62.9395-31.7383 63.8184-27.7832C63.916-27.3926 63.623-27.1484 63.1836-27.1484ZM13.2812 6.54297L74.8047 6.54297C76.7578 6.54297 78.3691 4.93164 78.3691 3.02734C78.3691 1.07422 76.7578-0.488281 74.8047-0.488281L72.4609-0.488281L72.4609-8.49609C72.4609-12.9395 70.4102-15.2832 65.625-15.2832L22.5098-15.2832C17.6758-15.2832 15.6738-12.9395 15.6738-8.49609L15.6738-0.488281L13.2812-0.488281C11.377-0.488281 9.76562 1.07422 9.76562 3.02734C9.76562 4.93164 11.377 6.54297 13.2812 6.54297ZM36.8652-1.95312C35.498-1.95312 34.5215-2.97852 34.5215-4.39453C34.5215-5.76172 35.498-6.78711 36.8652-6.78711L51.2695-6.78711C52.6367-6.78711 53.6621-5.76172 53.6621-4.39453C53.6621-2.97852 52.6367-1.95312 51.2695-1.95312Z"/>
  </g>
  <g id="Light-S" transform="matrix(1 0 0 1 1110.24 696)">
   <path d="M42.8775-48.1235C50.0386-48.1084 55.6338-54.2559 55.6338-62.0332C55.6338-69.5513 49.978-75.5942 42.8775-75.5942C35.7466-75.5942 30.0723-69.5176 30.1025-61.9658C30.1328-54.2222 35.7163-48.1235 42.8775-48.1235ZM42.8775-52.9102C38.46-52.9102 35.1587-56.7334 35.1587-61.9658C35.1587-67.0249 38.4902-70.8076 42.8775-70.8076C47.2495-70.8076 50.6113-67.0249 50.6113-62.0332C50.6113-56.7671 47.2949-52.9102 42.8775-52.9102ZM21.9146-20.5117L63.7612-20.5117C66.9653-20.5117 68.7603-22.2564 68.7603-25.1626C68.7603-32.9785 58.9204-44.2481 42.8472-44.2481C26.7891-44.2481 16.9307-32.9785 16.9307-25.1626C16.9307-22.2564 18.7105-20.5117 21.9146-20.5117ZM23.4492-25.332C22.3892-25.332 21.9868-25.6216 22.0542-26.3604C22.6455-31.2539 29.9776-39.4277 42.8472-39.4277C55.6831-39.4277 63.0303-31.2539 63.6367-26.3604C63.7041-25.6216 63.3203-25.332 62.2603-25.332ZM12.479 5.13526L73.2759 5.13526C74.7749 5.13526 76.023 3.90235 76.023 2.42188C76.023 0.922853 74.7749-0.291505 73.2759-0.291505L70.9473-0.291505L70.9473-10.04C70.9473-13.6811 69.1387-15.6919 65.2617-15.6919L20.5117-15.6919C16.6011-15.6919 14.8413-13.6811 14.8413-10.04L14.8413-0.291505L12.479-0.291505C10.9985-0.291505 9.76562 0.922853 9.76562 2.42188C9.76562 3.90235 10.9985 5.13526 12.479 5.13526ZM35.0488-3.0581C33.8633-3.0581 32.9927-3.94726 32.9927-5.18163C32.9927-6.38232 33.8633-7.28662 35.0488-7.28662L50.7398-7.28662C51.9404-7.28662 52.8447-6.38232 52.8447-5.18163C52.8447-3.94726 51.9404-3.0581 50.7398-3.0581Z"/>
  </g>
  <g id="Thin-S" transform="matrix(1 0 0 1 815.079 696)">
   <path d="M41.336-47.0625C48.2168-47.0274 53.5918-52.9746 53.5918-60.5117C53.5918-67.7696 48.0762-73.7324 41.336-73.7324C34.5254-73.7324 29.0313-67.7559 29.1016-60.4844C29.1719-52.961 34.4551-47.0625 41.336-47.0625ZM41.336-50.1075C36.1778-50.1075 32.2559-54.5313 32.2559-60.4844C32.2559-66.1641 36.2481-70.6875 41.336-70.6875C46.3887-70.6875 50.4512-66.1641 50.4512-60.5117C50.4512-54.545 46.4942-50.1075 41.336-50.1075ZM20.9336-19.8711L61.6192-19.8711C64.8633-19.8711 66.5782-21.2754 66.5782-24.0215C66.5782-31.7774 56.8985-42.6465 41.2656-42.6465C25.668-42.6465 16.0098-31.7774 16.0098-24.0215C16.0098-21.2754 17.6895-19.8711 20.9336-19.8711ZM21.5274-22.9297C19.6465-22.9297 19.1641-23.2793 19.1914-24.4785C19.4024-30.6133 27.4551-39.5879 41.2656-39.5879C55.0625-39.5879 63.1504-30.6133 63.3965-24.4785C63.4238-23.2793 62.9199-22.9297 61.0391-22.9297ZM11.418 3.27346L71.2539 3.27346C72.1524 3.27346 72.92 2.54103 72.92 1.6211C72.92 0.722659 72.1524-0.0312536 71.2539-0.0312536L68.9453-0.0312536L68.9453-12.082C68.9453-14.6621 67.4571-16.2324 64.7813-16.2324L17.8692-16.2324C15.1797-16.2324 13.7402-14.6621 13.7402-12.082L13.7402-0.0312536L11.418-0.0312536C10.4981-0.0312536 9.76562 0.722659 9.76562 1.6211C9.76562 2.54103 10.4981 3.27346 11.418 3.27346ZM32.6465-4.51951C31.7012-4.51951 30.9707-5.2285 30.9707-6.22264C30.9707-7.20311 31.7012-7.94726 32.6465-7.94726L50.0391-7.94726C51.0195-7.94726 51.7637-7.20311 51.7637-6.22264C51.7637-5.2285 51.0195-4.51951 50.0391-4.51951Z"/>
  </g>
  <g id="Ultralight-S" transform="matrix(1 0 0 1 519.163 696)">
   <path d="M40.5464-46.5191C47.2837-46.4737 52.5459-52.3184 52.5459-59.7324C52.5459-66.857 47.1021-72.7788 40.5464-72.7788C33.8999-72.7788 28.4981-66.8535 28.5889-59.7256C28.6797-52.315 33.8091-46.5191 40.5464-46.5191ZM40.5464-48.6719C35.0088-48.6719 30.7691-53.4034 30.7691-59.7256C30.7691-65.7232 35.0996-70.626 40.5464-70.626C45.9478-70.626 50.3691-65.7232 50.3691-59.7324C50.3691-53.4068 46.084-48.6719 40.5464-48.6719ZM20.4312-19.543L60.522-19.543C63.7867-19.543 65.4605-20.773 65.4605-23.437C65.4605-31.1621 55.8628-41.8262 40.4556-41.8262C25.0938-41.8262 15.5381-31.1621 15.5381-23.437C15.5381-20.773 17.1665-19.543 20.4312-19.543ZM20.543-21.6993C18.2417-21.6993 17.7183-22.0796 17.7251-23.5147C17.7413-30.2852 26.1631-39.6699 40.4556-39.6699C54.7446-39.6699 63.2119-30.2852 63.2734-23.5147C63.2803-22.0796 62.7149-21.6993 60.4136-21.6993ZM10.8745 2.31986L70.2183 2.31986C70.8091 2.31986 71.3306 1.84377 71.3306 1.21095C71.3306 0.620121 70.8091 0.102046 70.2183 0.102046L67.92 0.102046L67.92-13.1279C67.92-15.1645 66.5957-16.5093 64.5352-16.5093L16.5157-16.5093C14.4517-16.5093 13.1763-15.1645 13.1763-13.1279L13.1763 0.102046L10.8745 0.102046C10.2417 0.102046 9.76562 0.620121 9.76562 1.21095C9.76562 1.84377 10.2417 2.31986 10.8745 2.31986ZM31.4161-5.26804C30.5938-5.26804 29.9351-5.88474 29.9351-6.75584C29.9351-7.62352 30.5938-8.28563 31.4161-8.28563L49.6802-8.28563C50.5479-8.28563 51.21-7.62352 51.21-6.75584C51.21-5.88474 50.5479-5.26804 49.6802-5.26804Z"/>
  </g>
 </g>
</svg>
