<?xml version="1.0" encoding="UTF-8"?>
<!--Generator: Apple Native CoreSVG 175.5-->
<!DOCTYPE svg
PUBLIC "-//W3C//DTD SVG 1.1//EN"
       "http://www.w3.org/Graphics/SVG/1.1/DTD/svg11.dtd">
<svg version="1.1" xmlns="http://www.w3.org/2000/svg" xmlns:xlink="http://www.w3.org/1999/xlink" width="3300" height="2200">
 <!--glyph: "uni10064A.medium", point size: 100.0, font version: "18.0d12e2", template writer version: "101"-->
 <g id="Notes">
  <rect height="2200" id="artboard" style="fill:white;opacity:1" width="3300" x="0" y="0"/>
  <line style="fill:none;stroke:black;opacity:1;stroke-width:0.5;" x1="263" x2="3036" y1="292" y2="292"/>
  <text style="stroke:none;fill:black;font-family:sans-serif;font-size:13;font-weight:bold;" transform="matrix(1 0 0 1 263 322)">Weight/Scale Variations</text>
  <text style="stroke:none;fill:black;font-family:sans-serif;font-size:13;text-anchor:middle;" transform="matrix(1 0 0 1 559.711 322)">Ultralight</text>
  <text style="stroke:none;fill:black;font-family:sans-serif;font-size:13;text-anchor:middle;" transform="matrix(1 0 0 1 856.422 322)">Thin</text>
  <text style="stroke:none;fill:black;font-family:sans-serif;font-size:13;text-anchor:middle;" transform="matrix(1 0 0 1 1153.13 322)">Light</text>
  <text style="stroke:none;fill:black;font-family:sans-serif;font-size:13;text-anchor:middle;" transform="matrix(1 0 0 1 1449.84 322)">Regular</text>
  <text style="stroke:none;fill:black;font-family:sans-serif;font-size:13;text-anchor:middle;" transform="matrix(1 0 0 1 1746.56 322)">Medium</text>
  <text style="stroke:none;fill:black;font-family:sans-serif;font-size:13;text-anchor:middle;" transform="matrix(1 0 0 1 2043.27 322)">Semibold</text>
  <text style="stroke:none;fill:black;font-family:sans-serif;font-size:13;text-anchor:middle;" transform="matrix(1 0 0 1 2339.98 322)">Bold</text>
  <text style="stroke:none;fill:black;font-family:sans-serif;font-size:13;text-anchor:middle;" transform="matrix(1 0 0 1 2636.69 322)">Heavy</text>
  <text style="stroke:none;fill:black;font-family:sans-serif;font-size:13;text-anchor:middle;" transform="matrix(1 0 0 1 2933.4 322)">Black</text>
  <line style="fill:none;stroke:black;opacity:1;stroke-width:0.5;" x1="263" x2="3036" y1="1903" y2="1903"/>
  <g transform="matrix(1 0 0 1 263 1933)">
   <path d="M9.24805 0.830078C13.5547 0.830078 17.1387-2.74414 17.1387-7.05078C17.1387-11.3574 13.5449-14.9316 9.23828-14.9316C4.94141-14.9316 1.36719-11.3574 1.36719-7.05078C1.36719-2.74414 4.95117 0.830078 9.24805 0.830078ZM9.24805-0.654297C5.70312-0.654297 2.87109-3.49609 2.87109-7.05078C2.87109-10.6055 5.69336-13.4473 9.23828-13.4473C12.793-13.4473 15.6445-10.6055 15.6445-7.05078C15.6445-3.49609 12.8027-0.654297 9.24805-0.654297ZM5.6543-7.05078C5.6543-6.62109 5.95703-6.32812 6.40625-6.32812L8.50586-6.32812L8.50586-4.20898C8.50586-3.76953 8.79883-3.4668 9.22852-3.4668C9.67773-3.4668 9.9707-3.76953 9.9707-4.20898L9.9707-6.32812L12.0898-6.32812C12.5293-6.32812 12.832-6.62109 12.832-7.05078C12.832-7.49023 12.5293-7.79297 12.0898-7.79297L9.9707-7.79297L9.9707-9.90234C9.9707-10.3516 9.67773-10.6543 9.22852-10.6543C8.79883-10.6543 8.50586-10.3516 8.50586-9.90234L8.50586-7.79297L6.40625-7.79297C5.95703-7.79297 5.6543-7.49023 5.6543-7.05078Z"/>
  </g>
  <g transform="matrix(1 0 0 1 281.867 1933)">
   <path d="M11.709 2.91016C17.1582 2.91016 21.6699-1.61133 21.6699-7.05078C21.6699-12.5 17.1484-17.0117 11.6992-17.0117C6.25977-17.0117 1.74805-12.5 1.74805-7.05078C1.74805-1.61133 6.26953 2.91016 11.709 2.91016ZM11.709 1.25C7.09961 1.25 3.41797-2.44141 3.41797-7.05078C3.41797-11.6602 7.08984-15.3516 11.6992-15.3516C16.3086-15.3516 20.0098-11.6602 20.0098-7.05078C20.0098-2.44141 16.3184 1.25 11.709 1.25ZM7.17773-7.05078C7.17773-6.57227 7.50977-6.25 8.00781-6.25L10.8789-6.25L10.8789-3.36914C10.8789-2.88086 11.2109-2.53906 11.6895-2.53906C12.1777-2.53906 12.5195-2.87109 12.5195-3.36914L12.5195-6.25L15.4004-6.25C15.8887-6.25 16.2305-6.57227 16.2305-7.05078C16.2305-7.53906 15.8887-7.88086 15.4004-7.88086L12.5195-7.88086L12.5195-10.752C12.5195-11.25 12.1777-11.5918 11.6895-11.5918C11.2109-11.5918 10.8789-11.25 10.8789-10.752L10.8789-7.88086L8.00781-7.88086C7.50977-7.88086 7.17773-7.53906 7.17773-7.05078Z"/>
  </g>
  <g transform="matrix(1 0 0 1 305.646 1933)">
   <path d="M14.9707 5.66406C21.9336 5.66406 27.6953-0.0976562 27.6953-7.05078C27.6953-14.0137 21.9238-19.7754 14.9609-19.7754C8.00781-19.7754 2.25586-14.0137 2.25586-7.05078C2.25586-0.0976562 8.01758 5.66406 14.9707 5.66406ZM14.9707 3.84766C8.93555 3.84766 4.08203-1.01562 4.08203-7.05078C4.08203-13.0957 8.92578-17.9492 14.9609-17.9492C21.0059-17.9492 25.8691-13.0957 25.8691-7.05078C25.8691-1.01562 21.0156 3.84766 14.9707 3.84766ZM9.19922-7.05078C9.19922-6.5332 9.57031-6.17188 10.1172-6.17188L14.0625-6.17188L14.0625-2.2168C14.0625-1.67969 14.4336-1.29883 14.9512-1.29883C15.4883-1.29883 15.8594-1.66992 15.8594-2.2168L15.8594-6.17188L19.8145-6.17188C20.3516-6.17188 20.7324-6.5332 20.7324-7.05078C20.7324-7.59766 20.3613-7.96875 19.8145-7.96875L15.8594-7.96875L15.8594-11.9141C15.8594-12.4609 15.4883-12.8418 14.9512-12.8418C14.4336-12.8418 14.0625-12.4609 14.0625-11.9141L14.0625-7.96875L10.1172-7.96875C9.57031-7.96875 9.19922-7.59766 9.19922-7.05078Z"/>
  </g>
  <text style="stroke:none;fill:black;font-family:sans-serif;font-size:13;font-weight:bold;" transform="matrix(1 0 0 1 263 1953)">Design Variations</text>
  <text style="stroke:none;fill:black;font-family:sans-serif;font-size:13;" transform="matrix(1 0 0 1 263 1971)">Symbols are supported in up to nine weights and three scales.</text>
  <text style="stroke:none;fill:black;font-family:sans-serif;font-size:13;" transform="matrix(1 0 0 1 263 1989)">For optimal layout with text and other symbols, vertically align</text>
  <text style="stroke:none;fill:black;font-family:sans-serif;font-size:13;" transform="matrix(1 0 0 1 263 2007)">symbols with the adjacent text.</text>
  <line style="fill:none;stroke:#00AEEF;stroke-width:0.5;opacity:1.0;" x1="776" x2="776" y1="1919" y2="1933"/>
  <g transform="matrix(1 0 0 1 776 1933)">
   <path d="M3.31055 0.15625C3.82812 0.15625 4.08203-0.0390625 4.26758-0.585938L5.52734-4.0332L11.2891-4.0332L12.5488-0.585938C12.7344-0.0390625 12.9883 0.15625 13.4961 0.15625C14.0137 0.15625 14.3457-0.15625 14.3457-0.644531C14.3457-0.810547 14.3164-0.966797 14.2383-1.17188L9.6582-13.3691C9.43359-13.9648 9.0332-14.2676 8.4082-14.2676C7.80273-14.2676 7.39258-13.9746 7.17773-13.3789L2.59766-1.16211C2.51953-0.957031 2.49023-0.800781 2.49023-0.634766C2.49023-0.146484 2.80273 0.15625 3.31055 0.15625ZM6.00586-5.51758L8.37891-12.0898L8.42773-12.0898L10.8008-5.51758Z"/>
  </g>
  <line style="fill:none;stroke:#00AEEF;stroke-width:0.5;opacity:1.0;" x1="793.197" x2="793.197" y1="1919" y2="1933"/>
  <text style="stroke:none;fill:black;font-family:sans-serif;font-size:13;font-weight:bold;" transform="matrix(1 0 0 1 776 1953)">Margins</text>
  <text style="stroke:none;fill:black;font-family:sans-serif;font-size:13;" transform="matrix(1 0 0 1 776 1971)">Leading and trailing margins on the left and right side of each symbol</text>
  <text style="stroke:none;fill:black;font-family:sans-serif;font-size:13;" transform="matrix(1 0 0 1 776 1989)">can be adjusted by modifying the x-location of the margin guidelines.</text>
  <text style="stroke:none;fill:black;font-family:sans-serif;font-size:13;" transform="matrix(1 0 0 1 776 2007)">Modifications are automatically applied proportionally to all</text>
  <text style="stroke:none;fill:black;font-family:sans-serif;font-size:13;" transform="matrix(1 0 0 1 776 2025)">scales and weights.</text>
  <g transform="matrix(1 0 0 1 1289 1933)">
   <path d="M2.8418 1.86523L4.54102 3.57422C5.40039 4.44336 6.38672 4.38477 7.31445 3.35938L18.0078-8.42773L17.041-9.4043L6.42578 2.27539C6.07422 2.67578 5.74219 2.77344 5.27344 2.30469L4.10156 1.14258C3.63281 0.683594 3.74023 0.341797 4.14062-0.0195312L15.6152-10.8203L14.6387-11.7871L3.04688-0.898438C2.06055 0.0195312 1.98242 0.996094 2.8418 1.86523ZM9.25781-16.3281C8.83789-15.918 8.80859-15.3418 9.04297-14.9512C9.27734-14.5898 9.73633-14.3555 10.3809-14.5215C11.8457-14.8633 13.3691-14.9219 14.7949-13.9844L14.209-12.5293C13.8672-11.6992 14.043-11.1133 14.5801-10.5664L16.875-8.25195C17.3633-7.76367 17.7734-7.74414 18.3398-7.8418L19.4043-8.03711L20.0684-7.36328L20.0293-6.80664C19.9902-6.30859 20.1172-5.92773 20.6055-5.44922L21.3672-4.70703C21.8457-4.22852 22.4609-4.19922 22.9297-4.66797L25.8398-7.58789C26.3086-8.05664 26.2891-8.65234 25.8105-9.13086L25.0391-9.89258C24.5605-10.3711 24.1895-10.5273 23.7109-10.4883L23.1348-10.4395L22.4902-11.0742L22.7344-12.1973C22.8613-12.7637 22.7051-13.2031 22.1191-13.7891L19.9219-15.9766C16.582-19.2969 12.1484-19.2188 9.25781-16.3281ZM10.752-15.957C13.1836-17.7344 16.4746-17.4316 18.7012-15.2051L21.1328-12.793C21.3672-12.5586 21.4062-12.373 21.3379-12.0312L21.0156-10.5469L22.5195-9.0625L23.5059-9.12109C23.7598-9.13086 23.8379-9.11133 24.0332-8.91602L24.6094-8.33984L22.168-5.89844L21.5918-6.47461C21.3965-6.66992 21.3672-6.74805 21.377-7.01172L21.4453-7.98828L19.9512-9.47266L18.4277-9.21875C18.1055-9.15039 17.959-9.17969 17.7148-9.41406L15.7129-11.416C15.459-11.6504 15.4297-11.8164 15.5859-12.1875L16.4648-14.2773C14.9023-15.7324 12.8711-16.3574 10.8398-15.7617C10.6836-15.7227 10.625-15.8496 10.752-15.957Z"/>
  </g>
  <text style="stroke:none;fill:black;font-family:sans-serif;font-size:13;font-weight:bold;" transform="matrix(1 0 0 1 1289 1953)">Exporting</text>
  <text style="stroke:none;fill:black;font-family:sans-serif;font-size:13;" transform="matrix(1 0 0 1 1289 1971)">Symbols should be outlined when exporting to ensure the</text>
  <text style="stroke:none;fill:black;font-family:sans-serif;font-size:13;" transform="matrix(1 0 0 1 1289 1989)">design is preserved when submitting to Xcode.</text>
  <text id="template-version" style="stroke:none;fill:black;font-family:sans-serif;font-size:13;text-anchor:end;" transform="matrix(1 0 0 1 3036 1933)">Template v.4.0</text>
  <text style="stroke:none;fill:black;font-family:sans-serif;font-size:13;text-anchor:end;" transform="matrix(1 0 0 1 3036 1951)">Requires Xcode 14 or greater</text>
  <text id="descriptive-name" style="stroke:none;fill:black;font-family:sans-serif;font-size:13;text-anchor:end;" transform="matrix(1 0 0 1 3036 1969)">Generated from map</text>
  <text style="stroke:none;fill:black;font-family:sans-serif;font-size:13;text-anchor:end;" transform="matrix(1 0 0 1 3036 1987)">Typeset at 100 points</text>
  <text style="stroke:none;fill:black;font-family:sans-serif;font-size:13;" transform="matrix(1 0 0 1 263 726)">Small</text>
  <text style="stroke:none;fill:black;font-family:sans-serif;font-size:13;" transform="matrix(1 0 0 1 263 1156)">Medium</text>
  <text style="stroke:none;fill:black;font-family:sans-serif;font-size:13;" transform="matrix(1 0 0 1 263 1586)">Large</text>
 </g>
 <g id="Guides">
  <g id="H-reference" style="fill:#27AAE1;stroke:none;" transform="matrix(1 0 0 1 339 696)">
   <path d="M0.993654 0L3.63775 0L29.3281-67.1323L30.0303-67.1323L30.0303-70.459L28.1226-70.459ZM11.6885-24.4799L46.9815-24.4799L46.2315-26.7285L12.4385-26.7285ZM55.1196 0L57.7637 0L30.6382-70.459L29.4326-70.459L29.4326-67.1323Z"/>
  </g>
  <line id="Baseline-S" style="fill:none;stroke:#27AAE1;opacity:1;stroke-width:0.5;" x1="263" x2="3036" y1="696" y2="696"/>
  <line id="Capline-S" style="fill:none;stroke:#27AAE1;opacity:1;stroke-width:0.5;" x1="263" x2="3036" y1="625.541" y2="625.541"/>
  <g id="H-reference" style="fill:#27AAE1;stroke:none;" transform="matrix(1 0 0 1 339 1126)">
   <path d="M0.993654 0L3.63775 0L29.3281-67.1323L30.0303-67.1323L30.0303-70.459L28.1226-70.459ZM11.6885-24.4799L46.9815-24.4799L46.2315-26.7285L12.4385-26.7285ZM55.1196 0L57.7637 0L30.6382-70.459L29.4326-70.459L29.4326-67.1323Z"/>
  </g>
  <line id="Baseline-M" style="fill:none;stroke:#27AAE1;opacity:1;stroke-width:0.5;" x1="263" x2="3036" y1="1126" y2="1126"/>
  <line id="Capline-M" style="fill:none;stroke:#27AAE1;opacity:1;stroke-width:0.5;" x1="263" x2="3036" y1="1055.54" y2="1055.54"/>
  <g id="H-reference" style="fill:#27AAE1;stroke:none;" transform="matrix(1 0 0 1 339 1556)">
   <path d="M0.993654 0L3.63775 0L29.3281-67.1323L30.0303-67.1323L30.0303-70.459L28.1226-70.459ZM11.6885-24.4799L46.9815-24.4799L46.2315-26.7285L12.4385-26.7285ZM55.1196 0L57.7637 0L30.6382-70.459L29.4326-70.459L29.4326-67.1323Z"/>
  </g>
  <line id="Baseline-L" style="fill:none;stroke:#27AAE1;opacity:1;stroke-width:0.5;" x1="263" x2="3036" y1="1556" y2="1556"/>
  <line id="Capline-L" style="fill:none;stroke:#27AAE1;opacity:1;stroke-width:0.5;" x1="263" x2="3036" y1="1485.54" y2="1485.54"/>
  <line id="left-margin-Regular-M" style="fill:none;stroke:#00AEEF;stroke-width:0.5;opacity:1.0;" x1="1386.61" x2="1386.61" y1="1030.79" y2="1150.12"/>
  <line id="right-margin-Regular-M" style="fill:none;stroke:#00AEEF;stroke-width:0.5;opacity:1.0;" x1="1513.08" x2="1513.08" y1="1030.79" y2="1150.12"/>
 </g>
 <g id="Symbols">
  <g id="Black-L" transform="matrix(1 0 0 1 2848.97 1556)">
   <path d="M28.9635 30.106C32.5314 30.106 35.3191 28.8434 39.2467 26.6538L65.6196 12.2675L94.9557 28.4931C98.6461 30.5379 102.433 31.5305 106.198 31.5305C110.038 31.5305 113.879 30.5003 117.541 28.4595L143.9 13.7702C150.17 10.3062 152.785 5.48232 152.785-1.15831L152.785-84.9464C152.785-92.374 147.654-97.3902 139.885-97.3902C136.338-97.3902 133.587-95.8368 129.602-93.6471L102.637-78.6593L72.9917-95.6049C69.3851-97.6093 65.5003-98.5823 61.6168-98.5823C58.0616-98.5823 54.5661-97.7261 51.4655-95.9554L24.9695-81.21C18.6786-77.7461 16.084-73.331 16.084-66.7112L16.084 17.8946C16.084 25.3223 21.2158 30.106 28.9635 30.106ZM55.1064-2.89616L36.9445 7.09402C36.214 7.48848 35.6003 7.64813 35.1242 7.64813C33.7996 7.64813 33.1447 6.56357 33.1447 5.06134L33.1447-61.0276C33.1447-63.6653 33.9013-64.7316 36.1677-66.0251L53.6771-75.8351C54.1869-76.14 54.6174-76.3656 55.1064-76.6682ZM72.8888-4.68534L72.8888-74.4996C73.5321-74.1607 74.1975-73.7598 74.8397-73.4173L95.9806-61.3299L95.9806 8.10799C95.3123 7.72625 94.5845 7.36294 93.9175 6.97881ZM113.742 8.40467L113.742-64.0288L131.866-73.9706C132.363-74.2482 132.86-74.4079 133.336-74.4079C134.699-74.4079 135.704-73.3233 135.704-71.9963L135.704-7.2883C135.704-4.6506 134.91-3.52592 132.702-2.29086L116.722 6.70819C115.761 7.28836 114.722 7.84771 113.742 8.40467Z"/>
  </g>
  <g id="Heavy-L" transform="matrix(1 0 0 1 2553.06 1556)">
   <path d="M27.5252 28.6959C30.6217 28.6959 33.1078 27.6031 36.5694 25.6831L64.2998 10.5745L94.9077 27.6057C98.2684 29.4669 101.717 30.3724 105.13 30.3724C108.572 30.3724 112.019 29.4524 115.264 27.6372L143.155 11.9973C148.782 8.87578 151.174 4.51517 151.174-1.52713L151.174-85.5501C151.174-92.2889 146.665-96.7151 139.703-96.7151C136.637-96.7151 134.159-95.4048 130.659-93.4848L102.191-77.6589L71.4932-95.5313C68.2824-97.3378 64.7925-98.2187 61.3081-98.2187C58.0557-98.2187 54.8535-97.427 52.0198-95.799L24.1031-80.1257C18.4464-77.0043 16.084-72.956 16.084-66.9439L16.084 17.7038C16.084 24.4426 20.5938 28.6959 27.5252 28.6959ZM55.3643-3.203L34.6878 8.17576C34.0537 8.51509 33.5089 8.67031 33.0836 8.67031C31.9293 8.67031 31.3533 7.7517 31.3533 6.45235L31.3533-62.0451C31.3533-64.4209 32.069-65.4965 34.1469-66.6935L53.7597-77.8343C54.3295-78.1717 54.8246-78.4343 55.3643-78.7605ZM71.1992-4.35103L71.1992-76.8182C71.8425-76.4831 72.5217-76.0867 73.1594-75.7348L96.0591-62.384L96.0591 9.50516C95.3396 9.10415 94.5699 8.7221 93.8561 8.30987ZM111.864 9.97928L111.864-64.5744L132.526-75.8882C132.981-76.1383 133.437-76.2935 133.862-76.2935C135.031-76.2935 135.875-75.3749 135.875-74.2094L135.875-6.75272C135.875-4.37691 135.145-3.25665 133.111-2.10429L114.791 8.32202C113.848 8.89831 112.831 9.44441 111.864 9.97928Z"/>
  </g>
  <g id="Bold-L" transform="matrix(1 0 0 1 2257.5 1556)">
   <path d="M25.7799 26.9739C28.3221 26.9739 30.4467 26.0738 33.3469 24.4769L62.6333 8.50659L94.6079 26.4845C97.5836 28.1376 100.625 28.943 103.615 28.943C106.587 28.943 109.573 28.1464 112.354 26.5781L141.913 9.86676C146.755 7.1605 148.864 3.39847 148.864-1.92097L148.864-86.1986C148.864-92.092 145.092-95.818 139.13-95.818C136.625-95.818 134.479-94.785 131.563-93.1881L101.429-76.4516L69.6189-95.3124C66.8402-96.9028 63.7973-97.6834 60.7675-97.6834C57.8617-97.6834 54.9984-96.9612 52.4578-95.4877L23.0349-78.7736C18.1545-76.0674 16.084-72.5098 16.084-67.2283L16.084 17.4582C16.084 23.3515 19.8551 26.9739 25.7799 26.9739ZM55.5751-3.42312L31.8983 9.63209C31.3722 9.90974 30.9045 10.0573 30.5332 10.0573C29.5642 10.0573 29.0656 9.31634 29.0656 8.23322L29.0656-63.2904C29.0656-65.3732 29.7276-66.4566 31.5973-67.5457L53.7851-80.3384C54.4168-80.7068 54.9814-81.0081 55.5751-81.3501ZM68.9451-3.89141L68.9451-79.7143C69.5885-79.3943 70.283-79.0054 70.9132-78.6458L96.0024-63.7424L96.0024 11.3384C95.2363 10.9293 94.4278 10.5316 93.6749 10.096ZM109.334 11.9682L109.334-65.34L133.02-78.2849C133.429-78.5042 133.839-78.6518 134.21-78.6518C135.17-78.6518 135.844-77.9108 135.844-76.9153L135.844-6.05456C135.844-3.97172 135.191-2.85907 133.35-1.79924L112.163 10.387C111.251 10.9482 110.271 11.4714 109.334 11.9682Z"/>
  </g>
  <g id="Semibold-L" transform="matrix(1 0 0 1 1961.59 1556)">
   <path d="M24.5766 25.7868C26.7368 25.7868 28.6122 25.0195 31.1254 23.6453L61.4845 7.081L94.4011 25.7116C97.1115 27.2213 99.8716 27.9576 102.57 27.9576C105.219 27.9576 107.886 27.2461 110.348 25.8479L141.056 8.39801C145.358 5.97799 147.271 2.62862 147.271-2.19248L147.271-86.6457C147.271-91.9562 144.009-95.1995 138.735-95.1995C136.618-95.1995 134.699-94.3578 132.186-92.9836L100.904-75.6192L68.3268-95.1616C65.846-96.603 63.1112-97.3144 60.3948-97.3144C57.728-97.3144 55.0983-96.6402 52.7598-95.273L22.2985-77.8415C17.9533-75.4215 16.084-72.2021 16.084-67.4244L16.084 17.2889C16.084 22.5994 19.3459 25.7868 24.5766 25.7868ZM55.7205-3.57488L29.9753 10.6361C29.5236 10.8712 29.109 11.0136 28.775 11.0136C27.9337 11.0136 27.4885 10.395 27.4885 9.46095L27.4885-64.1488C27.4885-66.0297 28.1135-67.1185 29.8396-68.1332L53.8026-82.0647C54.477-82.4546 55.0894-82.7825 55.7205-83.1353ZM67.3912-3.57455L67.3912-81.7108C68.0345-81.4012 68.7397-81.0176 69.3646-80.6526L95.9633-64.6789L95.9633 12.6023C95.1651 12.1875 94.3298 11.7791 93.55 11.3273ZM107.591 13.3394L107.591-65.8678L133.361-79.9372C133.738-80.1352 134.115-80.2775 134.449-80.2775C135.266-80.2775 135.823-79.659 135.823-78.7807L135.823-5.57326C135.823-3.69239 135.222-2.58499 133.515-1.58893L110.351 11.8105C109.46 12.3614 108.507 12.8689 107.591 13.3394Z"/>
  </g>
  <g id="Medium-L" transform="matrix(1 0 0 1 1665.48 1556)">
   <path d="M23.6643 24.8867C25.5348 24.8867 27.2212 24.2201 29.4409 23.0147L60.6134 6.00006L94.2444 25.1255C96.7535 26.5264 99.3006 27.2104 101.778 27.2104C104.181 27.2104 106.607 26.5634 108.827 25.2943L140.407 7.28435C144.298 5.08137 146.063 2.04489 146.063-2.39835L146.063-86.9847C146.063-91.8533 143.187-94.7305 138.435-94.7305C136.612-94.7305 134.866-94.0338 132.658-92.8285L100.505-74.9881L67.347-95.0472C65.0921-96.3757 62.5909-97.0347 60.1122-97.0347C57.6266-97.0347 55.174-96.3967 52.9888-95.1102L21.7401-77.1347C17.8008-74.9318 16.084-71.9689 16.084-67.5731L16.084 17.1605C16.084 22.029 18.9598 24.8867 23.6643 24.8867ZM55.8307-3.68994L28.5172 11.3973C28.1219 11.6002 27.7476 11.7386 27.4419 11.7386C26.6973 11.7386 26.2926 11.2129 26.2926 10.3919L26.2926-64.7998C26.2926-66.5275 26.8896-67.6204 28.5068-68.5786L53.8159-83.3737C54.5227-83.7797 55.1714-84.1278 55.8307-84.489ZM66.2129-3.3343L66.2129-83.2247C66.8563-82.923 67.5695-82.5433 68.1904-82.1742L95.9337-65.3889L95.9337 13.5606C95.1111 13.1415 94.2555 12.7249 93.4553 12.2609ZM106.269 14.3791L106.269-66.268L133.619-81.19C133.972-81.3719 134.325-81.5103 134.631-81.5103C135.339-81.5103 135.807-80.9845 135.807-80.1951L135.807-5.20831C135.807-3.48058 135.246-2.37717 133.64-1.42947L108.977 12.8899C108.102 13.4329 107.169 13.9284 106.269 14.3791Z"/>
  </g>
  <g id="Regular-L" transform="matrix(1 0 0 1 1369.56 1556)">
   <path d="M22.4742 23.7126C23.9669 23.7126 25.4068 23.1773 27.2437 22.1923L59.4772 4.59013L94.0399 24.3611C96.2866 25.6201 98.5558 26.2358 100.745 26.2358C102.828 26.2358 104.939 25.6729 106.844 24.5721L139.559 5.83174C142.917 3.91186 144.487 1.28351 144.487-2.66688L144.487-87.4269C144.487-91.719 142.115-94.1188 138.044-94.1188C136.604-94.1188 135.084-93.6112 133.275-92.6262L99.9859-74.1649L66.0691-94.8979C64.1088-96.0791 61.9124-96.6697 59.7436-96.6697C57.4944-96.6697 55.2728-96.0791 53.2874-94.8979L21.0118-76.2129C17.6018-74.293 16.084-71.6646 16.084-67.767L16.084 16.993C16.084 21.2851 18.4562 23.7126 22.4742 23.7126ZM55.9744-3.84002L26.6153 12.3903C26.2936 12.5511 25.9719 12.6843 25.703 12.6843C25.0847 12.6843 24.7328 12.2797 24.7328 11.6061L24.7328-65.6488C24.7328-67.1768 25.2932-68.275 26.7685-69.1596L53.8333-85.081C54.5822-85.5082 55.2783-85.8827 55.9744-86.2546ZM64.676-3.02092L64.676-85.1993C65.3194-84.9078 66.0432-84.5334 66.6589-84.1589L95.8951-66.3151L95.8951 14.8105C95.0407 14.3859 94.1586 13.9587 93.3318 13.4787ZM104.544 15.7352L104.544-66.79L133.956-82.8242C134.278-82.985 134.599-83.1182 134.868-83.1182C135.434-83.1182 135.786-82.7135 135.786-82.04L135.786-4.73229C135.786-3.20432 135.278-2.10609 133.803-1.22147L107.185 14.2978C106.331 14.8305 105.423 15.3105 104.544 15.7352Z"/>
  </g>
  <g id="Light-L" transform="matrix(1 0 0 1 1074.66 1556)">
   <path d="M21.5009 22.682C22.8027 22.682 24.0708 22.1658 25.6215 21.3335L58.1221 3.34959L92.2841 23.445C94.4162 24.685 96.4755 25.2816 98.4543 25.2816C100.366 25.2816 102.324 24.7186 104.267 23.5797L136.639 4.78205C139.538 3.09119 140.861 1.0354 140.861-2.53328L140.861-87.2361C140.861-90.9938 138.794-93.1073 135.41-93.1073C134.142-93.1073 132.794-92.6379 131.29-91.8055L98.1155-73.5351L64.6568-93.9246C62.6201-95.1439 60.4619-95.7536 58.3503-95.7536C56.1584-95.7536 54.0132-95.1439 51.9896-93.9246L20.3056-75.2204C17.3727-73.5296 16.084-71.4738 16.084-67.9388L16.084 16.764C16.084 20.5217 18.1508 22.682 21.5009 22.682ZM55.4209-2.9621L24.7258 14.1461C24.4041 14.307 24.0825 14.4211 23.7945 14.4211C23.138 14.4211 22.7098 13.9592 22.7098 13.2093L22.7098-66.4122C22.7098-67.9402 23.2129-69.0193 24.7072-69.904L53.3562-86.9896C54.0669-87.3786 54.7439-87.7339 55.4209-88.0295ZM62.0804-2.41019L62.0804-87.3559C62.7238-87.1408 63.4476-86.7854 64.0442-86.4301L94.8645-67.5938L94.8645 16.7381C94.0864 16.4089 93.2616 16.0199 92.5302 15.5972ZM101.49 17.3574L101.49-67.8969L132.219-84.6182C132.541-84.779 132.862-84.8931 133.15-84.8931C133.773-84.8931 134.201-84.4312 134.201-83.6813L134.201-4.02614C134.201-2.49816 133.732-1.41902 132.238-0.534404L103.845 16.1491C103.067 16.6055 102.255 17.0282 101.49 17.3574Z"/>
  </g>
  <g id="Thin-L" transform="matrix(1 0 0 1 780.348 1556)">
   <path d="M20.2135 21.319C21.2629 21.319 22.3039 20.828 23.4759 20.1976L56.33 1.70887L89.9618 22.2334C91.9425 23.4481 93.7241 24.0195 95.4253 24.0195C97.1097 24.0195 98.866 23.4565 100.86 22.2671L132.777 3.39375C135.071 2.0058 136.065 0.707253 136.065-2.35659L136.065-86.9837C136.065-90.0346 134.402-91.7695 131.927-91.7695C130.886-91.7695 129.765-91.3505 128.665-90.7201L95.6418-72.7021L62.7889-92.6373C60.6513-93.9071 58.5435-94.542 56.5077-94.542C54.3915-94.542 52.3472-93.9071 50.2732-92.6373L19.3717-73.9078C17.0698-72.5199 16.084-71.2213 16.084-68.1659L16.084 16.4611C16.084 19.512 17.7469 21.319 20.2135 21.319ZM54.6889-1.80098L22.2269 16.4684C21.9052 16.6292 21.5835 16.7181 21.2703 16.7181C20.5634 16.7181 20.0342 16.1804 20.0342 15.3296L20.0342-67.4219C20.0342-68.9499 20.4616-70.0038 21.9811-70.8884L52.7251-89.5137C53.3853-89.8523 54.0371-90.1824 54.6889-90.377ZM58.6476-1.60245L58.6476-90.2083C59.2909-90.0941 60.0147-89.764 60.5861-89.4339L93.5014-69.285L93.5014 19.2876C92.8243 19.0846 92.0752 18.746 91.4701 18.399ZM97.4516 19.503L97.4516-69.361L129.922-86.9909C130.244-87.1518 130.565-87.2406 130.879-87.2406C131.577-87.2406 132.106-86.703 132.106-85.8521L132.106-3.09219C132.106-1.56421 131.687-0.510318 130.168 0.374301L99.4278 18.5975C98.7507 18.953 98.0651 19.3 97.4516 19.503Z"/>
  </g>
  <g id="Ultralight-L" transform="matrix(1 0 0 1 484.865 1556)">
   <path d="M19.5542 20.6208C20.4743 20.6208 21.3989 20.1428 22.377 19.6158L55.412 0.868505L88.7724 21.6128C90.6755 22.8146 92.3149 23.3731 93.8739 23.3731C95.4418 23.3731 97.0947 22.8101 99.1142 21.5948L130.799 2.68267C132.782 1.44986 133.609 0.539179 133.609-2.26609L133.609-86.8544C133.609-89.5433 132.152-91.0843 130.143-91.0843C129.218-91.0843 128.213-90.6912 127.32-90.1642L94.3748-72.2755L61.8321-91.9779C59.6428-93.2736 57.5609-93.9214 55.5639-93.9214C53.4864-93.9214 51.4939-93.2736 49.394-91.9779L18.8933-73.2356C16.9147-72.0027 16.084-71.0921 16.084-68.2823L16.084 16.306C16.084 18.9949 17.5401 20.6208 19.5542 20.6208ZM54.314-1.20626L20.9469 17.6578C20.6253 17.8187 20.3036 17.8946 19.9774 17.8946C19.2446 17.8946 18.6637 17.3182 18.6637 16.4156L18.6637-67.9391C18.6637-69.467 19.0523-70.508 20.5848-71.3926L52.4019-90.8066C53.0363-91.1193 53.6751-91.4365 54.314-91.5794ZM56.8893-1.18873L56.8893-91.6692C57.5326-91.6068 58.2564-91.2896 58.8148-90.9724L92.8033-70.1513L92.8033 20.5934C92.1779 20.455 91.4676 20.1423 90.9271 19.8341ZM95.383 20.6019L95.383-70.1108L128.746-88.2062C129.067-88.3671 129.389-88.443 129.715-88.443C130.452-88.443 131.033-87.8666 131.033-86.964L131.033-2.61383C131.033-1.08585 130.64-0.0448833 129.108 0.839736L97.1653 19.8516C96.5399 20.1553 95.919 20.4635 95.383 20.6019Z"/>
  </g>
  <g id="Black-M" transform="matrix(1 0 0 1 2867.54 1126)">
   <path d="M23.5434 16.461C26.6869 16.461 29.0827 15.3394 32.4873 13.4319L51.7889 2.85541L73.3695 14.7776C76.4964 16.517 79.6923 17.3583 82.883 17.3583C86.1769 17.3583 89.4705 16.4654 92.6729 14.6854L111.73 4.1141C117.078 1.16715 119.263-2.89075 119.263-8.49804L119.263-73.2026C119.263-79.4767 114.793-83.8312 108.175-83.8312C105.037-83.8312 102.693-82.4239 99.2307-80.5164L79.6479-69.6508L57.6462-81.9363C54.5014-83.6644 51.1576-84.4999 47.8136-84.4999C44.8069-84.4999 41.857-83.7786 39.2203-82.2789L19.9939-71.6499C14.6396-68.703 12.4609-65.0447 12.4609-59.4429L12.4609 6.06098C12.4609 12.3351 16.93 16.461 23.5434 16.461ZM42.3966-9.79684L30.306-3.13148C29.6571-2.77848 29.1224-2.65359 28.7073-2.65359C27.5295-2.65359 26.9441-3.64421 26.9441-4.99275L26.9441-54.4454C26.9441-56.714 27.5575-57.5294 29.4781-58.6144L41.4503-65.2287C41.7884-65.4318 42.064-65.5723 42.3966-65.776ZM57.5704-11.7702L57.5704-63.9533C58.0688-63.6977 58.5725-63.3859 59.0712-63.1312L74.153-54.718L74.153-2.59373C73.6897-2.85998 73.1696-3.12019 72.706-3.38588ZM89.3213-2.55775L89.3213-57.2225L101.36-63.8389C101.781-64.0777 102.201-64.2025 102.616-64.2025C103.846-64.2025 104.774-63.2119 104.774-62.0347L104.774-13.9469C104.774-11.6783 104.109-10.8057 102.245-9.7778L91.6361-3.87475C90.8873-3.43228 90.0759-2.9953 89.3213-2.55775Z"/>
  </g>
  <g id="Heavy-M" transform="matrix(1 0 0 1 2571.45 1126)">
   <path d="M22.2272 15.1775C24.9275 15.1775 27.0442 14.2202 30.0197 12.5623L50.6237 1.31479L73.4846 13.9946C76.2998 15.5563 79.1845 16.3142 82.0507 16.3142C84.9712 16.3142 87.894 15.5291 90.6838 13.973L111.271 2.47778C116.033-0.155519 118.022-3.81333 118.022-8.87091L118.022-73.8103C118.022-79.4604 114.133-83.2645 108.239-83.2645C105.556-83.2645 103.464-82.0914 100.447-80.4334L79.3839-68.731L56.3116-81.9541C53.5609-83.4852 50.5995-84.229 47.6404-84.229C44.9243-84.229 42.2542-83.5725 39.8819-82.2158L19.2121-70.6815C14.4337-68.0482 12.4609-64.6958 12.4609-59.6546L12.4609 5.89555C12.4609 11.5456 16.3501 15.1775 22.2272 15.1775ZM42.6998-10.1778L28.2742-2.23599C27.7196-1.93689 27.2523-1.81455 26.8886-1.81455C25.8808-1.81455 25.3795-2.63768 25.3795-3.78085L25.3795-55.3696C25.3795-57.3822 25.9583-58.2086 27.6928-59.1993L41.575-67.007C41.9754-67.2454 42.3158-67.4238 42.6998-67.6577ZM56.1582-11.4998L56.1582-66.0209C56.6566-65.7621 57.1737-65.4528 57.6699-65.1872L74.3249-55.6304L74.3249-1.40573C73.8044-1.69963 73.2381-1.98166 72.7199-2.28011ZM87.7669-1.16812L87.7669-57.6538L102.165-65.5479C102.545-65.7598 102.925-65.8821 103.289-65.8821C104.324-65.8821 105.087-65.059 105.087-64.0467L105.087-13.4885C105.087-11.4759 104.481-10.6059 102.79-9.6588L90.0567-2.46791C89.3182-2.02219 88.5196-1.59288 87.7669-1.16812Z"/>
  </g>
  <g id="Bold-M" transform="matrix(1 0 0 1 2275.43 1126)">
   <path d="M20.7549 13.7418C22.9593 13.7418 24.7639 12.9683 27.2593 11.5894L49.3203-0.408612L73.6134 13.1187C76.0797 14.4816 78.6165 15.1462 81.1196 15.1462C83.6224 15.1462 86.1305 14.4817 88.4587 13.1761L110.758 0.647318C114.863-1.63512 116.635-4.84536 116.635-9.28802L116.635-74.4902C116.635-79.4421 113.394-82.6306 108.312-82.6306C106.136-82.6306 104.326-81.7194 101.808-80.3406L79.0885-67.702L54.8188-81.974C52.5088-83.2848 49.9751-83.9259 47.4467-83.9259C45.0557-83.9259 42.6985-83.3419 40.6219-82.1453L18.3375-69.5982C14.2035-67.3158 12.4609-64.3054 12.4609-59.8914L12.4609 5.71049C12.4609 10.6624 15.7014 13.7418 20.7549 13.7418ZM43.0389-10.6039L26.0013-1.23425C25.5522-0.995446 25.1603-0.875971 24.854-0.875971C24.0365-0.875971 23.6292-1.51172 23.6292-2.42516L23.6292-56.4035C23.6292-58.1297 24.1694-58.9683 25.6957-59.8534L41.7146-68.9963C42.1846-69.2743 42.5975-69.495 43.0389-69.7626ZM54.5784-11.1972L54.5784-68.3338C55.0768-68.0713 55.609-67.7649 56.1023-67.4871L74.5171-56.6511L74.5171-0.0767796C73.9328-0.401598 73.3147-0.708062 72.7354-1.04315ZM86.028 0.386389L86.028-58.1362L103.066-67.4598C103.401-67.6415 103.735-67.761 104.042-67.761C104.859-67.761 105.438-67.1252 105.438-66.2974L105.438-12.9757C105.438-11.2495 104.898-10.3823 103.4-9.52569L88.29-0.894158C87.5629-0.444805 86.7786-0.0240738 86.028 0.386389Z"/>
  </g>
  <g id="Semibold-M" transform="matrix(1 0 0 1 1979.2 1126)">
   <path d="M19.7399 12.7521C21.6024 12.7521 23.1918 12.1052 25.3563 10.9188L48.4217-1.59672L73.7021 12.5149C75.9281 13.7407 78.225 14.341 80.4777 14.341C82.6926 14.341 84.9147 13.7596 86.9248 12.6268L110.404-0.614592C114.057-2.65514 115.678-5.55683 115.678-9.57557L115.678-74.9589C115.678-79.4295 112.885-82.1936 108.362-82.1936C106.537-82.1936 104.921-81.463 102.746-80.2766L78.8849-66.9927L53.7896-81.9878C51.7834-83.1466 49.5447-83.7169 47.3131-83.7169C45.1463-83.7169 43.0048-83.1829 41.1321-82.0967L17.7346-68.8514C14.0447-66.8109 12.4609-64.0363 12.4609-60.0546L12.4609 5.58292C12.4609 10.0536 15.2542 12.7521 19.7399 12.7521ZM43.2727-10.8977L24.4344-0.543657C24.0581-0.346421 23.7181-0.228918 23.4515-0.228918C22.7651-0.228918 22.4226-0.73549 22.4226-1.49055L22.4226-57.1162C22.4226-58.645 22.9361-59.492 24.3189-60.3044L41.8107-70.3678C42.3288-70.6729 42.7916-70.9229 43.2727-71.2138ZM53.4893-10.9886L53.4893-69.9283C53.9877-69.6633 54.5303-69.3589 55.0216-69.0726L74.6497-57.3547L74.6497 0.839389C74.0212 0.493255 73.3675 0.169952 72.7462-0.190394ZM84.8292 1.45806L84.8292-58.4688L103.686-68.7778C103.99-68.9388 104.294-69.0563 104.56-69.0563C105.228-69.0563 105.679-68.5497 105.679-67.8491L105.679-12.6221C105.679-11.0934 105.185-10.2282 103.82-9.43392L87.0721 0.190779C86.3528 0.642637 85.5784 1.05745 84.8292 1.45806Z"/>
  </g>
  <g id="Medium-M" transform="matrix(1 0 0 1 1682.85 1126)">
   <path d="M18.9703 12.0016C20.5735 12.0016 21.9998 11.4507 23.9134 10.4103L47.7404-2.49759L73.7694 12.0571C75.8131 13.1789 77.928 13.7304 79.991 13.7304C81.9876 13.7304 83.9929 13.2121 85.7617 12.2102L110.136-1.57142C113.446-3.42857 114.953-6.0963 114.953-9.79361L114.953-75.3143C114.953-79.42 112.499-81.8622 108.4-81.8622C106.84-81.8622 105.372-81.2685 103.457-80.2281L78.7305-66.4548L53.0092-81.9982C51.2334-83.0418 49.2184-83.5585 47.2119-83.5585C45.215-83.5585 43.237-83.0624 41.519-82.0599L17.2774-68.2852C13.9243-66.428 12.4609-63.8322 12.4609-60.1783L12.4609 5.48618C12.4609 9.59192 14.9151 12.0016 18.9703 12.0016ZM43.4499-11.1205L23.2463-0.0200219C22.9252 0.145697 22.6246 0.261705 22.3879 0.261705C21.801 0.261705 21.5077-0.146922 21.5077-0.781895L21.5077-57.6567C21.5077-59.0357 22.0009-59.8891 23.2749-60.6464L41.8837-71.4076C42.4381-71.7334 42.9389-72.0055 43.4499-72.3141ZM52.6635-10.8305L52.6635-71.1373C53.1619-70.8704 53.7124-70.5675 54.2022-70.2749L74.7501-57.8883L74.7501 1.53407C74.0883 1.17177 73.4075 0.835698 72.7543 0.4562ZM83.9203 2.27064L83.9203-58.721L104.157-69.7772C104.437-69.9224 104.717-70.0384 104.954-70.0384C105.508-70.0384 105.862-69.6298 105.862-69.0256L105.862-12.3541C105.862-10.975 105.402-10.1114 104.139-9.36434L86.1486 1.01342C85.4353 1.46718 84.6684 1.87751 83.9203 2.27064Z"/>
  </g>
  <g id="Regular-M" transform="matrix(1 0 0 1 1386.61 1126)">
   <path d="M17.9664 11.0227C19.2316 11.0227 20.445 10.5971 22.0313 9.74698L46.8517-3.67263L73.8572 11.4599C75.6631 12.4462 77.5408 12.9341 79.3561 12.9341C81.068 12.9341 82.7904 12.4979 84.2446 11.6669L109.786-2.81947C112.648-4.43739 114.007-6.79996 114.007-10.078L114.007-75.7778C114.007-79.4076 111.995-81.43 108.449-81.43C107.236-81.43 105.96-81.0149 104.385-80.1648L78.5291-65.7533L51.9913-82.0118C50.5161-82.9052 48.7927-83.3519 47.0798-83.3519C45.3046-83.3519 43.54-82.9052 42.0235-82.0118L16.6811-67.5466C13.7673-65.9286 12.4609-63.5661 12.4609-60.3398L12.4609 5.36001C12.4609 8.98977 14.4728 11.0227 17.9664 11.0227ZM43.6811-11.411L21.6967 0.662981C21.4474 0.78759 21.1982 0.901648 21.0008 0.901648C20.5435 0.901648 20.3144 0.620776 20.3144 0.14244L20.3144-58.3616C20.3144-59.5454 20.7812-60.4071 21.9132-61.0924L41.9788-72.764C42.5807-73.1167 43.1309-73.4177 43.6811-73.7493ZM51.5863-10.6242L51.5863-72.7142C52.0848-72.4449 52.6455-72.1439 53.1334-71.843L74.8812-58.5842L74.8812 2.44017C74.1758 2.05679 73.4598 1.70406 72.7649 1.29958ZM82.7347 3.33053L82.7347-59.0499L104.771-71.0808C105.02-71.2054 105.269-71.3194 105.467-71.3194C105.872-71.3194 106.101-71.0386 106.101-70.5602L106.101-12.0044C106.101-10.8206 105.686-9.95893 104.554-9.27358L84.944 2.08644C84.2385 2.54267 83.4813 2.94715 82.7347 3.33053Z"/>
  </g>
  <g id="Light-M" transform="matrix(1 0 0 1 1091.53 1126)">
   <path d="M17.0937 10.0987C18.1878 10.0987 19.2473 9.69026 20.5769 8.97699L45.6368-4.78484L72.283 10.6385C73.9862 11.6077 75.6757 12.0785 77.3028 12.0785C78.8607 12.0785 80.4462 11.6424 81.9346 10.7771L107.168-3.76057C109.62-5.17316 110.756-7.0224 110.756-9.95822L110.756-75.6067C110.756-78.7573 109.017-80.5231 106.088-80.5231C105.029-80.5231 103.907-80.1423 102.605-79.429L76.8522-65.1886L50.7251-81.1391C49.1814-82.0667 47.4922-82.5305 45.8307-82.5305C44.1068-82.5305 42.4106-82.0667 40.86-81.1391L16.048-66.6568C13.562-65.2442 12.4609-63.395 12.4609-60.4938L12.4609 5.15468C12.4609 8.30534 14.199 10.0987 17.0937 10.0987ZM43.1849-10.6239L20.0027 2.23719C19.7535 2.3618 19.5042 2.45874 19.2897 2.45874C18.7982 2.45874 18.5006 2.12654 18.5006 1.57976L18.5006-59.046C18.5006-60.2298 18.9161-61.0744 20.0652-61.7598L41.551-74.4751C42.1188-74.7936 42.6518-75.0774 43.1849-75.3406ZM49.2593-10.0766L49.2593-74.6478C49.7577-74.4469 50.3184-74.163 50.7892-73.8792L73.9572-59.7306L73.9572 4.16837C73.3202 3.87055 72.6556 3.55204 72.0462 3.1989ZM79.9969 4.78496L79.9969-60.0424L103.214-72.6892C103.463-72.8138 103.712-72.9107 103.927-72.9107C104.384-72.9107 104.681-72.5785 104.681-72.0318L104.681-11.3713C104.681-10.1875 104.3-9.34294 103.151-8.65759L81.9496 3.7462C81.3126 4.13399 80.6409 4.48714 79.9969 4.78496Z"/>
  </g>
  <g id="Thin-M" transform="matrix(1 0 0 1 796.964 1126)">
   <path d="M15.9396 8.87668C16.8073 8.87668 17.6631 8.49084 18.6533 7.95861L44.03-6.25583L70.201 9.55227C71.7684 10.4988 73.2089 10.947 74.5872 10.947C75.9414 10.947 77.3459 10.5109 78.8794 9.60031L103.706-5.00525C105.614-6.14627 106.456-7.3166 106.456-9.79981L106.456-75.3804C106.456-77.8974 105.08-79.3237 102.965-79.3237C102.109-79.3237 101.191-78.9881 100.251-78.4559L74.6344-64.4418L49.0504-79.985C47.4162-80.9578 45.7723-81.4443 44.1786-81.4443C42.5227-81.4443 40.917-80.9578 39.3211-79.985L15.2107-65.48C13.2904-64.339 12.4609-63.1687 12.4609-60.6975L12.4609 4.88311C12.4609 7.40011 13.8369 8.87668 15.9396 8.87668ZM42.5286-9.58293L17.7622 4.3192C17.513 4.44381 17.2638 4.51813 17.0266 4.51813C16.4899 4.51813 16.1018 4.11803 16.1018 3.48073L16.1018-59.9513C16.1018-61.135 16.4494-61.957 17.6211-62.6424L40.9853-76.7381C41.5077-77.0114 42.0182-77.2726 42.5286-77.4453ZM46.1815-9.35245L46.1815-77.205C46.6799-77.0947 47.2407-76.8334 47.6888-76.5722L72.7352-61.2468L72.7352 6.45406C72.1887 6.26939 71.5919 5.99615 71.0957 5.71089ZM76.376 6.70856L76.376-61.355L101.154-74.8165C101.404-74.9411 101.653-75.0154 101.89-75.0154C102.415-75.0154 102.803-74.6153 102.803-73.978L102.803-10.534C102.803-9.35021 102.467-8.52824 101.296-7.84289L77.9892 5.94137C77.4427 6.23864 76.8842 6.52389 76.376 6.70856Z"/>
  </g>
  <g id="Ultralight-M" transform="matrix(1 0 0 1 501.354 1126)">
   <path d="M15.3484 8.25075C16.1003 8.25075 16.8517 7.8765 17.668 7.437L43.207-7.00927L69.1346 8.99588C70.6325 9.93087 71.9455 10.3674 73.1962 10.3674C74.4461 10.3674 75.7578 9.9313 77.3146 8.99757L101.933-5.64277C103.563-6.6447 104.253-7.46728 104.253-9.71867L104.253-75.2645C104.253-77.4569 103.063-78.7093 101.365-78.7093C100.614-78.7093 99.8003-78.397 99.0459-77.9575L73.4985-64.0593L48.1927-79.3938C46.5121-80.3899 44.8914-80.8879 43.3325-80.8879C41.7113-80.8879 40.152-80.3899 38.5329-79.3938L14.7818-64.8773C13.1513-63.8753 12.4609-63.0527 12.4609-60.8018L12.4609 4.74401C12.4609 6.93646 13.6515 8.25075 15.3484 8.25075ZM42.1925-9.04973L16.6147 5.3856C16.3655 5.51021 16.1163 5.57293 15.8675 5.57293C15.3076 5.57293 14.8731 5.13806 14.8731 4.4544L14.8731-60.4149C14.8731-61.5987 15.1859-62.4091 16.3693-63.0944L40.6955-77.8973C41.1948-78.1473 41.6936-78.397 42.1925-78.5233ZM44.6051-8.98153L44.6051-78.5148C45.1035-78.4509 45.6643-78.2012 46.1008-77.9516L72.1092-62.0235L72.1092 7.62478C71.6091 7.49807 71.0471 7.24801 70.6089 6.99753ZM74.5214 7.69382L74.5214-62.0273L100.1-75.906C100.349-76.0307 100.598-76.0934 100.847-76.0934C101.406-76.0934 101.841-75.6585 101.841-74.9748L101.841-10.1051C101.841-8.92133 101.528-8.11095 100.345-7.4256L75.9608 7.06572C75.4606 7.31662 74.9601 7.56711 74.5214 7.69382Z"/>
  </g>
  <g id="Black-S" transform="matrix(1 0 0 1 2881.69 696)">
   <path d="M18.7988 5.61523C21.3867 5.61523 23.3398 4.6875 26.123 3.125L40.8691-4.98047L57.373 4.15039C59.9121 5.56641 62.5 6.25 65.0879 6.25C67.7734 6.25 70.459 5.51758 73.0957 4.05273L87.5488-3.95508C91.8945-6.34766 93.6523-9.61914 93.6523-14.1602L93.6523-64.7949C93.6523-69.873 89.9902-73.4375 84.6191-73.4375C82.0312-73.4375 80.127-72.2656 77.2949-70.7031L62.4023-62.4512L45.5078-71.7773C42.9199-73.1934 40.1855-73.877 37.4512-73.877C35.0098-73.877 32.6172-73.291 30.4688-72.0703L15.8691-64.0137C11.5234-61.6211 9.76562-58.6914 9.76562-54.1504L9.76562-2.83203C9.76562 2.24609 13.4277 5.61523 18.7988 5.61523ZM33.1055-15.1367L24.2676-10.2539C23.7305-9.96094 23.291-9.86328 22.9492-9.86328C21.9727-9.86328 21.4844-10.6934 21.4844-11.8164L21.4844-50.0488C21.4844-51.9043 21.9727-52.5391 23.5352-53.418L32.4219-58.3008C32.666-58.4473 32.8613-58.5449 33.1055-58.6914ZM45.4102-16.8945L45.4102-57.2266C45.8008-57.0312 46.1914-56.7871 46.582-56.5918L58.0078-50.293L58.0078-9.91211C57.666-10.1074 57.2754-10.3027 56.9336-10.498ZM70.3125-9.96094L70.3125-52.3926L79.1016-57.2266C79.4434-57.4219 79.7852-57.5195 80.127-57.5195C81.1523-57.5195 81.9336-56.6895 81.9336-55.7129L81.9336-18.6523C81.9336-16.7969 81.3965-16.1133 79.8828-15.2832L72.1191-10.9863C71.5332-10.6445 70.8984-10.3027 70.3125-9.96094Z"/>
  </g>
  <g id="Heavy-S" transform="matrix(1 0 0 1 2585.3 696)">
   <path d="M17.7847 4.63565C20.0153 4.63565 21.7495 3.84621 24.1985 2.47963L40.0279-6.15596L57.6727 3.58569C59.9582 4.85189 62.3041 5.46634 64.6384 5.46634C67.0243 5.46634 69.4103 4.82611 71.6897 3.55718L87.4912-5.23429C91.3875-7.38486 93.007-10.3798 93.007-14.4944L93.007-65.3366C93.007-69.9422 89.8058-73.0687 84.9764-73.0687C82.7573-73.0687 81.0489-72.0928 78.5626-70.7262L62.3908-61.7367L44.5282-71.9041C42.2861-73.1473 39.8744-73.7502 37.4627-73.7502C35.2633-73.7502 33.1012-73.2219 31.1833-72.1279L15.2814-63.2992C11.3736-61.1486 9.76562-58.4148 9.76562-54.3117L9.76562-2.94728C9.76562 1.65835 12.9668 4.63565 17.7847 4.63565ZM33.4282-15.5631L22.7463-9.68921C22.2899-9.44234 21.9081-9.34468 21.6124-9.34468C20.7856-9.34468 20.378-10.0249 20.378-10.9636L20.378-50.7518C20.378-52.3883 20.8433-53.0346 22.2444-53.8328L32.5832-59.603C32.885-59.7841 33.1379-59.9163 33.4282-60.0974ZM44.4997-16.7332L44.4997-58.7478C44.8903-58.541 45.2925-58.2968 45.6831-58.09L58.2729-50.9268L58.2729-9.11692C57.8735-9.34681 57.4367-9.56517 57.0373-9.79505ZM69.3329-8.95831L69.3329-52.6346L79.9889-58.4827C80.2962-58.655 80.6034-58.7526 80.8991-58.7526C81.7516-58.7526 82.383-58.0724 82.383-57.2456L82.383-18.3412C82.383-16.7047 81.892-16.0211 80.5282-15.2602L71.1511-9.99522C70.5651-9.6419 69.9304-9.30011 69.3329-8.95831Z"/>
  </g>
  <g id="Bold-S" transform="matrix(1 0 0 1 2288.95 696)">
   <path d="M16.6504 3.54004C18.4814 3.54004 19.9707 2.90527 22.0459 1.75781L39.0869-7.4707L58.0078 2.9541C60.0098 4.05273 62.085 4.58984 64.1357 4.58984C66.1865 4.58984 68.2373 4.05273 70.1172 3.00293L87.4268-6.66504C90.8203-8.54492 92.2852-11.2305 92.2852-14.8682L92.2852-65.9424C92.2852-70.0195 89.5996-72.6562 85.376-72.6562C83.5693-72.6562 82.0801-71.8994 79.9805-70.752L62.3779-60.9375L43.4326-72.0459C41.5771-73.0957 39.5264-73.6084 37.4756-73.6084C35.5469-73.6084 33.6426-73.1445 31.9824-72.1924L14.624-62.5C11.2061-60.6201 9.76562-58.1055 9.76562-54.4922L9.76562-3.07617C9.76562 1.00098 12.4512 3.54004 16.6504 3.54004ZM33.7891-16.04L21.0449-9.05762C20.6787-8.8623 20.3613-8.76465 20.1172-8.76465C19.458-8.76465 19.1406-9.27734 19.1406-10.0098L19.1406-51.5381C19.1406-52.9297 19.5801-53.5889 20.8008-54.2969L32.7637-61.0596C33.1299-61.2793 33.4473-61.4502 33.7891-61.6699ZM43.4814-16.5527L43.4814-60.4492C43.8721-60.2295 44.2871-59.9854 44.6777-59.7656L58.5693-51.6357L58.5693-8.22754C58.1055-8.49609 57.6172-8.74023 57.1533-9.00879ZM68.2373-7.83691L68.2373-52.9053L80.9814-59.8877C81.25-60.0342 81.5186-60.1318 81.7627-60.1318C82.4219-60.1318 82.8857-59.6191 82.8857-58.96L82.8857-17.9932C82.8857-16.6016 82.4463-15.918 81.25-15.2344L70.0684-8.88672C69.4824-8.52051 68.8477-8.17871 68.2373-7.83691Z"/>
  </g>
  <g id="Semibold-S" transform="matrix(1 0 0 1 1992.49 696)">
   <path d="M15.8684 2.78467C17.4239 2.78467 18.7443 2.25654 20.5618 1.26016L38.4382-8.37715L58.2389 2.51865C60.0453 3.50176 61.9339 3.98555 63.7892 3.98555C65.6089 3.98555 67.4286 3.51953 69.033 2.6208L87.3823-7.65146C90.4293-9.34473 91.7875-11.817 91.7875-15.1259L91.7875-66.3601C91.7875-70.0729 89.4574-72.3719 85.6515-72.3719C84.1292-72.3719 82.791-71.7661 80.958-70.7697L62.369-60.3865L42.6772-72.1437C41.0884-73.0602 39.2864-73.5106 37.4845-73.5106C35.7424-73.5106 34.0158-73.0912 32.5334-72.2368L14.1708-61.949C11.0905-60.2558 9.76562-57.8922 9.76562-54.6166L9.76562-3.16504C9.76562 0.547754 12.0957 2.78467 15.8684 2.78467ZM34.0379-16.3688L19.8719-8.62217C19.5679-8.4624 19.2949-8.36475 19.0863-8.36475C18.5427-8.36475 18.2875-8.76191 18.2875-9.35215L18.2875-52.0802C18.2875-53.3029 18.7092-53.971 19.8055-54.6168L32.8881-62.0638C33.2987-62.3102 33.6605-62.5077 34.0379-62.7541ZM42.7794-16.4283L42.7794-61.6223C43.17-61.3937 43.5939-61.1495 43.9846-60.9209L58.7737-52.1245L58.7737-7.61436C58.2654-7.90957 57.7416-8.17148 57.2333-8.4667ZM67.4819-7.06377L67.4819-53.0919L81.6657-60.8563C81.9076-60.9851 82.1495-61.0827 82.3581-61.0827C82.884-61.0827 83.2323-60.6855 83.2323-60.1419L83.2323-17.7532C83.2323-16.5305 82.8284-15.8469 81.7477-15.2166L69.3219-8.12246C68.7359-7.74736 68.1012-7.40557 67.4819-7.06377Z"/>
  </g>
  <g id="Medium-S" transform="matrix(1 0 0 1 1695.97 696)">
   <path d="M15.2754 2.21191C16.6221 2.21191 17.8145 1.76465 19.4365 0.882812L37.9463-9.06445L58.4141 2.18848C60.0723 3.08398 61.8193 3.52734 63.5264 3.52734C65.1709 3.52734 66.8154 3.11523 68.2109 2.33105L87.3486-8.39941C90.1328-9.95117 91.4102-12.2617 91.4102-15.3213L91.4102-66.6768C91.4102-70.1133 89.3496-72.1562 85.8604-72.1562C84.5537-72.1562 83.3301-71.665 81.6992-70.7832L62.3623-59.9688L42.1045-72.2178C40.7178-73.0332 39.1045-73.4365 37.4912-73.4365C35.8906-73.4365 34.2988-73.0508 32.9512-72.2705L13.8271-61.5312C11.0029-59.9795 9.76562-57.7305 9.76562-54.7109L9.76562-3.23242C9.76562 0.204102 11.8262 2.21191 15.2754 2.21191ZM34.2266-16.6182L18.9824-8.29199C18.7256-8.15918 18.4863-8.06152 18.3047-8.06152C17.8486-8.06152 17.6406-8.37109 17.6406-8.85352L17.6406-52.4912C17.6406-53.5859 18.0488-54.2607 19.0508-54.8594L32.9824-62.8252C33.4268-63.0918 33.8223-63.3096 34.2266-63.5762ZM42.2471-16.334L42.2471-62.5117C42.6377-62.2764 43.0684-62.0322 43.459-61.7969L58.9287-52.4951L58.9287-7.14941C58.3867-7.46484 57.8359-7.74023 57.2939-8.05566ZM66.9092-6.47754L66.9092-53.2334L82.1846-61.5908C82.4062-61.7061 82.6279-61.8037 82.8096-61.8037C83.2344-61.8037 83.4951-61.4941 83.4951-61.0381L83.4951-17.5713C83.4951-16.4766 83.1182-15.793 82.125-15.2031L68.7559-7.54297C68.1699-7.16113 67.5352-6.81934 66.9092-6.47754Z"/>
  </g>
  <g id="Regular-S" transform="matrix(1 0 0 1 1399.5 696)">
   <path d="M14.502 1.46484C15.5762 1.46484 16.6016 1.12305 17.9688 0.390625L37.3047-9.96094L58.6426 1.75781C60.1074 2.53906 61.6699 2.92969 63.1836 2.92969C64.5996 2.92969 66.0156 2.58789 67.1387 1.95312L87.3047-9.375C89.7461-10.7422 90.918-12.8418 90.918-15.5762L90.918-67.0898C90.918-70.166 89.209-71.875 86.1328-71.875C85.1074-71.875 84.0332-71.5332 82.666-70.8008L62.3535-59.4238L41.3574-72.3145C40.2344-72.998 38.8672-73.3398 37.5-73.3398C36.084-73.3398 34.668-72.998 33.4961-72.3145L13.3789-60.9863C10.8887-59.6191 9.76562-57.5195 9.76562-54.834L9.76562-3.32031C9.76562-0.244141 11.4746 1.46484 14.502 1.46484ZM34.4727-16.9434L17.8223-7.86133C17.627-7.76367 17.4316-7.66602 17.2852-7.66602C16.9434-7.66602 16.7969-7.86133 16.7969-8.20312L16.7969-53.0273C16.7969-53.9551 17.1875-54.6387 18.0664-55.1758L33.1055-63.8184C33.5938-64.1113 34.0332-64.3555 34.4727-64.6484ZM41.5527-16.2109L41.5527-63.6719C41.9434-63.4277 42.3828-63.1836 42.7734-62.9395L59.1309-52.9785L59.1309-6.54297C58.5449-6.88477 57.959-7.17773 57.373-7.51953ZM66.1621-5.71289L66.1621-53.418L82.8613-62.5488C83.0566-62.6465 83.252-62.7441 83.3984-62.7441C83.6914-62.7441 83.8379-62.5488 83.8379-62.207L83.8379-17.334C83.8379-16.4062 83.4961-15.7227 82.6172-15.1855L68.0176-6.78711C67.4316-6.39648 66.7969-6.05469 66.1621-5.71289Z"/>
  </g>
  <g id="Light-S" transform="matrix(1 0 0 1 1104.23 696)">
   <path d="M13.73 0.647467C14.6528 0.647467 15.542 0.320807 16.6821-0.290522L36.23-10.9448L57.25 1.03126C58.624 1.79737 60.02 2.17286 61.3672 2.17286C62.647 2.17286 63.9419 1.83106 65.0952 1.16602L84.9888-10.2075C87.0669-11.3931 88.042-13.0386 88.042-15.4702L88.042-66.9385C88.042-69.5908 86.5752-71.0728 84.044-71.0728C83.1548-71.0728 82.2168-70.7612 81.0918-70.1499L60.8701-58.9243L40.2373-71.5425C39.0537-72.2564 37.7168-72.6133 36.395-72.6133C35.0244-72.6133 33.669-72.2564 32.4668-71.5425L12.8189-60.1992C10.707-59.0137 9.76562-57.3682 9.76562-54.9702L9.76562-3.50195C9.76562-0.849605 11.2324 0.647467 13.73 0.647467ZM34.0337-16.2471L16.3237-6.46876C16.1284-6.3711 15.9331-6.28859 15.7715-6.28859C15.3994-6.28859 15.1924-6.52931 15.1924-6.93165L15.1924-53.6328C15.1924-54.5605 15.5376-55.229 16.4317-55.7661L32.7271-65.332C33.1851-65.5947 33.6094-65.8237 34.0337-66.0561ZM39.4942-15.7266L39.4942-65.3823C39.8848-65.1987 40.3242-64.9697 40.6997-64.7407L58.3135-53.9927L58.3135-5.01417C57.7881-5.28029 57.2476-5.54298 56.7373-5.83937ZM63.7403-4.42628L63.7403-54.2959L81.4839-63.9717C81.6792-64.0693 81.8745-64.1518 82.0361-64.1518C82.3745-64.1518 82.5816-63.9111 82.5816-63.5088L82.5816-16.7739C82.5816-15.8462 82.27-15.1777 81.376-14.6406L65.3687-5.31886C64.8433-4.98878 64.2842-4.69239 63.7403-4.42628Z"/>
  </g>
  <g id="Thin-S" transform="matrix(1 0 0 1 809.42 696)">
   <path d="M12.709-0.433579C13.4317-0.433579 14.1406-0.74022 14.9805-1.19139L34.8086-12.2461L55.4082 0.0703258C56.6621 0.81642 57.8379 1.17189 58.9649 1.17189C60.0645 1.17189 61.1993 0.830092 62.3926 0.125014L81.9258-11.3086C83.5235-12.2539 84.2383-13.2988 84.2383-15.3301L84.2383-66.7383C84.2383-68.8301 83.0918-70.0117 81.2813-70.0117C80.5723-70.0117 79.8145-69.7402 79.0098-69.2891L58.9082-58.2637L38.7559-70.5215C37.4922-71.2754 36.1953-71.6524 34.9336-71.6524C33.6231-71.6524 32.3477-71.2754 31.1055-70.5215L12.0781-59.1582C10.4668-58.2129 9.76562-57.168 9.76562-55.1504L9.76562-3.74218C9.76562-1.65038 10.9121-0.433579 12.709-0.433579ZM33.4531-15.3262L14.3418-4.62698C14.1465-4.52932 13.9512-4.46682 13.7696-4.46682C13.3575-4.46682 13.0703-4.7676 13.0703-5.25002L13.0703-54.4336C13.0703-55.3613 13.3555-56.0098 14.2696-56.5469L32.2266-67.334C32.6445-67.5566 33.0488-67.7656 33.4531-67.9179ZM36.7715-15.0859L36.7715-67.6445C37.1621-67.541 37.6016-67.332 37.9571-67.123L57.2324-55.334L57.2324-2.99222C56.7871-3.15823 56.3067-3.38089 55.8965-3.61722ZM60.5372-2.72463L60.5372-55.457L79.6621-65.8535C79.8574-65.9511 80.0528-66.0136 80.2344-66.0136C80.6328-66.0136 80.9199-65.7129 80.9199-65.2304L80.9199-16.0332C80.9199-15.1055 80.6485-14.457 79.7344-13.9199L61.8653-3.37698C61.42-3.12698 60.961-2.89065 60.5372-2.72463Z"/>
  </g>
  <g id="Ultralight-S" transform="matrix(1 0 0 1 513.683 696)">
   <path d="M12.1861-0.987285C12.8062-0.987285 13.4229-1.28367 14.1089-1.65282L34.0806-12.9126L54.4649-0.421858C55.6573 0.313982 56.7203 0.659198 57.7344 0.659198C58.7417 0.659198 59.7945 0.317401 61.0083-0.408185L80.357-11.8725C81.7086-12.6948 82.2901-13.4321 82.2901-15.2583L82.2901-66.6357C82.2901-68.4404 81.3077-69.4683 79.8663-69.4683C79.2496-69.4683 78.584-69.2173 77.9434-68.8482L57.9034-57.9253L37.9971-69.9986C36.6924-70.773 35.416-71.1602 34.1851-71.1602C32.9053-71.1602 31.6709-70.773 30.4082-69.9986L11.6987-58.625C10.3438-57.8027 9.76562-57.0654 9.76562-55.2427L9.76562-3.86523C9.76562-2.06053 10.7481-0.987285 12.1861-0.987285ZM33.1558-14.8545L13.3267-3.68363C13.1314-3.58597 12.9361-3.53372 12.7442-3.53372C12.3116-3.53372 11.9834-3.86527 11.9834-4.3887L11.9834-54.8437C11.9834-55.7715 12.2378-56.4097 13.1621-56.9468L31.9702-68.3593C32.3677-68.5615 32.7617-68.7602 33.1558-68.8715ZM35.377-14.7578L35.377-68.8032C35.7676-68.7407 36.2071-68.5419 36.5523-68.3432L56.6787-56.021L56.6787-1.95658C56.2744-2.07133 55.8247-2.27348 55.4658-2.47904ZM58.8965-1.85306L58.8965-56.0517L78.729-66.8173C78.9243-66.915 79.1197-66.9673 79.3116-66.9673C79.7408-66.9673 80.0689-66.6357 80.0689-66.1123L80.0689-15.6538C80.0689-14.7261 79.8179-14.0879 78.8936-13.5508L60.0709-2.38236C59.6666-2.17337 59.2588-1.96781 58.8965-1.85306Z"/>
  </g>
 </g>
</svg>
